<svg xmlns="http://www.w3.org/2000/svg" width="315.75" height="46.06" viewBox="0 0 315.75 46.06">
  <defs>
    <style>
      .cls-1 {
        fill: #5f9d7b;
        fill-rule: evenodd;
      }
    </style>
  </defs>
  <path id="COMPANY" class="cls-1" d="M1227.4,7982.04a22.932,22.932,0,0,0,23.09,22.96,21.927,21.927,0,0,0,15.55-6.21,1.209,1.209,0,0,0,.06-1.72l-3.96-4.1a1.192,1.192,0,0,0-1.6,0,15.338,15.338,0,0,1-9.79,3.65,14.486,14.486,0,0,1-14.33-14.78c0-8.06,6.08-14.9,14.27-14.9a15.174,15.174,0,0,1,9.85,3.77,1.015,1.015,0,0,0,1.6,0l3.9-4.03a1.186,1.186,0,0,0-.07-1.79,21.66,21.66,0,0,0-15.48-5.95A23.044,23.044,0,0,0,1227.4,7982.04Zm43.84,0a23,23,0,1,0,22.97-23.1A22.823,22.823,0,0,0,1271.24,7982.04Zm8.32,0a14.68,14.68,0,1,1,14.65,14.64A14.8,14.8,0,0,1,1279.56,7982.04Zm43.14,20.85a1.169,1.169,0,0,0,1.21,1.47h5.76a1.227,1.227,0,0,0,1.15-.96l3.71-24.24h0.19l11.33,25.14a1.145,1.145,0,0,0,1.08.7h1.15a1.091,1.091,0,0,0,1.09-.7l11.2-25.14h0.19l3.77,24.24a1.388,1.388,0,0,0,1.22.96h5.82a1.112,1.112,0,0,0,1.15-1.47l-7.55-42.99a1.079,1.079,0,0,0-1.15-.96H1363a1.106,1.106,0,0,0-1.09.64l-14.07,30.2h-0.2l-14.07-30.2a1.166,1.166,0,0,0-1.09-.64h-1.02a1.079,1.079,0,0,0-1.15.96Zm58.81,0.25a1.218,1.218,0,0,0,1.22,1.22h5.88a1.266,1.266,0,0,0,1.22-1.22v-15.03h7.99a14.265,14.265,0,1,0-.06-28.53h-15.03a1.218,1.218,0,0,0-1.22,1.22v42.34Zm8.32-22.83v-12.86h7.42a6.387,6.387,0,0,1,6.59,6.21,6.6,6.6,0,0,1-6.59,6.65h-7.42Zm24.84,24.05h5.56a1.932,1.932,0,0,0,1.86-1.28l3.13-6.91h19.13l3.13,6.91a1.841,1.841,0,0,0,1.86,1.28h5.56a1.13,1.13,0,0,0,1.09-1.66l-19.7-43.05a1.086,1.086,0,0,0-1.09-.71h-0.64a1.143,1.143,0,0,0-1.09.71l-19.89,43.05A1.13,1.13,0,0,0,1414.67,8004.36Zm13.69-15.29,6.26-14.07h0.2l6.39,14.07h-12.85Zm33.47,14.07a1.266,1.266,0,0,0,1.22,1.22h5.82a1.216,1.216,0,0,0,1.21-1.22v-27.5h0.07l26.74,29.36h1.53a1.205,1.205,0,0,0,1.22-1.15V7960.8a1.266,1.266,0,0,0-1.22-1.22h-5.88a1.218,1.218,0,0,0-1.22,1.22v26.42h-0.06l-26.61-28.28h-1.6a1.214,1.214,0,0,0-1.22,1.16v43.04Zm58.05,0a1.216,1.216,0,0,0,1.21,1.22h5.89a1.257,1.257,0,0,0,1.21-1.22v-20.4l14.78-21.3a1.189,1.189,0,0,0-1.03-1.86h-6.58a1.261,1.261,0,0,0-1.03.58l-10.23,14.71-10.24-14.71a1.257,1.257,0,0,0-1.02-.58h-6.52a1.189,1.189,0,0,0-1.03,1.86l14.59,21.36v20.34Z" transform="translate(-1227.41 -7958.94)"/>
</svg>
