<svg xmlns="http://www.w3.org/2000/svg" width="116.46" height="22.56" viewBox="0 0 116.46 22.56">
  <defs>
    <style>
      .cls-1 {
        fill: #5f9d7b;
        fill-rule: evenodd;
      }
    </style>
  </defs>
  <path id="会社を知る" class="cls-1" d="M1121.14,8038.77v-0.05c0-.46-0.7-0.58-0.96-0.77a2.616,2.616,0,0,1-.99-0.43,2.964,2.964,0,0,1-.96-0.48,1.832,1.832,0,0,1-.91-0.5,7.327,7.327,0,0,1-.94-0.53,1.042,1.042,0,0,1-.64-0.43,4.116,4.116,0,0,0-.65-0.46,3.734,3.734,0,0,0-.65-0.48c-0.24-.26-0.48-0.36-0.6-0.5a1.757,1.757,0,0,1-.6-0.53,4.892,4.892,0,0,1-.55-0.58,0.816,0.816,0,0,1-.53-0.6,3.948,3.948,0,0,1-.5-0.62c-0.15-.1-0.15-0.05-0.17-0.24a0.616,0.616,0,0,1,.09-0.67,0.854,0.854,0,0,0-.38-0.58,2.333,2.333,0,0,1-.91-0.31,2.477,2.477,0,0,1-.84-0.29,1.049,1.049,0,0,0-.46-0.12c-0.02,0-.05-0.02-0.07-0.02a0.859,0.859,0,0,0-.29.16,1.12,1.12,0,0,0-.55.84,3.149,3.149,0,0,1-.58.87,2.07,2.07,0,0,0-.45.62,2.813,2.813,0,0,1-.48.6c-0.17.29-.41,0.34-0.53,0.6a5.871,5.871,0,0,0-.55.58,5.641,5.641,0,0,1-.55.53,1.246,1.246,0,0,0-.58.52,3.873,3.873,0,0,0-.6.51,2.307,2.307,0,0,1-.6.48,5.126,5.126,0,0,1-.87.62,9.4,9.4,0,0,0-.86.63c-0.43.26-.62,0.38-0.91,0.55-0.31.21-.72,0.33-0.94,0.53a1.747,1.747,0,0,0-.74.38,0.82,0.82,0,0,0-.46.58v0.07a4.4,4.4,0,0,0,.55,1.13,0.768,0.768,0,0,0,.77.81,2.308,2.308,0,0,0,1.03-.45,5.081,5.081,0,0,1,.84-0.51,3.206,3.206,0,0,1,.84-0.53,2.884,2.884,0,0,0,.82-0.5,6.207,6.207,0,0,0,.72-0.58c0.29-.26.6-0.36,0.75-0.55,0.31-.09.36-0.43,0.72-0.57a4.05,4.05,0,0,0,.62-0.56c0.17-.21.34-0.26,0.62-0.55a7.112,7.112,0,0,0,.82-0.79,6.731,6.731,0,0,1,.79-0.82c0.19-.28.58-0.57,0.72-0.76a0.74,0.74,0,0,1,.75-0.2,1.668,1.668,0,0,1,.74.39,2.636,2.636,0,0,0,.7.81c0.24,0.29.6,0.48,0.81,0.77a7.622,7.622,0,0,0,.89.72c0.22,0.17.48,0.46,0.89,0.75,0.26,0.33.72,0.45,0.96,0.76a3.514,3.514,0,0,0,.93.65,1.806,1.806,0,0,0,.99.65,4.969,4.969,0,0,0,.57.34,4.344,4.344,0,0,0,.87.5,4.576,4.576,0,0,0,.91.46,1.159,1.159,0,0,0,.65.21c0.62-.05.65-0.67,0.91-0.98a2.461,2.461,0,0,1,.48-0.77,1.888,1.888,0,0,0,.12-0.22A0.2,0.2,0,0,0,1121.14,8038.77Zm-15.87,1.39a15.275,15.275,0,0,1,1.8,0,5.827,5.827,0,0,1,1.32,0,3.074,3.074,0,0,0,1.35,0,5.006,5.006,0,0,0,1.34,0,3.012,3.012,0,0,1,1.34,0,10.819,10.819,0,0,0,1.8,0,0.638,0.638,0,0,0,.65-0.77,1.408,1.408,0,0,1,0-.72,0.763,0.763,0,0,0-.79-0.79,17.242,17.242,0,0,1-1.75-.02,3.675,3.675,0,0,1-1.25-.03,8.244,8.244,0,0,1-1.34-.02c-0.56.09-.8-0.05-1.35,0-0.53.05-.86-0.07-1.32,0a10.707,10.707,0,0,1-1.7,0,0.837,0.837,0,0,0-.75.86c-0.02.15,0,.43,0,0.72A0.6,0.6,0,0,0,1105.27,8040.16Zm1.44,7.39a4.053,4.053,0,0,0,.53-0.84,7.162,7.162,0,0,0,.5-0.84,2.966,2.966,0,0,1,.99-0.98,3.651,3.651,0,0,1,1.46-.22,12.672,12.672,0,0,0,1.75,0c0.58,0.12,1.25-.09,1.76,0,0.52,0,1.05-.05,1.75,0,0.62,0.1,1.27-.07,1.85.05a11.674,11.674,0,0,0,1.87,0,0.774,0.774,0,0,0,.65-0.79c0.04-.27-0.03-0.58,0-0.84a0.694,0.694,0,0,0-.65-0.79,16.237,16.237,0,0,0-1.87.02,16.752,16.752,0,0,1-1.85.02,5.875,5.875,0,0,0-1.39,0,3.389,3.389,0,0,1-1.42,0,3.609,3.609,0,0,0-1.39,0,3.768,3.768,0,0,1-1.42,0c-0.45.05-1.01-.07-1.41,0a4.11,4.11,0,0,0-1.4,0c-0.43-.04-0.96,0-1.41,0-0.51.03-.82-0.04-1.39,0a16.6,16.6,0,0,1-1.85-.02,16.413,16.413,0,0,0-1.88-.02,0.73,0.73,0,0,0-.64.79c-0.05.33,0.04,0.57,0,.84a0.616,0.616,0,0,0,.64.79c0.56-.07,1.25.05,1.88,0a16.329,16.329,0,0,1,1.85-.05,0.736,0.736,0,0,0,.5.03c0.58-.05.79,0.33,0.62,0.62a5.815,5.815,0,0,1-.45.79,4.188,4.188,0,0,1-.53.89,5.575,5.575,0,0,0-.58.91,1.875,1.875,0,0,1-.6.6,1.56,1.56,0,0,1-1.13.29,9.808,9.808,0,0,1-1.2.03,0.67,0.67,0,0,0-.79.81,3.587,3.587,0,0,1,.22.89c0.05,0.36.19,0.53,0.26,0.94a0.3,0.3,0,0,0,.36.26h0.05a1.21,1.21,0,0,0,.58-0.36,4.222,4.222,0,0,1,1.46-.19,12.1,12.1,0,0,1,1.39-.15,6.2,6.2,0,0,1,1.42-.12l1.37-.14c0.48-.07.84-0.05,1.39-0.14,0.46,0.02.96-.15,1.39-0.15,0.48,0,1.03-.21,1.39-0.17,0.46-.09.99-0.12,1.4-0.19a3.27,3.27,0,0,0,1.39-.19,4.668,4.668,0,0,1,1.29-.17,2.515,2.515,0,0,1,1.28.39,5.959,5.959,0,0,1,.84.98,0.512,0.512,0,0,0,.52.24,1.2,1.2,0,0,0,.53-0.22,5.774,5.774,0,0,1,.72-0.57,0.623,0.623,0,0,0,.34-0.6,1.042,1.042,0,0,0-.39-0.72,1.2,1.2,0,0,0-.5-0.58,1.475,1.475,0,0,1-.53-0.5,3.3,3.3,0,0,0-.53-0.53,1.351,1.351,0,0,1-.55-0.51,3.7,3.7,0,0,0-.53-0.43,5.173,5.173,0,0,1-.57-0.48,2.334,2.334,0,0,0-.58-0.45,1.64,1.64,0,0,1-.6-0.44,1.083,1.083,0,0,0-.91-0.43,1.567,1.567,0,0,0-.5.31,1.971,1.971,0,0,1-.46.44,0.921,0.921,0,0,0-.29.52,0.841,0.841,0,0,0,.43.65,1.773,1.773,0,0,1,.36.29c0.32,0.36.08,0.53-.14,0.65a5.3,5.3,0,0,1-1.32.24,1.949,1.949,0,0,1-.94.1,9.927,9.927,0,0,1-1.68.16c-0.64.1-1.1,0.1-1.7,0.15a2.972,2.972,0,0,0-.58.05,0.726,0.726,0,0,1-.57-0.17A0.583,0.583,0,0,1,1106.71,8047.55Zm23.45-2.42a0.649,0.649,0,0,0,1.1-.03,5.914,5.914,0,0,0,.63-0.76,0.981,0.981,0,0,0,.24-0.56,1.07,1.07,0,0,0-.6-0.86,2.017,2.017,0,0,1-.7-0.58c-0.14-.16-0.53-0.36-0.74-0.57a4.35,4.35,0,0,0-1.06-.67,0.7,0.7,0,0,1-.31-0.68,6.791,6.791,0,0,1,.5-0.84,1.2,1.2,0,0,1,.46-0.69,3.881,3.881,0,0,1,.46-0.75,2.155,2.155,0,0,1,.43-0.79,1.764,1.764,0,0,1,.36-0.74c0.26-.29.38-0.65,0.55-0.77,0.1-.1.53-0.22,0.46-0.41a2.165,2.165,0,0,0-.24-0.57,6.038,6.038,0,0,0-.94-0.84,3.062,3.062,0,0,0-.43-0.2,0.6,0.6,0,0,0-.48.12,1.628,1.628,0,0,1-.75.03c-0.31.05-.43-0.19-0.57-0.53a2.968,2.968,0,0,1-.03-1.13,4.04,4.04,0,0,0,.03-1.08,0.479,0.479,0,0,1,.26-0.57,0.34,0.34,0,0,0,.24-0.34,0.458,0.458,0,0,0-.48-0.36c-0.57.02-1.17-.12-1.77-0.12a0.712,0.712,0,0,0-.63.58c-0.07.57,0.05,1.05,0,1.6,0.05,0.65-.05.84-0.02,1.49a0.678,0.678,0,0,1-.68.55,2.089,2.089,0,0,0-.76-0.02,10.789,10.789,0,0,1-1.25-.05,0.7,0.7,0,0,0-.77.79,5.763,5.763,0,0,0,0,.72,0.722,0.722,0,0,0,.77.8c0.48,0,.91.02,1.22,0.02h0.99a1.9,1.9,0,0,1,.98,0c0.19,0,.84,0,1.13-0.02a0.433,0.433,0,0,1,.38.69,2.224,2.224,0,0,1-.36.6,1.507,1.507,0,0,1-.43.65,2.962,2.962,0,0,0-.48.65,2.27,2.27,0,0,1-.5.62c-0.27.27-.36,0.48-0.51,0.63-0.14.12-.33,0.4-0.5,0.52a5.665,5.665,0,0,0-.58.56,1.742,1.742,0,0,1-.57.55,3.17,3.17,0,0,0-.6.5,1.441,1.441,0,0,0-.6.48,2.466,2.466,0,0,1-.63.53,1,1,0,0,0-.31.48v0.07a1.784,1.784,0,0,0,.34.75,1.3,1.3,0,0,0,.81,1.03,2.577,2.577,0,0,0,.6-0.29c0.12-.1.51-0.41,0.82-0.65a7.818,7.818,0,0,1,.77-0.72c0.31-.19.72-0.41,0.76,0.19a3.209,3.209,0,0,0-.02.92,4.679,4.679,0,0,0,0,1,2.812,2.812,0,0,0,0,1.01,9.264,9.264,0,0,0,0,1.49,5.353,5.353,0,0,1-.02,1.49,6.5,6.5,0,0,0,0,1.25,0.744,0.744,0,0,0,.65.79c0.04,0,.09-0.02.14-0.02a0.936,0.936,0,0,0,.34.04,3.553,3.553,0,0,0,.52-0.04h0.1c0.48,0,.6-0.2.72-0.77,0.02-.31-0.02-0.87-0.02-1.25a4.962,4.962,0,0,1,0-1.49,6.71,6.71,0,0,1,0-1.49,5.012,5.012,0,0,1-.03-1.61,1.827,1.827,0,0,1,.19-1.22c0.27-.26.41-0.14,0.68,0.1C1129.56,8044.48,1129.92,8044.89,1130.16,8045.13Zm14.83,4.82v-0.12a0.739,0.739,0,0,0-.65-0.67c-0.24-.05-0.6.03-0.81,0a7.969,7.969,0,0,0-.99,0,1.671,1.671,0,0,1-.96.03c-0.5.02-.91,0-1.34,0a1.976,1.976,0,0,1-.77-0.39,1.145,1.145,0,0,1-.38-0.69,8.06,8.06,0,0,1,0-1.3c-0.07-.39.07-0.75,0-1.23a6.215,6.215,0,0,1,0-1.22,4.978,4.978,0,0,1,0-1.22,3.372,3.372,0,0,1,0-1.23,2.8,2.8,0,0,1,0-1.29,0.827,0.827,0,0,1,.41-0.72,1.5,1.5,0,0,1,.76-0.36c0.39-.05.92,0.07,1.4,0,0.31,0.04.76,0,1.12,0.02a3.748,3.748,0,0,0,1.16,0c0.5,0.1.62-.31,0.67-0.82a3.859,3.859,0,0,0,0-.76,0.913,0.913,0,0,0-.7-0.8,0.545,0.545,0,0,1-.53,0c-0.64,0-1.17-.02-1.72,0a5.049,5.049,0,0,1-1.4,0,0.865,0.865,0,0,1-.76-0.55,1.288,1.288,0,0,1-.41-1.08c-0.05-.45,0-1.15-0.03-1.77,0.08-.44-0.12-0.94,0-1.35a3.068,3.068,0,0,1,.03-1.01,0.616,0.616,0,0,1,.24-0.48,0.466,0.466,0,0,0,.26-0.48,0.407,0.407,0,0,0-.45-0.28,9.223,9.223,0,0,1-.94-0.08c-0.31-.07-0.74,0-0.98-0.04a0.561,0.561,0,0,0-.65.64,5.3,5.3,0,0,1,0,1.49c0.05,0.53-.05,1.06.02,1.49a16.665,16.665,0,0,0,0,1.87,8.736,8.736,0,0,1-.31,1.08,0.826,0.826,0,0,1-.6.55,1.725,1.725,0,0,1-1.1,0,8.459,8.459,0,0,1-1.13,0c-0.29-.02-0.79.05-1.13,0a0.684,0.684,0,0,0-.67.8,1.623,1.623,0,0,0,0,.76,0.862,0.862,0,0,0,.67.82c0.34,0.07.82-.05,1.13,0a6.014,6.014,0,0,1,1.13-.02,3.123,3.123,0,0,1,1.1,0,0.889,0.889,0,0,1,.6.36,1.942,1.942,0,0,1,.31.72,5.458,5.458,0,0,1,0,1.29c0.05,0.41-.05.91,0,1.23-0.09.5,0.05,0.72,0,1.22a4.98,4.98,0,0,1,0,1.22,7.215,7.215,0,0,0,0,1.23c-0.02.36-.02,0.84-0.05,1.3a1.288,1.288,0,0,1-.48.69,1.68,1.68,0,0,1-1.03.39,17.371,17.371,0,0,1-1.77,0c-0.58-.08-0.84.07-1.37-0.03a8.064,8.064,0,0,1-1.39,0,0.71,0.71,0,0,0-.68.79c-0.02.29,0,.46,0,0.8a0.622,0.622,0,0,0,.68.79c0.45,0.09.84-.07,1.39,0,0.38,0.12,1.01-.12,1.37-0.03a1.95,1.95,0,0,0,1.03,0,3.231,3.231,0,0,0,1.03,0c0.26,0.12.72-.09,1.06,0a2.38,2.38,0,0,0,1.03,0,2.844,2.844,0,0,1,1.05,0c0.27-.02.6,0.05,1.04,0,0.43,0.08.57-.09,1.05,0a8.729,8.729,0,0,0,1.03,0,3.735,3.735,0,0,0,1.37.03,3.424,3.424,0,0,0,1.39,0,0.636,0.636,0,0,0,.65-0.72v-0.07a1.679,1.679,0,0,1-.02-0.29C1144.97,8050.29,1144.99,8050.17,1144.99,8049.95Zm21.77-10.41c-0.26-.27-0.34-0.41-0.55-0.6a3.134,3.134,0,0,1-.63-0.63,0.959,0.959,0,0,0-.62-0.33,2.965,2.965,0,0,0-1.25.48,5.01,5.01,0,0,1-.77.38,3.814,3.814,0,0,1-.57.29,4.449,4.449,0,0,1-.7.31,5.325,5.325,0,0,1-.69.29,1.053,1.053,0,0,1-.89.07,1.013,1.013,0,0,1-.53-0.58,1.251,1.251,0,0,0-.5-0.76,6.181,6.181,0,0,0-.8-0.6c-0.36-.05-0.43-0.24-0.76-0.27a1.427,1.427,0,0,0-.82-0.09,6.944,6.944,0,0,0-1.32.19c-0.29.07-.6-0.24-0.26-0.58a2.731,2.731,0,0,0,.28-0.41,1.289,1.289,0,0,1,.34-0.6,5.467,5.467,0,0,0,.38-0.52,1.516,1.516,0,0,1,.77-0.36c0.31,0,.6-0.03,1.11-0.05,0.55-.03.93-0.05,1.41-0.12,0.53-.03,1.11-0.12,1.71-0.17,0.31-.02.64-0.19,0.88-0.19a1.827,1.827,0,0,0,.8-0.22,0.627,0.627,0,0,0,.45-0.31,0.884,0.884,0,0,0-.05-0.55,5.912,5.912,0,0,1-.16-0.77,0.683,0.683,0,0,0-.51-0.5,0.893,0.893,0,0,0-.6.07c-0.24.09-.57,0.05-0.96,0.17-0.29.09-.74,0.09-1.13,0.16s-0.69.1-1.1,0.15c-0.48,0-.98-0.31-0.74-0.75l0.02-.16a5.164,5.164,0,0,1,.48-0.92,1.791,1.791,0,0,0,.48-0.48,0.387,0.387,0,0,0-.34-0.48c-0.28-.04-0.5-0.12-0.74-0.14a4.349,4.349,0,0,1-.89-0.19,0.208,0.208,0,0,0-.12-0.05c-0.05,0-.09.02-0.17,0.02a0.544,0.544,0,0,0-.62.46,1.268,1.268,0,0,0-.26.67,7.056,7.056,0,0,1-.32.75,3.047,3.047,0,0,1-.48.91,1.215,1.215,0,0,1-1.1.57c-0.34.12-.65-0.09-1.03,0a2.3,2.3,0,0,1-1.03-.04,10.842,10.842,0,0,1-1.37-.1,0.68,0.68,0,0,0-.75.79,3.239,3.239,0,0,0-.02.82,0.711,0.711,0,0,0,.36.69,3.812,3.812,0,0,0,.91.15c0.34-.03.65,0,0.91,0l0.68,0.02a0.425,0.425,0,0,1,.5.51,1.2,1.2,0,0,1-.48.74c-0.19.29-.31,0.41-0.55,0.77a5.951,5.951,0,0,1-.77.93,10.126,10.126,0,0,0-.82.94,8.372,8.372,0,0,1-.86.89,7.522,7.522,0,0,1-.72.67,0.87,0.87,0,0,0-.51.74v0.05a0.9,0.9,0,0,0,.32.51,3.129,3.129,0,0,0,.91.79,0.87,0.87,0,0,0,.86.05,7.092,7.092,0,0,0,.58-0.65,2.149,2.149,0,0,1,.67-0.63,2.208,2.208,0,0,1,.41-0.45,4.557,4.557,0,0,1,.53-0.43,2.4,2.4,0,0,1,.72-0.53,3.973,3.973,0,0,1,1.1-.55,4.348,4.348,0,0,1,1.39-.27,1.772,1.772,0,0,1,1.2.43,1.161,1.161,0,0,1,.36.7,0.848,0.848,0,0,1-.4.79c-0.32.27-.44,0.19-0.84,0.48a3.323,3.323,0,0,0-.99.55,4.244,4.244,0,0,0-.93.63,7.374,7.374,0,0,0-.92.72c-0.6.24-.4,0.62-0.74,0.77a3.84,3.84,0,0,0-.62.88,1.738,1.738,0,0,0-.41,1.01,1.717,1.717,0,0,0-.15,1.13,2.117,2.117,0,0,0,.2,1.37,1.181,1.181,0,0,0,.5,1.01,2.824,2.824,0,0,0,.77.74,9.542,9.542,0,0,0,.96.48,3.2,3.2,0,0,0,1.1.31,7.687,7.687,0,0,0,1.2.15c0.39,0,.75.07,1.03,0.07h0.29c0.19,0,.39.02,0.63,0.02h0.04a2.751,2.751,0,0,0,.39-0.02l1.87-.02a3.788,3.788,0,0,1,.6.02,0.829,0.829,0,0,0,.34-0.07,5.356,5.356,0,0,1,1.03-.03c0.45-.19.93,0.05,1.39-0.16,0.41-.2.84-0.1,1.42-0.29a0.728,0.728,0,0,0,.64-0.77c0-.41.05-0.82,0.05-1.34a0.623,0.623,0,0,0-.69-0.53,4.794,4.794,0,0,1-.87.19c-0.41.05-.6,0.1-0.86,0.14a5.3,5.3,0,0,1-1.3.15,3.081,3.081,0,0,1-1.32.09,2.707,2.707,0,0,1-1.32.05c-0.43.12-.98-0.05-1.32,0.03a8.749,8.749,0,0,1-1.56-.05,2.6,2.6,0,0,1-1.53-.29,0.939,0.939,0,0,1-.75-0.48,1.265,1.265,0,0,1-.29-0.84,1.873,1.873,0,0,1,.39-1.27,5.159,5.159,0,0,1,.91-1.01,4.386,4.386,0,0,1,1.03-.79,0.878,0.878,0,0,1,.99-0.41,0.488,0.488,0,0,1,.24.6,4.493,4.493,0,0,0,.02.67,10,10,0,0,1-.02,1.22,0.743,0.743,0,0,0,.86.77,2.811,2.811,0,0,0,.82,0c0.52-.07.86-0.09,0.84-0.74a2.715,2.715,0,0,0-.03-0.79c-0.07-.22.05-0.46,0-0.77a3.41,3.41,0,0,0-.02-0.7,4.38,4.38,0,0,1,0-.81,0.855,0.855,0,0,1,.41-0.94,2.362,2.362,0,0,1,.72-0.31,3.084,3.084,0,0,1,.69-0.31,4.172,4.172,0,0,1,.7-0.32,1.848,1.848,0,0,1,.72-0.28,2.681,2.681,0,0,1,.69-0.29c0.32-.03.39-0.22,0.72-0.27a5.689,5.689,0,0,1,.7-0.26,6.432,6.432,0,0,1,.74-0.24c0.27-.02.82,0.02,0.82-0.31A0.655,0.655,0,0,0,1166.76,8039.54Zm16.15,1.29a0.711,0.711,0,0,0-.65-0.86,11.024,11.024,0,0,1-1.15,0,4.741,4.741,0,0,1-1.13,0c-0.24-.07-0.69.05-0.93,0a0.7,0.7,0,0,1-.79-0.63,4.122,4.122,0,0,0,0-.74,7.751,7.751,0,0,1,0-1.37,1.017,1.017,0,0,1,.86-1.17,4.8,4.8,0,0,0,1.13.02,1.878,1.878,0,0,0,1.15,0,0.616,0.616,0,0,0,.65-0.79,2.615,2.615,0,0,1,0-.79,0.662,0.662,0,0,0-.67-0.8c-0.41-.04-0.82.05-1.13,0-0.36,0-.84.03-1.13,0.03-0.43.12-.74-0.03-1.03,0.07-0.46-.1-0.84.02-1.13-0.07a3.232,3.232,0,0,1-.86.07,1.215,1.215,0,0,1-.8-0.34,0.939,0.939,0,0,1,.03-0.93c0.05-.17.17-0.63,0.24-0.84a0.846,0.846,0,0,1,.26-0.72,1.294,1.294,0,0,0,.55-0.43c0.1-.24-0.19-0.36-0.45-0.39a12.563,12.563,0,0,0-1.49-.36,1.411,1.411,0,0,0-.31-0.07,0.872,0.872,0,0,0-.2.02,0.6,0.6,0,0,0-.48.72,3.913,3.913,0,0,1-.24.84c-0.16.39-.09,0.48-0.24,0.87a2.771,2.771,0,0,1-.28.84,3.894,3.894,0,0,0-.32.81,3.988,3.988,0,0,1-.36.8c-0.16.38-.26,0.43-0.38,0.79a2.827,2.827,0,0,0-.43.77,7.192,7.192,0,0,0-.48.74,2.127,2.127,0,0,0-.36.74v0.05a1.368,1.368,0,0,0,.53.79c0.38,0.39.45,0.82,0.79,0.75a0.713,0.713,0,0,0,.69-0.55,5.757,5.757,0,0,1,.44-0.65,2.036,2.036,0,0,0,.38-0.67l0.38-.65a1.06,1.06,0,0,1,.94-0.63,2.418,2.418,0,0,1,.6.03,0.649,0.649,0,0,1,.63.74c0.04,0.48-.05,1.11-0.03,1.42a1.723,1.723,0,0,1,0,.93,0.922,0.922,0,0,1-.82.8c-0.4.02-.93-0.05-1.36-0.05a2.69,2.69,0,0,1-1.13,0c-0.48-.12-0.72.09-1.13,0a0.71,0.71,0,0,0-.67.79,1.993,1.993,0,0,0,0,.77c0.05,0.45.12,0.89,0.65,0.79,0.33,0.07.84-.05,1.15,0,0.48-.05.81,0.02,1.13,0a3.546,3.546,0,0,0,1.17.05,0.981,0.981,0,0,1,.58.91,5.774,5.774,0,0,0-.31,1.08,1.706,1.706,0,0,1-.36.94,4.319,4.319,0,0,0-.46.88,4.212,4.212,0,0,1-.53.82c-0.29.31-.43,0.6-0.62,0.77a5.286,5.286,0,0,1-.7.72,9.445,9.445,0,0,0-.77.6,6.669,6.669,0,0,0-.64.48,0.766,0.766,0,0,0-.41.65,1.841,1.841,0,0,0,.53.98,1.152,1.152,0,0,0,.79.67,0.11,0.11,0,0,0,.09.03,1.131,1.131,0,0,0,.65-0.36,7.454,7.454,0,0,1,.67-0.53,8.723,8.723,0,0,0,.89-0.77,3.272,3.272,0,0,0,.84-0.81c0.34-.36.48-0.58,0.77-0.89a2.323,2.323,0,0,1,.67-0.96,1.67,1.67,0,0,1,.34-0.65,0.935,0.935,0,0,1,1.32.05,4.079,4.079,0,0,1,.65.74l0.74,0.91c0.15,0.29.53,0.7,0.7,1.01,0.14,0.12.36,0.51,0.6,0.39,0.24,0.04.26,0,.5-0.24a2.415,2.415,0,0,0,.89-0.77,0.673,0.673,0,0,0,.34-0.63,0.365,0.365,0,0,0-.1-0.38,1.538,1.538,0,0,1-.48-0.67,2.392,2.392,0,0,1-.5-0.63,5.407,5.407,0,0,1-.56-0.62,2.15,2.15,0,0,1-.57-0.55,2.183,2.183,0,0,0-.55-0.53,2.9,2.9,0,0,1-.6-0.51,4.006,4.006,0,0,1-.63-0.52,0.792,0.792,0,0,1-.5-0.53,0.887,0.887,0,0,1,.05-0.65,0.848,0.848,0,0,1,.84-0.48,2.784,2.784,0,0,0,1.12,0,2.529,2.529,0,0,0,1.13,0,4.412,4.412,0,0,0,1.15,0c0.34,0.07.6-.22,0.65-0.74C1183.01,8041.36,1182.82,8041.1,1182.91,8040.83Zm9.15,2.93a1.1,1.1,0,0,0,.02-0.24,4.944,4.944,0,0,1-.02-0.86,3.267,3.267,0,0,1,0-1.13,2.756,2.756,0,0,1,0-1.11,0.749,0.749,0,0,0,.02-0.21,2.6,2.6,0,0,1-.02-0.89,5.045,5.045,0,0,1,0-1.1,3.181,3.181,0,0,1,0-1.11c0-.17.02-0.53,0.02-0.79v-0.17a3.131,3.131,0,0,1,0-.81v-0.12c0-.08-0.02-0.15-0.02-0.24,0-.27.04-0.56,0.04-0.75a0.944,0.944,0,0,0-.67-0.96,1.184,1.184,0,0,1-.77,0,3.67,3.67,0,0,1-1.44,0,8.52,8.52,0,0,1-1.44,0c-0.36-.05-1.03.05-1.41,0a4.344,4.344,0,0,0-1.44,0,1.666,1.666,0,0,0-.77,0,0.663,0.663,0,0,0-.67.63c0.09,0.45-.12,1,0.02,1.63,0.07,0.62-.02,1.03,0,1.58a2.5,2.5,0,0,0,0,1.25,8.667,8.667,0,0,1,0,1.25,8.687,8.687,0,0,0,0,1.25,6.69,6.69,0,0,1,0,1.27,6.473,6.473,0,0,1,0,1.25,3.39,3.39,0,0,0,0,1.27,10.423,10.423,0,0,0,0,1.25,3.686,3.686,0,0,0,0,1.24,15.134,15.134,0,0,1-.02,1.81,6.525,6.525,0,0,0,0,1.82,0.6,0.6,0,0,0,.81.65,1.272,1.272,0,0,0,.94,0,0.772,0.772,0,0,0,.82-0.79,4.142,4.142,0,0,1,.02-1.11,0.65,0.65,0,0,1,.55-0.57,1.453,1.453,0,0,1,1.08-.29,9.088,9.088,0,0,0,1.01.05,0.97,0.97,0,0,1,.79.28,1.121,1.121,0,0,1,.03.46,0.684,0.684,0,0,0,.81.79,3.084,3.084,0,0,0,.96,0,0.579,0.579,0,0,0,.77-0.65,3.17,3.17,0,0,0,.02-0.45c0-.31-0.02-0.65-0.02-1.01v-0.36a6.045,6.045,0,0,1-.02-1.8,2.739,2.739,0,0,1,0-1.11,1.374,1.374,0,0,0,.04-0.31A6.738,6.738,0,0,1,1192.06,8043.76Zm-2.55-4.92a4.359,4.359,0,0,0,0,1.25c0.03,0.38-.05.93,0,1.27,0.1,0.31-.09.79,0,1.25a4.5,4.5,0,0,0,0,1.27c-0.02.43-.05,1.22-0.02,1.61a0.816,0.816,0,0,1-.75.91,7.664,7.664,0,0,1-1.08,0,1.659,1.659,0,0,1-1.08-.19,1.2,1.2,0,0,1-.48-0.72c0-.48.03-1.18-0.02-1.61,0-.43.02-0.84,0-1.27a7.441,7.441,0,0,1,0-1.25,10.762,10.762,0,0,0,0-1.27,4.361,4.361,0,0,1,0-1.25,5.989,5.989,0,0,0,0-1.27c-0.05-.31.02-0.58,0-1.03a0.82,0.82,0,0,1,.72-0.92,3.189,3.189,0,0,0,.98,0c0.29,0,.8-0.02,1.01,0a0.787,0.787,0,0,1,.72.92,3.553,3.553,0,0,1,0,1.03C1189.51,8037.95,1189.54,8038.48,1189.51,8038.84Zm25.23,4.37a2.563,2.563,0,0,0-.32-1.11,4.5,4.5,0,0,0-.5-1.03,5.679,5.679,0,0,0-.79-0.89c-0.19-.12-0.29-0.28-0.55-0.43a3.916,3.916,0,0,1-.6-0.38c-0.32-.22-0.96-0.36-1.3-0.58-0.58-.09-0.86-0.31-1.39-0.36a10.079,10.079,0,0,0-1.42-.12c-0.43.03-.79,0.05-1.03,0.07-0.43.08-.6,0.1-0.94,0.17-0.36.05-.64-0.29-0.21-0.74a3.266,3.266,0,0,1,.55-0.46,1.366,1.366,0,0,1,.36-0.36c0.31-.17.26-0.36,0.5-0.45a3.03,3.03,0,0,1,.53-0.48,3.615,3.615,0,0,0,.51-0.48,2.281,2.281,0,0,1,.52-0.46c0.22-.24.65-0.58,0.92-0.84a12.536,12.536,0,0,1,1-.79,1.862,1.862,0,0,0,.82-0.55,0.518,0.518,0,0,0-.19-0.58c-0.27-.17-0.34-0.43-0.58-0.6a3.1,3.1,0,0,1-.6-0.6,0.664,0.664,0,0,0-.69-0.36h-0.08c-0.24,0-.31.1-0.88,0.14a13.035,13.035,0,0,0-1.52.15c-0.55.07-.98,0.12-1.53,0.14-0.58.03-1.08,0.17-1.68,0.17a8.069,8.069,0,0,0-1.35.12c-0.36.12-.74-0.1-1.15,0.02a5.3,5.3,0,0,1-1.44.05,0.652,0.652,0,0,0-.74.82c0.12,0.36,0,.79.14,1.15a0.661,0.661,0,0,0,.65.7,4.029,4.029,0,0,0,.94-0.12,5.431,5.431,0,0,0,.91-0.12c0.26-.12.6,0,0.89-0.15,0.31-.17.69,0.03,0.98-0.12a5.251,5.251,0,0,1,.98-0.14,6.569,6.569,0,0,1,1.01-.15c0.39-.07,1.01-0.31,1.18.15a0.665,0.665,0,0,1-.31.57c-0.22.39-.34,0.22-0.53,0.56a1.743,1.743,0,0,0-.43.43,1.467,1.467,0,0,1-.53.43,2.89,2.89,0,0,1-.48.5,3.834,3.834,0,0,0-.53.48,6.139,6.139,0,0,0-.6.48,1.866,1.866,0,0,1-.55.48,4.589,4.589,0,0,1-.39.39c-0.28.14-.31,0.31-0.57,0.45a5.152,5.152,0,0,1-.67.58,1.95,1.95,0,0,1-.53.43c-0.27.05-.22,0.31-0.58,0.43-0.31.1-.38,0.39-0.65,0.44a2.092,2.092,0,0,1-.6.4c-0.14.12-.33,0.24-0.62,0.44a0.573,0.573,0,0,0-.34.5v0.1a0.785,0.785,0,0,0,.17.45c0.24,0.39.38,0.53,0.6,0.89a0.694,0.694,0,0,0,.87.36,1.7,1.7,0,0,0,.4-0.24c0.2-.22.32-0.17,0.68-0.48a4.378,4.378,0,0,1,.98-0.53,1.876,1.876,0,0,1,.7-0.36,1.08,1.08,0,0,1,.67-0.29,1.794,1.794,0,0,1,.74-0.28,9.124,9.124,0,0,0,1.06-.29c0.48-.1.62-0.12,1.22-0.27a10.248,10.248,0,0,1,1.54-.12,7.156,7.156,0,0,0,.89.05c0.36,0,.52.15,0.86,0.17a1.158,1.158,0,0,1,.77.26,1.124,1.124,0,0,1,.69.41c0.15,0.24.32,0.15,0.58,0.51a1.876,1.876,0,0,1,.48.69,2.152,2.152,0,0,1,.26.7c-0.02.38,0.1,0.5,0.1,0.93a2.7,2.7,0,0,1-.14,1.06,5.533,5.533,0,0,1-.39.96c-0.31.36-.33,0.5-0.6,0.84a5.63,5.63,0,0,1-.62.65,5.1,5.1,0,0,1-.77.5c-0.34.22-1.25,0.39-1.3-.33a3.157,3.157,0,0,0-.36-1.56,2.274,2.274,0,0,0-.38-0.6c-0.24-.12-0.24-0.36-0.5-0.51a2.654,2.654,0,0,0-.6-0.38c-0.27-.05-0.48-0.24-0.68-0.27a13.52,13.52,0,0,0-1.41-.16,5.379,5.379,0,0,0-1.59.19,2.637,2.637,0,0,0-1.22.65,3.706,3.706,0,0,0-.86,1.05,3.339,3.339,0,0,0-.32,1.44,4.554,4.554,0,0,1,.12,1.01,5.164,5.164,0,0,0,.36.82,1.562,1.562,0,0,0,.53.65,1.9,1.9,0,0,0,.7.48,2.1,2.1,0,0,0,.81.33,1.728,1.728,0,0,0,.87.22,4.215,4.215,0,0,0,.91.12c0.19,0.02.62,0,.89,0.05a11.55,11.55,0,0,0,1.65-.1,4.6,4.6,0,0,1,.82-0.12,1.9,1.9,0,0,0,.82-0.19,5.814,5.814,0,0,0,.81-0.22,2.457,2.457,0,0,0,.77-0.29c0.22,0,.41-0.31.74-0.33a1.956,1.956,0,0,0,.7-0.41c0.26-.24.36-0.19,0.65-0.46a3.959,3.959,0,0,0,.6-0.52,1.839,1.839,0,0,0,.5-0.58,5.9,5.9,0,0,0,.46-0.65,3.341,3.341,0,0,1,.36-0.7,7.3,7.3,0,0,0,.26-0.79,3.158,3.158,0,0,1,.17-0.81c0-.17.07-0.46,0.07-0.8v-0.12a3.784,3.784,0,0,1-.02-0.45v-0.34C1214.78,8043.5,1214.78,8043.35,1214.74,8043.21Zm-10.01,6.02a3.616,3.616,0,0,1-1.23-.21,1.473,1.473,0,0,1-.72-0.41,1.1,1.1,0,0,1-.31-0.87,1.074,1.074,0,0,1,.1-0.52,1.3,1.3,0,0,1,.41-0.44,2.136,2.136,0,0,1,.48-0.24,5.011,5.011,0,0,1,.6-0.04,2.685,2.685,0,0,1,.72.09,1.742,1.742,0,0,1,.55.41,1.162,1.162,0,0,1,.33.55,1.2,1.2,0,0,1,.12.72,1.082,1.082,0,0,1-.19.68A1.173,1.173,0,0,1,1204.73,8049.23Z" transform="translate(-1098.38 -8029.56)"/>
</svg>
