<svg xmlns="http://www.w3.org/2000/svg" width="135" height="18.68" viewBox="0 0 135 18.68">
  <defs>
    <style>
      .cls-1 {
        fill: #5f9d7b;
        fill-rule: evenodd;
      }
    </style>
  </defs>
  <path id="COMPANY" class="cls-1" d="M41.585,1461.03a9.313,9.313,0,0,0,9.381,9.32,8.9,8.9,0,0,0,6.315-2.52,0.493,0.493,0,0,0,.026-0.7l-1.611-1.66a0.476,0.476,0,0,0-.65,0,6.256,6.256,0,0,1-3.976,1.48,6.034,6.034,0,0,1-.026-12.06,6.111,6.111,0,0,1,4,1.54,0.427,0.427,0,0,0,.65,0l1.585-1.64a0.486,0.486,0,0,0-.026-0.73,8.82,8.82,0,0,0-6.289-2.42A9.366,9.366,0,0,0,41.585,1461.03Zm19.032,0a9.343,9.343,0,1,0,9.33-9.39A9.269,9.269,0,0,0,60.617,1461.03Zm3.378,0a5.964,5.964,0,1,1,5.951,5.95A6.014,6.014,0,0,1,64,1461.03Zm18.825,8.47a0.472,0.472,0,0,0,.494.59h2.339a0.5,0.5,0,0,0,.468-0.38l1.507-9.85h0.078l4.6,10.21a0.471,0.471,0,0,0,.442.28h0.468a0.445,0.445,0,0,0,.442-0.28l4.548-10.21h0.078l1.533,9.85a0.557,0.557,0,0,0,.494.38h2.365a0.447,0.447,0,0,0,.467-0.59l-3.066-17.47a0.444,0.444,0,0,0-.468-0.39H99.192a0.457,0.457,0,0,0-.442.26l-5.717,12.27H92.955l-5.717-12.27a0.484,0.484,0,0,0-.442-0.26H86.381a0.444,0.444,0,0,0-.468.39Zm25.193,0.1a0.49,0.49,0,0,0,.494.49H110.9a0.508,0.508,0,0,0,.494-0.49v-6.11h3.248a5.8,5.8,0,1,0-.026-11.59h-6.107a0.5,0.5,0,0,0-.494.5v17.2Zm3.379-9.28v-5.22h3.014a2.592,2.592,0,0,1,2.677,2.52,2.679,2.679,0,0,1-2.677,2.7h-3.014Zm10.376,9.77h2.261a0.776,0.776,0,0,0,.754-0.51l1.273-2.81h7.771l1.273,2.81a0.743,0.743,0,0,0,.754.51h2.261a0.454,0.454,0,0,0,.441-0.67l-8-17.49a0.44,0.44,0,0,0-.442-0.29h-0.259a0.465,0.465,0,0,0-.442.29l-8.082,17.49A0.454,0.454,0,0,0,121.768,1470.09Zm5.562-6.21,2.547-5.71h0.078l2.6,5.71H127.33Zm14.9,5.72a0.508,0.508,0,0,0,.494.49h2.365a0.49,0.49,0,0,0,.494-0.49v-11.17h0.026l10.862,11.92h0.624a0.482,0.482,0,0,0,.494-0.46V1452.4a0.517,0.517,0,0,0-.494-0.5H154.7a0.5,0.5,0,0,0-.493.5v10.73h-0.026l-10.811-11.49h-0.65a0.491,0.491,0,0,0-.494.47v17.49Zm24.881,0a0.489,0.489,0,0,0,.493.49h2.391a0.508,0.508,0,0,0,.494-0.49v-8.29l6-8.65a0.485,0.485,0,0,0-.416-0.76H173.4a0.506,0.506,0,0,0-.416.24l-4.158,5.97-4.158-5.97a0.506,0.506,0,0,0-.416-0.24H161.6a0.486,0.486,0,0,0-.416.76l5.926,8.68v8.26Z" transform="translate(-41.594 -1451.66)"/>
</svg>
