<svg xmlns="http://www.w3.org/2000/svg" width="118" height="12" viewBox="0 0 118 12">
  <defs>
    <style>
      .cls-1 {
        fill: #5f9d7b;
        fill-rule: evenodd;
      }
    </style>
  </defs>
  <path id="COMPANY_INFO" data-name="COMPANY INFO" class="cls-1" d="M469.686,8533.44a5.734,5.734,0,0,0,5.778,5.74,5.477,5.477,0,0,0,3.89-1.55,0.3,0.3,0,0,0,.016-0.43l-0.993-1.03a0.3,0.3,0,0,0-.4,0,3.814,3.814,0,0,1-2.449.92,3.718,3.718,0,0,1-.016-7.43,3.792,3.792,0,0,1,2.465.94,0.254,0.254,0,0,0,.4,0l0.977-1a0.3,0.3,0,0,0-.016-0.45,5.4,5.4,0,0,0-3.874-1.49A5.768,5.768,0,0,0,469.686,8533.44Zm10.64,0a5.754,5.754,0,1,0,5.746-5.78A5.707,5.707,0,0,0,480.326,8533.44Zm2.081,0a3.674,3.674,0,1,1,3.665,3.66A3.7,3.7,0,0,1,482.407,8533.44Zm10.463,5.22a0.288,0.288,0,0,0,.3.36h1.44a0.3,0.3,0,0,0,.288-0.24l0.929-6.06h0.048l2.833,6.29a0.292,0.292,0,0,0,.272.17h0.288a0.276,0.276,0,0,0,.272-0.17l2.8-6.29h0.048l0.945,6.06a0.336,0.336,0,0,0,.3.24H505.1a0.273,0.273,0,0,0,.288-0.36L503.5,8527.9a0.268,0.268,0,0,0-.288-0.24h-0.256a0.27,0.27,0,0,0-.272.16l-3.522,7.55h-0.048l-3.521-7.55a0.285,0.285,0,0,0-.272-0.16h-0.257a0.268,0.268,0,0,0-.288.24Zm14.384,0.06a0.3,0.3,0,0,0,.3.3h1.472a0.312,0.312,0,0,0,.305-0.3v-3.76h2a3.57,3.57,0,1,0-.016-7.14h-3.761a0.3,0.3,0,0,0-.3.3v10.6Zm2.081-5.72v-3.21h1.856a1.6,1.6,0,0,1,1.649,1.55,1.648,1.648,0,0,1-1.649,1.66h-1.856Zm5.886,6.02h1.393a0.482,0.482,0,0,0,.464-0.32l0.784-1.73h4.786l0.784,1.73a0.454,0.454,0,0,0,.465.32h1.392a0.278,0.278,0,0,0,.272-0.41l-4.93-10.78a0.276,0.276,0,0,0-.272-0.17H520.2a0.292,0.292,0,0,0-.272.17l-4.978,10.78A0.278,0.278,0,0,0,515.221,8539.02Zm3.425-3.82,1.569-3.52h0.048l1.6,3.52h-3.218Zm8.048,3.52a0.311,0.311,0,0,0,.3.3h1.456a0.3,0.3,0,0,0,.3-0.3v-6.88h0.016l6.691,7.34h0.384a0.294,0.294,0,0,0,.3-0.28v-10.78a0.311,0.311,0,0,0-.3-0.3h-1.472a0.3,0.3,0,0,0-.3.3v6.61h-0.016l-6.658-7.07H527a0.3,0.3,0,0,0-.3.29v10.77Zm14.192,0a0.3,0.3,0,0,0,.3.3h1.473a0.311,0.311,0,0,0,.3-0.3v-5.11l3.7-5.33a0.293,0.293,0,0,0-.256-0.46H544.76a0.326,0.326,0,0,0-.256.14l-2.561,3.68-2.561-3.68a0.326,0.326,0,0,0-.256-0.14h-1.633a0.293,0.293,0,0,0-.256.46l3.649,5.35v5.09Zm10.079,0a0.311,0.311,0,0,0,.3.3h1.489a0.311,0.311,0,0,0,.3-0.3v-10.6a0.311,0.311,0,0,0-.3-0.3h-1.489a0.311,0.311,0,0,0-.3.3v10.6Zm4.688,0a0.311,0.311,0,0,0,.3.3h1.457a0.3,0.3,0,0,0,.3-0.3v-6.88h0.016l6.691,7.34h0.384a0.294,0.294,0,0,0,.3-0.28v-10.78a0.311,0.311,0,0,0-.3-0.3h-1.473a0.3,0.3,0,0,0-.3.3v6.61h-0.016l-6.659-7.07h-0.4a0.3,0.3,0,0,0-.3.29v10.77Zm12.048,0a0.3,0.3,0,0,0,.3.3h1.473a0.311,0.311,0,0,0,.3-0.3v-4.05h3.953a0.311,0.311,0,0,0,.3-0.3v-1.32a0.311,0.311,0,0,0-.3-0.3h-3.953v-3.01h4.738a0.3,0.3,0,0,0,.3-0.3v-1.32a0.3,0.3,0,0,0-.3-0.3h-6.515a0.3,0.3,0,0,0-.3.3v10.6Zm7.9-5.28a5.754,5.754,0,1,0,5.746-5.78A5.707,5.707,0,0,0,575.605,8533.44Zm2.08,0a3.674,3.674,0,1,1,3.666,3.66A3.7,3.7,0,0,1,577.685,8533.44Z" transform="translate(-469.688 -8527.66)"/>
</svg>
