<svg xmlns="http://www.w3.org/2000/svg" width="14.406" height="103.844" viewBox="0 0 14.406 103.844">
  <defs>
    <style>
      .cls-1 {
        fill: #5f9d7b;
        fill-rule: evenodd;
      }
    </style>
  </defs>
  <path id="COMPANY" class="cls-1" d="M305.056,160.4a7.174,7.174,0,0,0-7.184,7.223,6.864,6.864,0,0,0,1.941,4.862,0.381,0.381,0,0,0,.54.02l1.281-1.24a0.37,0.37,0,0,0,0-.5,4.8,4.8,0,0,1-1.141-3.061,4.646,4.646,0,0,1,9.285-.02,4.728,4.728,0,0,1-1.181,3.081,0.321,0.321,0,0,0,0,.5l1.261,1.22a0.372,0.372,0,0,0,.56-0.02,6.769,6.769,0,0,0,1.861-4.842A7.207,7.207,0,0,0,305.056,160.4Zm0,14.64a7.193,7.193,0,1,0,7.223,7.183A7.14,7.14,0,0,0,305.056,175.041Zm0,2.6a4.592,4.592,0,1,1-4.583,4.582A4.629,4.629,0,0,1,305.056,177.642Zm-6.523,14.478a0.367,0.367,0,0,0-.461.381v1.8a0.388,0.388,0,0,0,.3.361l7.584,1.16v0.06l-7.864,3.542a0.359,0.359,0,0,0-.22.34v0.36a0.34,0.34,0,0,0,.22.34l7.864,3.5v0.06l-7.584,1.18a0.435,0.435,0,0,0-.3.381v1.82a0.348,0.348,0,0,0,.461.361l13.446-2.361a0.338,0.338,0,0,0,.3-0.361v-0.32a0.345,0.345,0,0,0-.2-0.34l-9.445-4.4v-0.06l9.445-4.4a0.365,0.365,0,0,0,.2-0.34v-0.32a0.338,0.338,0,0,0-.3-0.361Zm-0.081,19.38a0.381,0.381,0,0,0-.38.381v1.84a0.394,0.394,0,0,0,.38.381h4.7v2.5a4.462,4.462,0,1,0,8.924-.02v-4.7a0.381,0.381,0,0,0-.38-0.381H298.452Zm7.144,2.6h4.022v2.321a2,2,0,0,1-1.941,2.061,2.062,2.062,0,0,1-2.081-2.061V214.1Zm-7.524,7.978v1.741a0.6,0.6,0,0,0,.4.58l2.161,0.98v5.983l-2.161.981a0.575,0.575,0,0,0-.4.58v1.741a0.354,0.354,0,0,0,.521.34l13.466-6.163a0.34,0.34,0,0,0,.22-0.34v-0.2a0.359,0.359,0,0,0-.22-0.34l-13.466-6.223A0.354,0.354,0,0,0,298.072,222.08Zm4.783,4.282,4.4,1.961v0.06l-4.4,2v-4.022Zm-4.4,11.458a0.394,0.394,0,0,0-.38.381v1.821a0.38,0.38,0,0,0,.38.38h8.6v0.02l-9.184,8.364v0.48a0.376,0.376,0,0,0,.36.38H311.7a0.393,0.393,0,0,0,.38-0.38v-1.841a0.38,0.38,0,0,0-.38-0.38h-8.264v-0.02l8.844-8.324v-0.5a0.377,0.377,0,0,0-.36-0.381H298.452Zm0,19.142a0.38,0.38,0,0,0-.38.38v1.841a0.393,0.393,0,0,0,.38.38h6.383l6.664,4.622a0.37,0.37,0,0,0,.58-0.32V261.8a0.4,0.4,0,0,0-.18-0.32l-4.6-3.2,4.6-3.2a0.4,0.4,0,0,0,.18-0.32V252.72a0.37,0.37,0,0,0-.58-0.321l-6.684,4.563h-6.363Z" transform="translate(-297.875 -160.406)"/>
</svg>
