<svg xmlns="http://www.w3.org/2000/svg" width="448.531" height="31.69" viewBox="0 0 448.531 31.69">
  <defs>
    <style>
      .cls-1 {
        fill: #5f9d7b;
        fill-rule: evenodd;
      }
    </style>
  </defs>
  <path id="CONTENTS_ARCHIVES" data-name="CONTENTS ARCHIVES" class="cls-1" d="M460.6,8780a15.778,15.778,0,0,0,15.884,15.8,15.078,15.078,0,0,0,10.693-4.27,0.84,0.84,0,0,0,.044-1.19l-2.728-2.81a0.8,0.8,0,0,0-1.1,0,10.6,10.6,0,0,1-6.733,2.51,10.217,10.217,0,0,1-.044-20.42,10.4,10.4,0,0,1,6.777,2.6,0.707,0.707,0,0,0,1.1,0l2.684-2.78a0.816,0.816,0,0,0-.044-1.23,14.908,14.908,0,0,0-10.649-4.09A15.846,15.846,0,0,0,460.6,8780Zm30.14,0a15.819,15.819,0,1,0,15.8-15.88A15.7,15.7,0,0,0,490.744,8780Zm5.72,0a10.1,10.1,0,1,1,10.076,10.08A10.178,10.178,0,0,1,496.464,8780Zm31.68,14.52a0.869,0.869,0,0,0,.836.84h4a0.839,0.839,0,0,0,.836-0.84V8775.6h0.044l18.393,20.2h1.056a0.826,0.826,0,0,0,.836-0.79v-29.62a0.86,0.86,0,0,0-.836-0.83h-4.048a0.83,0.83,0,0,0-.836.83v18.18h-0.044l-18.3-19.45h-1.1a0.826,0.826,0,0,0-.836.79v29.61Zm38.148,0a0.869,0.869,0,0,0,.836.84h4.092a0.869,0.869,0,0,0,.836-0.84v-24.68h6.732a0.839,0.839,0,0,0,.836-0.84v-3.61a0.83,0.83,0,0,0-.836-0.83H559.56a0.83,0.83,0,0,0-.836.83V8769a0.839,0.839,0,0,0,.836.84h6.732v24.68Zm17.908,0a0.839,0.839,0,0,0,.836.84h17.908a0.839,0.839,0,0,0,.836-0.84v-3.6a0.839,0.839,0,0,0-.836-0.84H589.92v-7.7h10.868a0.835,0.835,0,0,0,.836-0.84v-3.65a0.86,0.86,0,0,0-.836-0.83H589.92v-7.22h13.024a0.839,0.839,0,0,0,.836-0.84v-3.61a0.83,0.83,0,0,0-.836-0.83H585.036a0.83,0.83,0,0,0-.836.83v29.13Zm25.872,0a0.869,0.869,0,0,0,.836.84h4a0.839,0.839,0,0,0,.836-0.84V8775.6h0.044l18.393,20.2h1.056a0.826,0.826,0,0,0,.836-0.79v-29.62a0.86,0.86,0,0,0-.836-0.83h-4.049a0.83,0.83,0,0,0-.836.83v18.18h-0.044l-18.3-19.45h-1.1a0.826,0.826,0,0,0-.836.79v29.61Zm38.148,0a0.869,0.869,0,0,0,.836.84h4.092a0.869,0.869,0,0,0,.836-0.84v-24.68h6.732a0.839,0.839,0,0,0,.836-0.84v-3.61a0.83,0.83,0,0,0-.836-0.83H641.488a0.83,0.83,0,0,0-.836.83V8769a0.839,0.839,0,0,0,.836.84h6.732v24.68Zm16.324-2.15a14.187,14.187,0,0,0,9.68,3.43c6.2,0,10.12-4.18,10.12-8.71,0-5.68-4.928-8.23-9.2-9.95-3.564-1.45-5.192-2.86-5.192-4.92,0-1.41,1.364-3.09,3.872-3.09,2.42,0,5.764,2.21,6.116,2.43a1.159,1.159,0,0,0,1.54-.53l1.672-2.51a1.086,1.086,0,0,0-.264-1.45,15.488,15.488,0,0,0-8.8-2.95c-7,0-9.9,4.53-9.9,8.45,0,5.19,4.136,7.83,8.272,9.5,3.7,1.5,5.588,3.04,5.588,5.28,0,1.89-1.716,3.39-4,3.39-2.86,0-6.424-2.6-6.644-2.73a1.016,1.016,0,0,0-1.5.31l-1.584,2.73A0.87,0.87,0,0,0,664.544,8792.37Zm31.9,2.99h3.829a1.326,1.326,0,0,0,1.276-.88l2.156-4.75H716.86l2.156,4.75a1.26,1.26,0,0,0,1.276.88h3.828a0.774,0.774,0,0,0,.748-1.14l-13.552-29.62a0.75,0.75,0,0,0-.748-0.48h-0.44a0.793,0.793,0,0,0-.748.48L695.7,8794.22A0.774,0.774,0,0,0,696.443,8795.36Zm9.417-10.52,4.312-9.68H710.3l4.4,9.68H705.86Zm23.012,9.68a0.839,0.839,0,0,0,.836.84h4.048a0.869,0.869,0,0,0,.836-0.84V8783.3h4.884l5.852,11.66a0.749,0.749,0,0,0,.7.4h4.62a0.834,0.834,0,0,0,.748-1.28l-6.028-11.17c3.828-1.54,6.512-4.84,6.512-8.89a9.528,9.528,0,0,0-9.592-9.46H729.708a0.83,0.83,0,0,0-.836.83v29.13Zm5.764-15.92v-8.76h7.172a4.381,4.381,0,0,1,4.356,4.27,4.486,4.486,0,0,1-4.356,4.49h-7.172Zm21.3,1.4a15.779,15.779,0,0,0,15.885,15.8,15.078,15.078,0,0,0,10.692-4.27,0.84,0.84,0,0,0,.044-1.19l-2.728-2.81a0.8,0.8,0,0,0-1.1,0,10.6,10.6,0,0,1-6.732,2.51,10.217,10.217,0,0,1-.044-20.42,10.4,10.4,0,0,1,6.776,2.6,0.707,0.707,0,0,0,1.1,0l2.684-2.78a0.816,0.816,0,0,0-.044-1.23,14.907,14.907,0,0,0-10.648-4.09A15.846,15.846,0,0,0,755.931,8780Zm32.34,14.52a0.869,0.869,0,0,0,.836.84H793.2a0.839,0.839,0,0,0,.836-0.84v-12.14H808.38v12.14a0.839,0.839,0,0,0,.836.84h4.048a0.869,0.869,0,0,0,.836-0.84v-29.13a0.86,0.86,0,0,0-.836-0.83h-4.048a0.83,0.83,0,0,0-.836.83v11.67H794.036v-11.67a0.83,0.83,0,0,0-.836-0.83h-4.093a0.86,0.86,0,0,0-.836.83v29.13Zm33.836,0a0.869,0.869,0,0,0,.836.84h4.093a0.869,0.869,0,0,0,.836-0.84v-29.13a0.86,0.86,0,0,0-.836-0.83h-4.093a0.86,0.86,0,0,0-.836.83v29.13Zm23.365,0.8a0.793,0.793,0,0,0,.748.48h0.44a0.793,0.793,0,0,0,.748-0.48l13.64-29.62a0.774,0.774,0,0,0-.748-1.14h-4.488a0.806,0.806,0,0,0-.748.48l-8.448,18.92h-0.308l-8.449-18.92a0.806,0.806,0,0,0-.748-0.48h-4.488a0.774,0.774,0,0,0-.748,1.14Zm19.579-.8a0.839,0.839,0,0,0,.836.84H883.8a0.839,0.839,0,0,0,.836-0.84v-3.6a0.839,0.839,0,0,0-.836-0.84H870.772v-7.7H881.64a0.835,0.835,0,0,0,.836-0.84v-3.65a0.86,0.86,0,0,0-.836-0.83H870.772v-7.22H883.8a0.839,0.839,0,0,0,.836-0.84v-3.61a0.83,0.83,0,0,0-.836-0.83H865.887a0.83,0.83,0,0,0-.836.83v29.13Zm24.288-2.15a14.188,14.188,0,0,0,9.681,3.43c6.2,0,10.12-4.18,10.12-8.71,0-5.68-4.928-8.23-9.2-9.95-3.565-1.45-5.193-2.86-5.193-4.92,0-1.41,1.364-3.09,3.873-3.09,2.42,0,5.764,2.21,6.116,2.43a1.159,1.159,0,0,0,1.54-.53l1.672-2.51a1.086,1.086,0,0,0-.264-1.45,15.488,15.488,0,0,0-8.8-2.95c-7,0-9.9,4.53-9.9,8.45,0,5.19,4.136,7.83,8.273,9.5,3.7,1.5,5.588,3.04,5.588,5.28,0,1.89-1.716,3.39-4,3.39-2.861,0-6.425-2.6-6.645-2.73a1.016,1.016,0,0,0-1.5.31l-1.584,2.73A0.87,0.87,0,0,0,889.339,8792.37Z" transform="translate(-460.594 -8764.12)"/>
</svg>
