<svg xmlns="http://www.w3.org/2000/svg" width="183.437" height="12.938" viewBox="0 0 183.437 12.938">
  <defs>
    <style>
      .cls-1 {
        fill: #333;
        fill-rule: evenodd;
      }
    </style>
  </defs>
  <path id="CONTENTS_ARCHIVES" data-name="CONTENTS ARCHIVES" class="cls-1" d="M175.692,477.743a6.447,6.447,0,0,0,6.492,6.456,6.171,6.171,0,0,0,4.37-1.744,0.342,0.342,0,0,0,.018-0.485l-1.115-1.151a0.33,0.33,0,0,0-.449,0,4.321,4.321,0,0,1-2.752,1.025,4.175,4.175,0,0,1-.018-8.345,4.26,4.26,0,0,1,2.77,1.061,0.287,0.287,0,0,0,.449,0l1.1-1.133a0.333,0.333,0,0,0-.018-0.5,6.088,6.088,0,0,0-4.352-1.673A6.478,6.478,0,0,0,175.692,477.743Zm12.276,0a6.465,6.465,0,1,0,6.456-6.492A6.416,6.416,0,0,0,187.968,477.743Zm2.338,0a4.127,4.127,0,1,1,4.118,4.119A4.16,4.16,0,0,1,190.306,477.743Zm12.961,5.935a0.354,0.354,0,0,0,.342.342h1.636a0.342,0.342,0,0,0,.342-0.342v-7.733h0.018l7.517,8.254h0.432a0.337,0.337,0,0,0,.341-0.323v-12.1a0.354,0.354,0,0,0-.341-0.342H211.9a0.342,0.342,0,0,0-.342.342V479.2h-0.018l-7.481-7.949h-0.449a0.338,0.338,0,0,0-.342.324v12.1Zm15.6,0a0.354,0.354,0,0,0,.342.342h1.672a0.354,0.354,0,0,0,.342-0.342V473.589h2.752a0.342,0.342,0,0,0,.341-0.342v-1.474a0.342,0.342,0,0,0-.341-0.342H216.12a0.342,0.342,0,0,0-.342.342v1.474a0.342,0.342,0,0,0,.342.342h2.751v10.089Zm7.328,0a0.342,0.342,0,0,0,.341.342h7.32a0.341,0.341,0,0,0,.341-0.342V482.2a0.34,0.34,0,0,0-.341-0.341h-5.323v-3.148h4.441a0.341,0.341,0,0,0,.342-0.341V476.88a0.354,0.354,0,0,0-.342-0.342h-4.441v-2.949h5.323a0.341,0.341,0,0,0,.341-0.342v-1.474a0.341,0.341,0,0,0-.341-0.342h-7.32a0.342,0.342,0,0,0-.341.342v11.9Zm10.584,0a0.353,0.353,0,0,0,.341.342h1.637a0.341,0.341,0,0,0,.341-0.342v-7.733h0.018l7.518,8.254h0.431a0.338,0.338,0,0,0,.342-0.323v-12.1a0.354,0.354,0,0,0-.342-0.342h-1.654a0.342,0.342,0,0,0-.342.342V479.2h-0.018l-7.481-7.949h-0.45a0.338,0.338,0,0,0-.341.324v12.1Zm15.6,0a0.354,0.354,0,0,0,.342.342H254.4a0.354,0.354,0,0,0,.342-0.342V473.589h2.751a0.342,0.342,0,0,0,.342-0.342v-1.474a0.342,0.342,0,0,0-.342-0.342h-7.859a0.342,0.342,0,0,0-.341.342v1.474a0.342,0.342,0,0,0,.341.342h2.752v10.089Zm6.68-.881a5.789,5.789,0,0,0,3.956,1.4c2.536,0,4.137-1.708,4.137-3.56,0-2.32-2.015-3.363-3.759-4.065-1.457-.593-2.122-1.169-2.122-2.014a1.432,1.432,0,0,1,1.582-1.259,5.926,5.926,0,0,1,2.5.989,0.474,0.474,0,0,0,.63-0.215l0.683-1.025a0.446,0.446,0,0,0-.108-0.594,6.329,6.329,0,0,0-3.6-1.205c-2.859,0-4.046,1.853-4.046,3.453,0,2.122,1.69,3.2,3.381,3.885,1.511,0.611,2.284,1.24,2.284,2.158a1.5,1.5,0,0,1-1.637,1.384,5.952,5.952,0,0,1-2.715-1.115,0.417,0.417,0,0,0-.612.126l-0.647,1.115A0.356,0.356,0,0,0,259.067,482.8Zm13.05,1.223h1.565a0.541,0.541,0,0,0,.521-0.36l0.882-1.942h5.377l0.881,1.942a0.517,0.517,0,0,0,.521.36h1.565a0.318,0.318,0,0,0,.306-0.468l-5.539-12.1a0.306,0.306,0,0,0-.306-0.2h-0.18a0.323,0.323,0,0,0-.306.2l-5.593,12.1A0.318,0.318,0,0,0,272.117,484.02Zm3.849-4.3,1.762-3.957h0.054l1.8,3.957h-3.614Zm9.416,3.956a0.342,0.342,0,0,0,.342.342h1.654a0.354,0.354,0,0,0,.342-0.342v-4.586h2l2.392,4.766a0.309,0.309,0,0,0,.288.162h1.888a0.341,0.341,0,0,0,.306-0.522l-2.464-4.568a3.968,3.968,0,0,0,2.661-3.632,3.9,3.9,0,0,0-3.92-3.867h-5.143a0.342,0.342,0,0,0-.342.342v11.9Zm2.356-6.51v-3.579h2.931a1.789,1.789,0,0,1,1.78,1.745,1.831,1.831,0,0,1-1.78,1.834h-2.931Zm8.714,0.575a6.448,6.448,0,0,0,6.493,6.456,6.172,6.172,0,0,0,4.37-1.744,0.343,0.343,0,0,0,.018-0.485l-1.115-1.151a0.332,0.332,0,0,0-.45,0,4.319,4.319,0,0,1-2.752,1.025A4.175,4.175,0,0,1,303,473.5a4.256,4.256,0,0,1,2.77,1.061,0.288,0.288,0,0,0,.45,0l1.1-1.133a0.335,0.335,0,0,0-.018-0.5,6.088,6.088,0,0,0-4.352-1.673A6.479,6.479,0,0,0,296.452,477.743Zm13.229,5.935a0.354,0.354,0,0,0,.342.342H311.7a0.342,0.342,0,0,0,.341-0.342v-4.964H317.9v4.964a0.342,0.342,0,0,0,.342.342H319.9a0.354,0.354,0,0,0,.342-0.342v-11.9a0.354,0.354,0,0,0-.342-0.342h-1.654a0.342,0.342,0,0,0-.342.342v4.765h-5.863v-4.765a0.342,0.342,0,0,0-.341-0.342h-1.673a0.354,0.354,0,0,0-.342.342v11.9Zm13.842,0a0.354,0.354,0,0,0,.342.342h1.672a0.354,0.354,0,0,0,.342-0.342v-11.9a0.354,0.354,0,0,0-.342-0.342h-1.672a0.354,0.354,0,0,0-.342.342v11.9ZM333.078,484a0.32,0.32,0,0,0,.305.2h0.18a0.323,0.323,0,0,0,.306-0.2l5.575-12.1a0.318,0.318,0,0,0-.306-0.468H337.3a0.331,0.331,0,0,0-.306.2l-3.453,7.733h-0.126l-3.453-7.733a0.331,0.331,0,0,0-.305-0.2h-1.835a0.318,0.318,0,0,0-.305.468Zm8.013-.324a0.342,0.342,0,0,0,.342.342h7.319a0.342,0.342,0,0,0,.342-0.342V482.2a0.341,0.341,0,0,0-.342-0.341h-5.323v-3.148h4.442a0.34,0.34,0,0,0,.341-0.341V476.88a0.353,0.353,0,0,0-.341-0.342h-4.442v-2.949h5.323a0.342,0.342,0,0,0,.342-0.342v-1.474a0.342,0.342,0,0,0-.342-0.342h-7.319a0.342,0.342,0,0,0-.342.342v11.9Zm9.936-.881a5.792,5.792,0,0,0,3.957,1.4c2.536,0,4.136-1.708,4.136-3.56,0-2.32-2.014-3.363-3.758-4.065-1.457-.593-2.123-1.169-2.123-2.014a1.433,1.433,0,0,1,1.583-1.259,5.932,5.932,0,0,1,2.5.989,0.473,0.473,0,0,0,.629-0.215l0.684-1.025a0.448,0.448,0,0,0-.108-0.594,6.333,6.333,0,0,0-3.6-1.205c-2.859,0-4.046,1.853-4.046,3.453,0,2.122,1.69,3.2,3.381,3.885,1.51,0.611,2.283,1.24,2.283,2.158a1.5,1.5,0,0,1-1.636,1.384,5.958,5.958,0,0,1-2.716-1.115,0.416,0.416,0,0,0-.611.126l-0.647,1.115A0.356,0.356,0,0,0,351.027,482.8Z" transform="translate(-175.688 -471.25)"/>
</svg>
