<svg xmlns="http://www.w3.org/2000/svg" width="76" height="12" viewBox="0 0 76 12">
  <defs>
    <style>
      .cls-1 {
        fill: #5f9d7b;
        fill-rule: evenodd;
      }
    </style>
  </defs>
  <path id="DIVERSITY" class="cls-1" d="M1030.5,8538.72a0.3,0.3,0,0,0,.29.3h3.79a5.6,5.6,0,1,0,0-11.2h-3.79a0.3,0.3,0,0,0-.29.3v10.6Zm2.07-1.65v-7.31h1.82a3.655,3.655,0,0,1,0,7.31h-1.82Zm9.42,1.65a0.308,0.308,0,0,0,.3.3h1.49a0.317,0.317,0,0,0,.31-0.3v-10.6a0.317,0.317,0,0,0-.31-0.3h-1.49a0.308,0.308,0,0,0-.3.3v10.6Zm8.18,0.29a0.3,0.3,0,0,0,.27.17h0.16a0.3,0.3,0,0,0,.27-0.17l4.96-10.78a0.278,0.278,0,0,0-.27-0.41h-1.63a0.278,0.278,0,0,0-.27.17l-3.08,6.89h-0.11l-3.07-6.89a0.289,0.289,0,0,0-.27-0.17h-1.64a0.281,0.281,0,0,0-.27.41Zm6.8-.29a0.3,0.3,0,0,0,.3.3h6.51a0.3,0.3,0,0,0,.31-0.3v-1.31a0.311,0.311,0,0,0-.31-0.31h-4.73v-2.8H1063a0.3,0.3,0,0,0,.3-0.3v-1.33a0.317,0.317,0,0,0-.3-0.31h-3.95v-2.62h4.73a0.3,0.3,0,0,0,.31-0.3v-1.32a0.3,0.3,0,0,0-.31-0.3h-6.51a0.3,0.3,0,0,0-.3.3v10.6Zm9.08,0a0.3,0.3,0,0,0,.31.3h1.47a0.308,0.308,0,0,0,.3-0.3v-4.08h1.78l2.13,4.24a0.277,0.277,0,0,0,.26.14h1.68a0.3,0.3,0,0,0,.27-0.46l-2.19-4.07a3.535,3.535,0,0,0,2.37-3.23,3.47,3.47,0,0,0-3.49-3.44h-4.58a0.3,0.3,0,0,0-.31.3v10.6Zm2.1-5.8v-3.18h2.61a1.584,1.584,0,0,1,1.58,1.55,1.621,1.621,0,0,1-1.58,1.63h-2.61Zm8.3,5.01a5.13,5.13,0,0,0,3.52,1.25,3.387,3.387,0,0,0,3.69-3.17c0-2.06-1.8-2.99-3.35-3.61-1.3-.53-1.89-1.04-1.89-1.8a1.279,1.279,0,0,1,1.41-1.12,5.31,5.31,0,0,1,2.23.88,0.421,0.421,0,0,0,.56-0.19l0.6-.91a0.39,0.39,0,0,0-.09-0.53,5.643,5.643,0,0,0-3.2-1.07c-2.55,0-3.6,1.65-3.6,3.07,0,1.89,1.5,2.85,3,3.46,1.35,0.54,2.04,1.1,2.04,1.92a1.338,1.338,0,0,1-1.46,1.23,5.3,5.3,0,0,1-2.42-.99,0.371,0.371,0,0,0-.54.11l-0.58.99A0.32,0.32,0,0,0,1076.45,8537.93Zm9.25,0.79a0.317,0.317,0,0,0,.31.3h1.48a0.317,0.317,0,0,0,.31-0.3v-10.6a0.317,0.317,0,0,0-.31-0.3h-1.48a0.317,0.317,0,0,0-.31.3v10.6Zm6.19,0a0.317,0.317,0,0,0,.31.3h1.49a0.308,0.308,0,0,0,.3-0.3v-8.98h2.45a0.3,0.3,0,0,0,.3-0.3v-1.32a0.3,0.3,0,0,0-.3-0.3h-7a0.3,0.3,0,0,0-.3.3v1.32a0.3,0.3,0,0,0,.3.3h2.45v8.98Zm8.98,0a0.3,0.3,0,0,0,.3.3h1.48a0.308,0.308,0,0,0,.3-0.3v-5.11l3.7-5.33a0.293,0.293,0,0,0-.26-0.46h-1.65a0.33,0.33,0,0,0-.25.14l-2.56,3.68-2.56-3.68a0.334,0.334,0,0,0-.26-0.14h-1.63a0.293,0.293,0,0,0-.26.46l3.65,5.35v5.09Z" transform="translate(-1030.5 -8527.66)"/>
</svg>
