<svg xmlns="http://www.w3.org/2000/svg" width="72.126" height="8.625" viewBox="0 0 72.126 8.625">
  <defs>
    <style>
      .cls-1 {
        fill: #5f9d7b;
        fill-rule: evenodd;
      }
    </style>
  </defs>
  <path id="FOLLOW_SNS" data-name="FOLLOW SNS" class="cls-1" d="M175.065,568.792a0.228,0.228,0,0,0,.228.228h1.1a0.236,0.236,0,0,0,.228-0.228v-3.038h2.965a0.236,0.236,0,0,0,.228-0.228v-0.984a0.237,0.237,0,0,0-.228-0.229h-2.965v-2.257h3.554a0.228,0.228,0,0,0,.228-0.228v-0.984a0.228,0.228,0,0,0-.228-0.228h-4.887a0.228,0.228,0,0,0-.228.228v7.948Zm6.168-3.962a4.316,4.316,0,1,0,4.31-4.334A4.284,4.284,0,0,0,181.233,564.83Zm1.561,0a2.755,2.755,0,1,1,2.749,2.749A2.777,2.777,0,0,1,182.794,564.83Zm8.639,3.962a0.228,0.228,0,0,0,.228.228h4.394a0.228,0.228,0,0,0,.228-0.228v-0.985a0.228,0.228,0,0,0-.228-0.228h-3.061v-6.735a0.236,0.236,0,0,0-.228-0.228h-1.1a0.228,0.228,0,0,0-.228.228v7.948Zm6.06,0a0.228,0.228,0,0,0,.228.228h4.394a0.228,0.228,0,0,0,.228-0.228v-0.985a0.228,0.228,0,0,0-.228-0.228h-3.061v-6.735a0.237,0.237,0,0,0-.229-0.228h-1.1a0.228,0.228,0,0,0-.228.228v7.948Zm5.376-3.962a4.316,4.316,0,1,0,4.31-4.334A4.283,4.283,0,0,0,202.869,564.83Zm1.56,0a2.756,2.756,0,1,1,2.75,2.749A2.778,2.778,0,0,1,204.429,564.83Zm10.1,4.142a0.231,0.231,0,0,0,.216.168h0.192a0.2,0.2,0,0,0,.2-0.132l2.125-5.439h0.06l2.149,5.439a0.2,0.2,0,0,0,.2.132h0.192a0.231,0.231,0,0,0,.216-0.168l2.269-8.068a0.209,0.209,0,0,0-.216-0.288h-1.1a0.248,0.248,0,0,0-.217.168l-1.224,4.79h-0.048l-1.921-4.946a0.194,0.194,0,0,0-.2-0.132h-0.216a0.194,0.194,0,0,0-.2.132l-1.909,4.946H215.05l-1.249-4.79a0.247,0.247,0,0,0-.216-0.168h-1.1a0.209,0.209,0,0,0-.217.288Zm11.482-.769a3.864,3.864,0,0,0,2.642.937,2.536,2.536,0,0,0,2.761-2.377c0-1.549-1.345-2.245-2.509-2.714-0.973-.4-1.417-0.78-1.417-1.344a0.957,0.957,0,0,1,1.057-.841,3.946,3.946,0,0,1,1.668.661,0.317,0.317,0,0,0,.421-0.144l0.456-.685a0.3,0.3,0,0,0-.072-0.4,4.229,4.229,0,0,0-2.4-.8,2.4,2.4,0,0,0-2.7,2.305c0,1.416,1.129,2.137,2.257,2.593,1.009,0.408,1.525.828,1.525,1.441a1,1,0,0,1-1.092.924,3.974,3.974,0,0,1-1.813-.744,0.278,0.278,0,0,0-.408.084l-0.433.744A0.237,0.237,0,0,0,226.016,568.2Zm6.936,0.589a0.236,0.236,0,0,0,.229.228h1.092a0.228,0.228,0,0,0,.228-0.228v-5.163h0.012l5.018,5.511h0.289a0.226,0.226,0,0,0,.228-0.216v-8.08a0.236,0.236,0,0,0-.228-0.228h-1.1a0.228,0.228,0,0,0-.228.228V565.8h-0.012l-4.994-5.306h-0.3a0.226,0.226,0,0,0-.229.216v8.08Zm8.844-.589a3.863,3.863,0,0,0,2.641.937,2.537,2.537,0,0,0,2.762-2.377c0-1.549-1.345-2.245-2.509-2.714-0.973-.4-1.417-0.78-1.417-1.344a0.956,0.956,0,0,1,1.056-.841,3.945,3.945,0,0,1,1.669.661,0.316,0.316,0,0,0,.42-0.144l0.457-.685a0.3,0.3,0,0,0-.073-0.4,4.226,4.226,0,0,0-2.4-.8,2.4,2.4,0,0,0-2.7,2.305c0,1.416,1.129,2.137,2.257,2.593,1.009,0.408,1.525.828,1.525,1.441a1,1,0,0,1-1.093.924,3.974,3.974,0,0,1-1.812-.744,0.279,0.279,0,0,0-.409.084l-0.432.744A0.237,0.237,0,0,0,241.8,568.2Z" transform="translate(-175.062 -560.5)"/>
</svg>
