<?xml version="1.0" encoding="utf-8"?>
<!-- Generator: Adobe Illustrator 25.4.1, SVG Export Plug-In . SVG Version: 6.00 Build 0)  -->
<svg version="1.1" id="レイヤー_1" xmlns="http://www.w3.org/2000/svg" xmlns:xlink="http://www.w3.org/1999/xlink" x="0px"
	 y="0px" viewBox="0 0 583.9 169.7" style="enable-background:new 0 0 583.9 169.7;" xml:space="preserve">
<g>
	<g>
		<path d="M171.1,141.3c-0.4-0.1-39.3-5.1-61.3-21.4h47.9c3.4,0,6.5-1.8,8.2-4.6c0.6-1,0.2-2.3-0.8-2.9l-3.1-1.8
			c-0.3-0.2-0.7-0.3-1.1-0.3c-0.8,0-1.5,0.4-1.9,1.1c-0.3,0.5-0.8,0.7-1.3,0.7H99.1V98.7h40.2c3.4,0,6.5-1.8,8.2-4.6
			c0.6-1,0.2-2.3-0.8-2.9l-3.1-1.8c-0.3-0.2-0.7-0.3-1.1-0.3c-0.8,0-1.5,0.4-1.9,1.1c-0.3,0.5-0.8,0.7-1.3,0.7H99.1V79.2H133
			c3.4,0,6.5-1.8,8.2-4.6c0.3-0.5,0.4-1.1,0.2-1.6c-0.2-0.6-0.5-1-1-1.3l-3.1-1.8c-0.3-0.2-0.7-0.3-1.1-0.3c-0.8,0-1.5,0.4-1.9,1.1
			c-0.3,0.5-0.8,0.7-1.3,0.7H99.1V59.8H133c3.4,0,6.5-1.8,8.2-4.6c0.3-0.5,0.4-1.1,0.2-1.6c-0.2-0.6-0.5-1-1-1.3l-3.1-1.8
			c-0.3-0.2-0.7-0.3-1.1-0.3c-0.8,0-1.5,0.4-1.9,1.1c-0.3,0.5-0.8,0.7-1.3,0.7H99.1V40.3h40.2c3.4,0,6.5-1.8,8.2-4.6
			c0.6-1,0.2-2.3-0.8-2.9l-3.1-1.8c-0.3-0.2-0.7-0.3-1.1-0.3c-0.8,0-1.5,0.4-1.9,1.1c-0.3,0.5-0.8,0.7-1.3,0.7H98.8
			c-0.1-0.1-0.2-0.2-0.4-0.2c4-1.8,7-4.4,9.2-7.7c1.9-3,2.9-6.5,3-10.5c0-0.4-0.2-0.7-0.5-0.9L96.2,4.6c-0.2-0.1-0.4-0.2-0.6-0.2
			c-0.4,0-0.7,0.2-0.9,0.5L77.4,32.2h-1.1c-0.3,0-0.6,0.1-0.8,0.3H55.8v-8.6c0-0.1,0-0.2,0-0.2c3.5-3.8,7.1-7.9,10.8-12.6
			c0.2-0.3,0.3-0.6,0.2-1c-0.1-0.3-0.3-0.6-0.7-0.7L40.3,0.1C40.2,0,40,0,39.9,0c-0.2,0-0.4,0.1-0.6,0.2C39,0.3,38.9,0.6,38.8,1
			c0,0.3-3.6,29.9-27.7,55.4c-0.3,0.4-0.4,0.9-0.1,1.3c0.2,0.3,0.6,0.5,0.9,0.5c0.1,0,0.2,0,0.3,0c0.5-0.2,8.3-2.7,21.4-13.3V101
			c0,0.3,0.1,0.6,0.4,0.8c0.2,0.2,0.4,0.2,0.7,0.2c0.1,0,0.2,0,0.2,0l16.1-3.4h24.1v13.4H6.6c-1.2,0-2.2,1-2.2,2.1v3.6
			c0,1.2,1,2.1,2.2,2.1h46.5c-4.8,7.1-21.6,29.8-52.4,43.7c-0.5,0.2-0.9,0.7-0.8,1.3c0.1,0.5,0.6,0.8,1.1,0.8c0.1,0,0.1,0,0.2,0
			c0.4-0.1,40.7-7.1,73.9-34.1v35.8c0,0.3,0.1,0.6,0.4,0.8c0.2,0.2,0.4,0.2,0.7,0.2c0.1,0,0.1,0,0.2,0l21.8-4.2
			c0.5-0.1,0.9-0.5,0.9-1v-39.6c5.7,9.3,22.3,32.3,53.7,42.8c0.1,0,0.2,0.1,0.4,0.1c0.3,0,0.7-0.2,0.9-0.4l17.8-23
			c0.2-0.3,0.3-0.7,0.1-1.1C171.8,141.5,171.5,141.3,171.1,141.3z M75.2,71.4H55.8V59.8h19.4V71.4z M75.2,40.3v11.6H55.8V40.3H75.2z
			 M55.8,90.9V79.2h19.4v11.6H55.8z"/>
	</g>
	<g>
		<path d="M488.4,109.6c0.2,0.2,0.4,0.4,0.7,0.5c0.1,0,0.2,0,0.2,0c0.2,0,0.4-0.1,0.6-0.2l15.4-9.4c0.3-0.2,0.5-0.6,0.5-0.9
			c-0.1-4.3-1.2-8.2-3.3-11.5c-5-7.8-14.9-11.9-28.6-11.9c-0.9,0-1.9,0-2.8,0.1c8.9-9.3,18.1-20.2,26.7-32.9
			c0.3-0.5,0.2-1.1-0.3-1.5l-19.9-14.1c-0.2-0.1-0.4-0.2-0.6-0.2c-0.1,0-0.2,0-0.3,0c-0.3,0.1-0.6,0.3-0.7,0.6
			c-0.1,0.1-1.3,3.2-3.8,8.2h-1.9V4.8c0-0.6-0.5-1.1-1.1-1.1l-21.8,3c-0.6,0-1.1,0.5-1.1,1.1v28.6h-22.5c-0.6,0-1.1,0.5-1.1,1.1v5.3
			c0,0.6,0.5,1.1,1.1,1.1h44.6c-9.5,18.5-27.7,49.7-52,72.2c-0.4,0.4-0.5,1-0.1,1.4c0.2,0.3,0.5,0.5,0.9,0.5c0.2,0,0.3,0,0.5-0.1
			c0.2-0.1,12.3-6.1,28.7-19.1v66.3c0,0.3,0.1,0.6,0.4,0.8c0.2,0.2,0.4,0.3,0.7,0.3c0.1,0,0.1,0,0.2,0l21.8-3.7
			c0.5-0.1,0.9-0.5,0.9-1.1v-80L488.4,109.6z"/>
		<path d="M582.9,154.6l-3.1-1.8c-0.3-0.2-0.7-0.3-1.1-0.3c-0.8,0-1.5,0.4-1.9,1.1c-0.3,0.5-0.8,0.7-1.3,0.7H549V72.1h23.9
			c3.4,0,6.5-1.8,8.2-4.6c0.6-1,0.2-2.3-0.8-2.9l-3.1-1.8c-0.3-0.2-0.7-0.3-1.1-0.3c-0.8,0-1.5,0.4-1.9,1.1
			c-0.3,0.5-0.8,0.7-1.3,0.7H549V4.8c0-0.6-0.5-1.1-1.1-1.1l-21.8,3c-0.6,0-1.1,0.5-1.1,1.1v56.5h-31.8c-1.2,0-2.2,1-2.2,2.1V70
			c0,1.2,1,2.1,2.2,2.1H525v82.3h-38.2c-1.2,0-2.2,1-2.2,2.1v3.6c0,1.2,1,2.1,2.2,2.1h88.6c3.4,0,6.5-1.8,8.2-4.6
			C584.2,156.5,583.9,155.2,582.9,154.6z"/>
	</g>
	<g>
		<path d="M374.8,144.4c-0.4-0.1-52.9-7.7-67.6-32.3H367c3.4,0,6.5-1.8,8.2-4.6c0.3-0.5,0.4-1.1,0.2-1.6c-0.2-0.5-0.5-1-1-1.3
			l-3.1-1.8c-0.3-0.2-0.7-0.3-1.1-0.3c-0.8,0-1.5,0.4-1.9,1.1c-0.3,0.5-0.8,0.7-1.3,0.7h-20.6V57.7c0-0.3-0.1-0.6-0.4-0.8
			c-0.2-0.2-0.4-0.2-0.7-0.2c-0.1,0-0.2,0-0.2,0l-20,4.3c-0.4,0.1-0.7,0.4-0.8,0.8h-20.9V43.9c0-0.6-0.5-1.1-1.1-1.1h-21.8
			c-0.6,0-1.1,0.5-1.1,1.1v17.9h-20.9v-4.1c0-0.3-0.1-0.6-0.4-0.8c-0.2-0.2-0.4-0.2-0.7-0.2c-0.1,0-0.2,0-0.2,0l-20,4.3
			c-0.5,0.1-0.9,0.5-0.9,1v42.3h-22.8c-1.2,0-2.2,1-2.2,2.1v3.6c0,1.2,1,2.1,2.2,2.1h63.9c-4,9.7-18.1,31.7-66.3,53.1
			c-0.5,0.2-0.7,0.7-0.6,1.2c0.1,0.5,0.6,0.8,1.1,0.8c0,0,0,0,0.1,0c0.7,0,66.5-2.3,86.6-51.5c7.1,13.5,26.1,43.5,59.8,53.8
			c0.1,0,0.2,0.1,0.4,0.1c0.3,0,0.7-0.2,0.9-0.4l16.1-23.1c0.2-0.3,0.3-0.7,0.1-1.1C375.5,144.7,375.1,144.5,374.8,144.4z
			 M324.3,69.6v34.7h-20.9V69.6H324.3z M258.5,69.6h20.9v34.7h-20.9V69.6z"/>
		<path d="M213.7,33.9h37.9v19.6c0,0.3,0.1,0.6,0.4,0.8c0.2,0.2,0.4,0.2,0.7,0.2c0.1,0,0.2,0,0.2,0l20-4.3c0.5-0.1,0.9-0.5,0.9-1
			V33.9h34.9v19.6c0,0.3,0.1,0.6,0.4,0.8c0.2,0.2,0.4,0.2,0.7,0.2c0.1,0,0.2,0,0.2,0l20-4.3c0.5-0.1,0.9-0.5,0.9-1V33.9H367
			c3.4,0,6.5-1.8,8.2-4.6c0.3-0.5,0.4-1.1,0.2-1.6c-0.2-0.5-0.5-1-1-1.3l-3.1-1.8c-0.3-0.2-0.7-0.3-1.1-0.3c-0.8,0-1.5,0.4-1.9,1.1
			c-0.3,0.5-0.8,0.7-1.3,0.7h-36.3V3.9c0-0.3-0.1-0.6-0.4-0.8c-0.2-0.2-0.4-0.2-0.7-0.2c-0.1,0-0.2,0-0.2,0l-20,4.3
			c-0.5,0.1-0.9,0.5-0.9,1v17.9h-34.9V3.9c0-0.3-0.1-0.6-0.4-0.8c-0.2-0.2-0.4-0.2-0.7-0.2c-0.1,0-0.2,0-0.2,0l-20,4.3
			c-0.5,0.1-0.9,0.5-0.9,1v17.9h-37.9c-1.2,0-2.2,1-2.2,2.1v3.6C211.5,32.9,212.5,33.9,213.7,33.9z"/>
	</g>
</g>
</svg>
