<?xml version="1.0" encoding="utf-8"?>
<!-- Generator: Adobe Illustrator 25.4.1, SVG Export Plug-In . SVG Version: 6.00 Build 0)  -->
<svg version="1.1" id="レイヤー_1" xmlns="http://www.w3.org/2000/svg" xmlns:xlink="http://www.w3.org/1999/xlink" x="0px"
	 y="0px" viewBox="0 0 45.7 547.1" style="enable-background:new 0 0 45.7 547.1;" xml:space="preserve">
<g>
	<path d="M4.6,21L4.6,21L4.6,21c0,0.4,0.2,0.7,0.3,1c0.1,0.3,0.3,0.7,0.3,1l0,0c0.2,0.7,0.3,0.8,0.8,0.8l0.1,0
		c0.1,0,0.6-0.1,0.9-0.2c0.4-0.1,0.8-0.2,1.2-0.3c0.3-0.1,0.6-0.2,0.8-0.3c0.5-0.2,0.9-0.4,1.6-0.4c0.3,0,0.5-0.1,0.8-0.3
		c0.4-0.2,0.9-0.5,1.7-0.5c0.2,0,0.5-0.1,0.9-0.2c0.5-0.2,1.1-0.4,1.7-0.4c0.4,0,0.9-0.2,1.1-0.2l0.1,0c0.6-0.2,1.1-0.3,1.6-0.3
		c0.8,0,1.1,0.4,1.3,0.7c0.3,0.5,0.2,1.4-0.2,2.3c-0.1,0.2-0.2,0.4-0.3,0.5c-0.1,0.2-0.2,0.3-0.3,0.5L19,24.9
		c-0.2,0.8-0.4,1.5-0.7,2.2c0,0.5-0.1,0.9-0.1,1.3c-0.1,0.4-0.1,0.9-0.1,1.4c-0.1,0.6-0.1,1.5,0.2,2.1l0,0.1l0,0.1l0,0.1l0,0.1
		c0,0.4,0.2,0.9,0.4,1.4c0.1,0.2,0.2,0.4,0.3,0.6c0.1,0.5,0.6,1.4,1,1.9l0,0l0,0c0.2,0.4,0.5,0.6,0.9,1c0.2,0.2,0.4,0.4,0.7,0.6
		c0.5,0.7,1.4,1,2,1.2l0,0l0.1,0c0.9,0.5,1.4,0.7,2.5,0.9c0.5,0.2,1.1,0.2,1.6,0.3c0.4,0.1,0.7,0.1,1,0.2c0.1,0,0.1,0,0.2,0
		c0.4,0,0.9,0.1,1.2,0.1c0.3,0,0.6,0.1,0.8,0.1h0.3c0.4,0,0.7,0,1.1,0c0.4,0,0.8,0,1.2,0c0.4,0,0.9,0,1.4,0c0.9,0,1.1-0.3,1.2-1.3
		l0-0.1l0-0.1l0,0l0,0c0.2-0.3,0.3-0.9,0.3-1.3c0.1-0.4,0.1-0.7,0.2-1c0-0.1,0-0.1,0-0.2c-0.1-0.1-0.2-0.1-0.3-0.1c0,0-0.1,0-0.1,0
		c-0.2,0-0.4,0.1-0.6,0.1c-0.2,0-0.4,0-0.6,0c-0.2,0-0.4,0-0.5,0c-0.1,0-0.2,0-0.3,0c-0.4,0-0.8,0-1.1,0c-0.3,0-0.6,0-1,0
		c-0.2,0-0.4,0.1-0.7,0.1c-0.7,0-1.4-0.1-2-0.2c-0.3,0-0.5-0.1-0.7-0.1c-0.1,0-0.3,0-0.4,0c-0.6,0-1.1-0.2-1.4-0.4
		c-0.8,0-1.2-0.3-1.5-0.6c-0.6-0.1-0.8-0.4-1.1-0.7c-0.1-0.1-0.1-0.2-0.2-0.2c-0.4-0.2-0.9-0.8-1.1-1.2c-0.3-0.2-0.4-0.6-0.5-1
		c0-0.1-0.1-0.4-0.1-0.4l0,0l0-0.1c-0.3-0.6-0.3-0.9-0.3-1.3c0-0.2,0-0.4,0-0.7c-0.3-1.2,0.1-2.2,0.5-3.3l0.1-0.3l0,0l0-0.1
		c0.1-0.2,0.2-0.3,0.3-0.5c0.1-0.2,0.2-0.5,0.4-0.9l0,0l0.1-0.1c0.1-0.1,0.1-0.2,0.2-0.3c0.1-0.3,0.3-0.9,0.9-1.1
		c0,0,0.2-0.2,0.3-0.4c0.2-0.2,0.4-0.5,0.7-0.7c0.3-0.2,0.7-0.6,1.1-0.8l0.1-0.1c0.2-0.2,0.5-0.3,0.7-0.4c0.2-0.1,0.5-0.2,0.7-0.4
		l0,0l0.1-0.1c0.1-0.1,0.2-0.1,0.3-0.1c0.4-0.1,0.7-0.2,1.1-0.6l0,0l0,0l0.1,0l0.1,0c0.5-0.1,0.8-0.3,1.2-0.4c0.5-0.2,1-0.4,1.7-0.6
		c0.4-0.1,1.8-0.4,3.1-0.5c0.1,0,0.3,0,0.5-0.1c0.3-0.1,0.7-0.1,1.1-0.1c0.1,0,0.2,0,0.3,0c0.1,0,0.3,0,0.4,0c0.2,0,0.4,0,0.6,0
		c0.2,0,0.4,0,0.6,0c0.2,0,0.4,0,0.6-0.1l0.1,0l0.1,0l0.1,0l0.1,0c0,0,0.1,0,0.1,0c0.1,0,0.3,0,0.3-0.1c0,0,0-0.1,0-0.1v-0.1
		c0,0,0,0,0,0c0,0,0-0.1-0.1-0.1c-0.1-0.1-0.2-0.3-0.3-0.5c-0.2-0.3-0.6-0.9-0.9-1.2c-0.3-0.2-0.5-0.5-0.6-0.7
		c-0.1-0.2-0.2-0.4-0.5-0.6c-0.4-0.5-0.7-0.8-0.9-0.8c0,0,0,0-0.1,0l0,0l-0.1,0c-0.1,0-0.1,0-0.1,0c-0.2,0-0.3,0.1-0.5,0.2
		c-0.2,0.1-0.5,0.2-0.8,0.2c-0.1,0-0.3,0-0.4-0.1c0,0-0.1,0-0.1,0c-0.1,0-0.3,0.1-0.5,0.2c-0.3,0.2-0.6,0.3-1.1,0.3c0,0-0.1,0-0.1,0
		l-0.1,0c-0.3,0-0.6,0.1-0.9,0.2c-0.3,0.1-0.6,0.3-1,0.3c0,0-0.1,0-0.1,0c0,0-0.1,0-0.1,0c-0.4,0-0.8,0.1-1.1,0.2
		c-0.3,0.1-0.6,0.2-0.8,0.2c-0.7,0-1.2,0.2-2.1,0.4l-0.2,0.1c-0.7,0.2-1.3,0.4-2,0.4c-0.1,0-0.1,0-0.2,0c-0.5,0.1-1,0.2-1.5,0.3
		c-0.2,0.1-0.4,0.1-0.6,0.2c-0.7,0.2-1.1,0.3-1.7,0.4c0,0-0.1,0-0.2,0c-0.5,0-1-0.3-1.2-0.7c-0.2-0.5,0-1.1,0.4-1.5
		c0.7-0.5,1-0.8,1.5-1.2c0.1-0.1,0.3-0.3,0.5-0.4c0.3-0.2,0.6-0.5,0.9-0.8l0,0l0.1-0.1c0.4-0.2,0.9-0.7,1.2-1l0.1-0.1
		c0.3-0.4,0.8-0.9,1.2-1.2l0.2-0.2c0.1-0.1,0.2-0.2,0.3-0.3c0.3-0.3,0.6-0.7,1.1-1.1c0.3-0.3,0.5-0.5,0.7-0.8
		c0.1-0.2,0.3-0.4,0.5-0.6c0.5-0.5,0.9-1,1-1.2l0,0l0-0.1C29.9,5.2,30,5.1,30.1,5c0.2-0.3,0.5-0.7,1-1.1c0.3-0.4,0.7-0.5,1-0.6
		c0.4-0.1,0.4-0.1,0.4-0.3l0,0l0-0.1c0-0.1-0.2-0.3-0.4-0.4c-0.2-0.1-0.5-0.3-0.7-0.6c-0.2-0.2-0.3-0.4-0.5-0.5
		c-0.4-0.2-0.9-0.7-1.2-1C29.5,0.3,29.2,0,28.9,0h-0.1c-0.3,0-0.7,0.2-1.1,0.3c-0.3,0.1-0.5,0.2-0.7,0.2l0,0l-0.1,0
		c-0.1,0-0.1,0-0.2,0c-0.4,0-0.8,0.1-1.1,0.2c-0.2,0-0.3,0.1-0.5,0.1C24.8,0.9,24.4,0.9,24,1c-0.6,0.1-1.3,0.1-2,0.3
		c-0.2,0-0.5,0.1-0.8,0.1c-0.4,0-0.9,0.1-1.2,0.2c-0.5,0.2-0.9,0.2-1.2,0.2l-0.1,0l-0.1,0c-0.2,0-0.4,0-0.7,0.1
		c-0.4,0.1-0.7,0.1-0.9,0.1l-0.2,0l-0.2,0c-0.2,0-0.4,0-0.6,0.1c-0.6,0.1-1.4,0.2-2.2,0.2c-0.2,0-0.3,0-0.4,0
		c-0.5,0-0.8,0.1-0.9,0.3c-0.1,0.2-0.2,0.5,0,0.9c0.4,0.8,0.5,1.6,0.7,2.2l0,0.2c0,0.5,0.3,0.9,0.6,0.9c0,0,0.1,0,0.1,0
		c0.3,0,0.4-0.1,0.6-0.1c0.4,0,0.6-0.1,1.2-0.2c0.1,0,0.3-0.1,0.4-0.1c0.3-0.1,0.8-0.3,1.4-0.3c0.2,0,0.3-0.1,0.5-0.1
		c0.3-0.1,0.6-0.2,1-0.3c0.1,0,0.3-0.1,0.5-0.1c0.3-0.1,0.8-0.3,1.3-0.3c0.3,0,0.7-0.1,1-0.2c0.2-0.1,0.4-0.1,0.6-0.2
		c0.2,0,0.3,0,0.5,0c0.6,0,1.1,0.3,1.3,0.7c0.1,0.3,0.1,0.7-0.2,1c0,0-0.1,0.1-0.1,0.2c-0.2,0.3-0.4,0.7-0.9,1c0,0-0.1,0.1-0.1,0.2
		c-0.1,0.1-0.2,0.4-0.6,0.5c-0.2,0.2-0.3,0.3-0.5,0.5c-0.3,0.4-0.7,0.8-1.3,1.2c-0.3,0.2-0.6,0.5-0.9,0.8c-0.2,0.2-0.5,0.5-0.7,0.7
		c-0.2,0.2-0.4,0.4-0.6,0.5c-0.4,0.4-0.8,0.7-1.3,1c-0.4,0.5-0.9,1-1.9,1.5c-0.6,0.6-1,0.9-1.9,1.4c-0.3,0.2-0.6,0.4-0.8,0.5
		c-0.3,0.2-0.5,0.3-0.8,0.6l0,0l-0.1,0c-0.2,0.1-0.3,0.1-0.5,0.3c-0.2,0.1-0.5,0.3-0.9,0.5c-0.2,0.1-0.4,0.2-0.6,0.3
		c-0.4,0.2-0.8,0.4-1.1,0.5c0,0-0.1,0.1-0.2,0.1c-0.3,0.1-0.7,0.3-1.2,0.4c-0.3,0-0.6,0.1-0.9,0.3c-0.3,0.1-0.5,0.2-0.8,0.2
		c-0.4,0.1-0.5,0.4-0.5,0.5c0,0.1,0,0.1,0,0.2C4.5,20.6,4.5,20.7,4.6,21z"/>
	<path d="M3.7,88.7c0.1,0.3,0.1,0.6,0.2,0.9l0,0l0,0.1c0,0.4,0.3,1.2,0.5,1.6l0.1,0.1c0.1,0.4,0.4,1,0.7,1.6
		c0.1,0.1,0.2,0.3,0.3,0.5c0.2,0.3,0.4,0.6,0.7,1c0.5,0.6,1,0.9,1.3,1l0.1,0l0.1,0l0,0l0,0c0.6,0.5,1.3,0.8,2,0.9l0.8,0.1
		c0.4,0,0.7,0,1,0c1.1,0,1.4-0.2,1.5-0.2c0.3-0.2,0.6-0.3,0.9-0.4c0.4-0.1,0.7-0.2,0.9-0.5c0.2-0.3,0.6-0.5,0.9-0.7
		c0.3-0.2,0.6-0.4,0.8-0.6c0.1-0.3,0.4-0.5,0.6-0.7c0.2-0.2,0.5-0.5,0.8-0.9l0,0l0.1-0.1c0.4-0.3,0.7-0.7,0.9-1.2
		c0.1-0.2,0.2-0.3,0.3-0.5c0.1-0.2,0.2-0.4,0.4-0.6c0.3-0.4,0.6-0.8,0.7-1.1c0.1-0.4,0.3-0.8,0.5-1.2c0.2-0.3,0.3-0.6,0.4-0.8
		c0.2-0.5,0.3-0.8,0.5-1.1c0.1-0.2,0.2-0.4,0.3-0.8c0.1-0.4,0.3-0.9,0.5-1.3c0.2-0.4,0.3-0.7,0.4-1c0.1-0.4,0.2-0.7,0.4-1.1
		c0.2-0.4,0.3-0.8,0.4-1.2c0.1-0.4,0.2-0.7,0.3-1.1c0.1-0.4,0.3-0.9,0.3-1.3c0.1-0.5,0.2-0.8,0.3-1.3c0.1-0.4,0.3-0.7,0.3-1.2
		c0-0.6,0.3-1.5,0.8-2.5c0.1-0.1,0.2-0.3,0.4-0.4c0.1-0.1,0.3-0.2,0.3-0.3v0l0-0.1c0-0.1,0-0.1-0.2-0.4c-0.2-0.2-0.5-0.7-0.3-1.1
		c0.1-0.2,0.3-0.5,0.9-0.6c0.1,0,0.1,0,0.2,0c0.5,0,0.9,0.1,1.3,0.2c0.2,0.1,0.5,0.1,0.7,0.2c0.7,0.1,1.1,0.3,1.4,0.4
		c0.2,0.1,0.4,0.2,0.7,0.2c0.4,0.1,0.8,0.3,1.2,0.5c0.2,0.1,0.4,0.2,0.6,0.3c0.3,0.1,0.6,0.4,0.9,0.6c0.2,0.2,0.4,0.4,0.7,0.5
		c0.4,0.1,0.7,0.5,0.9,0.8c0.2,0.2,0.4,0.5,0.6,0.6c0.4,0.2,0.6,0.5,0.7,0.8c0.1,0.2,0.2,0.3,0.4,0.5c0.4,0.4,0.6,0.8,0.7,1
		c0.1,0.2,0.1,0.3,0.2,0.4l0,0l0.1,0.1c0.3,0.4,0.4,0.8,0.5,1.1c0.1,0.2,0.2,0.4,0.3,0.6c0.3,0.6,0.4,1.1,0.6,1.7l0,0.2l0,0l0,0.1
		c0,0.3,0,0.7,0.1,1.2c0,0.3,0,0.5,0.1,0.8l0,0l0,0.1c0,0.2,0,0.5-0.1,0.8c0,0.7-0.1,1.5-0.3,2.1c-0.1,0.3-0.2,0.6-0.3,0.9
		c-0.2,0.6-0.3,1.2-0.7,1.6c-0.4,0.4-0.6,0.8-0.8,1.1c-0.2,0.3-0.3,0.5-0.6,0.8c-0.2,0.2-0.3,0.4-0.5,0.5c-0.5,0.5-0.9,1-1.4,1.3
		c-0.2,0.1-0.4,0.3-0.6,0.5c-0.4,0.4-0.9,0.9-1.7,1c-0.3,0.1-0.7,0.3-1.1,0.5c-0.4,0.2-0.8,0.5-1.4,0.7c-0.4,0.1-0.7,0.3-1,0.4
		c-0.5,0.2-1,0.4-1.4,0.5c-0.4,0.1-0.7,0.2-1,0.2c-0.3,0.1-0.6,0.1-1,0.3c-0.1,0-0.3,0.1-0.5,0.1c-0.1,0-0.3,0.1-0.3,0.1
		c-0.1,0.1-0.2,0.1-0.3,0.1c-0.1,0-0.2,0.1-0.3,0.3c0,0.1,0.1,0.4,0.4,0.8l0.1,0.1c0.1,0.2,0.2,0.3,0.3,0.5c0.2,0.3,0.4,0.6,0.6,1.1
		c0.4,1,0.7,1.2,1,1.2c0.1,0,0.2,0,0.2,0l0,0l0.1,0c0.2,0,0.4-0.1,0.6-0.2c0.2-0.1,0.5-0.2,0.8-0.2c0.3-0.1,0.6-0.2,0.8-0.3
		c0.2-0.1,0.5-0.2,0.8-0.3c0.4-0.1,0.6-0.1,0.8-0.3c0.2-0.1,0.4-0.2,0.7-0.3c0.3-0.1,0.5-0.2,0.7-0.3c0.2-0.1,0.4-0.3,0.7-0.3
		c0.3-0.1,0.4-0.2,0.6-0.3c0.2-0.1,0.4-0.3,0.9-0.4c0.3-0.1,0.5-0.2,0.6-0.3c0.2-0.1,0.4-0.3,0.8-0.4c0.5-0.2,0.6-0.3,0.9-0.5
		c0.1-0.1,0.2-0.2,0.3-0.2l0,0l0,0l0.1,0l0.1,0c0,0,0.2-0.1,0.2-0.2c0.2-0.2,0.5-0.6,1-0.7c0.1,0,0.3-0.3,0.7-0.6
		c0.1-0.1,0.3-0.3,0.3-0.3l0,0c0.3-0.3,0.6-0.8,1.2-1.2c0.3-0.2,0.4-0.4,0.6-0.7c0.1-0.1,0.2-0.3,0.3-0.5c0.5-0.6,0.7-1,0.8-1.2
		l0-0.1l0-0.1l0,0l0,0c0.1-0.2,0.2-0.3,0.3-0.6c0.1-0.2,0.1-0.4,0.3-0.7c0-0.4,0.2-0.7,0.3-0.9c0.1-0.2,0.2-0.3,0.2-0.5
		c0-0.1,0.1-0.4,0.1-0.7c0.1-0.3,0.2-0.7,0.2-1.1c0-0.2,0.1-0.4,0.1-0.7c0-0.3,0.1-0.6,0.1-0.8c0-0.3,0-0.6,0-0.9c0-0.3,0-0.5,0-0.7
		c0-0.7,0-1.4-0.1-1.7c-0.1-0.3-0.1-0.6-0.2-0.9c0-0.3-0.1-0.5-0.2-0.8c-0.1-0.3-0.1-0.5-0.2-0.8c0-0.3-0.1-0.6-0.2-0.9
		c-0.1-0.3-0.1-0.5-0.2-0.6c-0.1-0.3-0.1-0.6-0.5-1c-0.3-0.3-0.4-0.7-0.6-1c-0.1-0.2-0.2-0.4-0.3-0.5c-0.2-0.2-0.4-0.6-0.6-0.8
		c-0.1-0.2-0.3-0.5-0.4-0.5c-0.4-0.2-0.5-0.5-0.7-0.7c-0.1-0.2-0.2-0.4-0.5-0.5c-0.5-0.2-0.8-0.6-1.1-0.9c-0.2-0.2-0.3-0.4-0.5-0.5
		c-0.3-0.2-0.5-0.4-0.7-0.5c-0.1-0.1-0.4-0.4-0.5-0.4c-0.3,0-0.6-0.3-0.9-0.5c-0.2-0.2-0.5-0.4-0.7-0.4c0,0,0,0,0,0
		c-0.2,0-0.5-0.2-0.9-0.3c-0.2-0.1-0.5-0.3-0.8-0.4c-0.6-0.3-1.1-0.5-1.5-0.5l-0.1,0l-0.1,0l0,0l0,0c-0.3-0.2-0.6-0.2-1-0.3
		c-0.2,0-0.4-0.1-0.6-0.1c-0.2,0-0.4-0.1-0.5-0.1c-0.3-0.1-0.6-0.2-0.8-0.2c-0.1,0-0.1,0-0.1,0l-0.1,0l-0.1,0l-0.1,0l-0.1,0
		c-1.6-0.1-2.2-0.2-3.5-0.2c-0.9,0-1.6,0.1-2.5,0.1l-0.7,0.1c-1.3,0.1-2.3,0.4-3,0.7c-0.2,0.1-0.3,0.1-0.4,0.2
		c-0.4,0.2-0.8,0.3-1.3,0.4c-0.1,0-0.2,0.1-0.4,0.2c-0.3,0.2-0.6,0.4-1.2,0.4c0,0-0.2,0.1-0.3,0.2c-0.3,0.2-0.6,0.4-1.1,0.5
		c-0.1,0-0.3,0.2-0.5,0.3c-0.2,0.2-0.5,0.4-0.8,0.5c-0.5,0.2-0.7,0.4-1.1,0.7c-0.2,0.2-0.4,0.4-0.8,0.6c-0.4,0.3-0.7,0.6-1,0.9
		c-0.2,0.2-0.4,0.5-0.7,0.7c-0.3,0.4-0.6,0.7-0.8,1c-0.3,0.3-0.5,0.5-0.6,0.8l0,0l0,0.1c-0.6,0.6-0.9,1.2-1.3,1.9
		c-0.2,0.3-0.4,0.7-0.6,1.1c-0.2,0.4-0.3,0.8-0.5,1.1c-0.3,0.4-0.5,1.1-0.6,1.6c-0.1,0.2-0.1,0.4-0.2,0.6c-0.1,0.5-0.2,1-0.3,1.4
		c-0.1,0.3-0.1,0.6-0.2,0.9c-0.1,0.5-0.1,1.1-0.1,1.7v1.2c0,0.5,0.1,0.9,0.1,1.3C3.5,88,3.6,88.3,3.7,88.7z M7.8,85.6
		c0-0.5-0.1-1.1,0.2-1.7c0.1-0.1,0.1-0.4,0.1-0.6c0-0.3,0.1-0.8,0.3-1.2c0.1-0.4,0.2-0.7,0.4-1.1c0.1-0.2,0.2-0.5,0.3-0.7l0,0l0-0.1
		c0.3-0.6,0.7-1.3,0.9-1.7c0.2-0.3,0.3-0.5,0.5-0.7c0.2-0.3,0.4-0.5,0.6-0.9c0.2-0.4,0.5-0.7,0.7-1c0.2-0.2,0.3-0.4,0.4-0.5l0-0.1
		l0-0.1l0,0l0,0c0.3-0.2,0.9-0.8,1.4-1.3c0.6-0.6,0.8-0.8,1.6-1.3c0.2-0.1,0.3-0.2,0.4-0.3c0.2-0.2,0.4-0.4,0.9-0.5
		c0.1,0,0.1-0.1,0.2-0.1c0.3-0.2,0.7-0.5,1.3-0.6c0.1,0,0.3-0.1,0.4-0.1c0.7,0,1.5,0.4,1.9,1c0.4,0.4,0.5,0.9,0.4,1.4
		c-0.1,0.4-0.2,0.8-0.3,1.2c-0.1,0.2-0.1,0.4-0.2,0.7c-0.1,0.3-0.1,0.5-0.1,0.7c-0.1,0.5-0.2,1-0.5,1.5c-0.1,0.2-0.2,0.4-0.2,0.7
		c0,0.3-0.1,0.6-0.3,0.9C19.1,79.4,19,79.7,19,80c-0.1,0.4-0.2,0.9-0.4,1.2c-0.2,0.3-0.3,0.8-0.5,1.3c-0.2,0.6-0.4,1.2-0.6,1.6
		L17,85.1c-0.2,0.3-0.3,0.6-0.4,0.9c-0.2,0.5-0.4,1.1-0.9,1.4c-0.1,0.1-0.2,0.3-0.2,0.5c-0.1,0.3-0.2,0.7-0.5,0.9
		c-0.1,0-0.2,0.2-0.3,0.4c-0.2,0.3-0.4,0.7-0.8,1c-0.1,0.1-0.2,0.2-0.3,0.4c-0.2,0.3-0.5,0.6-0.9,0.8c-0.5,0.3-0.9,0.5-1.7,0.6
		c-0.1,0-0.1,0-0.2,0c-0.6,0-1.2-0.3-1.6-0.8c-0.4-0.3-0.5-0.6-0.8-1.1c-0.1-0.1-0.1-0.2-0.2-0.4l0,0l0-0.1c0-0.2-0.1-0.5-0.2-0.7
		c-0.1-0.4-0.3-0.8-0.2-1.3c0-0.3,0-0.4-0.1-0.7c-0.1-0.3-0.2-0.6,0-1.1C7.8,85.8,7.8,85.7,7.8,85.6z"/>
	<path d="M6.3,151.1c0.5,0,0.9,0.5,0.9,1.1c0,0.4,0,0.7,0,0.9c0,0.4,0,0.7,0.1,1.1c0.1,0.9,0.1,1.7,0,2.7c-0.1,0.4,0,1,0,1.5
		c0,0.4,0,0.9,0,1.4c0,0.5,0,0.9,0,1.3c0,0.5,0,0.9,0,1.5l0,0l0,0.1c-0.2,0.6-0.1,1.2-0.1,1.6c0,0.2,0,0.3,0,0.5
		c0,0.4,0.6,0.8,1.2,0.8c0.4,0.1,0.8,0.1,1.1,0.1c0.2,0,0.4,0,0.5-0.1l0,0l0.1,0c0.9-0.2,1.2-0.4,1.3-0.8c-0.1-0.5-0.1-0.7,0-1.1
		c0-0.1,0-0.3,0-0.5c0-0.4,0-0.7,0-1.1c-0.1-0.5-0.1-1.1,0-1.8c-0.1-0.6-0.1-1.1,0-1.7c0-0.4,0.1-0.8,0-1.2l0,0l0-0.1l0-0.2
		c0-0.8,0.1-1.9,0-2.6l0,0l0-0.1c0.2-0.9,0.2-1.9,0-2.7c0-0.2,0-0.6,0-1c0-0.5,0-1,0-1.3c0-0.6,0.1-1,0.2-1.4
		c0.3-0.6,0.7-0.7,0.9-0.7c0,0,0,0,0,0c0.3,0,0.5,0.1,0.8,0.4l0.3,0.2c0.1,0.1,0.2,0.1,0.2,0.2c0.2,0.2,0.6,0.4,0.8,0.9
		c0,0.1,0.1,0.1,0.3,0.1l0.1,0c0,0,0,0,0.1,0c0.1,0,0.2-0.2,0.4-0.5c0.1-0.4,0.5-1,0.9-1.6l0.1-0.2l0,0l0.1-0.1
		c0.2-0.2,0.3-0.4,0.3-0.7l0-0.1c-0.2-0.5-0.3-0.5-0.4-0.6l0,0l-0.1,0c-0.8-0.5-1.2-0.8-1.7-1.2c-0.4-0.2-0.7-0.5-1-0.7
		c-0.2-0.1-0.3-0.2-0.5-0.4c-1-0.3-1.5-1.5-1.6-1.9c-0.1-0.4-0.1-1.1-0.1-1.4c0-0.4,0.2-0.9,0.5-1.3c0.4-0.4,0.8-0.7,1.3-0.7
		c1-0.1,1.6-0.1,2.2-0.1c0.1,0,0.2,0,0.4,0c0.5,0,0.6-0.1,0.7-0.1c0,0,0.1-0.2,0.1-0.6c-0.1-0.8,0-1.5,0.1-2c0-0.2-0.1-0.6-1.2-0.9
		l-0.1,0c-0.5,0-1,0-1.4,0c-0.4,0-0.7,0-1-0.1l0,0c-0.4,0-1.4-0.2-1.4-2.4c0-0.5-0.1-2.3-0.1-3.4c0.1-0.7,0.1-1.6,0.8-2.5
		c0.5-0.6,0.8-0.8,1.3-1l0.1,0c0.3-0.1,0.6-0.2,0.9-0.4l0.8-0.3l0.1,0l0.1,0l0.1,0l0.1,0c0,0,0.1,0,0.1,0c0.2,0,0.4,0,0.6-0.1
		c0.2,0,0.4-0.1,0.6-0.1c0.1,0,0.2,0,0.3,0c0,0,0,0,0-0.1c0-0.1-0.1-0.2-0.1-0.2c-0.2-0.2-0.8-0.7-1.1-1.1c-0.4-0.2-0.9-0.8-1.1-1
		c-0.2-0.1-0.3-0.2-0.4-0.3c-0.2-0.2-0.3-0.2-0.4-0.2h-0.1c-0.2,0-0.3,0.1-0.5,0.1c-0.2,0.1-0.4,0.1-0.6,0.2
		c-0.2,0.1-0.4,0.2-0.6,0.3c-0.5,0.3-1,0.6-1.6,0.6c-0.8,0.1-1.4,0.3-2,0.6l0,0l0,0l0,0l0,0c-0.9,0.2-1.2,0.3-2,0.6
		c-0.4,0.2-0.9,0.3-1.4,0.3c-0.3,0-0.6,0.1-0.8,0.2l0,0l0,0H3.9H3.9c-0.6,0-1.2,0.2-1.7,0.4l0,0l-0.1,0l0,0l0,0
		c-0.4,0-0.6,0.1-0.6,0.2c-0.1,0.1-0.1,0.2,0,0.4l0,0l0,0.1c0,0.4,0.2,0.9,0.4,1.3c0.1,0.3,0.2,0.5,0.3,0.7l0,0l0,0.1
		c0,0.2,0.3,0.5,0.8,0.5c0.1,0,0.2,0,0.3,0c0.3-0.1,0.5-0.1,0.7-0.1c0.3-0.1,0.5-0.1,0.8-0.2c0.3-0.1,0.6-0.1,0.9-0.1
		c1.1,0,1.8,0.6,1.8,1.5c0,0.3,0,0.7,0,1.1c0,0.3,0,0.6,0,0.8l0,0.1l0,0.1l0,0.1l0,0.1c0,0.1,0,0.4,0,0.6c0,0.5,0,1-0.2,1.6l0,0
		l0,0.1c-0.5,0.6-0.8,0.9-1.6,0.9c-0.2,0-0.4,0-0.6,0c-0.1,0-0.3,0-0.4,0c-0.1,0-0.3,0-0.4,0c-0.1,0-0.2,0-0.3,0c-0.4,0-0.7,0-1-0.1
		c-0.3,0-0.6-0.1-0.9-0.1l-0.1,0c-0.3,0-0.6,0.1-0.7,0.3c-0.2,0.2-0.2,0.4-0.2,0.7c0.1,0.2,0.1,0.5,0,0.8c0,0.2-0.1,0.5,0,0.6
		c0,0.6,0.4,1.2,0.9,1.2c0,0,0.1,0,0.1,0c0.2,0,0.3,0,0.5,0c0.2,0,0.4,0,0.7,0c0.3,0,0.5,0,0.8,0c0.2,0,0.4,0,0.5,0
		c0.1,0,0.2,0,0.2,0c0.6,0,1.1,0.3,1.3,0.9c0.2,0.7,0.2,1.4,0,2c-0.1,0.6-0.4,1.3-0.6,1.9c-0.1,0.3-0.2,0.7-0.3,0.9
		c-0.3,0.7-0.5,1.1-0.6,1.5c-0.1,0.3-0.3,0.8-0.5,1.1c-0.1,0.1-0.2,0.3-0.2,0.4l0,0.1l0,0.1l-0.1,0.1l-0.1,0.1
		c-0.1,0.1-0.2,0.4-0.3,0.7c-0.1,0.2-0.1,0.5-0.3,0.7c-0.1,0.4-0.3,0.8-0.6,1.1c-0.1,0.1-0.1,0.2-0.2,0.3c-0.1,0.2-0.2,0.3-0.3,0.5
		c-0.2,0.3-0.4,0.5-0.4,0.7c-0.1,0.5-0.5,1.2-0.9,1.6C0.2,153,0,153.4,0,153.7c0,0.5,0.2,0.7,0.7,1.2c0.1,0.1,0.2,0.2,0.3,0.2
		c0.2,0.2,0.3,0.3,0.5,0.6c0.3,0.4,0.7,0.9,1,1l0,0l0.1,0l0,0c0,0,0.1-0.1,0.1-0.2c0.1-0.1,0.2-0.3,0.3-0.4c0.3-0.3,0.4-0.5,0.5-0.8
		c0.1-0.3,0.3-0.6,0.6-0.9c0.1-0.2,0.3-0.5,0.4-0.8c0.2-0.4,0.5-0.9,0.7-1.4C5.6,151.3,6,151.1,6.3,151.1z"/>
	<path d="M44.7,161.2c-0.2,0-0.3,0-0.5,0c-0.2,0-0.5,0-0.8,0l-0.3,0c-0.1,0-0.2,0-0.4,0c-0.2,0-0.4,0-0.6,0c-0.2,0-0.4-0.1-0.6-0.1
		c-0.2,0-0.3,0-0.4,0c-0.3,0.1-0.7,0.1-1,0.1c-0.3,0-0.5,0-0.8-0.1c-0.1,0-0.2,0-0.3,0c-0.5,0.1-1,0.1-1.6,0.1
		c-0.7,0-1.3-0.1-1.9-0.2c-0.1,0-0.3,0-0.5,0c-1,0-1.6-0.1-2.3-0.5c-0.2-0.1-0.3-0.3-0.4-0.6c-0.1-0.4-0.1-1.1,0.3-1.6
		c0.3-0.4,1-0.6,1.9-0.6c0.4,0,0.9,0,1.2,0.1l2.4,0l0.2,0c0.4,0,0.7-0.1,1-0.1c0.4,0,0.7,0,1.1,0.1c0.2,0,0.4,0,0.6,0
		c0.3,0,0.5,0,0.7,0.1c0.2,0,0.4,0,0.6,0c0.1,0,0.2,0,0.3,0c0.6,0,1-0.2,1-1.2c0-0.2,0-0.5,0-0.8c0-0.3,0-0.6,0-0.8
		c0-0.4-0.1-0.6-1-0.8c-0.1,0-0.3,0-0.4,0c-0.1,0-0.3,0-0.4,0c-0.2,0-0.3,0-0.4-0.1c-0.2,0-0.4,0-0.7,0c-0.4,0-0.7,0-1,0.1
		c-0.3,0-0.6,0.1-1,0.1c-0.3,0-0.5,0-0.8-0.1c-0.6,0.1-1.1,0.1-1.5,0.1s-0.9,0-1.3-0.1c-0.3,0-0.6,0.1-0.9,0.1c-0.5,0-1.8-0.1-2-0.8
		c-0.2-0.6-0.1-1,0.1-1.4c0.3-0.5,0.7-1,1.8-1.1l0,0l0.1,0c0.1,0,0.3,0,0.3,0c0.1,0,0.1,0,0.2,0c0.1,0,0.2,0,0.3,0
		c0.2,0,0.3,0,0.5,0.1c0.2,0,0.4,0,0.6,0c0.7,0,2,0.2,2.3,0.9c0.1,0.2,0.3,0.3,0.8,0.3l0.1,0l0.1,0c0.3,0,0.5,0,0.6,0
		c0.1,0,0.2,0,0.3,0c0.1,0,0.3,0,0.4,0c0,0,0,0,0,0c0,0,0,0,0.1,0c0.3,0,0.6-0.1,0.7-0.3c0.2-0.2,0.2-0.5,0.2-0.7l0,0l0-0.1
		c0.1-0.6,0-1.1,0-1.7c0-0.6-0.1-1.3,0-1.9c-0.1-0.5,0-1.1,0-1.8c0-0.6,0.1-1.3,0-1.9c0-0.7,0-1.3,0-1.9c0-0.7,0-1.3,0-2
		c-0.1-0.5,0-1.1,0-1.7c0-0.4,0.1-0.9,0.1-1.4c0-0.2-0.1-0.7-0.8-0.8c-0.1,0-0.3,0-0.5,0c-0.2,0-0.5,0-0.7-0.1
		c-0.2,0-0.4-0.1-0.5-0.1c-0.1,0-0.2,0-0.3,0c-0.3,0.1-0.7,0.2-1.2,0.2c-0.4,0-0.8-0.1-1.2-0.2c-0.2,0-0.4,0-0.6,0
		c-0.3,0-0.6,0-0.9,0c-0.2,0-0.5,0-0.6,0c-0.9,0-1.7,0-2.1-0.5c-0.2-0.3-0.3-0.6-0.3-1c0.1-0.6,0.6-1.2,1.6-1.3
		c0.3-0.1,0.6-0.2,0.9-0.2c0.1,0,0.2,0,0.4,0c0.1,0,0.3,0,0.5,0c0.1,0,0.2,0,0.3,0c0.6-0.1,1.1-0.1,1.6-0.1c0.5,0,1.2,0,2,0.1
		c0.2,0,0.4-0.1,0.7-0.1c0.4,0,0.7,0,1.1,0.1c0.2,0,0.4,0,0.6,0c0.2,0,0.4,0,0.6-0.1c0.3,0,0.5,0,0.8,0c0.3,0,0.6,0,0.9,0.1
		c0.2,0,0.4-0.1,0.6-0.3c0.2-0.2,0.3-0.5,0.3-0.8c0-0.2,0-0.3,0-0.4c0-0.3,0-0.7,0-1.1c0-0.7-0.1-0.9-1-1.1c-0.2,0-0.2-0.1-0.3-0.1
		c-0.1,0-0.1,0-0.2,0c-0.1,0-0.2,0.1-0.4,0.1c-0.1,0-0.1,0-0.2,0c-0.8,0.1-1.4,0.1-2,0.1c-0.5,0-1,0-1.6-0.1c0,0-0.1,0-0.2,0
		c-0.3,0-0.7,0-1,0.1c-0.4,0-0.8,0.1-1.2,0.1c-0.4,0-0.8,0-1.2-0.1l-0.4,0c-0.3,0-0.6,0-0.9,0c-0.5,0-1.6,0-2-0.9
		c-0.1-0.4-0.5-1.7,0.5-2.6c0.5-0.5,0.8-0.6,1.5-0.7c1-0.4,1.7-0.5,2.5-0.5c0.9,0,1.4-0.1,1.9-0.3c0.3-0.1,0.6-0.1,0.9-0.1
		c0.5,0,1-0.1,1.4-0.3l0,0l0.1,0c0.2,0,0.3,0,0.4,0c0.1,0,0.2,0,0.3,0c0.1,0,0.2,0,0.3,0.1c0,0,0.1,0,0.1,0c0,0,0-0.1-0.1-0.2
		c-0.2-0.1-0.3-0.3-0.4-0.4c-0.2-0.2-0.3-0.3-0.5-0.4l0,0l-0.1,0c-0.5-0.4-0.8-0.8-1-1.1c-0.1-0.1-0.1-0.1-0.2-0.2l-0.1-0.1
		c-0.2-0.3-0.5-0.6-0.8-0.6c0,0-0.1,0-0.1,0c-0.3,0.1-0.5,0.1-0.8,0.1c-0.4,0-0.7,0-0.9,0.1l-2.2,0.5c-0.7,0.3-1.2,0.3-1.8,0.3
		c-0.2,0-0.3,0-0.5,0c-0.4,0-0.7,0.1-1.1,0.2c-0.4,0.1-0.8,0.2-1.2,0.2c-0.2,0-0.4,0.1-0.7,0.1c-0.4,0.1-0.8,0.2-1.2,0.2
		c-0.1,0-0.2,0-0.3,0c-0.2,0-0.5,0.1-0.7,0.1c-0.4,0.1-0.8,0.1-1.2,0.1c-0.8,0.2-1.7,0.3-2.1,0.3h0l-0.1,0c-0.1,0-0.2,0-0.4,0
		c-0.3,0-0.6,0.1-0.9,0.1c-0.2,0-0.3,0.1-0.5,0.1l-0.1,0c-0.5,0-1.5,0-1.8,0.1l0,0l-0.1,0c-0.2,0-0.4,0-0.5,0c-0.2,0-0.4,0-0.6,0
		c-0.6,0-0.8,0.2-0.9,0.6l0,0l0,0.1c0,0.2,0.2,0.7,0.3,0.9c0.1,0.3,0.3,0.7,0.3,1c0,0.7,0.6,0.8,1,0.8c0.1,0,0.3,0,0.5,0
		c0.5,0,1-0.1,1.6-0.1c0.6-0.1,1.3-0.2,1.9-0.2c0.3,0,0.5,0,0.8,0c0.4,0,0.8,0,1.7-0.2l0,0l0.1,0c0.1,0,0.1,0,0.1,0
		c0.1,0,0.1,0,0.2,0c0.1,0,0.2,0,0.3,0c0.1,0,0.6,0,1,0.4c0.4,0.4,0.7,1,0.3,1.8c-0.2,0.9-1.4,1.2-2.2,1.2c-0.2,0-0.4,0-0.6,0
		c-0.6-0.1-1.2-0.1-1.8-0.1c-0.3,0-0.6,0-1,0l-0.3,0c-0.3,0-0.7,0.1-1,0.1c-0.4,0-0.8,0-1.1-0.1c-0.1,0-0.2,0-0.3,0
		c-0.2,0-0.5,0-0.7,0c-0.3,0-0.5,0-0.8,0c-0.2,0-0.4,0-0.6-0.1c-0.2,0-0.3,0.1-0.5,0.2c-0.2,0.2-0.2,0.6-0.2,0.8l0,0.1l0,0.1l0,0.1
		l0,0.1c-0.2,0.7-0.2,1.1,0,1.5l0,0l0,0.1c0,0.7,0,0.7,0.7,0.7c0.2,0.1,0.3,0.1,0.5,0.1c0.2,0,0.4,0,0.5,0c0.3,0,0.5-0.1,0.8-0.1
		c0.1,0,0.3,0,0.5,0c0.4,0.1,0.7,0.1,1,0.1c0.4,0,0.8,0,1.2-0.1c0.4,0,1-0.1,1.7-0.1c0.5,0,0.9,0,1.3,0.1l0.4,0l0.3,0c0,0,0,0,0,0
		c0.5,0,0.8,0,1.4,0.2c0.6,0.1,0.7,0.8,0.8,1c0,0.2,0.1,0.9-0.3,1.3c-0.3,0.4-0.8,0.5-1.6,0.5c-0.1,0-0.3,0-0.4,0
		c-0.1,0-0.3,0.1-0.4,0.1c-0.2,0-0.4,0-0.6-0.1c-0.2,0-0.4-0.1-0.6-0.1c-0.1,0-0.2,0-0.3,0c-0.4,0.1-0.7,0.1-1,0.1
		c-0.3,0-0.5,0-0.8,0c-0.2,0-0.4,0-0.5,0h0l-0.1,0c-0.2-0.1-0.4-0.1-0.6-0.1c-0.2,0-0.4,0-0.5,0c-0.1,0-0.2,0-0.3,0
		c-0.7,0-1.2,0.4-1.3,1.1c-0.1,0.6,0,1.1,0,1.6c0,0.4,0.1,0.8,0,1.2c0,0.4,0.1,0.8,0.1,1.1c0.1,0.8,0.1,1.4,0.1,2.4
		c0,0.3,0,0.5,0,0.8c0,0.5,0,1.1-0.1,1.6c0.1,0.6,0.1,1,0,1.4c0,0.2,0,0.3,0,0.5c0,0.4,0,0.8,0,1.1c0,1.1-0.1,1.8,0,2.6
		c0,0.8,0.3,1.1,1,1.1c0.2,0,0.4,0,0.6,0c0.2,0,0.4,0,0.6,0c0.2,0,0.3,0,0.4,0c0.7-0.1,0.8-0.1,1-0.4c0.6-0.9,1.2-1.2,2.7-1.2
		c0.2,0,0.4,0,0.6,0c0.2,0,0.3,0,0.5,0c0.2,0,0.3,0,0.5,0l0.1,0c0.5,0.1,0.8,0.2,1.3,0.7c0.4,0.4,0.4,1.2,0.1,1.7
		c-0.2,0.7-1.1,0.8-2,0.8c-0.2,0-0.4,0-0.7,0l0,0l-0.1,0c-0.3-0.1-0.7-0.1-1.2-0.1c-0.5,0-1,0-1.3,0.1l-0.1,0
		c-0.3,0-0.8,0.1-1.3,0.1c-0.6,0-1,0-1.3-0.1c-0.5,0-0.9,0.1-1.2,0.1c-0.4,0-0.7,0-1-0.1c-0.4,0.1-0.7,0.3-0.9,0.5
		c-0.1,0.1-0.1,0.3-0.1,0.5l0,0.1l0,0.1l0,0.1l0,0.1c-0.1,0.5-0.1,0.6,0,1.1c0,0.6,0.3,1.3,0.7,1.3c0,0,0.1,0,0.1,0
		c0.5-0.1,0.9-0.1,1.3-0.1c0.4,0,0.7,0,1.2,0.1c0.1,0,0.3,0,0.5,0c0.3,0,0.5,0,0.7,0c0.2,0,0.5,0,0.7,0c0.1,0,0.2,0,0.3,0
		c0.1,0,0.1,0,0.2,0c0.2,0,0.5,0,0.7,0c0.3,0,0.6,0,0.9,0c0.3,0,0.6,0,0.9,0.1c0.2,0,0.3,0,0.5,0c0.5,0,1.9,0.1,2.3,0.8
		c0.4,0.8,0.2,1.4,0,1.7c0,0-0.1,0.1-0.1,0.1c-0.2,0.3-0.5,0.7-1.2,0.7c0,0-0.1,0-0.1,0c-0.2,0-0.4,0-0.6,0c-0.2,0-0.5,0-0.8,0
		c-0.3,0-0.5,0-0.8,0c-0.3,0-0.6,0-1,0c-0.3,0-0.5,0-0.7,0c-0.3,0-0.5,0-0.8,0c-0.4,0-0.8,0-1.1-0.1c-0.4,0.1-0.8,0.2-1.3,0.2
		c-0.5,0-1-0.1-1.6-0.2c-0.2,0-0.4,0-0.7,0c-0.3,0-0.6,0-0.9,0c-0.2,0-0.5,0-0.7,0c-0.2,0-0.3,0-0.5,0c-0.9,0.2-0.9,0.3-0.9,1.1l0,0
		l0,0.1c-0.1,0.2,0,0.3,0,0.5c0,0.2,0.1,0.4,0,0.8c0,0.6,0.3,1,0.9,1.1c0.3,0,0.7,0,1,0c0.3,0,0.7,0,0.9,0c0.3,0,0.6,0,0.9,0l0,0
		l0.1,0c0.3,0.1,0.7,0.1,1,0.1c0.5,0,1-0.1,1.6-0.1l0.1,0l0.1,0l0.1,0l0.1,0c0.2,0.1,0.3,0.1,0.6,0.1c0.2,0,0.5,0,0.7-0.1
		c0.2,0,0.5-0.1,0.8-0.1c0.1,0,0.3,0,0.5,0c0.2,0,0.5,0,0.7,0c0.2,0,0.4,0,0.6,0c0.1,0,0.3,0,0.4,0c0.1,0,0.3,0,0.5,0
		c0.2,0,0.4,0,0.7,0c0.2,0,0.4,0,0.7,0c0.2,0,0.3,0,0.5,0l0.1,0l0.1,0l0.1,0l0.1,0c0,0,0.1,0,0.2,0c0.2,0,0.4,0,0.6,0
		c0.3,0,0.5-0.1,0.8-0.1c0.2,0,0.4,0,0.6,0.1c0.2,0,0.5,0,0.7,0c0.3,0,0.5,0,0.7,0c0.2,0,0.4,0,0.6,0c0.1,0,0.1,0,0.2,0l0,0l0.1,0
		c0.1,0,0.3,0,0.4,0c0.2,0,0.4,0,0.6,0c0.3,0,0.5,0,0.8,0c0.1,0,0.3,0,0.4,0c0.2,0,0.4,0,0.5,0c0.3,0,0.5,0,0.7,0c0.2,0,0.4,0,0.5,0
		c0.1,0,0.3,0,0.4,0l0,0l0.1,0c0.2,0,0.7,0.1,1.2,0.1c0.3,0,0.6,0,0.8-0.1l0,0l0.1,0c0.1,0,0.2,0,0.3,0c0.3,0,0.6,0,0.9,0.1
		c0.3,0,0.6,0.1,0.8,0.1c0.3,0,0.5,0,0.7-0.1l0,0l0.1,0l0.6,0c0.4,0,0.9,0,1.3,0c0.4,0,0.8,0,1.1,0.1c0.4,0,0.7-0.7,0.8-1.2
		c0-0.2,0-0.4-0.1-0.6c0-0.3-0.1-0.6,0.1-0.9c0,0,0-0.1,0-0.1C45.7,161.6,45.1,161.3,44.7,161.2z M28.6,147.4c-0.1,0.6-0.7,1-1.3,1
		c-0.1,0-0.2,0-0.3,0l-0.1,0c-0.2,0-0.3,0-0.5,0c-0.2,0-0.3,0-0.5,0c-0.2,0-0.4,0-0.6-0.1c-0.2,0-0.5,0-0.6,0c-0.1,0-0.2,0-0.3,0
		c-0.1,0-0.2,0-0.2,0c-0.3,0-0.7,0-1-0.4c-0.2-0.3-0.5-0.9-0.4-1.6c0.1-0.8,1.1-0.9,1.5-1c0.1,0,0.3-0.1,0.5-0.1c0.1,0,0.3,0,0.4,0
		c0.2,0,0.4,0,0.6,0c0.4-0.1,0.8-0.1,1.1-0.1c0.6,0,1.1,0.1,1.5,0.5C28.9,146.1,28.6,147.4,28.6,147.4z M28.4,141.9
		c-0.2,0.3-0.6,0.4-1.1,0.4c-0.1,0-0.3,0-0.6,0c-0.5,0-1,0-1.5,0c-0.5,0-0.8,0-1.1,0c-0.9-0.2-1.4-0.8-1.3-1.6
		c0.1-1.2,1.1-1.3,1.5-1.3c0.1,0,0.2,0,0.3,0c0.2,0,0.4,0,0.7,0c0.2,0,0.3,0,0.5,0c0.2,0,0.3,0,0.5,0c0.2,0,0.4,0,0.6,0
		c0.1,0,0.2,0,0.4,0c0.9,0,1.4,0.5,1.5,1.5C28.7,141.2,28.7,141.6,28.4,141.9z M34.2,139.3c0,0,0.1,0,0.1,0c0.1,0,0.2,0,0.3,0
		c0.3,0,0.6,0,0.9,0.1c0.3,0,0.7,0.1,1,0.1c0.9,0,1.4,0.2,1.8,0.6c0.3,0.3,0.4,0.6,0.4,1c0,0.2,0,0.6-0.4,0.9
		c-0.3,0.3-0.6,0.4-1.1,0.4c-0.1,0-0.2,0-0.3,0c-0.5,0.1-1.1,0.1-1.7,0.1c-0.4,0-0.9,0-1.3-0.1c-0.6,0-1-0.2-1.3-0.5
		c-0.2-0.3-0.4-0.6-0.3-1.1C32.3,139.9,33.1,139.3,34.2,139.3z M32.8,145.6c0.4-0.3,0.8-0.4,1.4-0.4c0.3,0,0.6,0,1,0.1
		c0.2,0,0.3,0,0.4,0c0.1,0,0.2,0,0.2,0c0.1,0,0.1,0,0.2,0c0.2,0,0.3,0,0.4,0l0,0l0.1,0l0.2,0c0.1,0,0.3,0,0.4,0
		c0.5,0,0.9,0.2,1.2,0.5c0.7,0.8,0.4,1.4,0.1,2c-0.3,0.5-0.7,0.6-1,0.6l-0.1,0l-0.1,0c-0.1,0-0.1,0-0.1,0c-0.6,0.1-1.6,0.1-2.2,0.1
		c-0.3,0-0.5-0.1-0.7-0.1c-0.1,0-0.2,0-0.3,0c-0.1,0-0.2,0-0.3,0c-0.3,0-0.6-0.1-1.1-0.4c-0.3-0.3-0.4-0.7-0.4-1.2
		C32.4,146.2,32.5,145.9,32.8,145.6z"/>
	<path d="M37.3,225c0.3-0.1,0.5-0.5,0.5-0.8c0-0.2,0-0.4,0.1-0.6c0-0.3,0.1-0.6,0-0.9c-0.1-0.4,0-0.8,0.1-1.1c0-0.1,0.1-0.3,0.1-0.3
		c0-0.7-0.3-0.7-0.5-0.7c0,0,0,0-0.1,0l0,0l-0.1,0c-0.1,0-0.1,0-0.2,0c-0.2,0-0.5,0.1-0.8,0.2c-0.4,0.1-0.7,0.2-1.2,0.2
		c-0.1,0-0.2,0-0.4,0c-0.4,0-1.4,0.2-2.1,0.3l-0.2,0l0,0l-0.1,0c-0.1,0-0.1,0-0.2,0c-0.3,0-0.7,0.1-1.1,0.1c-0.4,0.1-0.7,0.1-1,0.1
		c-0.1,0-0.1,0-0.2,0l-2.4,0.1l-2.5,0.1c-0.3,0-0.5,0-0.7,0c-0.3,0-0.6,0-0.9,0c-0.3,0-0.5,0-0.8,0c-0.2,0-0.4,0-0.7,0
		c-0.2,0-0.4,0-0.6,0c-0.8-0.1-1.6-0.1-2.5-0.5c-0.6-0.2-1.7-0.8-1.7-2.5c0-1,0.5-2.2,1.1-2.9c0.1-0.1,0.2-0.3,0.3-0.4
		c0.4-0.5,0.7-0.9,1.3-1.3c0.1-0.1,0.2-0.1,0.2-0.2c0.1-0.1,0.3-0.3,0.8-0.5c0.2-0.1,0.3-0.1,0.5-0.1c0.4,0,0.9,0.2,1.2,0.5
		c0.2,0.3,0.4,0.6,0.3,0.9c0.1,0.4,0,0.9,0,1.4c0,0.4-0.1,0.8,0,1l0,0l0,0.1c0,0.9,0.3,1.1,1,1.2l0.3,0c0.3,0,0.6,0.1,0.9,0.1
		c0.3,0,0.5,0,0.7-0.1l0.1,0l0.1,0l0.1,0l0.1,0c0.1,0,0.2,0,0.3,0c0.2,0,0.8,0,0.8-1.2c0-0.3,0-0.5,0-0.7c0-0.3,0-0.6,0-0.9
		c0-0.1,0-0.2,0-0.3c-0.1-0.3-0.1-0.6-0.1-1.1c0-0.3,0-0.7,0-1c0-0.8,0-1.8,0.5-2.6c0.4-0.8,1-1.4,2.3-2.1c0.1-0.1,0.2-0.2,0.4-0.2
		c0.5-0.3,0.9-0.6,1.5-0.6c0,0,0.2-0.1,0.3-0.2c0.2-0.2,0.5-0.3,0.7-0.4c0.2,0,0.4-0.2,0.7-0.4c0.3-0.2,0.6-0.5,1-0.6
		c0.3-0.1,0.4-0.2,0.6-0.3c0.2-0.1,0.5-0.3,0.9-0.4c0.3-0.1,0.4-0.2,0.6-0.3c0.2-0.2,0.5-0.4,1.1-0.5c0.2,0,0.4-0.2,0.6-0.3
		c0.3-0.2,0.5-0.4,0.9-0.5c0.2-0.1,0.4-0.2,0.6-0.3c0.3-0.2,0.7-0.4,1.3-0.7c0.2-0.1,0.5-0.1,0.8-0.1l0.1,0l0.1,0
		c0.4,0,0.5,0,0.7-0.2c0,0,0-0.1,0-0.1c0-0.1-0.1-0.2-0.3-0.5c-0.5-0.5-0.9-0.9-1.2-1.3c-0.2-0.2-0.4-0.4-0.5-0.6
		c-0.2-0.2-0.3-0.3-0.6-0.6l0,0l0,0l0,0l0,0c-0.1-0.2-0.2-0.4-0.7-0.4c-0.1,0-0.1,0-0.1,0c-0.2,0-0.3,0.1-0.4,0.2
		c-0.1,0.1-0.2,0.2-0.4,0.2c-0.4,0.2-0.7,0.3-0.9,0.5c-0.3,0.2-0.6,0.5-1.1,0.6c-0.3,0.1-0.6,0.3-0.9,0.6c-0.3,0.3-0.7,0.6-1.2,0.7
		c-0.1,0-0.2,0.1-0.3,0.2c-0.2,0.1-0.4,0.3-0.8,0.4c-0.3,0.1-0.6,0.3-0.9,0.5c-0.3,0.2-0.7,0.5-1.3,0.7c-0.4,0.4-0.9,0.5-1.3,0.6
		c-0.2,0-0.3,0.1-0.4,0.1c-0.2,0.2-0.5,0.3-0.9,0.3c-0.8,0-1.8-0.6-2-1.2c-0.2-0.3-0.3-0.6-0.4-0.8c-0.1-0.2-0.1-0.5-0.3-0.7l0-0.1
		c-0.4-0.4-0.7-0.7-1.3-1.2c-0.2-0.1-0.4-0.2-0.6-0.3c-0.3-0.2-0.6-0.3-1-0.4c-0.5-0.2-1-0.2-1.5-0.2c-0.2,0-0.4,0-0.5,0
		c-0.2,0-0.3,0-0.5,0c-0.6,0-1.1,0.1-1.6,0.3l-0.1,0c-0.1,0-0.2,0-0.3,0c-0.4,0-0.7-0.2-1-0.6c-0.3-0.5-0.3-1-0.1-1.5
		c0.2-0.6,0.6-1,1-1.3c0,0,0.1,0,0.1-0.1c0.3-0.2,0.8-0.6,1.5-0.6c0.5-0.1,0.9-0.2,1.3-0.2c0.3,0,0.6,0,0.9-0.1
		c0.2,0,0.4-0.1,0.6-0.1c0.4-0.1,0.8-0.2,1.2-0.2c0.1,0,0.1,0,0.2,0l0,0c0.1,0,0.3-0.1,0.6-0.2c0.4-0.1,0.8-0.3,1.3-0.3
		c0.1,0,0.2,0,0.3,0c0,0,0,0,0,0c0.3,0,0.6-0.1,1-0.3c0.3-0.1,0.6-0.2,0.9-0.4l0.1,0c0.6-0.2,1.5-0.5,1.6-0.9c0.1-0.3,0.1-0.6,0-0.8
		c-0.1-0.3-0.1-0.5-0.2-0.7c-0.1-0.2-0.1-0.4-0.2-0.6c-0.2-0.6-0.4-0.8-1-0.8c-0.1,0-0.1,0-0.2,0.1c-0.1,0.1-0.3,0.2-0.5,0.2
		c-0.1,0-0.2,0-0.3-0.1c0,0-0.1,0-0.1,0c-0.1,0-0.2,0-0.3,0.1c-0.2,0.1-0.5,0.3-0.9,0.3c0,0,0,0,0,0c-0.1,0-0.2,0-0.3,0.1
		c-0.2,0.1-0.5,0.2-0.9,0.2c-0.1,0-0.2,0-0.2,0c-0.2,0-0.6,0.1-0.9,0.2c-0.1,0-0.2,0.1-0.3,0.1l-1,0.2c-0.1,0-0.2,0-0.3,0
		c-0.6,0-1.2-0.3-1.5-0.8c-0.3-0.4-0.4-0.9-0.2-1.4c0.1-0.2,0.1-0.4,0.2-0.5c0.2-0.5,0.3-0.7,0.5-1.2c0.1-0.2,0.2-0.4,0.3-0.7
		c0.2-0.4,0.3-0.8,0.5-1c0.2-0.2,0.4-0.4,0.5-0.5c0.2-0.1,0.3-0.2,0.3-0.4c0,0,0-0.1-0.2-0.2c-0.4-0.2-0.9-0.3-1.3-0.4
		c-0.1,0-0.3,0-0.4-0.1c-0.3-0.1-0.5-0.1-0.7-0.2c-0.3-0.1-0.5-0.2-0.7-0.2l0,0l-0.1,0c-0.2-0.1-0.4-0.2-0.6-0.2
		c-0.2,0-0.4,0.1-0.5,0.1l0,0l-0.1,0c-0.2,0-0.3,0.3-0.4,0.9c0,0.2-0.1,0.4-0.1,0.6l-0.3,0.9c0,0,0,0.1,0,0.2
		c-0.1,0.4-0.1,0.9-0.5,1.5c-0.1,0.1-0.1,0.3-0.1,0.5c0,0.3-0.1,0.6-0.3,0.9c-0.1,0.1-0.1,0.3-0.1,0.4c-0.1,0.2-0.1,0.4-0.4,0.8
		c-0.4,0.8-1.9,1.7-2.7,1.7c0,0,0,0,0,0c-0.4,0-0.6,0-0.7,0c-0.1,0-0.2,0-0.2,0c-0.1,0-0.2,0-0.3,0c-0.2,0-0.3,0.1-0.5,0.1
		c-0.2,0-0.4,0-0.5,0c-0.1,0-0.2,0-0.3,0c-0.1,0-0.2,0-0.4,0.1c-0.2,0.1-0.3,0.1-0.6,0.1c-0.2,0-0.5,0-0.7-0.1
		c-0.2,0-0.4-0.1-0.6-0.1c-0.1,0-0.1,0-0.2,0c-0.1,0-0.2,0-0.4,0c-0.3,0-0.7-0.1-1-0.1c-0.2,0-0.4-0.1-0.6-0.1c-0.8,0-0.9,0.9-1,1.2
		c0,0.6,0,1.2,0,1.8c0,0.6,0.4,0.9,0.8,0.9c0.5,0,1.3,0,2.3,0.1c0.1,0,0.1,0,0.2,0c0.1,0,0.3,0,0.4,0c0.2,0,0.3,0,0.5,0
		c0.3,0,0.6,0,0.8,0.1c0,0,0.1,0,0.2,0c0.4,0,1.1,0,1.7,0.9c0.5,0.7,0.4,1.6-0.2,2.2c-0.1,0.1-0.2,0.3-0.2,0.5
		c-0.1,0.3-0.2,0.7-0.6,1.1c-0.2,0.2-0.3,0.4-0.4,0.7c-0.2,0.4-0.4,0.9-0.8,1.2c-0.2,0.1-0.3,0.4-0.5,0.7c-0.2,0.3-0.4,0.7-0.7,1.1
		c-0.6,0.9-0.8,1.2-1.1,1.6l0,0l0,0c-0.3,0.2-0.4,0.4-0.5,0.6c-0.2,0.3-0.4,0.6-0.7,1c-0.4,0.4-0.5,0.7-0.5,1.4
		c0,0.2,0.1,0.2,0.2,0.3c0.2,0.1,0.4,0.2,0.6,0.5c0.1,0.1,0.3,0.2,0.5,0.3c0.3,0.2,0.7,0.4,1,0.7c0.2,0.1,0.3,0.2,0.4,0.3
		c0,0,0.1,0.1,0.1,0.1l0,0l0,0h0c0.3,0,0.8,0,0.8-0.4c0.1-0.4,0.4-0.7,0.6-0.9c0.1-0.2,0.3-0.3,0.4-0.5c0.3-0.6,0.7-1.2,1.6-2.3
		c0.2-0.2,0.4-0.4,0.5-0.5c0.2-0.2,0.4-0.3,0.5-0.5c0.2-0.6,0.7-0.8,1-1.1c0.2-0.1,0.3-0.2,0.3-0.3c0.3-0.5,0.8-0.7,1.1-0.9
		c0.3-0.1,0.5-0.2,0.7-0.5c0.6-0.7,1.5-0.8,2.5-0.8c0.2,0,0.4,0,0.5,0c0.1,0,0.2,0,0.3,0c1.1,0,1.9,0.5,2.5,1.5
		c0.5,1.2,0.4,2.2,0,3.1c-0.4,0.6-0.9,1-1.5,1.4c-0.3,0.2-0.6,0.3-0.8,0.5c-0.4,0.3-0.8,0.5-1.2,0.6c-0.1,0-0.2,0.1-0.3,0.2
		c-0.2,0.2-0.5,0.5-0.9,0.6c-0.3,0.1-0.5,0.3-0.7,0.5c-0.1,0.1-0.3,0.3-0.5,0.4c-0.1,0.1-0.3,0.2-0.4,0.4c-0.2,0.2-0.4,0.4-0.6,0.5
		c-0.1,0.1-0.2,0.2-0.3,0.3c-0.3,0.2-0.4,0.4-0.5,0.6c-0.1,0.2-0.2,0.4-0.4,0.5c-0.4,0.6-0.9,1.2-1,1.8c-0.4,1.1-0.5,1.9-0.5,2.9
		c-0.1,1.1,0,1.3,0.3,2.2l0,0.1l0,0l0,0.1c0,0.5,0.4,1.3,0.8,1.5l0.1,0l0.1,0l0,0.1l0,0.1c0.3,0.6,0.7,1,1.1,1.1l0.1,0l0.1,0l0,0
		l0,0l0,0c0.3,0.3,0.8,0.7,1.5,0.7c0.5,0.1,0.9,0.2,1.1,0.3c0.3,0.1,0.5,0.2,0.9,0.2c0.1,0,0.3,0,0.5,0c0.7,0,1.3,0.1,1.8,0.3
		c0.9,0.1,1.4,0.1,2,0.1c0.2-0.1,0.4-0.1,0.7-0.1c0.2,0,0.5,0,0.7,0c0.2,0,0.4,0,0.6,0h2.2c0.1,0,0.2,0,0.3,0l0.1,0l0.1,0l0.1,0
		l0.1,0c0.3,0,0.6,0.1,0.9,0.1c0.5,0,1-0.1,1.2-0.2c0.2-0.1,0.4-0.1,0.7-0.1c0.2,0,0.4,0,0.6,0c0.2,0,0.4,0,0.6,0
		c0.2,0,0.4,0,0.6-0.1c0.5-0.1,1-0.1,1.4-0.2c0.4,0,0.7,0,1.1-0.1C35.9,225.3,36.4,225.3,37.3,225z"/>
	<path d="M44.5,253.4c-0.1-0.2-0.2-0.3-0.4-0.5c-0.2-0.2-0.4-0.4-0.7-0.9c-0.1-0.2-0.2-0.3-0.4-0.5c-0.2-0.2-0.5-0.4-0.7-0.9
		c-0.1-0.3-0.2-0.4-0.3-0.5c-0.2-0.1-0.4-0.3-0.6-0.8c-0.2-0.4-0.4-0.6-0.8-0.9c-0.3-0.2-0.6-0.5-0.9-0.9l-0.3-0.3
		c-0.4-0.4-0.7-0.8-1.1-1.1l-0.1,0l-0.1,0l0-0.1l0-0.1c-0.1-0.2-0.3-0.4-0.8-0.7l0,0l-0.1-0.1l0,0l0,0c-0.1-0.2-0.4-0.4-0.7-0.4
		h-0.1h-0.1h-0.1l0,0c-0.1,0-0.3,0.2-0.4,0.3c-0.1,0.1-0.2,0.1-0.2,0.2l0,0l0,0c-0.4,0.2-0.6,0.4-0.9,0.7c-0.1,0.2-0.3,0.3-0.5,0.5
		l0,0l0,0c-0.2,0.1-0.4,0.4-0.4,0.8l0,0.1c0,0.2,0.2,0.7,0.8,1.1c0.5,0.2,0.8,0.6,1,0.9c0.2,0.3,0.4,0.5,0.6,0.6
		c0.4,0.3,0.6,0.6,0.9,0.9c0.1,0.2,0.3,0.5,0.6,0.8l0.6,0.7l0.8,1.1c0.4,0.6,0.8,1.2,1.2,1.8c0.2,0.2,0.3,0.5,0.5,0.7
		c0.1,0.3,0.2,0.4,0.4,0.5l0,0l0,0l0,0l0,0c0.3,0.5,0.5,0.6,0.7,0.6c0.3,0,1-0.2,1.2-0.5l0,0l0-0.1c0.2-0.2,0.3-0.2,0.5-0.3
		c0.2-0.2,0.5-0.4,1-0.8l0,0l0.1,0c0.4-0.2,0.5-0.4,0.5-0.7v-0.1c0-0.4-0.1-0.5-0.3-0.8C44.8,253.8,44.6,253.6,44.5,253.4z"/>
	<path d="M31.8,325.7C31.8,325.7,31.8,325.7,31.8,325.7c-0.4,0.6-0.8,0.7-1.4,0.7c-0.2,0-0.5,0-0.9-0.1c-0.2,0-0.3,0-0.5,0
		c-0.2,0-0.4,0-0.5,0c-0.1,0-0.2,0-0.3,0c-0.1,0-0.1,0-0.2,0l-0.1,0l-0.1,0l-0.1,0l-0.1,0c-0.1,0-0.1,0-0.2,0c-0.2,0-0.4,0-0.4,0.5
		l0,0l0,0.1c-0.1,0.1,0.1,0.5,0.2,0.8c0.2,0.5,0.4,1.2,0.4,2c0.1,0.4,0.6,0.8,1.1,0.8c0.1,0,0.2,0,0.2,0c0.2,0,0.4-0.1,0.6-0.1
		c0.2,0,0.5,0,0.7,0c0.3,0,0.5,0,0.8,0c0.4,0,0.7,0,0.9-0.1c0.3-0.1,0.5-0.1,0.7-0.1c0.7-0.1,1.5-0.2,2.2-0.7c0.8-0.4,1-0.6,1.1-1.2
		c0-0.1,0.1-0.3,0.1-0.4c0.1-0.4,0.3-0.9,0.2-1.4l0-0.1l0,0c-0.1-0.2-0.1-0.4,0-0.6c0-0.1,0-0.1,0-0.2c-0.1-0.3-0.2-0.6,0-1.1
		c-0.1-0.4,0-0.7,0-1c0-0.3,0-0.5,0-0.7c-0.1-0.4,0-0.8,0-1.2c0-0.3,0.1-0.7,0-0.9c-0.2-0.9-0.2-1.8-0.1-2.7l0-0.5
		c-0.2-0.9-0.2-2,0-3.2c-0.1-0.6-0.1-1.3,0-2c0-0.4,0.1-0.9,0-1.2c-0.2-1-0.2-2.3,0.1-3.4c0-0.2,0-0.6,0-1c0-0.2,0-0.4,0-0.6
		c0-0.4-0.1-0.8-0.9-1c0,0,0,0,0,0l-0.1,0l-0.1,0c-0.3,0-0.6,0-0.8,0c-0.2,0-0.4,0-0.6,0c-0.3,0-0.5,0-0.6-0.1c0,0,0,0,0,0
		c0,0-0.1,0-0.2,0c-0.2,0-0.5,0-0.8,0c-0.3,0-0.6,0-0.8,0c-0.1,0-0.2,0-0.2,0c-0.3-0.1-0.6-0.1-0.9-0.1c-0.3,0-0.7,0-1.1,0.1
		c-0.2,0-0.4,0-0.7,0c-0.2,0-0.4,0-0.7,0c-0.3,0-0.5,0-0.8,0c-0.1,0-0.4,0-0.7,0c-0.3,0-0.5,0-0.8,0c-0.3,0-0.5,0-0.7,0
		c-0.2,0-0.3,0-0.5,0c-0.2,0-0.4,0-0.7,0c-0.2,0-0.5,0-0.7,0c-0.1,0-0.2,0-0.3,0c-0.4-0.1-0.8-0.1-1.1-0.1c-0.3,0-0.6,0-0.8,0.1l0,0
		l-0.1,0c-0.1,0-0.2,0-0.3,0c-0.3,0-0.5,0-0.7,0c-0.2,0-0.4,0-0.6,0c-0.2,0-0.4,0-0.5-0.1c-0.2,0-0.4,0.1-0.6,0.1
		c-0.2,0-0.4,0-0.7,0c-0.2,0-0.5,0-0.8,0c-0.2,0-0.4,0.1-0.6,0.1c-0.3,0-0.6-0.1-0.8-0.1c-0.2,0-0.3-0.1-0.5-0.1c-0.1,0-0.1,0-0.2,0
		l-0.1,0l-0.1,0l-0.1,0l-0.1,0c-0.2,0-0.3-0.1-0.5-0.1c-0.2,0-0.4,0-0.5,0c-0.2,0-0.4,0-0.5,0c-0.1,0-0.3,0-0.4,0
		c-0.4,0.1-0.8,0.1-1.3,0.1c-0.3,0-0.6,0-0.9-0.1c-0.6,0.2-0.7,0.5-0.8,1l0,0.1c-0.2,0.5-0.1,1,0,1.3c0,0.1,0,0.2,0,0.3
		c0,0.5,0,0.9,0.1,1.3c0.1,0.6,0.1,1.3,0,2.1c0,0.8-0.1,1.9,0,3l0,0l0,0.1c-0.1,0.7-0.1,1.3,0,1.9c0,0.5,0.1,1,0,1.7
		c0.2,1.3,0.1,2.7,0,3.7c-0.1,0.6-0.1,1.1,0,1.5c0,0.2,0,0.3,0,0.4c0.1,0.3,0,0.7,0,1.1c0,0.3-0.1,0.6,0,0.9l0,0.1l0,0.1l0,0.1
		l0,0.1c-0.2,0.4-0.1,0.9,0,1.7c0.1,0.4,0,0.9,0,1.3c0,0.3-0.1,0.6,0,0.7l0,0l0,0.1c0,0.9,0.4,1.3,1.2,1.3h0l0.1,0l0.1,0
		c0.1,0,0.2,0.1,0.3,0.1c0.2,0,0.4,0,0.6,0c0.2,0,0.4-0.1,0.7-0.1h0.1c1.2-0.2,1.2-0.6,1.2-1.1c-0.2-0.8-0.1-1.2,0-2
		c0-0.3,0-0.7,0-1c0-0.3,0-0.7,0-0.8c-0.1-0.9-0.1-2.2,0.3-2.8c0.4-0.6,1.1-1,2.1-1.2c0.3,0,0.5,0,0.8,0c0.3,0,0.6,0,0.8,0
		c0.3,0,0.6,0,0.9,0.1c0.2,0.1,0.5,0.1,0.8,0.1c0.4,0,0.9-0.1,1.3-0.1c0.3-0.1,0.7-0.1,1.2-0.1c0.4,0,0.8,0,1.1,0.1
		c0.3-0.1,0.6-0.1,1-0.1c0.5,0,0.9,0.1,1.3,0.1l0.1,0c0.2,0,0.4,0,0.6,0c0.2,0,0.5,0,0.7,0c0.3,0,0.5,0,0.8,0l0,0l0.1,0
		c0.2,0,0.5,0.1,0.9,0.1c0.5,0,1,0,1.4-0.1c0.1,0,0.3,0,0.4,0c1.3,0,1.8,0.5,2,0.9l0.1,0.4c0.1,0.4,0.2,0.8,0.1,1.2
		C32.3,325.1,32,325.5,31.8,325.7z M13.4,310.6c0.1-1.1,0.2-1.9,1.9-2c0.1,0,0.3,0,0.5,0c0.3,0,0.7,0,1,0.1c0.4,0,0.8,0.1,1.1,0.1
		c0.4,0,0.7,0,1-0.1c0.3-0.1,0.7-0.1,1.2-0.1c0.4,0,0.8,0,1.2,0c0.5,0,0.9,0,1.4,0h0l0.1,0c0.3,0.1,0.6,0.1,0.9,0.1
		c0.3,0,0.7,0,1.1,0c0.4,0,0.9-0.1,1.3-0.1c0.1,0,0.2,0,0.3,0c0.2,0,0.5-0.1,0.9-0.1c0.4,0,0.8,0,1.1,0.1c0.3,0,0.6,0.1,1,0.1
		c0.3,0,0.5,0,0.7-0.1c0.1,0,0.2,0,0.3,0c0.5,0,1,0.2,1.3,0.5c0.3,0.4,0.5,0.9,0.5,1.6c0,0.4-0.2,0.8-0.7,1
		c-0.4,0.2-0.9,0.3-1.6,0.3c-0.1,0-0.2,0-0.3,0c-0.3,0-0.7,0.1-1.1,0.1c-0.4,0-0.9,0-1.3-0.1c-0.1,0-0.3,0-0.4,0c-0.2,0-0.4,0-0.6,0
		c-0.3,0-0.5,0-0.8,0c-0.1,0-0.3,0-0.4,0c-0.4,0-0.7-0.1-1-0.1c-0.4,0-0.7,0-1.1,0l-0.1,0l0,0l-0.1,0c-0.1,0-0.1,0-0.2,0
		c-0.2,0-0.3,0-0.5,0c-0.3,0-0.5,0.1-0.8,0.1c-0.3,0-0.5,0-0.8-0.1c0,0-0.1,0-0.2,0c-0.2,0-0.4,0-0.7,0c-0.2,0-0.5,0-0.7,0
		c-0.2,0-0.4,0-0.6-0.1c-0.2,0-0.4,0-0.6,0c-0.3,0-0.5,0-0.8,0c-0.3,0-0.6,0-0.9,0c-0.1,0-0.3,0-0.4,0c-0.9,0-1.5-0.2-1.8-0.5
		c-0.2-0.2-0.3-0.4-0.2-0.7L13.4,310.6z M31.9,318c-0.3,0.4-0.8,0.6-1.8,0.6c-0.1,0-0.3,0-0.4,0c-0.2,0-0.5,0-0.8,0
		c-0.3,0-0.5,0-0.8,0c-0.3,0-0.6,0-0.9-0.1c0,0,0,0,0,0c0,0-0.1,0-0.2,0c-0.2,0-0.5,0-0.7,0c-0.2,0-0.5,0-0.7,0
		c-0.2,0-0.4,0-0.6-0.1c-0.1,0-0.3,0-0.4,0c-0.3,0-0.5,0-0.8,0c-0.2,0-0.4,0-0.6,0c-0.1,0-0.2,0-0.3,0l0,0l-0.1,0
		c-0.4,0-0.7,0-1.1,0c-0.4,0-0.7,0-1.2,0l0,0l-0.1,0c-0.2,0-0.3,0-0.5,0c-0.2,0-0.4,0-0.6,0.1c-0.2,0-0.4,0.1-0.7,0.1
		c-0.2,0-0.4,0-0.7-0.1c-0.1,0-0.1,0-0.2,0c-0.2,0-0.3,0-0.5,0.1c-0.3,0-0.5,0.1-0.8,0.1c-0.2,0-0.5,0-0.7-0.1c-1.1,0-2,0-2.4-0.8
		l0,0l0-0.1c0-0.4,0-0.7,0-1c0-0.1,0-0.2,0-0.2c0-0.2,0.1-0.7,0.8-1c0.4-0.2,0.9-0.3,1.5-0.3c0.1,0,0.1,0,0.2,0
		c0.4,0,0.8-0.1,1.2-0.1c0.4,0,0.8,0,1.2,0.1c0.1,0,0.2,0,0.3,0c0.2,0,0.4,0,0.6,0c0.2,0,0.5,0,0.7,0c0.2,0,0.4,0,0.5,0l0.1,0l0.1,0
		l0.1,0l0.1,0c0.2,0.1,0.4,0.1,0.7,0.1c0.3,0,0.6,0,1-0.1c0.2,0,0.3,0,0.4,0l0.1,0l0.1,0l0,0l0,0c0.1,0,0.3,0.1,0.4,0.1
		c0.2,0,0.5,0,0.7-0.1c0.2,0,0.5-0.1,0.7-0.1c0.1,0,0.2,0,0.3,0c0.2,0.1,0.5,0.1,0.8,0.1c0.4,0,0.9,0,1.4-0.1c0,0,0,0,0,0
		c0.2,0,0.3,0,0.5,0c0.3,0,0.6,0,0.9,0c0.3,0,0.6,0,0.8-0.1l0,0l0.1,0c0.3,0,0.5,0.1,0.7,0.1c0.8,0.1,1.5,0.2,1.7,0.8
		C32.3,316.4,32.4,317.5,31.9,318z"/>
	<path d="M3.2,303.2c0.1,0.2,0.2,0.4,0.3,0.6c0,0.1,0.2,0.4,0.2,0.4c0,0,0,0,0,0c0,0,0,0,0.1,0c0.3,0,0.3-0.1,0.5-0.4
		c0.1-0.2,0.3-0.5,0.6-0.6c0.2-0.1,0.6-0.1,1.1-0.1c0.6,0,1.4,0,2.4-0.2l0,0l0.1,0c0.9,0.1,1.7,0.1,2.3,0.1c0.8,0,1.2-0.1,1.3-0.1
		l0,0l0.1,0c0.3,0,0.6-0.1,0.9-0.1c0.2,0,0.4,0,0.6,0c0.2,0,0.4,0,0.6,0c0.4,0,0.8,0,1.1-0.1c0.3,0,0.5-0.1,0.8-0.1
		c0.2,0,0.4,0,0.6,0c0.2,0,0.4,0,0.6,0c0.4,0,0.8,0,1.1-0.1l0,0l0.1,0c0.2,0,0.4,0,0.5,0c0.3,0,0.7,0,1.1-0.1
		c0.4-0.1,0.9-0.1,1.4-0.1c0.1,0,0.1,0,0.2,0c0.3-0.1,0.7-0.1,1-0.1c0.3,0,0.6,0,0.8,0c0.2,0,0.5,0,0.7,0c0.2,0,0.4,0,0.6-0.1
		c0.4-0.1,0.8-0.1,1.2-0.1c0.1,0,0.3,0,0.4,0c0.1,0,0.3,0,0.4,0c0.2,0,0.4,0,0.6,0c0.3,0,0.5,0,0.7-0.1c0.7-0.1,1.3-0.1,1.9-0.1
		c0.7,0,1.7,0,2.5-0.2c0.5-0.1,1-0.1,1.4-0.1c0.4,0,0.8,0,1.2-0.1c0.4,0,0.8,0,1.1,0c0.3,0,0.6,0,0.9,0c0.3,0,0.6,0,0.9,0l0.1,0
		l0.1,0l0.1,0.1l0.1,0.1c0.2,0.2,0.3,0.2,0.4,0.3c0.2,0.1,0.4,0.2,0.6,0.4c0.2,0.2,0.3,0.3,0.4,0.5c0.2,0.3,0.4,0.5,0.5,0.5l0.1,0
		l0.1,0l0,0.1l0,0.1c0.1,0.3,0.3,0.4,0.9,0.5l0.2,0l0,0l0.1,0c0.1,0,0.1,0,0.1,0c0,0,0.1,0,0.4-0.4c0.3-0.6,0.8-0.9,1.2-1.1l0.1-0.1
		c0.1-0.1,0.1-0.1,0.2-0.2c0.2-0.2,0.3-0.3,0.3-0.6c0-0.2-0.1-0.4-0.3-0.6c-0.2-0.2-0.4-0.4-0.6-0.8c-0.1-0.2-0.2-0.2-0.4-0.3
		c-0.3-0.1-0.7-0.3-0.9-0.8c-0.2-0.1-0.4-0.3-0.6-0.4c-0.4-0.3-0.8-0.5-1.1-0.9c-0.9-0.4-1.4-0.8-1.9-1.3c-0.3-0.1-0.6-0.2-0.9-0.5
		c-0.2-0.1-0.4-0.2-0.6-0.3c-0.8-0.4-1.4-0.7-1.4-1.2c0-1,0.9-1,1.4-1c0.2,0,0.4,0,0.7,0c0.4,0,0.8-0.1,1.1-0.1c0.4,0,0.7,0,1.1,0.1
		c0,0,0.1,0,0.1,0c0.2,0,0.4,0,0.6,0c0.2,0,0.5,0,0.8,0c0.2,0,0.3,0,0.5,0l0,0l0.1,0c0.2,0,0.3,0,0.4,0c0.2,0,0.3,0,0.5-0.1
		c0.2,0,0.5-0.1,0.7-0.1c0.2,0,0.3,0,0.5,0c0.7-0.1,0.8-0.2,0.8-1c-0.2-0.5-0.1-0.9-0.1-1.4c0-0.1,0-0.2,0-0.3l0-0.3
		c0-0.5-0.2-0.6-0.7-0.6c0,0-0.1,0-0.1,0c-0.1,0-0.2,0-0.3,0c-0.2,0-0.4,0-0.6,0c-0.2,0-0.4,0-0.7,0c-0.3,0-0.5,0-0.7-0.1
		c-0.5,0.1-0.9,0.1-1.3,0.1c-0.3,0-0.6,0-0.9-0.1c-0.1,0-0.3,0-0.4,0c-0.3,0-0.6,0.1-1,0.1c-0.2,0-0.5,0-0.7-0.1
		c-0.2,0-0.4,0.1-0.6,0.1c-0.3,0-0.5,0-0.7-0.1c-0.2,0-0.3-0.1-0.5-0.1c-0.1,0-0.2,0-0.3,0l0,0l-0.1,0c-0.1,0-0.2,0-0.4,0
		c-0.2,0-0.5,0-0.7,0c-0.3,0-0.6,0-0.9,0c-0.3,0-0.6,0-0.8-0.1c-0.2,0-0.4-0.1-0.9-0.1c-0.7,0-1.3,0.1-1.5,0.1l-2.8,0
		c-0.1,0-0.3,0-0.5,0c-0.8,0-1.7-0.2-2.1-0.7l0,0l0-0.1c-0.1-0.3-0.2-0.5-0.2-0.7c0-0.1,0-0.2-0.1-0.3c-0.1-0.7,0.3-1.1,0.6-1.4
		l0.1-0.1c0.1-0.1,0.2-0.3,0.1-0.5l0,0l0-0.1c0-0.1-0.1-0.1-0.2-0.1l-0.1,0c-1.2,0-2.3,0-3.6-0.2h-0.1c-0.6,0-0.7,0.1-0.7,0.8
		c0,0.3,0,0.6,0,0.8c0,0.3,0.1,0.7,0,1.1c0,0.4,0,0.9-0.5,1.3c-0.5,0.3-1.1,0.4-1.8,0.4c-0.2,0-0.4,0-0.5,0c-0.2,0-0.4,0-0.6,0
		c-0.4,0-0.8-0.1-1.2-0.1c-0.4,0-0.7,0-0.9,0.1l0,0l-0.1,0c-0.2,0-0.3,0-0.4,0c-0.2,0-0.5,0-0.7,0c-0.3,0-0.5,0-0.8,0
		c-0.3,0-0.5,0-0.7-0.1c-0.2,0-0.4,0-0.6,0c-0.3,0-0.5,0-0.8,0c-0.3,0-0.5,0-0.7,0c-0.1,0-0.3,0-0.4,0c-0.2,0-0.3,0-0.5,0
		c-0.3,0-0.5,0-0.7-0.1c-0.2,0-0.3,0-0.5,0c-0.1,0-0.2,0-0.4,0l-0.3,0c-0.3,0-0.6,0-0.9,0c-0.3,0-0.7,0-1-0.1
		c-0.2,0-0.3,0.1-0.5,0.1c-0.3,0-0.5,0-0.8-0.1c-0.2,0-0.4-0.1-0.5-0.1c-0.1,0-0.2,0-0.2,0l0,0l-0.1,0c-0.2,0-0.4,0-0.6,0
		c-0.2,0-0.4,0-0.6,0c-0.2,0-0.4,0-0.6,0c-0.1,0-0.2,0-0.3,0c-0.4,0-0.8,0.5-0.8,0.9c0,0.1,0,0.2,0,0.3v0l0,0.1l-0.1,0.2
		c0,0,0,0.1,0,0.1c0,0,0,0.1,0,0.2c0,0.2,0.1,0.4,0.1,0.7v0.4c0,0.8,0.3,0.8,0.5,0.8c0.1,0,0.1,0,0.2,0c0.3-0.1,0.7-0.1,1-0.1
		c0.4,0,0.7,0,1.1,0.1l0.3,0c0,0,0,0,0.1,0c0.2,0,0.4,0,0.6,0c0.2,0,0.4,0,0.5,0c0.3,0,0.5,0,0.8-0.1l0.1,0l0.1,0l0.1,0l0.1,0
		c0,0,0,0,0.1,0c0.2,0,0.4,0,0.6-0.1c0.3,0,0.5-0.1,0.8-0.1c0.2,0,0.3,0,0.4,0c0.2,0,0.3,0,0.4,0c0.2,0,0.5,0,0.7,0
		c0.2,0,0.4,0,0.5,0c0.1,0,0.2,0,0.3,0l0.1,0l0.1,0l0.1,0l0.1,0c0,0,0,0,0,0c0,0,0.1,0,0.2,0c0.2,0,0.4,0,0.6,0c0.2,0,0.4,0,0.6,0
		c0.1,0,0.2,0,0.2,0l0.4,0l0.5,0c0,0,0,0,0,0c0.8,0,1.5,0.1,1.9,0.7c0.2,0.2,0.3,0.4,0.4,0.6c0.1,0.4-0.2,0.8-0.8,1.6
		c-0.2,0.7-1,1.7-1.2,1.9c0,0,0,0,0,0c-0.2,0.3-0.4,0.6-0.8,0.7c-0.9,0.1-1.7,0.2-2.4,0.2c-0.5,0-1,0-1.5-0.1l-0.1,0
		c-0.4,0-0.7,0-1,0c-0.3,0-0.5,0-0.6-0.1c-0.1,0-0.2,0-0.2,0c-0.1,0-0.1,0-0.2,0l-0.1,0c0,0,0,0-0.1,0l0,0l-0.1,0c-0.4,0-0.7,0-1,0
		c-0.4,0-0.9,0-1.5-0.1c-0.1,0-0.2,0-0.3,0c-0.6,0-0.8,0.2-1,0.5c-0.1,0.1-0.1,0.2,0,0.3l0.1,0l0.1,0.1v0.1v0.1
		c0,0.3,0.1,0.5,0.3,0.7c0.1,0.2,0.3,0.4,0.3,0.6c0,0.3,0.1,0.5,0.3,0.7C3,302.8,3.1,303,3.2,303.2z M17.8,297.6
		c0-0.1,0.1-0.1,0.1-0.2c0.1-0.4,0.3-0.7,0.5-0.9c0.2-0.2,0.3-0.3,0.4-0.5l0-0.1l0-0.1l0.1,0l0.1,0c0.2-0.2,0.4-0.4,0.6-0.6
		c0.2-0.3,0.5-0.6,0.9-0.9c0.4-0.3,1.3-0.5,2.2-0.5c0.3,0,0.6,0,0.9,0.1c0.2,0,0.5-0.1,0.8-0.1c0.4,0,0.7,0,1,0.1c0.3,0,0.6,0,0.9,0
		c0.2,0,0.3,0,0.5,0l0.1,0l0.1,0l0.1,0.1l0,0c0,0,0,0,0.1,0c0.1,0,0.2,0,0.4-0.1l0,0l0.1,0c0.6,0.1,1.2,0.2,1.7,0.2
		c0.5,0,1,0,1.5-0.1c0.1,0,0.1,0,0.2,0c0.6,0,1.1,0.3,1.3,0.7c0.1,0.2,0.1,0.7-0.5,1.2c-0.1,0.1-0.2,0.2-0.2,0.4
		c0,0.1,0,0.2-0.1,0.2c0,0.1,0,0.1,0.3,0.4c0.1,0.1,0.1,0.1,0.2,0.2c0.4,0.2,0.6,0.6,0.5,1c-0.1,0.3-0.3,0.6-0.9,0.7
		c-0.4,0.3-1,0.3-1.6,0.3c-0.3,0-0.6,0-1,0.1c-0.2,0-0.3,0-0.5,0.1c-0.1,0-0.3,0.1-0.5,0.1c-0.2,0-0.3,0-0.5-0.1c-0.1,0-0.2,0-0.4,0
		c-0.4,0-0.7,0-1.1,0.1c-0.3,0-0.7,0.1-1,0.1c-0.2,0-0.4,0-0.6,0l-3,0.1c-0.1,0-0.1,0-0.1,0c-0.1,0-0.2,0-0.3,0
		c-0.2,0-0.4,0.1-0.6,0.1c-0.2,0-0.3,0-0.4-0.1c-0.1,0-0.1,0-0.2,0c-0.1,0-0.3,0-0.4,0c-0.1,0-0.1,0-0.2,0l-0.1,0l-0.1,0l-0.1,0
		l-0.1,0c-0.2,0-0.4-0.1-0.5-0.1c-0.4,0-0.7-0.1-1-0.5l0,0l0,0l0-0.1l0-0.1C17.7,298.1,17.8,297.8,17.8,297.6z"/>
	<path d="M11.3,363.9c0.5-0.1,1.1-0.3,1.6-0.4c0.2,0,0.6-0.1,1-0.2c0.6-0.2,1.2-0.3,1.8-0.4c0.3,0,0.5-0.1,0.8-0.2
		c0.3-0.1,0.6-0.2,1.1-0.2c0,0,0.2-0.1,0.3-0.1c0.4-0.1,0.8-0.3,1.2-0.3c0,0,0.1,0,0.1,0c0,0,0,0,0,0c0.2,0,0.4-0.1,0.6-0.1
		c0.2-0.1,0.5-0.1,0.7-0.1c0.3,0,0.6,0.1,0.8,0.3c0.2,0.2,0.6,0.8-0.1,1.7c-0.6,0.8-1.2,1.4-1.8,1.9c-0.4,0.4-0.8,1-1.1,1.6l0,0
		l-0.1,0.1c-0.6,0.6-0.8,1.2-0.9,1.5l0,0.1l0,0.1l0,0.1l0,0.1c-0.2,0.3-0.3,0.7-0.4,1.1c-0.1,0.3-0.1,0.5-0.2,0.7
		c0,0.1,0,0.2-0.1,0.4c-0.1,0.5-0.2,1.2-0.4,1.6c0,0.2,0,0.4-0.1,0.6c-0.1,0.5-0.1,0.9-0.1,1.5c-0.1,1.5,0,2.4,0.3,3.3
		c0.1,0.4,0.2,0.6,0.2,0.9c0,0.3,0.1,0.4,0.2,0.6l0,0l0,0l0,0.1l0,0.1c0,0.1,0.1,0.2,0.2,0.3c0.2,0.2,0.4,0.5,0.5,1.1
		c0.1,0.3,0.3,0.5,0.4,0.7c0.1,0.1,0.2,0.2,0.3,0.3l0.1,0.1c0.2,0.4,0.4,0.7,0.7,0.9l0,0l0.1,0c0.7,0.8,1.2,1.2,2.1,1.9
		c0.1,0,0.2,0.1,0.4,0.3c0.2,0.2,0.5,0.3,0.8,0.5c0.1,0.1,0.2,0.1,0.3,0.2c0.3,0.2,0.5,0.3,1,0.5c1.1,0.6,1.8,0.9,2.9,1.1l0,0l0.1,0
		c0.8,0.3,1.7,0.5,2.6,0.6l0.4,0.1l0.2,0c1,0.2,2.1,0.4,3,0.4c0.4,0,0.8,0,1.2,0.1c0.4,0,0.8,0.1,1.2,0.1h0.3
		c0.4-0.1,0.7-0.5,0.9-0.8c0.1-0.2,0.1-0.4,0.2-0.6c0-0.2,0.1-0.4,0.2-0.6c0.1-0.2,0.2-0.4,0.3-0.6c0.2-0.4,0.4-0.7,0.4-1.3
		c0-0.2,0-0.3-0.1-0.3c-0.1-0.1-0.3-0.3-1.2-0.3c-0.3,0-0.5,0-0.7,0c0,0,0,0,0,0c-0.4,0-0.8-0.1-1.2-0.1c-0.4-0.1-0.8-0.1-1.1-0.1
		c-0.1,0-0.2,0-0.2,0c-0.2,0.1-0.4,0.1-0.7,0.1c-0.5,0-0.9-0.1-1.3-0.2c-0.3-0.1-0.5-0.1-0.7-0.2c-0.5,0-0.9-0.2-1.2-0.3
		c-0.4-0.1-0.7-0.3-1.3-0.3c-0.7,0-1.2-0.3-1.6-0.6c-0.3-0.2-0.5-0.3-0.8-0.3c-0.7-0.1-1.5-0.8-2.1-1.2l-0.1-0.1
		c-0.5-0.4-1-0.9-1.5-1.7c-0.6-0.5-0.8-1-0.9-1.6c-0.1-0.2-0.1-0.4-0.2-0.6l0,0l0-0.1c0-0.3-0.1-0.6-0.2-0.9
		c-0.1-0.4-0.2-0.9-0.2-1.5c0-0.2,0-0.5,0.1-0.8c0-0.3,0.1-0.7,0.1-1.1c0-0.6,0.4-1.6,0.6-2.1c0.1-0.2,0.2-0.4,0.2-0.6
		c0.1-0.3,0.2-0.7,0.6-1.2c0-0.1,0.1-0.2,0.2-0.4c0.2-0.4,0.3-0.8,0.7-1.3l0,0l0.1-0.1c0.1-0.1,0.2-0.2,0.3-0.3
		c0.2-0.3,0.5-0.8,1.1-1.2c0.2-0.2,0.6-0.9,1.4-1.4l0.1-0.1c0.5-0.6,1-1.1,1.6-1.4c0.2-0.1,0.4-0.3,0.6-0.5c0.3-0.2,0.5-0.5,0.9-0.7
		c0.9-0.4,1.8-0.8,2.4-1.3c0.7-0.4,1.7-0.8,2.8-1l0,0l0.1,0c0.1,0,0.2,0,0.2,0c0.7,0,1.2-0.2,1.9-0.4c0.1,0,0.3-0.1,0.4-0.1
		c0.7-0.2,1.3-0.2,1.9-0.3c0.3,0,0.6,0,0.9-0.1l0.1,0l0.1,0l0,0l0,0c0.1,0,0.2,0.1,0.4,0.1c0.1,0,0.4,0,0.4-0.2l0-0.2
		c0-0.3-0.1-0.5-0.2-0.6l-0.1,0l-0.1,0l0-0.1l0-0.1c0-0.1-0.1-0.2-0.1-0.3c-0.1-0.3-0.2-0.5-0.5-0.7l0,0l0,0l0,0l0,0
		c-0.1-0.2-0.3-0.4-0.4-0.6c-0.2-0.3-0.4-0.5-0.5-0.8c-0.1-0.1-0.4-0.7-0.9-0.7h-0.2c-0.3,0.1-0.6,0.2-0.9,0.4
		c-0.7,0.3-1.2,0.4-1.6,0.5l-0.2,0l-0.3,0.1c-0.5,0.2-0.9,0.3-1.4,0.3c-0.1,0-0.1,0-0.2,0c0,0-0.4,0.1-0.5,0.2
		c-0.4,0.1-0.7,0.2-1,0.2c-0.1,0-0.1,0-0.2,0c0,0,0,0,0,0c0,0-0.1,0-0.1,0c-0.4,0-0.9,0.1-1.2,0.3l0,0l-0.1,0
		c-0.6,0.1-1.5,0.2-2,0.4l-0.1,0l-0.1,0l-0.1,0l-0.1,0c-0.1,0-0.1,0-0.2,0c-0.3,0-0.5,0.1-0.9,0.2c-0.2,0.1-0.5,0.1-0.8,0.2
		c-0.4,0.2-0.9,0.2-1.3,0.3c-0.4,0-0.7,0.1-0.9,0.2c-0.4,0.2-0.7,0.2-1.1,0.2l-0.2,0l-0.2,0c-0.2,0-0.4,0-0.6,0.1
		c-0.4,0.3-0.8,0.3-1.3,0.3l-0.2,0l-0.2,0c-0.1,0-0.3,0-0.4,0c-0.4,0.2-0.9,0.3-1.4,0.3c-0.3,0-0.6,0.1-0.8,0.2
		c-0.4,0.2-0.8,0.2-1.2,0.2c-0.3,0-0.5,0-0.8,0.1c-0.4,0.2-0.9,0.2-1.3,0.2c-0.3,0-0.6,0-0.7,0.1c-0.6,0.3-1.2,0.3-1.7,0.3
		c-0.3,0-0.5,0-0.7,0.1c-0.6,0.2-1.1,0.3-1.6,0.3c-0.2,0-0.4,0-0.7,0.1c-0.5,0.2-1,0.3-1.5,0.3c-0.3,0-0.6,0-0.9,0.1l-0.3,0
		c-0.6,0-1.3,0.1-2.1,0.3l-0.2,0c-0.4,0.1-0.5,0.1-0.7,0.5c0,0.1,0,0.3,0,0.4c0,0.4,0,0.7,0.1,0.7l0.2,0.6c0.1,0.4,0.2,0.8,0.4,1.3
		c0.1,0.4,0.4,1,0.7,1c0,0,0,0,0.1,0c0.3-0.1,0.6-0.1,0.9-0.2c0.7-0.1,1.3-0.3,1.8-0.3c0.9-0.3,2.1-0.7,3.1-0.7
		C10.3,364.2,10.8,364,11.3,363.9z"/>
	<path d="M9,450.2L9,450.2l0.1,0.1l0.1,0c0.2,0.1,0.4,0.2,0.7,0.3c0.3,0.1,0.6,0.2,0.8,0.3c0.1,0,0.4,0.1,0.7,0.2
		c0.3,0.1,0.7,0.1,1,0.2c0.9,0.2,1.7,0.4,2.6,0.4c0.1,0,0.2,0,0.2,0c0.1,0,0.3,0,0.4,0h0l0.1,0c0.2,0,0.3,0,0.5,0
		c0.4,0,0.7-0.1,1.1-0.1c0.4-0.1,0.9-0.1,1.5-0.2c0.8,0,1.7-0.4,2.6-0.8l0.2-0.1c0.2-0.1,0.3-0.2,0.4-0.3c0.2-0.2,0.4-0.4,0.8-0.6
		c0.1,0,0.2-0.1,0.3-0.3c0.1-0.2,0.3-0.5,0.7-0.7c0.1-0.1,0.1-0.2,0.2-0.4c0.1-0.2,0.2-0.5,0.4-0.7c0.1-0.1,0.1-0.2,0.2-0.5
		c0-0.2,0-0.4,0.1-0.6c0-0.6,0.7-1.3,1.4-1.6c0.1-0.1,0.4-0.1,0.6-0.1c0.3,0,0.8,0.1,1.4,0.4c0.2,0.1,0.4,0.2,0.6,0.4
		c0.3,0.2,0.5,0.3,0.9,0.4l0.1,0l0.1,0l0,0l0,0c0.4,0.3,0.8,0.5,1.2,0.6c0.4,0.2,0.8,0.3,1.2,0.6c0.2,0.2,0.4,0.3,0.7,0.4
		c0.3,0.1,0.6,0.2,0.8,0.5c0.2,0.2,0.5,0.4,0.9,0.6c0.3,0.2,0.6,0.3,0.9,0.5c0.1,0.1,0.3,0.2,0.4,0.3c0.4,0.3,0.9,0.6,1.2,0.6l0,0
		l0.1,0c0.2,0,0.7-0.4,1.1-1.4c0.2-0.3,0.3-0.6,0.5-0.8c0.3-0.3,0.5-0.6,0.5-1v-0.2c0-0.1-0.1-0.2-0.3-0.4c-0.1-0.1-0.3-0.3-0.4-0.5
		c-0.6-0.2-1-0.6-1.3-0.9c-0.3-0.1-0.5-0.3-0.8-0.5c-0.1-0.1-0.3-0.2-0.4-0.3c-0.3,0-0.5-0.2-0.8-0.4c-0.2-0.1-0.4-0.3-0.7-0.4
		c-0.2-0.1-0.5-0.2-0.6-0.3c-0.3-0.1-0.5-0.2-0.8-0.4l-0.1,0c-0.3-0.1-0.8-0.2-1.3-0.6c-0.5,0-0.8-0.2-1.1-0.4
		c-0.1-0.1-0.2-0.1-0.2-0.2c-0.4,0-0.8-0.2-1.1-0.4c-0.1,0-0.2-0.1-0.3-0.1c0,0-0.1,0-0.1,0c-0.4,0-0.7-0.2-0.9-0.3
		c-0.2-0.1-0.3-0.2-0.4-0.2l0,0c0,0,0,0,0,0c-0.7,0-1.1-0.4-1.5-0.8c-0.1-0.1-0.2-0.2-0.3-0.3c-0.4-0.4-0.8-1.3-0.9-2.6
		c0-0.5-0.1-1-0.1-1.4c0-0.4,0-0.8-0.1-1.4c-0.1-1-0.1-1.8-0.1-2.7c0-0.3,0-0.6,0-1c0-0.3,0-0.5,0-0.7c0-0.3,0-0.5,0-0.8
		c0.1-1.2,1.6-2.6,2.6-2.7c0.2,0,0.4,0,0.6-0.1c0.3,0,0.5-0.1,0.7-0.1c0.1,0,0.2,0,0.3,0c0.1,0,0.3,0,0.5,0c0.4,0,0.8,0,1-0.1l0,0
		l0.1,0c0.2,0,0.3,0,0.4,0c0.3,0,0.7-0.1,1.2-0.2l0.7-0.1c0.4,0,0.7-0.1,1.2-0.2c0.4-0.2,0.9-0.3,1.3-0.3c0.2,0,0.5-0.1,0.6-0.1l0,0
		l0,0c1.1-0.3,1.8-0.5,1.8-1.1l0-0.1c0-0.1,0-0.2-0.1-0.5c-0.2-0.3-0.3-0.7-0.4-1.1c0-0.2-0.1-0.4-0.2-0.6c-0.1-0.5-0.4-0.9-0.8-0.9
		l0,0c-0.2,0-0.6,0.1-1,0.3c-0.6,0.2-1.3,0.4-1.8,0.4c-0.3,0-0.6,0.1-0.8,0.2c-0.2,0.1-0.5,0.2-0.8,0.2c-0.1,0-0.2,0-0.3,0
		c-0.1,0-0.2,0-0.3,0.1c-0.2,0.1-0.4,0.2-0.6,0.2c-0.1,0-0.2,0-0.4-0.1c0,0,0,0,0,0c0,0,0,0-0.1,0c-0.1,0-0.3,0-0.4,0.1
		c-0.2,0-0.4,0.1-0.7,0.1c-0.1,0-0.1,0-0.2,0c0,0-0.1,0-0.2,0c-0.2,0-0.4,0-0.6,0.1c-0.2,0-0.5,0.1-0.7,0.1c-0.1,0-0.2,0-0.2,0
		c-0.9-0.1-2.4-1.3-2.4-2.5c0-0.8,0-1.3,0-1.9c0-0.2,0-0.5,0-0.8c0-0.6-0.1-1.4,0-2c0-0.9,0.4-1.4,0.7-1.7c0.2-0.2,0.3-0.3,0.3-0.5
		c0-0.3,0-0.4-0.8-0.5c0,0-0.1,0-0.2,0c-0.1,0-0.3,0-0.4,0c-0.2,0-0.4,0-0.6,0c-0.4,0-0.7,0-0.9-0.1h-1.3c-0.2,0-0.4,0-0.7,0
		c-0.2,0-0.6,0.2-0.7,0.4c-0.1,0.1,0,0.1,0,0.1l0,0l0,0.1c0,0.3,0.1,0.5,0.1,0.7c0.1,0.3,0.1,0.6,0,1c0,0.5,0,0.9,0,1.2
		c0,0.4,0,0.7,0,1.2c0.1,0.7,0.1,1.3,0.1,1.9c0,0.5,0,1,0,1.4c0.2,0.6,0.1,1.2,0,1.7c-0.1,0.4-0.1,0.8,0,1.3c0.1,0.5,0,1,0,1.5
		c0,0.6-0.1,1.2,0,1.6c0.2,0.6,0.1,1.3,0.1,2c0,0.4,0,0.9,0,1.2c0,0.3,0,0.7,0,1.2c0,0.5-0.1,1.1,0.1,1.4l0,0l0,0l0,0.1l0,0.1l0,2.1
		c0.1,0.3,0,0.7,0,1.1c0,0.3,0,0.5,0,0.7c-0.1,1.3-1.3,2.1-2,2.1c-0.1,0-0.2,0-0.3,0c-0.7-0.1-1.2-0.1-1.8-0.1c-0.3,0-0.6,0-1,0
		c-0.4,0.1-0.7,0.1-1,0.1c-0.2,0-0.5,0-0.6,0l0,0l-0.1,0c-0.5,0-1.2,0.1-1.6,0.2c-0.3,0.2-0.6,0.2-0.9,0.2c-0.3,0-0.5,0.1-0.8,0.3
		c-0.3,0.2-0.7,0.4-1.1,0.5c-0.2,0.1-0.5,0.2-0.6,0.3c-0.3,0.3-0.6,0.4-0.8,0.5c-0.3,0.1-0.4,0.1-0.5,0.4c-0.3,0.4-0.5,0.6-0.8,0.8
		c-0.2,0.2-0.3,0.3-0.4,0.4l0,0l0,0.1c-0.3,0.4-0.4,0.7-0.5,1.1c0,0.1-0.1,0.2-0.1,0.4l0,0l0,0c-0.2,0.2-0.2,0.7-0.2,1.2v0.4
		c0,0.1,0,0.3,0,0.4c0,0.1,0,0.1,0,0.2c0,0.4,0.1,0.7,0.3,1.1c0.1,0.3,0.2,0.5,0.3,0.7c0.1,0.3,0.2,0.5,0.3,0.6l0,0l0,0
		c0.5,0.7,0.7,0.8,1.1,1.1l0,0l0.1,0.1C8,449.7,8.5,450.1,9,450.2L9,450.2z M10.5,443.3c0.3-0.4,0.7-0.6,1.2-0.7
		c0.1-0.1,0.3-0.1,0.4-0.2c1.2-0.3,2.1-0.5,3-0.5c0.2,0,0.4,0,0.6,0c0.2,0,0.4,0,0.5,0c0.2,0,0.3,0,0.4,0c0.3,0,0.6,0,1.1,0.1
		c1,0.1,1.7,0.4,2.2,1.1c0.7,1,0.5,1.7,0.2,2.4c-0.2,0.7-0.4,1.1-1.1,1.4c0,0-0.1,0.1-0.1,0.1c-0.2,0.2-0.5,0.4-1,0.4
		c0,0-0.1,0.1-0.2,0.1c-0.2,0.1-0.4,0.2-0.7,0.2c0,0-0.1,0-0.1,0c0,0,0,0-0.1,0c-0.1,0-0.2,0-0.3,0c-0.1,0-0.3,0.1-0.4,0.1
		c-0.1,0-0.3,0-0.4-0.1c-0.1,0-0.2,0-0.3,0.1c-0.2,0-0.4,0.1-0.6,0.1c-0.1,0-0.2,0-0.3,0c-0.3-0.1-0.6-0.1-0.9-0.1
		c-0.5,0-1,0-1.8-0.3c-1.2-0.5-1.9-1-2-2.4C9.8,444.3,10.1,443.8,10.5,443.3z"/>
	<path d="M31.7,506.3c0.2-0.4,0.4-0.6,0.5-0.8c0.2-0.2,0.3-0.3,0.3-0.5c0.2-0.5,0.3-0.8,0.6-1.3c0.1-0.1,0.1-0.2,0.2-0.3
		c0.1-0.3,0.2-0.6,0.4-0.9c0.1-0.2,0.2-0.4,0.3-0.6c0-0.4,0.2-0.8,0.3-1.1c0.1-0.2,0.2-0.4,0.2-0.5c0-0.4,0.1-1.1,0.3-1.7
		c0-0.6,0.1-1.3,0.2-1.9c0.1-0.5,0.1-1.1,0.1-1.6c0-0.2-0.1-0.5-0.1-0.8c-0.1-0.7-0.2-1.4-0.2-2.2c-0.1-0.3-0.2-0.6-0.2-0.8
		c0-0.2-0.1-0.4-0.1-0.6c-0.1-0.2-0.2-0.4-0.2-0.6c-0.1-0.3-0.2-0.5-0.3-0.7c-0.2-0.3-0.4-0.6-0.6-0.8c-0.3-0.5-0.6-1-1.1-1.4
		c-0.3-0.2-0.6-0.5-1-0.7c-0.4-0.3-0.8-0.5-1.2-0.8c-0.3-0.1-0.5-0.2-0.8-0.4c-0.5-0.2-1-0.5-1.5-0.5c-0.5,0-0.9-0.1-1.2-0.2
		c-0.4-0.1-0.9-0.1-1.5-0.2c-0.4,0-0.7,0.1-1,0.1c-0.3,0-0.5,0.1-0.8,0.1c-0.2,0-0.4,0-0.5-0.1c-0.1,0-0.1,0-0.2,0
		c-0.2,0-0.4,0.1-0.6,0.1c-0.3,0.1-0.6,0.2-1,0.2c-0.1,0-0.1,0-0.2,0c0,0-0.1,0-0.1,0c-0.2,0-0.5,0.1-0.7,0.2
		c-0.3,0.1-0.7,0.3-1.1,0.3c0,0-0.1,0-0.1,0l-0.1,0c-0.2,0-0.5,0.1-0.8,0.2c-0.3,0.1-0.7,0.3-1.1,0.3c0,0-0.1,0-0.1,0l-0.1,0
		c-0.3,0-0.5,0.1-0.8,0.3c-0.2,0.1-0.3,0.2-0.5,0.2c-0.4,0.2-0.7,0.3-1,0.3c-0.2,0-0.4,0.1-0.6,0.1c-0.4,0.3-0.8,0.3-1,0.3
		c-0.2,0-0.3,0-0.4,0.1l-0.1,0l-0.1,0l-0.1,0l-0.1,0c-0.2,0-0.4,0.1-0.6,0.2c-0.3,0.1-0.6,0.3-1,0.3l-0.1,0c-1.1,0.2-1.6,0.6-1.6,1
		v0.1c0,0.1,0.1,0.3,0.2,0.5l1.3,2.7l0.1,0.1c0.2,0.3,0.5,0.7,0.9,0.7l0.1,0l0.1,0c0.1,0,0.2,0,0.4-0.2l0,0l0.1,0
		c0.4-0.2,0.7-0.3,0.9-0.4c0.3-0.1,0.6-0.2,0.9-0.4c0.3-0.2,0.6-0.3,0.9-0.4c0.4-0.1,0.7-0.2,1.1-0.5c0.6-0.4,1.3-0.6,1.9-0.7
		l0.3-0.1c0.3-0.2,0.6-0.3,1-0.3c0.4-0.1,0.7-0.2,1-0.4l0,0l0.1,0c0.3-0.1,0.5-0.2,0.7-0.2c0.6-0.2,1-0.4,1.7-0.4l0.3,0
		c0.5-0.1,1.1-0.2,1.7-0.2c0.1,0,0.3,0,0.4,0l0.1,0c0.8,0.1,1.8,0.1,2.6,0.5c0.6,0.2,0.9,0.5,1.2,0.8c0.2,0.2,0.3,0.3,0.5,0.4l0.1,0
		l0.1,0l0,0.1l0,0.1c0.1,0.2,0.2,0.4,0.4,0.6c0.3,0.3,0.6,0.8,0.6,1.3c0,0.3,0.1,0.6,0.2,0.9c0.1,0.4,0.3,0.9,0.2,1.5
		c0,1.2-0.1,2.1-0.3,2.9c-0.2,1-0.4,1.8-0.7,2.4l-0.1,0.3c-0.3,0.7-0.5,1.3-0.9,1.9c-0.2,0.2-0.3,0.4-0.4,0.6
		c-0.2,0.4-0.5,0.8-0.9,1.3c-0.5,0.7-0.9,1.2-1.7,1.7c-0.4,0.4-0.8,0.7-1.1,0.9c-0.3,0.2-0.5,0.3-0.7,0.6c-0.4,0.4-0.8,0.6-1.3,0.8
		c-0.3,0.1-0.7,0.3-0.9,0.5c-0.4,0.4-0.9,0.5-1.4,0.6c-0.4,0.1-0.7,0.2-0.8,0.4c-0.4,0.4-1,0.5-1.5,0.6c-0.2,0-0.4,0.1-0.5,0.1
		c-0.3,0.2-0.6,0.2-0.9,0.3c-0.3,0.1-0.5,0.1-0.8,0.3c-0.4,0.2-0.5,0.4-0.5,0.5c0,0.4,0.6,1.4,0.8,1.8c0.1,0.2,0.2,0.3,0.2,0.4
		c0.4,1.2,0.8,1.8,1.2,1.8h0.1h0.1h0.1l0,0c0.3,0,0.9-0.2,1.3-0.5l0.1,0l0.1,0l0.1,0l0.1,0c0.4,0,0.7-0.2,1.1-0.4
		c0.1-0.1,0.2-0.1,0.3-0.2c0.1-0.1,0.3-0.1,0.4-0.2c0.4-0.2,0.8-0.4,1.3-0.5c0.2,0,0.4-0.2,0.6-0.3c0.3-0.2,0.6-0.4,1-0.5
		c0.2,0,0.4-0.2,0.6-0.4c0.2-0.2,0.5-0.4,0.8-0.5c0.1,0,0.2-0.1,0.4-0.3c0.2-0.2,0.5-0.5,1.1-0.7c0,0,0.2-0.2,0.3-0.3
		c0.3-0.2,0.6-0.5,0.9-0.7l0,0l0.1,0c0.2-0.1,0.5-0.4,0.7-0.6c0.2-0.2,0.3-0.4,0.5-0.5c0.7-0.5,0.7-0.5,1-1.1
		c0.2-0.4,0.6-0.8,0.9-1.2C31.6,506.4,31.6,506.3,31.7,506.3z"/>
	<path d="M30.8,476.1c0-0.1-0.1-0.1-0.1-0.1h0l-0.1,0c-0.2-0.1-0.4-0.1-0.6-0.2c-0.3-0.1-0.5-0.2-1-0.3l0,0l-0.1,0
		c-0.4-0.2-0.7-0.2-1.2-0.2l-0.2,0c-0.4-0.1-0.7-0.2-1.1-0.3c-0.4-0.1-0.7-0.2-1.1-0.3c0,0,0,0,0,0c-0.5,0-1.1-0.2-1.6-0.4
		c-0.2-0.1-0.4-0.1-0.5-0.2c-0.8,0-1.5-0.4-2.2-0.7c-0.2-0.1-1.6-0.4-2.2-1c-0.6-0.5-1.3-0.7-2-0.8c-0.3,0.1-0.8,0.4-1,0.6
		c-0.3,0.2-0.4,0.5-0.5,0.8c-0.2,0.3-0.3,0.6-0.6,0.9c-0.3,0.3-0.3,0.3-0.3,0.5l0,0.1l0,0.1l-0.1,0.1l0,0c0.1,0.1,0.2,0.3,0.2,0.3
		l0.1,0.1c0.1,0.1,0.2,0.1,0.3,0.2c0.4,0.3,0.9,0.6,1.5,0.9c0.7,0.2,1.5,0.6,2.5,1.1c0.7,0.4,1.7,0.8,2.4,0.8l0.1,0l0.1,0l0.1,0
		l0.1,0c0.8,0.5,1.3,0.6,1.9,0.7l0.1,0l0.1,0l0.1,0l0.1,0c0.3,0.2,1.4,0.5,2.5,0.5l0,0l0.1,0c0.2,0,0.4,0.1,0.5,0.1
		c0.6,0.2,1.3,0.4,1.7,0.4c0.1,0,0.2,0,0.2,0l0,0l0.1,0c0.3-0.1,0.9-0.5,1-0.9l0.7-2l0-0.1l0-0.1l0,0l0,0c0-0.2,0-0.4,0.1-0.6
		C30.9,476.2,30.9,476.2,30.8,476.1z"/>
	<path d="M44.6,537.9c0-0.1-0.1-0.3-0.2-0.5c-0.2-0.2-0.3-0.5-0.3-0.7c-0.1-0.2-0.2-0.4-0.3-0.5l-0.1,0l-0.1,0l0-0.1l0-0.1
		c-0.1-0.2-0.3-0.6-0.8-0.9c-0.2-0.1-0.3-0.3-0.5-0.4c-0.2-0.2-0.4-0.3-0.6-0.5c-0.1-0.1-0.4-0.2-0.5-0.3c-0.3-0.1-0.5-0.2-0.7-0.4
		c-0.9-0.4-1.8-0.5-2.6-0.5h-0.6c-0.6,0-1,0.1-1.4,0.3c-0.3,0.1-0.6,0.2-0.9,0.2c-0.3,0-0.4,0.1-0.5,0.2c-0.1,0.1-0.3,0.3-0.6,0.4
		c-0.3,0.1-0.4,0.2-0.5,0.3c-0.1,0.1-0.2,0.3-0.6,0.6c-0.2,0.1-0.2,0.2-0.3,0.4c-0.1,0.2-0.3,0.5-0.7,0.8c-0.2,0.2-0.2,0.3-0.3,0.6
		c-0.1,0.2-0.1,0.4-0.3,0.7c-0.2,0.3-0.4,1.3-0.4,2.5c0,1,0.1,1.7,0.4,2.3c0.1,0.2,0.2,0.4,0.2,0.6c0.1,0.4,0.2,0.6,0.5,0.9
		c0.4,0.3,0.6,0.6,0.7,0.8c0.1,0.2,0.2,0.2,0.3,0.3c0.4,0.3,0.6,0.5,0.7,0.6c0.1,0.1,0.1,0.2,0.3,0.3l0.3,0.1
		c0.5,0.3,0.8,0.5,1.3,0.5c0.5,0.1,0.8,0.2,1.1,0.2c0.5,0.1,0.8,0.2,1.4,0.2c0.9,0,1.9-0.2,2.7-0.5c0.1,0,0.2-0.1,0.2-0.1
		c0.3-0.1,0.6-0.2,0.9-0.5l0.2-0.2c0.4-0.3,0.6-0.5,0.9-0.8c0.1-0.1,0.2-0.2,0.3-0.4c0.2-0.2,0.3-0.4,0.5-0.6
		c0.1-0.2,0.2-0.4,0.4-0.6c0.1-0.2,0.3-0.4,0.4-0.6c0.4-0.7,0.4-1.3,0.5-2.4l0-0.4l0-0.4C45,539,44.9,538.6,44.6,537.9z M42.2,540.2
		c0,0.1,0,0.2,0,0.3c0,0.3,0,0.6-0.2,1c-0.1,0.1-0.1,0.3-0.2,0.4c-0.2,0.5-0.4,1-0.9,1.3c-0.8,1.1-2.1,1.2-3,1.2c-0.1,0-0.3,0-0.5,0
		c-1.1,0-1.8-0.5-2.5-1.3c-0.7-0.7-1.3-1.5-1.3-3c0-1.5,0.7-2.5,1.2-3.1c0.7-0.9,1.7-1.3,2.9-1.3l0.2,0l0.2,0c0.4,0,0.9,0,1.6,0.4
		c0.1,0,0.1,0,0.2,0.1c0.4,0.1,0.8,0.2,1.2,1c0.1,0.1,0.2,0.2,0.3,0.3c0.2,0.2,0.5,0.5,0.6,1c0,0.2,0.1,0.3,0.1,0.4
		C42.1,539.1,42.2,539.5,42.2,540.2z"/>
</g>
</svg>
