<svg xmlns="http://www.w3.org/2000/svg" width="70.03" height="11.531" viewBox="0 0 70.03 11.531">
  <defs>
    <style>
      .cls-1 {
        fill: #fff;
        fill-rule: evenodd;
      }
    </style>
  </defs>
  <path id="MY_PAGE" data-name="MY PAGE" class="cls-1" d="M1128.16,45.034a0.3,0.3,0,0,0,.31.368h1.44a0.3,0.3,0,0,0,.28-0.24l0.93-6.063h0.05l2.83,6.287a0.291,0.291,0,0,0,.27.176h0.29a0.271,0.271,0,0,0,.27-0.176l2.8-6.287h0.05l0.94,6.063a0.358,0.358,0,0,0,.31.24h1.45a0.278,0.278,0,0,0,.29-0.368l-1.89-10.751a0.262,0.262,0,0,0-.28-0.24h-0.26a0.279,0.279,0,0,0-.27.16l-3.52,7.551h-0.05l-3.52-7.551a0.289,0.289,0,0,0-.27-0.16h-0.26a0.262,0.262,0,0,0-.28.24Zm17.41,0.064a0.3,0.3,0,0,0,.3.3h1.47a0.32,0.32,0,0,0,.31-0.3v-5.1l3.69-5.327a0.3,0.3,0,0,0-.25-0.464h-1.65a0.326,0.326,0,0,0-.26.144l-2.56,3.679-2.55-3.679a0.326,0.326,0,0,0-.26-0.144h-1.63a0.3,0.3,0,0,0-.26.464l3.65,5.343V45.1Zm12.32,0a0.3,0.3,0,0,0,.3.3h1.47a0.32,0.32,0,0,0,.31-0.3v-3.76h2a3.568,3.568,0,1,0-.02-7.135h-3.76a0.3,0.3,0,0,0-.3.3V45.1Zm2.08-5.711V36.171h1.85a1.6,1.6,0,0,1,1.65,1.552,1.648,1.648,0,0,1-1.65,1.664h-1.85Zm6.38,6.015h1.4a0.479,0.479,0,0,0,.46-0.32l0.78-1.728h4.79l0.78,1.728a0.454,0.454,0,0,0,.46.32h1.4a0.283,0.283,0,0,0,.27-0.416l-4.93-10.767a0.271,0.271,0,0,0-.27-0.176h-0.16a0.271,0.271,0,0,0-.27.176l-4.98,10.767A0.283,0.283,0,0,0,1166.35,45.4Zm3.43-3.824,1.56-3.52h0.05l1.6,3.52h-3.21Zm8.29-1.76a5.7,5.7,0,0,0,5.74,5.727,8.1,8.1,0,0,0,3.97-1.04,0.314,0.314,0,0,0,.12-0.256v-4.1a0.294,0.294,0,0,0-.28-0.3h-3.08a0.294,0.294,0,0,0-.3.3v1.264a0.291,0.291,0,0,0,.3.288h1.28v1.36a4.961,4.961,0,0,1-1.9.4,3.688,3.688,0,1,1,2.4-6.447,0.278,0.278,0,0,0,.42,0l0.99-1.04a0.307,0.307,0,0,0-.02-0.448,6.042,6.042,0,0,0-3.9-1.488A5.745,5.745,0,0,0,1178.07,39.819Zm12.99,5.279a0.3,0.3,0,0,0,.3.3h6.51a0.306,0.306,0,0,0,.31-0.3V43.786a0.306,0.306,0,0,0-.31-0.3h-4.73v-2.8h3.95a0.3,0.3,0,0,0,.3-0.3V39.051a0.311,0.311,0,0,0-.3-0.3h-3.95V36.123h4.73a0.306,0.306,0,0,0,.31-0.3V34.507a0.306,0.306,0,0,0-.31-0.3h-6.51a0.3,0.3,0,0,0-.3.3V45.1Z" transform="translate(-1128.16 -34.031)"/>
</svg>
