<svg xmlns="http://www.w3.org/2000/svg" width="140.625" height="37.44" viewBox="0 0 140.625 37.44">
  <defs>
    <style>
      .cls-1 {
        fill: #5f9d7b;
        fill-rule: evenodd;
      }
    </style>
  </defs>
  <path id="NEWS" class="cls-1" d="M460.731,1862.26a1.025,1.025,0,0,0,.988.99h4.732a0.989,0.989,0,0,0,.988-0.99V1839.9h0.052l21.733,23.87h1.248a0.981,0.981,0,0,0,.988-0.94v-34.99a1.025,1.025,0,0,0-.988-0.99h-4.783a0.989,0.989,0,0,0-.988.99v21.47h-0.052l-21.63-22.98h-1.3a0.981,0.981,0,0,0-.988.94v34.99Zm40.716,0a0.989,0.989,0,0,0,.988.99H523.6a0.989,0.989,0,0,0,.988-0.99V1858a0.989,0.989,0,0,0-.988-0.99h-15.39v-9.1h12.843a0.99,0.99,0,0,0,.988-0.99v-4.31a1.025,1.025,0,0,0-.988-0.99H508.206v-8.53H523.6a0.989,0.989,0,0,0,.988-0.99v-4.26a0.989,0.989,0,0,0-.988-0.99H502.435a0.989,0.989,0,0,0-.988.99v34.42Zm37.7,0.78a1.008,1.008,0,0,0,.936.73h0.832a0.88,0.88,0,0,0,.884-0.58l9.2-23.55h0.26l9.307,23.55a0.879,0.879,0,0,0,.883.58h0.832a1.008,1.008,0,0,0,.936-0.73l9.827-34.94a0.907,0.907,0,0,0-.936-1.25h-4.783a1.062,1.062,0,0,0-.936.73l-5.3,20.74H560.88l-8.319-21.42a0.84,0.84,0,0,0-.884-0.57h-0.936a0.84,0.84,0,0,0-.884.57l-8.267,21.42h-0.208l-5.408-20.74a1.06,1.06,0,0,0-.935-0.73h-4.784a0.907,0.907,0,0,0-.936,1.25Zm38.792-3.33a16.713,16.713,0,0,0,11.439,4.06c7.331,0,11.959-4.94,11.959-10.3,0-6.71-5.824-9.72-10.867-11.75-4.212-1.71-6.135-3.38-6.135-5.82,0-1.67,1.611-3.64,4.575-3.64,2.86,0,6.811,2.6,7.227,2.86a1.371,1.371,0,0,0,1.82-.63l1.976-2.96a1.294,1.294,0,0,0-.312-1.72,18.312,18.312,0,0,0-10.4-3.48c-8.267,0-11.7,5.36-11.7,9.98,0,6.14,4.888,9.26,9.775,11.23,4.368,1.77,6.6,3.59,6.6,6.24,0,2.24-2.027,4.01-4.731,4.01-3.38,0-7.591-3.07-7.851-3.23a1.208,1.208,0,0,0-1.768.37l-1.872,3.22A1.028,1.028,0,0,0,577.938,1859.71Z" transform="translate(-460.719 -1826.34)"/>
</svg>
