<svg xmlns="http://www.w3.org/2000/svg" width="39.937" height="10.812" viewBox="0 0 39.937 10.812">
  <defs>
    <style>
      .cls-1 {
        fill: #333;
        fill-rule: evenodd;
      }
    </style>
  </defs>
  <path id="NOTE" class="cls-1" d="M215.339,607.734a0.3,0.3,0,0,0,.286.286h1.367a0.286,0.286,0,0,0,.285-0.286v-6.458h0.015l6.278,6.894h0.36a0.282,0.282,0,0,0,.286-0.271V597.791a0.3,0.3,0,0,0-.286-0.285h-1.381a0.285,0.285,0,0,0-.286.285v6.2h-0.015L216,597.356h-0.375a0.283,0.283,0,0,0-.286.27v10.108Zm11.594-4.956a5.4,5.4,0,1,0,5.392-5.422A5.359,5.359,0,0,0,226.933,602.778Zm1.953,0a3.447,3.447,0,1,1,3.439,3.439A3.474,3.474,0,0,1,228.886,602.778Zm12.855,4.956a0.3,0.3,0,0,0,.286.286h1.4a0.3,0.3,0,0,0,.286-0.286v-8.426h2.3a0.285,0.285,0,0,0,.285-0.285v-1.232a0.285,0.285,0,0,0-.285-0.285h-6.564a0.285,0.285,0,0,0-.285.285v1.232a0.285,0.285,0,0,0,.285.285h2.3v8.426Zm6.853,0a0.286,0.286,0,0,0,.286.286h6.112a0.286,0.286,0,0,0,.286-0.286V606.5a0.286,0.286,0,0,0-.286-0.286h-4.445v-2.628h3.71a0.285,0.285,0,0,0,.285-0.285v-1.247a0.3,0.3,0,0,0-.285-0.285h-3.71v-2.464h4.445a0.285,0.285,0,0,0,.286-0.285v-1.232a0.285,0.285,0,0,0-.286-0.285H248.88a0.285,0.285,0,0,0-.286.285v9.943Z" transform="translate(-215.344 -597.344)"/>
</svg>
