<svg id="グループ_1" data-name="グループ 1" xmlns="http://www.w3.org/2000/svg" width="44" height="166" viewBox="0 0 44 166">
  <defs>
    <style>
      .cls-1 {
        fill: #5f9d7b;
      }

      .cls-1, .cls-2 {
        fill-rule: evenodd;
      }

      .cls-2 {
        fill: #fff;
      }
    </style>
  </defs>
  <path id="長方形_981_のコピー_7" data-name="長方形 981 のコピー 7" class="cls-1" d="M135.01,5892h44v166H135.01V5892Z" transform="translate(-135 -5892)"/>
  <path id="職種紹介" class="cls-2" d="M162.275,5928.26a8.591,8.591,0,0,1,0-2.13c0.1-.7-0.07-1.58,0-2.17a8.444,8.444,0,0,0,.035-2.1,0.9,0.9,0,0,0-.945-1.05,2.734,2.734,0,0,1-1.085.03,3.4,3.4,0,0,0-1.19-.03h-1.33a12.512,12.512,0,0,0-2.031,0,9.45,9.45,0,0,0-1.505,0,0.9,0.9,0,0,0-1.05,1.05,13.888,13.888,0,0,0,.035,2.1c-0.035.91,0.035,1.85,0,2.66a16.864,16.864,0,0,0,0,2.66,11.525,11.525,0,0,0,0,2.69,1,1,0,0,0,1.155,1.12,2.891,2.891,0,0,1,.805,0c0.665,0,1.365-.28,1.33-0.84a1.018,1.018,0,0,1,.945-0.84,7.658,7.658,0,0,0,.981,0,0.809,0.809,0,0,1,.91.39,0.97,0.97,0,0,0,1.015.28c0.735,0,.525.38,0.315,0.52a4.386,4.386,0,0,1-1.435.81c-0.455.21-1.68,0.42-1.575,1.01a2.784,2.784,0,0,0,.77,1.33,1.731,1.731,0,0,0,1.155.91,10.988,10.988,0,0,0,1.785-.77,12.421,12.421,0,0,0,1.4-.8,3.491,3.491,0,0,1,1.365-.84,8.726,8.726,0,0,1,1.015-.74,2.151,2.151,0,0,1,1.155-.24,0.933,0.933,0,0,1,.981.66,2.187,2.187,0,0,0,.735,1.09,2.692,2.692,0,0,0,1.19,1.05,2.414,2.414,0,0,0,1.575.38,1.567,1.567,0,0,0,1.645-1.08c0.245-.74.595-1.51,0.7-2a10.221,10.221,0,0,1,.42-1.5c0.07-.56.245-0.88,0.245-1.26a1,1,0,0,0-.035-0.32,1.059,1.059,0,0,0-.595-0.91,7.857,7.857,0,0,0-1.365-.56,0.682,0.682,0,0,0-.7.56,3.186,3.186,0,0,1-.21,1.05c-0.07.25-.21,1.79-0.595,1.54-0.28.07-.525-0.56-0.77-0.98a2.24,2.24,0,0,1-.245-1.47,3.718,3.718,0,0,1,.63-1.33l0.875-1.47a4.122,4.122,0,0,0,.56-1.19,4.3,4.3,0,0,0,.42-1.29,4.3,4.3,0,0,1,.735-1.44c0.1-.17.8-0.21,0.7-0.8a0.578,0.578,0,0,0-.455-0.49,15.933,15.933,0,0,0-1.785-.7,0.8,0.8,0,0,0-.56-0.14,0.836,0.836,0,0,0-.8.59,10.937,10.937,0,0,1-.455,1.09,3.461,3.461,0,0,1-.42,1.05,1.546,1.546,0,0,0-.175.45c-0.245.56-.875,0.21-0.875-0.94a2.313,2.313,0,0,0-.035-0.77,3.507,3.507,0,0,0-.07-1.33,1.338,1.338,0,0,1,.91-1.16,9.952,9.952,0,0,0,1.89-.07,5.451,5.451,0,0,0,2.03,0,0.965,0.965,0,0,0,.945-1.19,3.948,3.948,0,0,0,0-.94,1.022,1.022,0,0,0-.945-1.16,6.165,6.165,0,0,0-1.225,0c-0.35.07-.98-0.11-1.4,0a9.138,9.138,0,0,1-1.435.03,1.9,1.9,0,0,1-.945-1.33c-0.035-.73-0.035-2.24-0.175-3.15,0-.45-0.07-0.8-0.07-1.33a3.11,3.11,0,0,1,.07-1.19,8.35,8.35,0,0,1-.035-1.36,9.829,9.829,0,0,1,.07-1.68,1.17,1.17,0,0,1,.49-0.84,0.462,0.462,0,0,0,.21-0.42,0.724,0.724,0,0,0-.595-0.46,5.948,5.948,0,0,1-1.366-.14c-0.63-.1-0.98-0.03-1.435-0.14a0.716,0.716,0,0,0-.77.77c-0.07.53,0.1,1.09,0.035,1.79a13.946,13.946,0,0,1,.035,1.71,10.864,10.864,0,0,1,.035,1.86,12.782,12.782,0,0,0,.07,1.99c0,0.77.1,1.51,0.07,2.1a1.612,1.612,0,0,1-.245,1.16,0.931,0.931,0,0,1-.77.63,1.6,1.6,0,0,1-.8.1,0.587,0.587,0,0,1-.35-0.84,1.848,1.848,0,0,0,.245-0.87,2.131,2.131,0,0,1,.525-0.81c0.385-.1.875-0.21,0.77-0.66a0.857,0.857,0,0,0-.735-0.67c-0.7-.17-0.49-0.59.1-0.56,0.56-.03.63-0.56,0.63-1.33a5.589,5.589,0,0,1,0-.77c-0.035-.73-0.245-1.05-0.7-1.05-0.56.07-.98-0.03-1.365,0a3.721,3.721,0,0,1-1.12,0,0.839,0.839,0,0,1-.91-0.84c0-.52-0.035-1.05-0.035-1.57a0.814,0.814,0,0,1,.385-0.88,0.614,0.614,0,0,0,.315-0.63,0.681,0.681,0,0,0-.7-0.42l-2.346-.14a0.9,0.9,0,0,0-.98.88,5.671,5.671,0,0,1,.035,1.36c0,0.67-.035,1.09-0.035,1.54a0.814,0.814,0,0,1-.84.7,1.682,1.682,0,0,1-.84-0.1,2.962,2.962,0,0,1-1.225,0,0.972,0.972,0,0,0-.945,1.15,1.577,1.577,0,0,1,0,.91,0.908,0.908,0,0,0,.945,1.16c0.315,0.07.49,0.03,0.49,0.28,0.07,0.38-.525.45-0.525,0.84a7.522,7.522,0,0,0,.595,2.06,1.5,1.5,0,0,1,.105,1.26l-0.28.04a9.432,9.432,0,0,1-1.19-.07,0.925,0.925,0,0,0-.98,1.05,3.247,3.247,0,0,0,0,1.3c-0.175.63,0.595,0.84,0.91,0.87a17.183,17.183,0,0,0,2.03,0,18.679,18.679,0,0,0,2-.03c0.665,0.1,1.225-.07,2,0a6.865,6.865,0,0,0,2.03,0,19.314,19.314,0,0,0,2.24.1,1.932,1.932,0,0,1,1.3.39,2,2,0,0,1,.525,1.57,2.131,2.131,0,0,1,.1,1.3,3.39,3.39,0,0,1,.1,1.29,14.4,14.4,0,0,0,.35,2.38,4.1,4.1,0,0,1,.21,1.3,1.16,1.16,0,0,1-.1,1.01,2.732,2.732,0,0,1-.735,1.12c-0.595.32-.49,0.63-1.19,0.98-0.245.21-.665-0.07-0.7-0.49C162.275,5929.59,162.275,5929.17,162.275,5928.26ZM151.7,5908.73c0.77,0,.875-0.46.945-1.16a6.491,6.491,0,0,1,0-.84,1.038,1.038,0,0,0-.98-1.15,17.686,17.686,0,0,1-2.625,0c-0.735-.14-1.751.17-2.416,0a9.28,9.28,0,0,1-2.415,0,22.985,22.985,0,0,1-2.625,0,0.9,0.9,0,0,0-.98,1.15,3.36,3.36,0,0,0,0,.84,1.518,1.518,0,0,0,.245,1.05,2.423,2.423,0,0,1,.77.63,5.878,5.878,0,0,1,.35,1.47c-0.14.74,0.1,1.68,0,2.24a7.5,7.5,0,0,0,0,2.17,6.69,6.69,0,0,1,0,2.21v2.17a8.893,8.893,0,0,1,0,2.17,7.791,7.791,0,0,0,0,2.21c-0.175.8-.07,1.75-0.21,2.48a1.524,1.524,0,0,1-.735.46,0.914,0.914,0,0,0-.595.63c0,0.03.035,0.1,0.035,0.14v0.38a0.142,0.142,0,0,0,.105.14c0.245,0.53.21,0.81,0.42,1.16,0.28,0.42.21,0.8,0.455,1.15a0.5,0.5,0,0,0,.735.46,2,2,0,0,0,.49-0.56,2.707,2.707,0,0,1,1.05-.6,4.949,4.949,0,0,0,1.05-.45,3.009,3.009,0,0,0,1.085-.39,1.452,1.452,0,0,1,1.33.25,2.846,2.846,0,0,1,.21,1.22c-0.07.63,0.07,1.19-.035,1.79a5.064,5.064,0,0,0,0,1.78,15.669,15.669,0,0,1,0,1.82,1.072,1.072,0,0,0,1.156,1.16,0.3,0.3,0,0,0,.175.03c0.21,0,.525-0.07.77-0.07a1.351,1.351,0,0,1,.175.04h0.175c0.665,0,.805-0.39.98-1.16-0.105-.63.1-1.26,0.035-1.82a14.806,14.806,0,0,0-.035-1.78,7.142,7.142,0,0,0-.035-1.75,3.816,3.816,0,0,1,0-1.79,8.4,8.4,0,0,0,0-2.48c-0.07-.91.035-1.72,0-2.49a11.7,11.7,0,0,1,0-2.48,20.1,20.1,0,0,1,0-2.52c0.14-.81-0.1-1.72,0-2.53a14.67,14.67,0,0,0,0-2.48,16.436,16.436,0,0,1,0-2.63,2.5,2.5,0,0,1,.28-1.99A1.365,1.365,0,0,1,151.7,5908.73Zm16.172,1.29a17.492,17.492,0,0,0,.875,1.89c0.14,0.7.525,0.84,0.875,1.93a0.687,0.687,0,0,0,.805.56c0.28,0.14.35-.07,0.56-0.18a5.6,5.6,0,0,0,.77-0.35c0.525-.31.91-0.56,0.77-0.98a2.025,2.025,0,0,0-.21-0.91,2.338,2.338,0,0,0-.595-1.22,3.205,3.205,0,0,1-.63-1.19c-0.35-.32-0.175-0.67-0.525-0.84a1.164,1.164,0,0,0-.98-0.7,1.36,1.36,0,0,0-.63.17,3.567,3.567,0,0,1-.63.32,0.976,0.976,0,0,0-.665.87A1.229,1.229,0,0,0,167.876,5910.02Zm-20.478,1.3c-0.035.35-.07,0.98-0.49,0.98a2.119,2.119,0,0,0-.665,0,0.947,0.947,0,0,1-.945-0.98,1.563,1.563,0,0,0,0-.98,1.636,1.636,0,0,1,.455-1.61,1.79,1.79,0,0,1,.98.03,1.085,1.085,0,0,1,.735,1.05A7.408,7.408,0,0,1,147.4,5911.32Zm8.681,1.5c-0.455-.7-0.14-0.94.14-0.87,0.35,0,.7.03,1.4,0.03a4.845,4.845,0,0,1,1.225.04c0.49-.07.49,0.7,0.315,0.98a6.547,6.547,0,0,1-.455,2.17c-0.105.35-.245,1.22-1.015,1.19a1.907,1.907,0,0,1-.981,0c-0.525,0-.56-0.28-0.315-0.42a0.71,0.71,0,0,0,.385-0.91A12.6,12.6,0,0,0,156.079,5912.82Zm-9.206,6.13a2.116,2.116,0,0,0-.665,0,0.936,0.936,0,0,1-.91-0.98,2.453,2.453,0,0,0,0-1.01,1.672,1.672,0,0,1,.525-1.58,1.788,1.788,0,0,1,1.05,0,1.379,1.379,0,0,1,.595,1.26c-0.07.46-.035,0.91-0.07,1.33C147.433,5918.25,147.223,5919.06,146.873,5918.95Zm0.56,4.48a2.36,2.36,0,0,1-.245,1.54,1.421,1.421,0,0,1-1.155.46c-0.385-.04-0.8-0.14-0.7-0.98,0.035-.18-0.07-1.4-0.035-1.79a0.763,0.763,0,0,1,.805-0.66,1.113,1.113,0,0,1,.945.03C147.433,5922.17,147.433,5922.8,147.433,5923.43Zm9.941,0.21a7.937,7.937,0,0,0,.981,0c0.63,0,.875.28,0.805,0.74-0.07.59-.385,0.45-0.98,0.49a7.158,7.158,0,0,1-1.226,0,0.536,0.536,0,0,1-.385-0.88A1.138,1.138,0,0,1,157.374,5923.64Zm0.035,3.64a9.122,9.122,0,0,0,1.051,0c0.63,0,.84.25,0.77,0.7-0.07.6-.455,0.53-1.05,0.56a6.755,6.755,0,0,1-1.191,0,0.631,0.631,0,0,1-.595-0.87A0.942,0.942,0,0,1,157.409,5927.28Zm-5.81,33.81a6.207,6.207,0,0,1,.665-1.19,0.876,0.876,0,0,0,.315-0.87,0.966,0.966,0,0,0-.56-0.7,7.935,7.935,0,0,1-1.19-.84,11.58,11.58,0,0,1-1.155-.81,1.52,1.52,0,0,1-.945-1.08,8.539,8.539,0,0,1-.035-0.91,1.156,1.156,0,0,1,.945-1.12c0.665-.04,1.085-0.04,1.54-0.04,0.875,0.04,1.225-.07,1.155-0.91a5.876,5.876,0,0,1,.035-1.37c0.07-.59-0.49-0.87-1.155-1.08a10.948,10.948,0,0,1-1.82,0c-0.385.03-.665-0.39-0.665-1.33-0.035-.35-0.07-1.68-0.07-2.42a2.646,2.646,0,0,1,.49-1.54,1.524,1.524,0,0,1,.84-0.59c0.35-.14.63-0.25,1.26-0.49,0.42,0.03.77-.18,1.015-0.11a0.445,0.445,0,0,0,.245-0.84,7.463,7.463,0,0,1-.77-0.77,2.1,2.1,0,0,1-.735-0.73,2.107,2.107,0,0,0-.84-0.46h-0.07c-0.385.04-.49,0.18-0.875,0.25a5.816,5.816,0,0,1-1.471.63,3.647,3.647,0,0,0-1.575.52,10.606,10.606,0,0,0-1.5.42,12.314,12.314,0,0,1-1.575.35,4.6,4.6,0,0,0-1.295.28c-0.63,0-.98.28-0.805,0.88a5.336,5.336,0,0,0,.455,1.5,0.936,0.936,0,0,0,1.26.67,9.186,9.186,0,0,0,1.085-.25c0.665-.21,1.47,0,1.47.63,0.07,0.49,0,1.12.07,1.44a6.175,6.175,0,0,1-.175,1.5,0.946,0.946,0,0,1-.875.53,3.748,3.748,0,0,1-.91,0c-0.735.03-1.05-.07-1.68-0.07a0.992,0.992,0,0,0-1.085,1.19,9.548,9.548,0,0,1,0,1.01,1.1,1.1,0,0,0,1.12,1.16c0.455,0.04,1.155-.03,1.75,0a0.6,0.6,0,0,1,.735.42,1.426,1.426,0,0,1-.035,1.16c-0.14.7-.525,1.57-0.665,2.06a5.6,5.6,0,0,0-.42,1.09c-0.07.35-.42,0.91-0.455,1.08a7.268,7.268,0,0,0-.49,1.05,3.1,3.1,0,0,1-.525,1.02,3.509,3.509,0,0,0-.56.98,2.17,2.17,0,0,1-.595.94,3.005,3.005,0,0,0-.49,1.05,1.625,1.625,0,0,0,.77,1.33,3.133,3.133,0,0,0,1.26,1.19c0.35,0.18.42-.17,0.7-0.49,0.42-.49.42-0.77,0.84-1.33,0.14-.31.525-0.98,0.84-1.64,0.35-.74.77-0.49,0.77,0a7.051,7.051,0,0,0,.035,1.5,10.484,10.484,0,0,1,0,1.82c-0.07.6,0,1.3-.035,2.1-0.035.67,0,1.26-.035,2a4.633,4.633,0,0,0-.035,1.54,1.122,1.122,0,0,0,1.155.94,3.957,3.957,0,0,0,.805.11,2.162,2.162,0,0,0,1.681-1.05,2.839,2.839,0,0,1,0-1.09,19.855,19.855,0,0,1-.035-2.1c-0.14-.73.07-1.47-0.035-2.06a10.228,10.228,0,0,0,0-2.07,5.772,5.772,0,0,0,0-2.06c0-.25.035-1.12,0.035-1.51,0-1.05.35-1.33,0.77-.94l0.21,0.17a2.391,2.391,0,0,1,.665.67,0.705,0.705,0,0,0,.56.28C151.249,5961.76,151.424,5961.51,151.6,5961.09Zm21.7,9.56c0-.07.035-0.14,0.035-0.18a1.115,1.115,0,0,0-.98-0.98,4.939,4.939,0,0,0-1.225,0c-0.35.11-.875-0.14-1.435,0a2.657,2.657,0,0,1-1.4,0,6.956,6.956,0,0,1-2.451,0,3.263,3.263,0,0,1-1.925-.31,0.977,0.977,0,0,1,.035-0.98,2.48,2.48,0,0,1,1.89-.25H167.6a3.669,3.669,0,0,1,1.645.04c0.595-.14,1.12.1,1.68,0a1,1,0,0,0,.98-1.19c0-.35.035-0.77,0.035-1.16a0.977,0.977,0,0,0-1.015-.94,3.047,3.047,0,0,1-.8,0c-1.05-.14-1.68.17-2.52,0a5.972,5.972,0,0,1-2.066,0c-0.805.14-1.61,0-1.68-.28a0.96,0.96,0,0,1,0-.7,1.186,1.186,0,0,1,1.015-.63,7.594,7.594,0,0,1,.98.07,2.021,2.021,0,0,1,1.751.38,0.981,0.981,0,0,0,1.05.46,5.924,5.924,0,0,1,.875,0,0.963,0.963,0,0,0,1.12-1.16c0.105-.87-0.14-1.71,0-2.59-0.1-.73.105-1.75,0-2.69-0.035-1.02.07-1.82,0-2.73a18.116,18.116,0,0,1,.105-2.18,0.966,0.966,0,0,0-.98-0.94c-0.49.14-1.05-.14-1.5,0a2.373,2.373,0,0,1-1.471,0,12.869,12.869,0,0,0-1.645,0c-0.77,0-1.435-.04-1.365-0.74a0.768,0.768,0,0,1,.84-0.59,3.415,3.415,0,0,1,1.365-.11,15.812,15.812,0,0,1,2.591,0,6.633,6.633,0,0,1,1.645.04,5.045,5.045,0,0,1,1.645,0,1.047,1.047,0,0,0,.98-1.16,4.573,4.573,0,0,1,0-.98,1,1,0,0,0-.98-1.15,2.755,2.755,0,0,0-.77,0,10.1,10.1,0,0,1-2.52.03,14.94,14.94,0,0,1-2.591,0c-0.98.04-1.82,0.14-2.03-.38a1.346,1.346,0,0,1,.245-1.44,1.247,1.247,0,0,1,.91-0.42,4.617,4.617,0,0,1,1.68-.35,3.371,3.371,0,0,0,1.541-.28,8.589,8.589,0,0,0,1.645-.28,0.794,0.794,0,0,1,.595,0c0.315-.03.7-0.07,0.385-0.77a3.86,3.86,0,0,0-.8-0.7,4.893,4.893,0,0,1-.77-0.84,1.1,1.1,0,0,0-1.085-.59,6.85,6.85,0,0,0-1.26.17l-1.576.32a3.469,3.469,0,0,1-1.575.24c-0.595,0-1.05.25-1.61,0.25a5.452,5.452,0,0,1-1.575.21c-0.56.07-.98,0.14-1.4,0.17a5.369,5.369,0,0,1-1.435.18,3.406,3.406,0,0,0-1.366.14,6.767,6.767,0,0,0-1.435.1c-0.7-.03-1.575-0.28-1.82.63-0.175.32,0.315,1.12,0.385,1.58,0,0.59.525,1.01,1.435,0.84,0.665,0,1.645-.21,2.451-0.21a6.114,6.114,0,0,0,1.82-.14,1.033,1.033,0,0,1,.875.17,0.706,0.706,0,0,1,.1.91,1.467,1.467,0,0,1-1.61.6,14.575,14.575,0,0,0-2.066-.11,4.142,4.142,0,0,1-1.61-.03c-0.455-.07-1.295.1-1.68,0a0.9,0.9,0,0,0-.84,1.19,2.192,2.192,0,0,0,0,1.26c0.035,0.73.14,0.77,0.84,0.84a12.781,12.781,0,0,0,1.645,0,3.829,3.829,0,0,0,1.645-.04,6.359,6.359,0,0,1,2,0,5.024,5.024,0,0,1,1.47.11,0.8,0.8,0,0,1,.175,1.08,1.5,1.5,0,0,1-1.225.25c-0.385.14-.98-0.14-1.47,0a7.787,7.787,0,0,1-1.541,0,4,4,0,0,0-1.12-.04,1.231,1.231,0,0,0-1.26,1.09c-0.1.84,0.105,1.54,0.035,2.07a15.328,15.328,0,0,1,.1,2.48,9.089,9.089,0,0,1-.1,1.72,6.191,6.191,0,0,1,0,1.4,16.934,16.934,0,0,0,0,2.69,0.977,0.977,0,0,0,1.05,1.12,11.033,11.033,0,0,0,1.155,0,1.141,1.141,0,0,0,.945-0.42,1.582,1.582,0,0,1,1.646-.66,8.449,8.449,0,0,1,1.015,0,1.21,1.21,0,0,1,.84.42,0.677,0.677,0,0,1-.035.8c-0.1.42-.735,0.35-1.61,0.42a6.942,6.942,0,0,0-1.926-.03,5.118,5.118,0,0,1-1.75-.07,6.389,6.389,0,0,1-1.645,0,1.058,1.058,0,0,0-1.015,1.15,1.747,1.747,0,0,0,0,.95,1.043,1.043,0,0,0,.98,1.19,4.317,4.317,0,0,1,1.68,0c0.7,0.07,1.085-.07,1.645-0.04a12.78,12.78,0,0,1,1.961,0,2.282,2.282,0,0,1,1.68.35,0.747,0.747,0,0,1,.035.77,0.773,0.773,0,0,1-.7.49c-0.455,0-.945.04-1.575,0-0.946-.1-1.716.07-2.591-0.07a4.2,4.2,0,0,1-2,0c-0.805.11-1.4-.1-2.03,0a0.927,0.927,0,0,0-.945,1.16,8.413,8.413,0,0,1,0,.94,1.049,1.049,0,0,0,.945,1.16c0.77,0,1.5-.04,2.03,0a4.943,4.943,0,0,0,2,0,4.317,4.317,0,0,0,1.61,0c0.561-.11,1.051.1,1.576,0,0.455-.07,1.085.1,1.61,0,0.385,0.1,1.12-.14,1.61,0a10.744,10.744,0,0,1,1.61,0c0.385,0.07,1.05-.04,1.61,0,0.665-.07,1.085.07,1.61,0a3.982,3.982,0,0,0,1.576,0,10.228,10.228,0,0,0,2,0,9.48,9.48,0,0,1,2.065,0c0.525,0.03.805-.46,0.945-1.16A2,2,0,0,1,173.3,5970.65Zm-8.436-16.1c0.385-.04.98,0.07,1.5,0.07,0.56,0,1.226.1,1.191,0.77,0,0.24-.105.7-0.946,0.59a9.708,9.708,0,0,1-2.065.04,0.725,0.725,0,0,1-.84-0.77A0.95,0.95,0,0,1,164.865,5954.55Zm-7.911.7c0.035-.67.631-0.56,1.016-0.63,0.455-.07,1.05.03,1.575-0.04a0.68,0.68,0,0,1,.91.7,0.578,0.578,0,0,1-.665.74c-0.315,0-1.715.07-2.2,0A0.688,0.688,0,0,1,156.954,5955.25Zm10.5,3.78a0.659,0.659,0,0,1,0,.94,0.687,0.687,0,0,1-.7.28c-0.35.04-1.05,0.07-1.47,0.07-0.77-.14-0.945.14-1.365-0.24a0.9,0.9,0,0,1,.07-1.09,2.075,2.075,0,0,1,1.5-.14,7.594,7.594,0,0,0,.98-0.07A0.993,0.993,0,0,1,167.456,5959.03Zm-7.071.84a0.6,0.6,0,0,1-.735.45,3.77,3.77,0,0,1-1.12,0c-0.665-.14-1.191.07-1.366-0.17a1.426,1.426,0,0,1-.21-0.88,0.855,0.855,0,0,1,.771-0.42,4.8,4.8,0,0,1,1.015,0,1.9,1.9,0,0,1,1.61.18A1.278,1.278,0,0,1,160.385,5959.87Zm-9.8,34.19a0.762,0.762,0,0,1,.7.53,0.764,0.764,0,0,0,.56.52,1.526,1.526,0,0,0,.945-0.17,1.036,1.036,0,0,0,.84-0.46,0.8,0.8,0,0,0,.77-0.94,1.191,1.191,0,0,0-.28-1.02,3.749,3.749,0,0,0-.595-1.4,12.406,12.406,0,0,0-.735-1.4c-0.28-.38-0.315-0.73-0.525-0.94a1.241,1.241,0,0,0-.91-0.6,5.17,5.17,0,0,0-.63.21c-0.28.21-.49,0.21-0.63,0.35-0.245.18-1.05,0.53-.735,1.16a1.107,1.107,0,0,1,.21.77c0,0.49-.315.52-0.875,0.59-0.735.07-1.191-.17-0.77-0.98a7.759,7.759,0,0,1,.7-0.98,3.212,3.212,0,0,0,.63-1.08,4.089,4.089,0,0,0,.77-1.09c0.175-.42.56-0.91,0.875-1.54,0.35-.59.595-0.94,0.945-1.51a0.977,0.977,0,0,0,.35-0.28,0.507,0.507,0,0,0,.595-0.56,0.467,0.467,0,0,0-.385-0.56,3.2,3.2,0,0,1-1.015-.49,3.063,3.063,0,0,1-1.05-.49,0.635,0.635,0,0,0-.56-0.14,0.712,0.712,0,0,0-.84.53,5.059,5.059,0,0,0-.77,1.5,9.919,9.919,0,0,1-.806,1.44c-0.245.42-.56,0.74-0.98,0.46-0.63-.42-0.385-0.81-0.035-1.51a2.835,2.835,0,0,0,.35-0.81,4,4,0,0,0,.84-1.43c0.28-.39.28-0.7,0.491-0.95a3.185,3.185,0,0,1,.525-1.15,4.528,4.528,0,0,0,.805-0.42,0.576,0.576,0,0,0-.28-0.74,2.241,2.241,0,0,1-1.015-.49,5.961,5.961,0,0,1-1.016-.38,2.563,2.563,0,0,1-.56-0.14,1.891,1.891,0,0,0-1.085,1.19,5.931,5.931,0,0,1-.49,1.19,3.514,3.514,0,0,0-.525,1.12c-0.245.52-.385,0.73-0.595,1.15-0.245.46-.91,1.12-1.085,0.91a1.12,1.12,0,0,0-1.05.6,2.069,2.069,0,0,0-.385.74,0.8,0.8,0,0,0-.21.63,0.994,0.994,0,0,0,.525.91,9.338,9.338,0,0,0,.945.66,2.191,2.191,0,0,0,.945.7,1.981,1.981,0,0,1,.98.95,1.642,1.642,0,0,1-.1,1.64l-0.42.67-0.525.7a3.163,3.163,0,0,1-1.61.31,0.813,0.813,0,0,0-.91.56,5.26,5.26,0,0,0,.175,1.12,13.393,13.393,0,0,1,.49,1.79,0.572,0.572,0,0,0,.84.42,2.394,2.394,0,0,1,.84-0.35,5.415,5.415,0,0,0,1.05-.25,1.757,1.757,0,0,1,1.015.11c0.385,0.17.42,1.12,0.35,1.64a10.951,10.951,0,0,1,0,1.86,3.554,3.554,0,0,0,0,1.92,9.166,9.166,0,0,0,0,1.96,10.9,10.9,0,0,0-.035,2.14c0.035,0.66-.07,1.61,0,2.17a4.1,4.1,0,0,0,0,1.85,0.941,0.941,0,0,0,1.155,1.09,4.538,4.538,0,0,0,1.331,0,1.054,1.054,0,0,0,1.155-1.09,106.266,106.266,0,0,1-.035-4.02c0-.77.035-1.33,0-2.14a6.774,6.774,0,0,1,0-2.06,4.413,4.413,0,0,1,0-2.03c0.07-.56-0.07-1.65,0-2.35a1.7,1.7,0,0,1,.385-1.47A2.281,2.281,0,0,1,150.584,5994.06Zm22.157-14.07c-0.6-.42-0.91-0.98-1.4-1.26a2.642,2.642,0,0,0-.945-0.42c-0.385-.04-0.735.35-1.295,0.35-0.735.07-1.33-.04-2.206,0.03-0.98.07-1.785-.03-2.625,0a15.341,15.341,0,0,1-2.625,0c-1.05-.03-1.82.07-2.625,0a8.875,8.875,0,0,1-2,0c-0.805.18-1.33-.17-2.03,0a1.041,1.041,0,0,0-1.085,1.05,3.993,3.993,0,0,1,0,1.12c0,0.67.175,1.26,0.98,1.16a6.647,6.647,0,0,0,2.065.03c0.6,0.11.736-.07,1.506,0.04a1.08,1.08,0,0,1,.735,1.26,7.255,7.255,0,0,1-.56,2c-0.35.42-.455,1.29-0.77,1.64a5.74,5.74,0,0,1-.946,1.51,14.12,14.12,0,0,1-1.085,1.26,9.163,9.163,0,0,0-1.225,1.12,0.83,0.83,0,0,0-.28,1.01,4.585,4.585,0,0,0,.875,1.12,1.363,1.363,0,0,0,1.05.88c0.21,0.24.455-.14,0.98-0.53a15.908,15.908,0,0,0,1.261-1.15,6.1,6.1,0,0,1,1.085-1.26,1.981,1.981,0,0,0,.665-0.88,3.184,3.184,0,0,0,.595-0.94c0.315-.46.42-0.77,0.56-0.95a4.286,4.286,0,0,1,.455-0.98,6.758,6.758,0,0,1,.385-1.01c0.035-.21.245-0.74,0.315-1.19a6.012,6.012,0,0,0,.35-1.2,3.283,3.283,0,0,1,.385-1.12,1.934,1.934,0,0,1,1.05-.66c0.385-.07.98,0.1,1.575,0a8.6,8.6,0,0,1,1.436,0,1.365,1.365,0,0,1,1.155,1.22,4.009,4.009,0,0,1-.21,1.34,7,7,0,0,1-.42,1.99,5.98,5.98,0,0,1-.7,1.93,2.141,2.141,0,0,1-1.016.98,3.747,3.747,0,0,1-1.5.24,0.735,0.735,0,0,1-.84,0,1.874,1.874,0,0,1-.63,0,0.716,0.716,0,0,0-.77.67c-0.07.28,0.35,1.54,0.35,1.99a1.414,1.414,0,0,0,1.61,1.23,6.573,6.573,0,0,0,2.275-.21,4.891,4.891,0,0,0,1.331-.32,8.254,8.254,0,0,0,1.12-.56,1.033,1.033,0,0,0,.735-0.7,2.6,2.6,0,0,0,.595-0.87,4.359,4.359,0,0,0,.455-1.05,3.62,3.62,0,0,1,.35-1.09,14.112,14.112,0,0,1,.49-2.31,8.5,8.5,0,0,0,.28-2.03c-0.07-.67.28-1.4,0.245-2.21,0.21-.31-0.07-0.66.315-0.94a0.964,0.964,0,0,0,.49-0.6,0.2,0.2,0,0,0,.035-0.14A1.5,1.5,0,0,0,172.741,5979.99Zm-0.98,25.55c0.07-.94-0.14-1.71-0.035-2.62,0.035-.6-0.07-1.65,0-2.38a7.148,7.148,0,0,1,.035-2.28,8.47,8.47,0,0,1,0-2.31,0.854,0.854,0,0,0-.945-1.01,0.42,0.42,0,0,0-.49,0c-0.455.14-1.225-.14-1.575,0a9.241,9.241,0,0,0-2.626,0,17.629,17.629,0,0,1-2.625,0c-0.77.07-1.785-.11-2.625,0a22.322,22.322,0,0,1-2.59,0,6.677,6.677,0,0,1-1.611,0,1.076,1.076,0,0,1-.49,0,0.844,0.844,0,0,0-.91.91,6.793,6.793,0,0,0,0,2.38c0.1,0.87-.14,1.4.035,2.31,0.14,0.35-.14.91,0,1.43a3.962,3.962,0,0,0,0,1.44,20.686,20.686,0,0,1-.035,2.59c0.1,0.8-.07,1.61,0,2.62a0.922,0.922,0,0,0,.91,1.09,0.6,0.6,0,0,0,.245-0.04,2.588,2.588,0,0,1,1.156,0c0.875,0,1.19-.07,1.295-0.87-0.035-.88.84-0.95,2.1-0.98,0.63-.11,1.575.07,2.52,0.03,0.735,0.14,1.715,0,2.66.07a4.05,4.05,0,0,1,1.471.25,2.141,2.141,0,0,1,.77.66,1.2,1.2,0,0,0,1.05.35,6.353,6.353,0,0,0,1.155,0,0.948,0.948,0,0,0,1.155-.94A23.16,23.16,0,0,0,171.761,6005.54Zm-17.957-6.26-0.63-1.51c-0.14-.28-0.42-0.87-0.49-1.08a0.944,0.944,0,0,0-.98-0.53,0.615,0.615,0,0,0-.595.18c-0.28.07-.315,0.17-0.56,0.24a0.825,0.825,0,0,0-.7,1.16,5.686,5.686,0,0,0,.49,1.15,2.681,2.681,0,0,1,.35,1.05l0.56,2.21a1.317,1.317,0,0,0,.98,1.36c0.28,0.11.245,0,.56-0.14a1.435,1.435,0,0,0,.945-0.42,0.956,0.956,0,0,0,.8-0.98,1.526,1.526,0,0,0-.21-1.15A12.329,12.329,0,0,0,153.8,5999.28Zm-8.471-1.82a0.625,0.625,0,0,0-.42-0.63,6.063,6.063,0,0,1-1.75-.49,0.585,0.585,0,0,1-.455-0.04,0.817,0.817,0,0,0-.84,1.02c-0.14.49-.035,1.05-0.21,1.71a9.21,9.21,0,0,1-.28,1.68,4.628,4.628,0,0,1-.35,1.65c-0.175.77-.42,1.19-0.455,1.64,0,0.28-.245.53-0.245,0.91a1.479,1.479,0,0,0,1.085,1.16,1.692,1.692,0,0,0,1.12.52,0.945,0.945,0,0,0,.805-0.56,3.464,3.464,0,0,0,.385-1.36,5.231,5.231,0,0,0,.385-1.58c-0.035-.42.315-0.91,0.315-1.57,0.1-.39.035-0.84,0.21-1.4a5.914,5.914,0,0,1,.21-1.72C144.773,5997.91,145.4,5997.84,145.333,5997.46Zm22.928,5.32a1.564,1.564,0,0,1-.595,1.33c-0.315.52-1.226,0.17-1.611,0.28a9.051,9.051,0,0,1-2.555,0,21.187,21.187,0,0,1-2.52,0,2.021,2.021,0,0,1-1.75-.25,1.953,1.953,0,0,1-.525-1.78c0.07-.91-0.07-1.44,0-2.38a1.624,1.624,0,0,1,1.33-1.51,9.48,9.48,0,0,0,1.645-.1,5.28,5.28,0,0,0,1.82,0,11.468,11.468,0,0,0,1.855,0,6.907,6.907,0,0,0,1.716.07,1.293,1.293,0,0,1,1.12,1.47C168.226,6000.89,168.191,6001.9,168.261,6002.78Zm4.865,23.13c-0.28-.07-0.56-0.21-1.085-0.38a3.569,3.569,0,0,1-1.295-.49,4.371,4.371,0,0,1-1.575-.7,3.1,3.1,0,0,1-1.54-.81,7.164,7.164,0,0,1-1.541-.91c-0.595-.17-0.84-0.84-1.47-1.05a8.389,8.389,0,0,1-1.4-1.12,14.666,14.666,0,0,1-1.295-1.23,4.321,4.321,0,0,1-1.225-1.33,1.421,1.421,0,0,0-.63-0.73,6.7,6.7,0,0,0-.595-0.88c-0.385-.42-0.1-0.7.07-1.01,0.28-.53-0.035-0.81-0.49-0.91a6.013,6.013,0,0,0-1.26-.42,6.738,6.738,0,0,1-1.051-.39c-0.28-.03-0.525-0.21-0.77-0.21a0.9,0.9,0,0,0-.77.6,8.09,8.09,0,0,1-.875,1.47,18.671,18.671,0,0,0-1.12,1.61,6.413,6.413,0,0,0-1.26,1.54,4.145,4.145,0,0,1-.665.73,4.618,4.618,0,0,0-.735.74,6.776,6.776,0,0,1-.735.7,3.062,3.062,0,0,1-.77.7c-0.28.14-.455,0.46-0.77,0.67a2.615,2.615,0,0,1-.806.63,4.265,4.265,0,0,0-.84.63,5.755,5.755,0,0,1-.8.56,7.289,7.289,0,0,1-1.68,1.05,9.1,9.1,0,0,1-1.715.94,2.179,2.179,0,0,1-1.155.56,0.779,0.779,0,0,0-.735.74v0.21a7.167,7.167,0,0,0,.77,1.64c0.28,0.63.49,1.4,1.12,1.26a3.821,3.821,0,0,0,1.155-.38,10.119,10.119,0,0,1,1.61-.91c0.385-.21.98-0.7,1.5-1.05a2.336,2.336,0,0,0,.945-0.74,5.983,5.983,0,0,0,1.3-.91c0.455-.45.7-0.52,1.3-1.01,0.49-.46.98-0.67,1.225-0.98a7.072,7.072,0,0,0,1.26-1.12c0.56-.39.77-0.81,1.19-1.02a12.254,12.254,0,0,1,1.12-1.05c0.1-.28.77-0.91,1.05-1.33a0.962,0.962,0,0,1,1.681.24,3.213,3.213,0,0,0,.7.95c0.245,0.39.595,0.6,0.875,1.02,0.385,0.42.735,0.7,0.98,0.98a8.428,8.428,0,0,1,1.3.94,5.288,5.288,0,0,0,1.295.95,6.256,6.256,0,0,0,1.365.98,13.993,13.993,0,0,0,1.365.91,6.405,6.405,0,0,0,1.155.66,6.262,6.262,0,0,0,1.576,1.02,6.124,6.124,0,0,0,1.785.77,4.905,4.905,0,0,0,1.365.38c0.525,0.07.84-.56,1.155-1.26a5.647,5.647,0,0,0,.735-1.64,0.619,0.619,0,0,0,.035-0.25A0.581,0.581,0,0,0,173.126,6025.91Zm-19.777-.21a17.612,17.612,0,0,0-2.555-.17,0.809,0.809,0,0,0-.91,1.01,8.47,8.47,0,0,0,.035,1.3,11.478,11.478,0,0,0-.21,2.52,12.372,12.372,0,0,1,0,2.55c-0.1.39,0.07,0.98-.035,1.47a7.191,7.191,0,0,1-.175,1.3,3.485,3.485,0,0,1-.28,1.22,1.851,1.851,0,0,0-.42,1.09,5.44,5.44,0,0,1-.595,1.01,10.82,10.82,0,0,0-.771.91,7.89,7.89,0,0,1-1.05.84c-0.49.35-.735,0.42-1.26,0.81-0.49.24-.91,0.45-1.19,0.56a2.994,2.994,0,0,1-1.225.56,0.608,0.608,0,0,0-.455.7,2.9,2.9,0,0,0,.91,1.61c0.455,0.66.49,1.05,1.19,1.08a0.9,0.9,0,0,0,.315.07,1.07,1.07,0,0,0,.7-0.35,7.9,7.9,0,0,1,1.365-.66c0.455-.39.805-0.35,1.3-0.74,0.35-.21.63-0.45,0.875-0.56a4.612,4.612,0,0,0,1.3-1.01c0.42-.39.7-0.84,1.05-1.16,0.105-.31.525-0.84,0.77-1.29,0.21-.39.28-0.91,0.56-1.37a3.506,3.506,0,0,0,.385-1.43c0.1-.53.07-0.84,0.245-1.51a7.408,7.408,0,0,0,.1-1.54,4.144,4.144,0,0,1,.035-1.61c-0.035-.8,0-1.64,0-2.66-0.035-.94,0-1.78-0.035-2.59a1.127,1.127,0,0,1,.385-0.98,0.553,0.553,0,0,0,.35-0.52A0.594,0.594,0,0,0,153.349,6025.7Zm10.221,0.11a3.205,3.205,0,0,0-1.435-.14c-0.7.07-1.085-.18-1.715-0.14a0.77,0.77,0,0,0-.735.87,5.407,5.407,0,0,0,.035,1.09,3.583,3.583,0,0,1,.035,1.5,5.58,5.58,0,0,1,.035,1.51,5.672,5.672,0,0,0,0,1.54,4.4,4.4,0,0,1,.035,1.5,9.933,9.933,0,0,0,0,2.28,16.9,16.9,0,0,0,0,2.31,10.628,10.628,0,0,0-.035,1.5c0.035,0.67-.07.91,0,1.51-0.1.56,0.035,0.98-.035,1.5a7.752,7.752,0,0,0-.035,1.54,1.536,1.536,0,0,1,0,.98c-0.07.81,0.49,0.95,1.12,0.95h0.245c0.315,0,.665.03,1.015,0.03h0.07a1.382,1.382,0,0,0,.35-0.03h0.14a1.1,1.1,0,0,0,.98-0.91,3.4,3.4,0,0,1-.035-1.02,3.79,3.79,0,0,1-.035-1.54c0.105-.56-0.1-0.94-0.035-1.5a3.115,3.115,0,0,0,0-1.51c0.07-.49-0.1-0.91,0-1.5,0.035-.6-0.1-1.47,0-2.31a16.471,16.471,0,0,0,0-2.28,11.2,11.2,0,0,0-.035-1.5,7.514,7.514,0,0,1,0-1.54,12.625,12.625,0,0,0-.035-1.61,4.116,4.116,0,0,1,.14-1.47,1.256,1.256,0,0,1,.21-0.6,0.607,0.607,0,0,0,.315-0.66A0.437,0.437,0,0,0,163.57,6025.81Z" transform="translate(-135 -5892)"/>
</svg>
