<svg xmlns="http://www.w3.org/2000/svg" width="14.4" height="196.12" viewBox="0 0 14.4 196.12">
  <defs>
    <style>
      .cls-1 {
        fill: #5f9d7b;
        fill-rule: evenodd;
      }
    </style>
  </defs>
  <path id="PEOPLE_WORKS_02" data-name="PEOPLE &amp; WORKS  02" class="cls-1" d="M1200.03,5290.41a0.38,0.38,0,0,0-.38.38v1.84a0.393,0.393,0,0,0,.38.38h4.7v2.5a4.455,4.455,0,1,0,8.91-.02v-4.7a0.38,0.38,0,0,0-.38-0.38h-13.23Zm7.14,2.6h4.02v2.32a2,2,0,0,1-1.94,2.06,2.061,2.061,0,0,1-2.08-2.06v-2.32Zm-7.14,9.25a0.38,0.38,0,0,0-.38.38v8.14a0.38,0.38,0,0,0,.38.38h1.64a0.38,0.38,0,0,0,.38-0.38v-5.92h3.5v4.94a0.38,0.38,0,0,0,.38.38h1.66a0.393,0.393,0,0,0,.38-0.38v-4.94h3.28v5.92a0.38,0.38,0,0,0,.38.38h1.63a0.38,0.38,0,0,0,.38-0.38v-8.14a0.38,0.38,0,0,0-.38-0.38h-13.23Zm6.6,10.76a7.19,7.19,0,1,0,7.21,7.18A7.136,7.136,0,0,0,1206.63,5313.02Zm0,2.6a4.59,4.59,0,1,1-4.58,4.58A4.627,4.627,0,0,1,1206.63,5315.62Zm-6.6,14.41a0.38,0.38,0,0,0-.38.38v1.84a0.393,0.393,0,0,0,.38.38h4.7v2.5a4.455,4.455,0,1,0,8.91-.02v-4.7a0.38,0.38,0,0,0-.38-0.38h-13.23Zm7.14,2.6h4.02v2.32a2,2,0,0,1-1.94,2.06,2.061,2.061,0,0,1-2.08-2.06v-2.32Zm-7.14,9.25a0.38,0.38,0,0,0-.38.38v7.32a0.38,0.38,0,0,0,.38.38h1.64a0.38,0.38,0,0,0,.38-0.38v-5.1h11.21a0.393,0.393,0,0,0,.38-0.38v-1.84a0.38,0.38,0,0,0-.38-0.38h-13.23Zm0,10.1a0.38,0.38,0,0,0-.38.38v8.14a0.38,0.38,0,0,0,.38.38h1.64a0.38,0.38,0,0,0,.38-0.38v-5.92h3.5v4.94a0.38,0.38,0,0,0,.38.38h1.66a0.393,0.393,0,0,0,.38-0.38v-4.94h3.28v5.92a0.38,0.38,0,0,0,.38.38h1.63a0.38,0.38,0,0,0,.38-0.38v-8.14a0.38,0.38,0,0,0-.38-0.38h-13.23Zm3.18,15.85a3.905,3.905,0,0,0-3.76,4.22,5.747,5.747,0,0,0,1.7,4.36l-1.46,1.44a0.583,0.583,0,0,0-.06.88l0.84,0.82c0.46,0.48.68,0.28,0.92,0.04l1.68-1.78a13.634,13.634,0,0,0,3.18,1.24,0.544,0.544,0,0,0,.78-0.34l0.32-1.1c0.14-.46-0.08-0.58-0.5-0.66a8.755,8.755,0,0,1-2.22-.72l2.32-2.3c0.36,0.4,1.58,2.44,3.64,2.44,1.8,0,3.25-1.54,3.25-3.78,0-2.52-1.71-3.78-3.23-3.78a3.979,3.979,0,0,0-2.88,1.36l-0.46.42h-0.04C1207.01,5370.23,1205.85,5367.83,1203.21,5367.83Zm5.16,4.68,0.44-.44a2.627,2.627,0,0,1,1.8-1.04,1.369,1.369,0,0,1,1.36,1.48,1.59,1.59,0,0,1-1.5,1.7C1209.23,5374.21,1208.55,5372.81,1208.37,5372.51Zm-4.9-2.3a2.869,2.869,0,0,1,2.46,1.7l-3.16,2.98a3.281,3.281,0,0,1-1.18-2.58A1.948,1.948,0,0,1,1203.47,5370.21Zm-3.74,18.71a0.384,0.384,0,0,0-.28.36v0.32a0.34,0.34,0,0,0,.22.34l9.06,3.54v0.1l-9.06,3.58a0.34,0.34,0,0,0-.22.34v0.32a0.384,0.384,0,0,0,.28.36l13.43,3.78a0.349,0.349,0,0,0,.48-0.36v-1.84a0.411,0.411,0,0,0-.28-0.36l-7.97-2.04v-0.08l8.23-3.2a0.323,0.323,0,0,0,.22-0.34v-0.36a0.323,0.323,0,0,0-.22-0.34l-8.23-3.18v-0.08l7.97-2.08a0.411,0.411,0,0,0,.28-0.36v-1.84a0.349,0.349,0,0,0-.48-0.36Zm6.9,14.45a7.19,7.19,0,1,0,7.21,7.18A7.136,7.136,0,0,0,1206.63,5403.37Zm0,2.6a4.59,4.59,0,1,1-4.58,4.58A4.627,4.627,0,0,1,1206.63,5405.97Zm-6.6,14.41a0.38,0.38,0,0,0-.38.38v1.84a0.393,0.393,0,0,0,.38.38h5.1v2.22l-5.3,2.66a0.343,0.343,0,0,0-.18.32v2.1a0.378,0.378,0,0,0,.58.34l5.08-2.74a4.414,4.414,0,0,0,4.04,2.96,4.324,4.324,0,0,0,4.29-4.36v-5.72a0.38,0.38,0,0,0-.38-0.38h-13.23Zm7.24,2.62h3.98v3.26a1.99,1.99,0,0,1-1.94,1.98,2.037,2.037,0,0,1-2.04-1.98V5423Zm-7.14,10.7a0.474,0.474,0,0,0-.48.48v1.76a0.487,0.487,0,0,0,.48.48h6.1l-6.44,5.22a0.434,0.434,0,0,0-.14.36v2.18a0.439,0.439,0,0,0,.7.36l6.7-5.6,5.87,5.22a0.425,0.425,0,0,0,.72-0.32v-2a0.478,0.478,0,0,0-.2-0.38l-5.67-5.04h5.39a0.487,0.487,0,0,0,.48-0.48v-1.76a0.474,0.474,0,0,0-.48-0.48h-13.03Zm0.88,12.39a6.434,6.434,0,0,0-1.56,4.4c0,2.82,1.9,4.6,3.96,4.6,2.58,0,3.74-2.24,4.52-4.18,0.66-1.62,1.3-2.36,2.24-2.36a1.593,1.593,0,0,1,1.4,1.76,6.58,6.58,0,0,1-1.1,2.78,0.526,0.526,0,0,0,.24.7l1.14,0.76a0.481,0.481,0,0,0,.65-0.12,7.041,7.041,0,0,0,1.34-4c0-3.18-2.05-4.5-3.83-4.5-2.36,0-3.56,1.88-4.32,3.76-0.68,1.68-1.38,2.54-2.4,2.54a1.67,1.67,0,0,1-1.54-1.82,6.623,6.623,0,0,1,1.24-3.02,0.463,0.463,0,0,0-.14-0.68l-1.24-.72A0.4,0.4,0,0,0,1201.01,5446.09Zm-1.56,24.85c0,3.2,2.62,5.04,7,5.04s6.99-1.84,6.99-5.04-2.61-5.04-6.99-5.04S1199.45,5467.74,1199.45,5470.94Zm2.36,0c0-1.54,1.66-2.42,4.64-2.42,2.96,0,4.64.88,4.64,2.42s-1.68,2.42-4.64,2.42C1203.47,5473.36,1201.81,5472.48,1201.81,5470.94Zm-1.78,6.89a0.38,0.38,0,0,0-.38.38v7.88a0.393,0.393,0,0,0,.38.38h1.38a0.393,0.393,0,0,0,.38-0.38v-4.32c1.34,1.06,3.22,2.58,4.44,3.44a5.334,5.334,0,0,0,3.24,1.34c2.16,0,3.97-1.6,3.97-4.46a5.55,5.55,0,0,0-1.95-3.94,0.394,0.394,0,0,0-.52.02l-0.96.96a0.364,0.364,0,0,0,0,.54,3.279,3.279,0,0,1,1.18,2.24,1.889,1.889,0,0,1-1.82,2.12,3.817,3.817,0,0,1-2.22-1.02c-1.78-1.34-5.06-3.86-6.66-5.18h-0.46Z" transform="translate(-1199.44 -5290.41)"/>
</svg>
