<svg xmlns="http://www.w3.org/2000/svg" width="14.406" height="192.09" viewBox="0 0 14.406 192.09">
  <defs>
    <style>
      .cls-1 {
        fill: #5f9d7b;
        fill-rule: evenodd;
      }
    </style>
  </defs>
  <path id="PEOPLE_WORKS_01" data-name="PEOPLE &amp; WORKS  01" class="cls-1" d="M202.02,4687.54a0.38,0.38,0,0,0-.38.38v1.84a0.393,0.393,0,0,0,.38.38h4.7v2.5a4.458,4.458,0,1,0,8.916-.02v-4.7a0.38,0.38,0,0,0-.379-0.38H202.02Zm7.138,2.6h4.018v2.32a2,2,0,0,1-1.939,2.06,2.061,2.061,0,0,1-2.079-2.06v-2.32Zm-7.138,9.24a0.38,0.38,0,0,0-.38.38v8.15a0.38,0.38,0,0,0,.38.38h1.64a0.38,0.38,0,0,0,.38-0.38v-5.93h3.5v4.94a0.38,0.38,0,0,0,.38.38h1.66a0.392,0.392,0,0,0,.379-0.38v-4.94h3.279v5.93a0.38,0.38,0,0,0,.38.38h1.64a0.38,0.38,0,0,0,.379-0.38v-8.15a0.38,0.38,0,0,0-.379-0.38H202.02Zm6.6,10.77a7.19,7.19,0,1,0,7.217,7.18A7.134,7.134,0,0,0,208.618,4710.15Zm0,2.6a4.59,4.59,0,1,1-4.578,4.58A4.626,4.626,0,0,1,208.618,4712.75Zm-6.6,14.41a0.38,0.38,0,0,0-.38.38v1.84a0.393,0.393,0,0,0,.38.38h4.7v2.5a4.458,4.458,0,1,0,8.916-.02v-4.7a0.38,0.38,0,0,0-.379-0.38H202.02Zm7.138,2.6h4.018v2.32a2,2,0,0,1-1.939,2.06,2.061,2.061,0,0,1-2.079-2.06v-2.32ZM202.02,4739a0.38,0.38,0,0,0-.38.38v7.32a0.38,0.38,0,0,0,.38.38h1.64a0.38,0.38,0,0,0,.38-0.38v-5.1h11.216a0.393,0.393,0,0,0,.379-0.38v-1.84a0.38,0.38,0,0,0-.379-0.38H202.02Zm0,10.11a0.38,0.38,0,0,0-.38.38v8.14a0.38,0.38,0,0,0,.38.38h1.64a0.38,0.38,0,0,0,.38-0.38v-5.92h3.5v4.94a0.38,0.38,0,0,0,.38.38h1.66a0.392,0.392,0,0,0,.379-0.38v-4.94h3.279v5.92a0.38,0.38,0,0,0,.38.38h1.64a0.38,0.38,0,0,0,.379-0.38v-8.14a0.38,0.38,0,0,0-.379-0.38H202.02Zm3.179,15.85a3.9,3.9,0,0,0-3.758,4.22,5.748,5.748,0,0,0,1.7,4.36l-1.46,1.44a0.585,0.585,0,0,0-.06.88l0.84,0.82c0.46,0.48.68,0.28,0.92,0.04l1.679-1.78a13.64,13.64,0,0,0,3.179,1.24,0.544,0.544,0,0,0,.78-0.34l0.32-1.1c0.14-.46-0.08-0.58-0.5-0.66a8.734,8.734,0,0,1-2.219-.72l2.319-2.3c0.36,0.4,1.579,2.44,3.638,2.44,1.8,0,3.259-1.54,3.259-3.78,0-2.52-1.719-3.78-3.239-3.78a3.975,3.975,0,0,0-2.878,1.36l-0.46.42h-0.04C209,4767.36,207.838,4764.96,205.2,4764.96Zm5.158,4.68,0.44-.44a2.627,2.627,0,0,1,1.8-1.04,1.369,1.369,0,0,1,1.36,1.48,1.59,1.59,0,0,1-1.5,1.7C211.217,4771.34,210.537,4769.94,210.357,4769.64Zm-4.9-2.3a2.869,2.869,0,0,1,2.459,1.7l-3.159,2.98a3.281,3.281,0,0,1-1.179-2.58A1.947,1.947,0,0,1,205.459,4767.34Zm-3.739,18.71a0.384,0.384,0,0,0-.279.36v0.32a0.341,0.341,0,0,0,.219.34l9.057,3.54v0.1l-9.057,3.58a0.341,0.341,0,0,0-.219.34v0.32a0.384,0.384,0,0,0,.279.36l13.436,3.78a0.348,0.348,0,0,0,.479-0.36v-1.84a0.411,0.411,0,0,0-.28-0.36l-7.977-2.04v-0.08l8.237-3.2a0.323,0.323,0,0,0,.22-0.34v-0.36a0.323,0.323,0,0,0-.22-0.34l-8.237-3.18v-0.08l7.977-2.08a0.411,0.411,0,0,0,.28-0.36v-1.84a0.348,0.348,0,0,0-.479-0.36Zm6.9,14.44a7.2,7.2,0,1,0,7.217,7.19A7.143,7.143,0,0,0,208.618,4800.49Zm0,2.61a4.59,4.59,0,1,1-4.578,4.58A4.626,4.626,0,0,1,208.618,4803.1Zm-6.6,14.4a0.38,0.38,0,0,0-.38.38v1.84a0.393,0.393,0,0,0,.38.38h5.1v2.22l-5.3,2.66a0.343,0.343,0,0,0-.18.32v2.1a0.378,0.378,0,0,0,.58.34L207.3,4825a4.413,4.413,0,0,0,4.039,2.96,4.331,4.331,0,0,0,4.3-4.36v-5.72a0.38,0.38,0,0,0-.379-0.38H202.02Zm7.238,2.62h3.978v3.26a1.989,1.989,0,0,1-1.939,1.98,2.036,2.036,0,0,1-2.039-1.98v-3.26Zm-7.138,10.71a0.474,0.474,0,0,0-.48.48v1.76a0.487,0.487,0,0,0,.48.48h6.1l-6.438,5.22a0.434,0.434,0,0,0-.14.36v2.18a0.439,0.439,0,0,0,.7.36l6.7-5.6,5.878,5.22a0.425,0.425,0,0,0,.719-0.32v-2a0.478,0.478,0,0,0-.2-0.38l-5.677-5.04h5.4a0.486,0.486,0,0,0,.479-0.48v-1.76a0.474,0.474,0,0,0-.479-0.48H202.12Zm0.88,12.39a6.435,6.435,0,0,0-1.559,4.4c0,2.82,1.9,4.6,3.958,4.6,2.579,0,3.739-2.24,4.518-4.18,0.66-1.62,1.3-2.36,2.24-2.36a1.593,1.593,0,0,1,1.4,1.76,6.6,6.6,0,0,1-1.1,2.78,0.527,0.527,0,0,0,.239.7l1.14,0.76a0.5,0.5,0,0,0,.66-0.12,7.043,7.043,0,0,0,1.339-4c0-3.18-2.059-4.5-3.838-4.5-2.359,0-3.559,1.88-4.319,3.76-0.679,1.68-1.379,2.54-2.4,2.54a1.669,1.669,0,0,1-1.539-1.82,6.625,6.625,0,0,1,1.239-3.02,0.463,0.463,0,0,0-.14-0.68l-1.239-.72A0.4,0.4,0,0,0,203,4843.22Zm-1.559,24.85c0,3.2,2.619,5.04,7,5.04s7-1.84,7-5.04-2.619-5.04-7-5.04S201.441,4864.87,201.441,4868.07Zm2.359,0c0-1.54,1.659-2.42,4.638-2.42,2.959,0,4.638.88,4.638,2.42s-1.679,2.42-4.638,2.42C205.459,4870.49,203.8,4869.61,203.8,4868.07Zm-1.78,9.08a0.38,0.38,0,0,0-.38.38v1.72a0.376,0.376,0,0,0,.38.36h12.836a0.376,0.376,0,0,0,.38-0.36v-1.4l-2.42-2.88a0.412,0.412,0,0,0-.359-0.1l-0.98.12a0.33,0.33,0,0,0-.26.4l0.38,1.76H202.02Z" transform="translate(-201.438 -4687.53)"/>
</svg>
