<svg xmlns="http://www.w3.org/2000/svg" width="14.406" height="177.344" viewBox="0 0 14.406 177.344">
  <defs>
    <style>
      .cls-1 {
        fill: #5f9d7b;
        fill-rule: evenodd;
      }
    </style>
  </defs>
  <path id="PEOPLE_WORKS" data-name="PEOPLE &amp; WORKS" class="cls-1" d="M706.728,162.047a0.38,0.38,0,0,0-.38.38v1.841a0.393,0.393,0,0,0,.38.38h4.705v2.5a4.465,4.465,0,1,0,8.93-.02v-4.7a0.38,0.38,0,0,0-.381-0.38H706.728Zm7.148,2.6H717.9v2.32a2,2,0,0,1-1.942,2.061,2.063,2.063,0,0,1-2.082-2.061v-2.32Zm-7.148,10.228a0.38,0.38,0,0,0-.38.38V183.4a0.38,0.38,0,0,0,.38.38h1.642a0.38,0.38,0,0,0,.38-0.38v-5.921h3.5v4.941a0.38,0.38,0,0,0,.38.38H714.3a0.394,0.394,0,0,0,.381-0.38v-4.941h3.283V183.4a0.38,0.38,0,0,0,.381.38h1.641a0.38,0.38,0,0,0,.381-0.38v-8.142a0.38,0.38,0,0,0-.381-0.38H706.728Zm6.607,11.749a7.191,7.191,0,1,0,7.228,7.181A7.14,7.14,0,0,0,713.335,186.625Zm0,2.6a4.591,4.591,0,1,1-4.585,4.581A4.63,4.63,0,0,1,713.335,189.225Zm-6.607,15.385a0.38,0.38,0,0,0-.38.38v1.84a0.393,0.393,0,0,0,.38.38h4.705v2.5a4.465,4.465,0,1,0,8.93-.02v-4.7a0.38,0.38,0,0,0-.381-0.38H706.728Zm7.148,2.6H717.9v2.321a2,2,0,0,1-1.942,2.06,2.063,2.063,0,0,1-2.082-2.06V207.21Zm-7.148,10.229a0.38,0.38,0,0,0-.38.38v7.321a0.38,0.38,0,0,0,.38.38h1.642a0.38,0.38,0,0,0,.38-0.38v-5.1h11.232a0.394,0.394,0,0,0,.381-0.38v-1.84a0.38,0.38,0,0,0-.381-0.38H706.728Zm0,11.09a0.38,0.38,0,0,0-.38.38v8.141a0.38,0.38,0,0,0,.38.38h1.642a0.38,0.38,0,0,0,.38-0.38v-5.921h3.5v4.941a0.38,0.38,0,0,0,.38.38H714.3a0.394,0.394,0,0,0,.381-0.38v-4.941h3.283v5.921a0.38,0.38,0,0,0,.381.38h1.641a0.38,0.38,0,0,0,.381-0.38v-8.141a0.38,0.38,0,0,0-.381-0.38H706.728Zm3.184,17.823a3.907,3.907,0,0,0-3.764,4.221,5.748,5.748,0,0,0,1.7,4.361l-1.461,1.44a0.584,0.584,0,0,0-.06.881l0.841,0.82c0.46,0.48.68,0.28,0.921,0.04l1.681-1.781a13.655,13.655,0,0,0,3.184,1.241,0.545,0.545,0,0,0,.781-0.34l0.32-1.1c0.14-.46-0.08-0.58-0.5-0.66a8.783,8.783,0,0,1-2.222-.72l2.323-2.3c0.36,0.4,1.581,2.44,3.643,2.44,1.8,0,3.264-1.54,3.264-3.781,0-2.52-1.722-3.78-3.244-3.78a3.986,3.986,0,0,0-2.883,1.36l-0.46.42h-0.04C713.716,248.753,712.554,246.352,709.912,246.352Zm5.165,4.681,0.441-.44a2.629,2.629,0,0,1,1.8-1.04,1.37,1.37,0,0,1,1.362,1.48,1.591,1.591,0,0,1-1.5,1.7C715.938,252.734,715.257,251.333,715.077,251.033Zm-4.9-2.3a2.87,2.87,0,0,1,2.462,1.7l-3.163,2.981a3.282,3.282,0,0,1-1.181-2.581A1.949,1.949,0,0,1,710.172,248.733Zm-3.744,20.682a0.384,0.384,0,0,0-.28.36v0.32a0.34,0.34,0,0,0,.22.34l9.069,3.541v0.1l-9.069,3.581a0.34,0.34,0,0,0-.22.34v0.32a0.384,0.384,0,0,0,.28.36l13.454,3.781a0.349,0.349,0,0,0,.481-0.36v-1.841a0.41,0.41,0,0,0-.281-0.36l-7.988-2.04v-0.08l8.249-3.2a0.323,0.323,0,0,0,.22-0.34v-0.36a0.323,0.323,0,0,0-.22-0.34l-8.249-3.181v-0.08l7.988-2.08a0.41,0.41,0,0,0,.281-0.36V266a0.35,0.35,0,0,0-.481-0.361Zm6.907,15.323a7.192,7.192,0,1,0,7.228,7.181A7.14,7.14,0,0,0,713.335,284.738Zm0,2.6a4.591,4.591,0,1,1-4.585,4.58A4.629,4.629,0,0,1,713.335,287.339Zm-6.607,15.384a0.38,0.38,0,0,0-.38.38v1.841a0.393,0.393,0,0,0,.38.38h5.106v2.22l-5.306,2.661a0.343,0.343,0,0,0-.18.32v2.1a0.378,0.378,0,0,0,.58.34l5.086-2.74a4.418,4.418,0,0,0,4.044,2.96,4.335,4.335,0,0,0,4.305-4.361V303.1a0.38,0.38,0,0,0-.381-0.38H706.728Zm7.248,2.621h3.984v3.26a1.991,1.991,0,0,1-1.942,1.981,2.038,2.038,0,0,1-2.042-1.981v-3.26Zm-7.148,11.686a0.474,0.474,0,0,0-.48.48v1.761a0.487,0.487,0,0,0,.48.48h6.107l-6.447,5.221a0.434,0.434,0,0,0-.14.36v2.18a0.439,0.439,0,0,0,.7.36l6.707-5.6,5.886,5.221a0.426,0.426,0,0,0,.721-0.32v-2a0.476,0.476,0,0,0-.2-0.38l-5.686-5.041h5.406a0.488,0.488,0,0,0,.481-0.48V317.51a0.475,0.475,0,0,0-.481-0.48H706.828Zm0.881,13.368a6.434,6.434,0,0,0-1.561,4.4c0,2.82,1.9,4.6,3.964,4.6,2.583,0,3.744-2.241,4.525-4.181,0.66-1.62,1.3-2.361,2.242-2.361a1.594,1.594,0,0,1,1.4,1.761,6.578,6.578,0,0,1-1.1,2.78,0.526,0.526,0,0,0,.241.7l1.141,0.761a0.5,0.5,0,0,0,.66-0.12,7.038,7.038,0,0,0,1.342-4c0-3.181-2.062-4.5-3.844-4.5-2.363,0-3.564,1.88-4.325,3.761-0.681,1.68-1.381,2.54-2.4,2.54a1.671,1.671,0,0,1-1.542-1.82,6.627,6.627,0,0,1,1.241-3.021,0.463,0.463,0,0,0-.14-0.68l-1.241-.72A0.4,0.4,0,0,0,707.709,330.4Z" transform="translate(-706.156 -162.062)"/>
</svg>
