<svg xmlns="http://www.w3.org/2000/svg" width="511.345" height="49.06" viewBox="0 0 511.345 49.06">
  <defs>
    <style>
      .cls-1 {
        fill: #5f9d7b;
        fill-rule: evenodd;
      }
    </style>
  </defs>
  <path id="PEOPLE_WORKS" data-name="PEOPLE &amp; WORKS" class="cls-1" d="M701.114,4459.14a1.219,1.219,0,0,0,1.216,1.22h5.885a1.262,1.262,0,0,0,1.215-1.22v-15.03h8a14.265,14.265,0,1,0-.064-28.53H702.33a1.219,1.219,0,0,0-1.216,1.22v42.34Zm8.316-22.83v-12.86h7.42a6.385,6.385,0,0,1,6.589,6.21,6.594,6.594,0,0,1-6.589,6.65h-7.42ZM739,4459.14a1.219,1.219,0,0,0,1.216,1.22h26.034a1.218,1.218,0,0,0,1.215-1.22v-5.24a1.218,1.218,0,0,0-1.215-1.22H747.318v-11.19h15.8a1.215,1.215,0,0,0,1.215-1.22v-5.3a1.262,1.262,0,0,0-1.215-1.22h-15.8v-10.49h18.934a1.218,1.218,0,0,0,1.215-1.22v-5.24a1.218,1.218,0,0,0-1.215-1.22H740.218A1.219,1.219,0,0,0,739,4416.8v42.34Zm34.434-21.1a23,23,0,1,0,22.964-23.1A22.823,22.823,0,0,0,773.436,4438.04Zm8.316,0a14.68,14.68,0,1,1,14.648,14.64A14.8,14.8,0,0,1,781.752,4438.04Zm46.082,21.1a1.219,1.219,0,0,0,1.216,1.22h5.884a1.262,1.262,0,0,0,1.216-1.22v-15.03h8a14.265,14.265,0,1,0-.064-28.53H829.05a1.219,1.219,0,0,0-1.216,1.22v42.34Zm8.316-22.83v-12.86h7.42a6.384,6.384,0,0,1,6.588,6.21,6.593,6.593,0,0,1-6.588,6.65h-7.42Zm29.572,22.83a1.219,1.219,0,0,0,1.216,1.22h23.411a1.218,1.218,0,0,0,1.215-1.22v-5.24a1.218,1.218,0,0,0-1.215-1.22H874.038V4416.8a1.262,1.262,0,0,0-1.216-1.22h-5.884a1.219,1.219,0,0,0-1.216,1.22v42.34Zm32.32,0a1.218,1.218,0,0,0,1.215,1.22h26.035a1.218,1.218,0,0,0,1.215-1.22v-5.24a1.218,1.218,0,0,0-1.215-1.22H906.358v-11.19h15.8a1.215,1.215,0,0,0,1.216-1.22v-5.3a1.262,1.262,0,0,0-1.216-1.22h-15.8v-10.49h18.934a1.218,1.218,0,0,0,1.215-1.22v-5.24a1.218,1.218,0,0,0-1.215-1.22H899.257a1.218,1.218,0,0,0-1.215,1.22v42.34Zm44.289-7.17c0,6.53,5.373,12.03,13.5,12.03,8.316,0,12.794-4.09,13.945-5.44l4.606,4.67a1.855,1.855,0,0,0,2.814.19l2.623-2.68c1.535-1.47.895-2.18,0.128-2.95l-5.693-5.37a43.464,43.464,0,0,0,3.966-10.17c0.128-.64.575-2.05-1.088-2.49l-3.518-1.03c-1.471-.44-1.855.26-2.111,1.6a27.907,27.907,0,0,1-2.3,7.1l-7.356-7.42c1.28-1.15,7.8-5.05,7.8-11.64,0-5.76-4.925-10.43-12.089-10.43-8.06,0-12.09,5.51-12.09,10.37-0.064,3.77,1.791,6.52,4.35,9.21l1.343,1.47v0.13C950.007,4439.82,942.331,4443.53,942.331,4451.97Zm14.968-16.5-1.408-1.41c-1.919-2.04-3.39-3.51-3.326-5.75,0-2.37,1.791-4.35,4.734-4.35,3.326,0,5.437,2.36,5.437,4.79C962.736,4432.72,958.258,4434.89,957.3,4435.47Zm-7.356,15.67c0-5.11,4.413-7.23,5.437-7.87l9.531,10.11a10.488,10.488,0,0,1-8.252,3.78C952.885,4457.16,949.943,4454.66,949.943,4451.14Zm50.877,8.96a1.225,1.225,0,0,0,1.15.9H1003a1.077,1.077,0,0,0,1.08-.7l11.33-28.98h0.32l11.45,28.98a1.077,1.077,0,0,0,1.08.7h1.03a1.225,1.225,0,0,0,1.15-.9l12.09-42.98a1.12,1.12,0,0,0-1.15-1.54h-5.89a1.318,1.318,0,0,0-1.15.9l-6.52,25.52h-0.26l-10.24-26.35a1.014,1.014,0,0,0-1.08-.71h-1.15a1.034,1.034,0,0,0-1.09.71L1003.83,4442h-0.26l-6.65-25.52a1.316,1.316,0,0,0-1.152-.9h-5.885a1.117,1.117,0,0,0-1.151,1.54Zm46.22-22.06a23,23,0,1,0,22.96-23.1A22.821,22.821,0,0,0,1047.04,4438.04Zm8.31,0a14.68,14.68,0,1,1,14.65,14.64A14.8,14.8,0,0,1,1055.35,4438.04Zm46.08,21.1a1.225,1.225,0,0,0,1.22,1.22h5.88a1.266,1.266,0,0,0,1.22-1.22v-16.31h7.1l8.51,16.95a1.083,1.083,0,0,0,1.02.58h6.72a1.211,1.211,0,0,0,1.08-1.86l-8.76-16.24c5.57-2.24,9.47-7.04,9.47-12.92a13.858,13.858,0,0,0-13.95-13.76h-18.29a1.225,1.225,0,0,0-1.22,1.22v42.34Zm8.38-23.15v-12.73h10.43a6.358,6.358,0,0,1,6.33,6.2,6.513,6.513,0,0,1-6.33,6.53h-10.43Zm34.25,22.83a1.513,1.513,0,0,0,1.53,1.54h5.63a1.56,1.56,0,0,0,1.54-1.54v-19.5l16.69,20.59a1.393,1.393,0,0,0,1.15.45h6.98a1.4,1.4,0,0,0,1.15-2.24l-17.91-21.43,16.69-18.8a1.366,1.366,0,0,0-1.02-2.31h-6.4a1.518,1.518,0,0,0-1.21.64l-16.12,18.17v-17.27a1.567,1.567,0,0,0-1.54-1.54h-5.63a1.519,1.519,0,0,0-1.53,1.54v41.7Zm39.62-2.81c1.27,1.22,6.01,4.99,14.07,4.99,9.02,0,14.71-6.08,14.71-12.67,0-8.25-7.16-11.96-13.37-14.45-5.18-2.11-7.55-4.16-7.55-7.17,0-2.04,1.99-4.47,5.63-4.47,3.52,0,8.38,3.19,8.89,3.51a1.68,1.68,0,0,0,2.24-.76l2.43-3.65a1.579,1.579,0,0,0-.38-2.11,22.513,22.513,0,0,0-12.79-4.29c-10.17,0-14.4,6.59-14.4,12.29,0,7.54,6.02,11.38,12.03,13.81,5.37,2.18,8.12,4.42,8.12,7.68,0,2.75-2.49,4.92-5.82,4.92-4.16,0-9.34-3.77-9.66-3.96a1.473,1.473,0,0,0-2.17.45l-2.3,3.96A1.26,1.26,0,0,0,1183.68,4456.01Z" transform="translate(-701.125 -4414.94)"/>
</svg>
