<svg id="ttl" xmlns="http://www.w3.org/2000/svg" width="44" height="161" viewBox="0 0 44 161">
  <defs>
    <style>
      .cls-1 {
        fill: #5f9d7b;
      }

      .cls-1, .cls-2 {
        fill-rule: evenodd;
      }

      .cls-2 {
        fill: #fff;
      }
    </style>
  </defs>
  <path id="長方形_981_のコピー_4" data-name="長方形 981 のコピー 4" class="cls-1" d="M135.01,4686h44v161H135.01V4686Z" transform="translate(-135 -4686)"/>
  <path id="社員紹介" class="cls-2" d="M151.751,4720.45a0.963,0.963,0,0,0,1.611-.03,10.571,10.571,0,0,0,.911-1.12,1.372,1.372,0,0,0,.351-0.81,1.575,1.575,0,0,0-.876-1.26,2.975,2.975,0,0,1-1.016-.84c-0.21-.24-0.771-0.52-1.086-0.84a7.025,7.025,0,0,0-1.542-.98,1,1,0,0,1-.456-0.98,8.116,8.116,0,0,1,.736-1.23,1.663,1.663,0,0,1,.666-1.01,5.834,5.834,0,0,1,.666-1.09,3.516,3.516,0,0,1,.63-1.15,2.632,2.632,0,0,1,.526-1.09c0.385-.42.561-0.94,0.806-1.12,0.14-.14.771-0.31,0.666-0.59a2.785,2.785,0,0,0-.351-0.84,8.854,8.854,0,0,0-1.366-1.23,4.475,4.475,0,0,0-.631-0.28,0.856,0.856,0,0,0-.7.17,2.268,2.268,0,0,1-1.086.04c-0.456.07-.631-0.28-0.841-0.77a4.238,4.238,0,0,1-.035-1.65,6.05,6.05,0,0,0,.035-1.57,0.721,0.721,0,0,1,.385-0.84,0.486,0.486,0,0,0,.351-0.49,0.67,0.67,0,0,0-.7-0.53c-0.841.04-1.717-.17-2.593-0.17a1.037,1.037,0,0,0-.911.84c-0.1.84,0.07,1.54,0,2.34,0.07,0.95-.07,1.23-0.035,2.17a1,1,0,0,1-.981.81,2.9,2.9,0,0,0-1.121-.04,16.465,16.465,0,0,1-1.822-.07,1.032,1.032,0,0,0-1.122,1.16c0.1,0.32-.14.7,0,1.05a1.042,1.042,0,0,0,1.122,1.16c0.7,0,1.331.03,1.787,0.03h1.436a2.9,2.9,0,0,1,1.437,0c0.28,0,1.226,0,1.647-.03a0.64,0.64,0,0,1,.56,1.01,3.893,3.893,0,0,1-.525.88,2.2,2.2,0,0,1-.631.94,4.035,4.035,0,0,0-.7.95,3.5,3.5,0,0,1-.736.91c-0.385.38-.525,0.7-0.735,0.91-0.211.18-.491,0.6-0.736,0.77a7.878,7.878,0,0,0-.841.81,2.419,2.419,0,0,1-.841.8,5.181,5.181,0,0,0-.876.74,2.081,2.081,0,0,0-.876.7,3.66,3.66,0,0,1-.911.77,1.314,1.314,0,0,0-.456.7v0.1a2.6,2.6,0,0,0,.491,1.09,1.913,1.913,0,0,0,1.191,1.5,3.511,3.511,0,0,0,.876-0.42c0.175-.14.736-0.59,1.192-0.94a9.862,9.862,0,0,1,1.121-1.05c0.455-.28,1.051-0.6,1.121.28a4.323,4.323,0,0,0-.035,1.33,6.741,6.741,0,0,0,0,1.47,4.083,4.083,0,0,0,0,1.47,14.967,14.967,0,0,0,0,2.17,7.588,7.588,0,0,1-.035,2.17,10.505,10.505,0,0,0,0,1.82,1.087,1.087,0,0,0,.946,1.16c0.07,0,.14-0.03.21-0.03a1.117,1.117,0,0,0,.491.07,5.032,5.032,0,0,0,.771-0.07h0.14c0.7,0,.876-0.28,1.051-1.13,0.035-.45-0.035-1.26-0.035-1.82a7.514,7.514,0,0,1,0-2.17,11.179,11.179,0,0,1,0-2.17,7.429,7.429,0,0,1-.035-2.35c0.07-.77-0.175-1.29.28-1.78,0.386-.39.6-0.21,0.981,0.14C150.875,4719.51,151.4,4720.1,151.751,4720.45Zm21.654,7.04v-0.17a1.073,1.073,0,0,0-.946-0.98,11.822,11.822,0,0,0-1.191,0,8.386,8.386,0,0,0-1.437,0,2.4,2.4,0,0,1-1.4.03c-0.735.04-1.331,0-1.962,0a2.76,2.76,0,0,1-1.121-.56,1.645,1.645,0,0,1-.561-1.01,11.358,11.358,0,0,1,0-1.89c-0.1-.56.1-1.09,0-1.79a10.189,10.189,0,0,1,0-1.79,7.569,7.569,0,0,1,0-1.78,5.1,5.1,0,0,1,0-1.79,4.286,4.286,0,0,1,0-1.89,1.265,1.265,0,0,1,.6-1.05,2.28,2.28,0,0,1,1.121-.53c0.561-.07,1.332.11,2.033,0,0.455,0.07,1.121,0,1.646.04a5.558,5.558,0,0,0,1.682,0c0.736,0.14.911-.46,0.981-1.19a5.982,5.982,0,0,0,0-1.12,1.315,1.315,0,0,0-1.016-1.16,0.826,0.826,0,0,1-.771,0c-0.946,0-1.717-.03-2.522,0a7.686,7.686,0,0,1-2.033,0,1.3,1.3,0,0,1-1.121-.8,1.934,1.934,0,0,1-.6-1.58c-0.07-.66,0-1.68-0.035-2.59a18.3,18.3,0,0,1,0-1.96,4.672,4.672,0,0,1,.035-1.47,0.888,0.888,0,0,1,.351-0.7,0.7,0.7,0,0,0,.385-0.7,0.611,0.611,0,0,0-.666-0.42,13.225,13.225,0,0,1-1.366-.11c-0.456-.1-1.086,0-1.437-0.07a0.833,0.833,0,0,0-.946.95,7.5,7.5,0,0,1,0,2.17c0.07,0.77-.07,1.54.035,2.17a23.68,23.68,0,0,0,0,2.73,14.049,14.049,0,0,1-.455,1.58c-0.14.38-.771,0.98-0.876,0.8a2.473,2.473,0,0,1-1.612,0,12.848,12.848,0,0,1-1.647,0c-0.42-.03-1.156.07-1.647,0a0.994,0.994,0,0,0-.981,1.16,2.418,2.418,0,0,0,0,1.12,1.25,1.25,0,0,0,.981,1.19c0.491,0.1,1.192-.07,1.647,0a8.115,8.115,0,0,1,1.647-.04,5.122,5.122,0,0,1,1.612,0,1.312,1.312,0,0,1,.876.53,2.949,2.949,0,0,1,.455,1.05,8.359,8.359,0,0,1,0,1.89c0.07,0.6-.07,1.33,0,1.79a15.1,15.1,0,0,0,0,1.78,7.655,7.655,0,0,1,0,1.79,10.189,10.189,0,0,0,0,1.79c-0.035.52-.035,1.22-0.07,1.89a1.991,1.991,0,0,1-.7,1.01,2.414,2.414,0,0,1-1.506.56,20.343,20.343,0,0,1-2.593,0c-0.841-.1-1.227.11-2-0.03a13.78,13.78,0,0,1-2.032,0,1.023,1.023,0,0,0-.981,1.15c-0.035.42,0,.67,0,1.16a0.9,0.9,0,0,0,.981,1.16c0.666,0.14,1.227-.11,2.032,0,0.561,0.17,1.472-.18,2-0.04a3,3,0,0,0,1.506,0,5.069,5.069,0,0,0,1.507,0c0.386,0.18,1.051-.14,1.542,0a3.473,3.473,0,0,0,1.507,0,3.8,3.8,0,0,1,1.541,0c0.386-.03.876,0.07,1.507,0,0.631,0.11.841-.14,1.542,0,0.42-.07.841,0.11,1.506,0a5.621,5.621,0,0,0,2,.04,5.145,5.145,0,0,0,2.032,0,0.932,0.932,0,0,0,.946-1.06v-0.1a2.057,2.057,0,0,1-.035-0.42C173.37,4727.98,173.405,4727.81,173.405,4727.49ZM146.67,4741.8a1.067,1.067,0,0,0,1.121,1.12,8.36,8.36,0,0,0,1.227,0c0.35-.21.735,0.07,0.876-0.21a1.749,1.749,0,0,1,1.541-.7,9.043,9.043,0,0,1,2.138.03c0.7,0,1.191-.03,1.752,0a5.686,5.686,0,0,0,1.752,0c0.63-.07,1.156.11,1.752,0a4.907,4.907,0,0,1,1.752,0,9.006,9.006,0,0,1,2.382-.03,1.374,1.374,0,0,1,1.367.63c0.21,0.38.595,0.1,0.841,0.24a4.187,4.187,0,0,0,1.191,0,1.173,1.173,0,0,0,1.121-1.12c0-1.01.035-1.61,0-2.63a12.555,12.555,0,0,0,0-1.64c0.07-.6-0.105-1.19,0-2.07a1,1,0,0,0-.911-1.08H165.1a0.956,0.956,0,0,0-.351-0.04c-0.28,0-.595.04-0.911,0.04h-0.245a6.213,6.213,0,0,1-1.612,0,5.361,5.361,0,0,1-1.3-.04,1.161,1.161,0,0,0-.351.04,0.6,0.6,0,0,0-.28-0.04c-0.28,0-.6.07-0.946,0.07h-0.07c-0.1,0-.21-0.03-0.316-0.03-0.14,0-.28.03-0.385,0.03-0.35,0-.6-0.07-0.876-0.07a1.38,1.38,0,0,0-.385.04,6.98,6.98,0,0,1-1.647,0,4.188,4.188,0,0,1-1.332-.04,0.681,0.681,0,0,0-.28.04,2.329,2.329,0,0,0-.526-0.04c-0.315,0-.595.04-0.876,0.04h-0.245a5.079,5.079,0,0,1-1.612,0,3.913,3.913,0,0,1-1.261-.04,0.767,0.767,0,0,0-.28.04,2.328,2.328,0,0,1-1.087,0,1.178,1.178,0,0,0-1.261,1.08,20.16,20.16,0,0,0,0,2.07c-0.035.66,0.07,1.05,0,1.61A8.7,8.7,0,0,0,146.67,4741.8Zm3.574-3.65a0.879,0.879,0,0,1,1.051-1.01c0.526-.14,1.016.1,1.437,0,0.455-.07.981,0.1,1.436,0,0.421-.11.876,0.07,1.437,0a10.328,10.328,0,0,0,1.472,0,3.474,3.474,0,0,1,1.471,0,6.82,6.82,0,0,0,1.437,0,6.176,6.176,0,0,1,1.437,0,5.268,5.268,0,0,0,1.436,0,0.884,0.884,0,0,1,1.051,1.01c0.105,0.21.316,0.56,0,.63a1.994,1.994,0,0,1-1.541.49,7.9,7.9,0,0,0-1.822,0,8.879,8.879,0,0,1-1.717,0,9.314,9.314,0,0,1-1.752,0,9.3,9.3,0,0,1-1.752,0,13.969,13.969,0,0,1-1.717,0,15.7,15.7,0,0,1-1.822,0c-0.736.07-1.507-.17-1.542-0.49A1.818,1.818,0,0,1,150.244,4738.15Zm13,21.02c0.77,0.07,2.1-.25,2.487.73a1.568,1.568,0,0,0,.876.28,3.969,3.969,0,0,0,1.332,0,1.063,1.063,0,0,0,1.156-.94c0.07-.77-0.07-1.65-0.035-2.7a9.455,9.455,0,0,1,0-2.63,15.946,15.946,0,0,1,0-2.24,6.869,6.869,0,0,1,0-2.24c0.14-.87-0.175-1.61,0-2.28a16.6,16.6,0,0,0,.035-2.31,0.8,0.8,0,0,0-.946-1.01,7.846,7.846,0,0,1-2,0c-0.806-.11-1.437.17-2,0a4.907,4.907,0,0,0-1.752,0c-0.7-.04-1.332.07-1.787,0-0.491.1-1.332-.14-1.752,0-0.666-.07-1.332.1-1.787,0a5.069,5.069,0,0,1-1.787,0,14.6,14.6,0,0,1-1.752,0c-0.491-.07-1.3.03-1.787,0a4.675,4.675,0,0,0-1.752,0,5.017,5.017,0,0,1-1.892,0,4.475,4.475,0,0,1-1.928,0,1.215,1.215,0,0,0-.946.94,10.555,10.555,0,0,0,.035,2.35l0.035,2.31c-0.07.77,0.141,1.51,0,2.31a16.881,16.881,0,0,0,0,2.31c-0.1.95,0.035,1.86-.035,2.56a13.206,13.206,0,0,0,0,2.63,0.938,0.938,0,0,0,1.157,1.05,2.016,2.016,0,0,0,1.366-.04,1.937,1.937,0,0,0,.946-0.17,1.477,1.477,0,0,1,.7-0.67,1.668,1.668,0,0,1,1.332-.17c0.245-.04.315,0.31-0.526,0.66-0.491.11-1.577,0.7-1.857,0.74-0.526.17-.946,0.35-1.4,0.45a12.146,12.146,0,0,1-1.4.39c-0.666.31-1.262,0.14-1.963,0.42a16.855,16.855,0,0,0-2.032.42,1.009,1.009,0,0,0-.525.63v0.1a11.614,11.614,0,0,0,.63,1.65,0.864,0.864,0,0,0,.806.91h0.175a0.691,0.691,0,0,0,.316.04,5.336,5.336,0,0,0,1.577-.32,9.438,9.438,0,0,1,1.226-.28,3.06,3.06,0,0,1,1.261-.38,4.569,4.569,0,0,0,1.3-.39,2.225,2.225,0,0,0,1.156-.42c0.631-.35,1.367-0.39,1.822-0.7,0.316-.21.946-0.35,1.577-0.74a8.332,8.332,0,0,0,1.647-.77c0.385-.03.666-0.07,0.595-0.49a0.868,0.868,0,0,0-.455-0.59,9.008,9.008,0,0,1-1.332-.74c-0.245-.07-0.56-0.52-0.07-0.56a10.53,10.53,0,0,0,1.787-.07,9.85,9.85,0,0,0,2.1,0c0.56,0.18,1.4-.14,2.067,0,1.086-.07,1.3.04,1.051,0.63a2.132,2.132,0,0,0-.63.91,0.6,0.6,0,0,0-.316.67,1.261,1.261,0,0,0,.666.91,5.912,5.912,0,0,0,1.577.73,2.74,2.74,0,0,0,1.612.63,7.618,7.618,0,0,1,1.681.49,10.58,10.58,0,0,1,1.612.46,1.463,1.463,0,0,0,1.051.28,1.933,1.933,0,0,0,1.332.35,20.725,20.725,0,0,0,2.137.39,0.464,0.464,0,0,0,.246-0.04h0.07c0.455,0,.665-0.45,1.016-1.01,0.28-.53.56-1.34,0.736-1.76v-0.14c0-.38-0.281-0.49-0.771-0.52-0.526.07-.946-0.32-1.3-0.25a12.745,12.745,0,0,1-1.3-.24,1.924,1.924,0,0,1-1.262-.25,2.968,2.968,0,0,1-1.261-.28c-0.28-.17-0.981-0.14-1.226-0.31a2.139,2.139,0,0,0-1.227-.35l-0.595-.18c-0.491-.28-1.052-0.38-1.437-0.59C162.473,4759.62,162.122,4759.2,163.244,4759.17Zm-13.21-12.33a4.879,4.879,0,0,1,1.787,0,4.911,4.911,0,0,1,1.752,0c0.56,0,1.121.03,1.787,0,0.736-.07,1.331.03,1.822,0a9.645,9.645,0,0,1,1.787,0,15.138,15.138,0,0,0,1.787,0,15.206,15.206,0,0,0,1.787,0c0.455-.07,1.121.1,1.752,0a0.92,0.92,0,0,1,1.121.84c0,0.53-1.051.42-1.927,0.56a6.343,6.343,0,0,1-2.173,0c-0.525-.14-1.436.14-2.067,0-0.771.14-1.507-.14-2.067,0-0.666-.14-1.3.11-2.1,0a6.821,6.821,0,0,1-2.067,0,8.769,8.769,0,0,1-2.172,0c-0.771.11-1.857,0.11-1.822-.53A0.8,0.8,0,0,1,150.034,4746.84Zm-1.087,4.87c0.036-.77,1.122-0.67,1.893-0.84,0.56,0,1.541-.04,2.172,0a8.409,8.409,0,0,0,2.067,0,14.758,14.758,0,0,0,2.1,0,8.274,8.274,0,0,0,2.067,0,20.329,20.329,0,0,0,2.067,0c0.666-.14,1.612.07,2.173,0,0.771,0.03,1.892,0,1.927.59,0,0.7-1.191.74-1.927,0.81-0.7-.07-1.612.1-2.173,0-0.735.07-1.506-.11-2.067,0h-2.067c-0.841-.14-1.367.17-2.1,0-0.7-.11-1.226.14-2.067,0-0.771.03-1.472,0-2.172,0C150.069,4752.37,148.842,4752.16,148.947,4751.71Zm10.3,4.58a12.959,12.959,0,0,1-2.067,0,5.137,5.137,0,0,1-2.1,0,4.8,4.8,0,0,1-2.067,0c-0.526,0-1.472-.07-2.172,0-0.736-.07-1.4.15-1.752-0.31a1.154,1.154,0,0,1,0-.77c-0.1-.35.876-0.14,1.752-0.32,0.525-.14,1.506.07,2.172,0a12.892,12.892,0,0,0,2.067,0,5.314,5.314,0,0,1,2.1,0,17.814,17.814,0,0,0,2.067,0,12.948,12.948,0,0,0,2.067,0c0.631,0.04,1.542-.1,2.173,0,0.911-.07,1.857-0.14,1.927.6,0,0.84-1.261.66-1.927,0.8a13.07,13.07,0,0,1-2.173,0A8.361,8.361,0,0,0,159.249,4756.29Zm-8.62,28.74a0.753,0.753,0,0,1,.7.52,0.777,0.777,0,0,0,.561.53,1.482,1.482,0,0,0,.946-0.18,1.029,1.029,0,0,0,.841-0.45,0.81,0.81,0,0,0,.771-0.95,1.16,1.16,0,0,0-.281-1.01,3.729,3.729,0,0,0-.595-1.41,12.558,12.558,0,0,0-.736-1.4c-0.28-.38-0.315-0.73-0.526-0.94a1.241,1.241,0,0,0-.911-0.6,5.17,5.17,0,0,0-.63.21c-0.281.21-.491,0.21-0.631,0.35-0.245.18-1.051,0.53-.736,1.16a1.107,1.107,0,0,1,.21.77c0,0.49-.315.52-0.876,0.59-0.736.07-1.191-.17-0.771-0.98a7.774,7.774,0,0,1,.7-0.98,3.2,3.2,0,0,0,.631-1.08,4.089,4.089,0,0,0,.771-1.09c0.175-.42.56-0.91,0.876-1.54,0.35-.59.595-0.94,0.946-1.5a1.19,1.19,0,0,0,.35-0.29,0.507,0.507,0,0,0,.6-0.56,0.467,0.467,0,0,0-.386-0.56,3.216,3.216,0,0,1-1.016-.49,3.068,3.068,0,0,1-1.051-.49,0.636,0.636,0,0,0-.561-0.14,0.712,0.712,0,0,0-.84.53,5.038,5.038,0,0,0-.771,1.5,9.506,9.506,0,0,1-.806,1.44c-0.246.42-.561,0.74-0.981,0.46-0.631-.42-0.386-0.81-0.035-1.51a2.835,2.835,0,0,0,.35-0.81,3.986,3.986,0,0,0,.841-1.43c0.28-.39.28-0.7,0.49-0.95a3.186,3.186,0,0,1,.526-1.15,4.53,4.53,0,0,0,.806-0.42,0.576,0.576,0,0,0-.28-0.74,2.24,2.24,0,0,1-1.016-.49,6,6,0,0,1-1.017-.38,2.563,2.563,0,0,1-.56-0.14,1.89,1.89,0,0,0-1.086,1.19,5.937,5.937,0,0,1-.491,1.19,3.518,3.518,0,0,0-.526,1.12c-0.245.52-.385,0.73-0.595,1.15-0.246.46-.911,1.12-1.087,0.91a1.122,1.122,0,0,0-1.051.6,2.069,2.069,0,0,0-.385.74,0.8,0.8,0,0,0-.21.63,0.994,0.994,0,0,0,.525.91,9.383,9.383,0,0,0,.946.66,2.195,2.195,0,0,0,.946.7,1.979,1.979,0,0,1,.981.95,1.637,1.637,0,0,1-.105,1.64l-0.42.67-0.526.7a3.169,3.169,0,0,1-1.612.31,0.814,0.814,0,0,0-.911.56,5.461,5.461,0,0,0,.176,1.13,13.621,13.621,0,0,1,.49,1.78,0.573,0.573,0,0,0,.841.42,2.4,2.4,0,0,1,.841-0.35,6.348,6.348,0,0,0,1.051-.24,1.749,1.749,0,0,1,1.016.1c0.386,0.18.421,1.12,0.351,1.65a10.827,10.827,0,0,1,0,1.85,3.59,3.59,0,0,0,0,1.93,9.166,9.166,0,0,0,0,1.96,10.9,10.9,0,0,0-.035,2.14c0.035,0.66-.07,1.61,0,2.17a4.1,4.1,0,0,0,0,1.85,0.938,0.938,0,0,0,1.156,1.09,3.946,3.946,0,0,0,1.332,0,1.045,1.045,0,0,0,1.156-1.09,106.266,106.266,0,0,1-.035-4.02c0-.77.035-1.33,0-2.14a6.84,6.84,0,0,1,0-2.07,4.414,4.414,0,0,1,0-2.03c0.07-.56-0.07-1.64,0-2.34a1.694,1.694,0,0,1,.385-1.47A2.165,2.165,0,0,1,150.629,4785.03Zm22.18-14.08c-0.595-.42-0.911-0.98-1.4-1.26a2.655,2.655,0,0,0-.946-0.42c-0.386-.04-0.736.35-1.3,0.35-0.736.07-1.331-.04-2.207,0.03-0.981.07-1.787-.03-2.628,0a15.376,15.376,0,0,1-2.628,0c-1.051-.03-1.822.07-2.628,0a8.884,8.884,0,0,1-2,0c-0.806.18-1.332-.17-2.033,0a1.042,1.042,0,0,0-1.086,1.05,3.993,3.993,0,0,1,0,1.12c0,0.67.175,1.26,0.981,1.16a6.667,6.667,0,0,0,2.068.03c0.595,0.11.735-.07,1.506,0.04a1.079,1.079,0,0,1,.736,1.26,7.225,7.225,0,0,1-.561,2c-0.35.42-.455,1.29-0.77,1.64a5.766,5.766,0,0,1-.946,1.51,14.127,14.127,0,0,1-1.087,1.26,9.173,9.173,0,0,0-1.226,1.12,0.827,0.827,0,0,0-.28,1.01,4.823,4.823,0,0,0,.876,1.13,1.349,1.349,0,0,0,1.051.87c0.21,0.25.455-.14,0.981-0.52a14.7,14.7,0,0,0,1.261-1.16,6.11,6.11,0,0,1,1.087-1.26,1.981,1.981,0,0,0,.665-0.88,3.171,3.171,0,0,0,.6-0.94c0.315-.46.42-0.77,0.561-0.95a4.286,4.286,0,0,1,.455-0.98,6.65,6.65,0,0,1,.386-1.01c0.035-.21.245-0.74,0.315-1.19a6.012,6.012,0,0,0,.35-1.2,3.265,3.265,0,0,1,.386-1.12,1.934,1.934,0,0,1,1.051-.66c0.385-.07.981,0.1,1.577,0a8.6,8.6,0,0,1,1.436,0,1.366,1.366,0,0,1,1.157,1.22,3.967,3.967,0,0,1-.211,1.34,7,7,0,0,1-.42,1.99,5.957,5.957,0,0,1-.7,1.93,2.137,2.137,0,0,1-1.016.98,3.755,3.755,0,0,1-1.507.24,0.737,0.737,0,0,1-.841,0,1.874,1.874,0,0,1-.63,0,0.717,0.717,0,0,0-.771.67c-0.07.28,0.35,1.54,0.35,2a1.408,1.408,0,0,0,1.612,1.22,6.584,6.584,0,0,0,2.277-.21,4.872,4.872,0,0,0,1.332-.31,8.258,8.258,0,0,0,1.121-.56,1.066,1.066,0,0,0,.736-0.71,2.61,2.61,0,0,0,.6-0.87,4.359,4.359,0,0,0,.455-1.05,3.594,3.594,0,0,1,.351-1.09,14.112,14.112,0,0,1,.49-2.31,8.552,8.552,0,0,0,.281-2.03c-0.071-.67.28-1.4,0.245-2.21,0.21-.31-0.07-0.66.315-0.94a0.965,0.965,0,0,0,.491-0.6,0.2,0.2,0,0,0,.035-0.14A1.488,1.488,0,0,0,172.809,4770.95Zm-0.981,25.56c0.07-.94-0.14-1.71-0.035-2.62,0.035-.6-0.07-1.65,0-2.38a7.145,7.145,0,0,1,.035-2.28,8.47,8.47,0,0,1,0-2.31,0.861,0.861,0,0,0-.946-1.02,0.42,0.42,0,0,0-.49,0c-0.456.14-1.227-.14-1.577,0a9.637,9.637,0,0,0-2.628,0,15.321,15.321,0,0,1-2.628,0c-0.771.07-1.787-.1-2.628,0a20.343,20.343,0,0,1-2.593,0,5.8,5.8,0,0,1-1.612,0,1.076,1.076,0,0,1-.49,0,0.844,0.844,0,0,0-.911.91,6.793,6.793,0,0,0,0,2.38c0.105,0.88-.14,1.4.035,2.32,0.14,0.35-.14.91,0,1.43a3.962,3.962,0,0,0,0,1.44,20.686,20.686,0,0,1-.035,2.59c0.105,0.8-.07,1.61,0,2.63a0.918,0.918,0,0,0,.911,1.08,0.79,0.79,0,0,0,.245-0.03,2.447,2.447,0,0,1,1.156,0c0.876,0,1.192-.07,1.3-0.88-0.035-.88.841-0.95,2.1-0.98,0.631-.11,1.577.07,2.523,0.03,0.736,0.14,1.717,0,2.663.07a4.052,4.052,0,0,1,1.472.25,2.06,2.06,0,0,1,.77.67,1.236,1.236,0,0,0,1.052.35,6.364,6.364,0,0,0,1.156,0,0.956,0.956,0,0,0,1.156-.95A23.16,23.16,0,0,0,171.828,4796.51Zm-17.975-6.27-0.631-1.5c-0.14-.28-0.42-0.88-0.49-1.09a0.937,0.937,0,0,0-.981-0.52,0.631,0.631,0,0,0-.6.17c-0.28.07-.315,0.18-0.561,0.25a0.82,0.82,0,0,0-.7,1.15,5.777,5.777,0,0,0,.49,1.16,2.63,2.63,0,0,1,.35,1.05l0.561,2.21a1.317,1.317,0,0,0,.981,1.36c0.281,0.11.246,0,.561-0.14a1.437,1.437,0,0,0,.946-0.42,0.957,0.957,0,0,0,.806-0.98,1.526,1.526,0,0,0-.21-1.15A13.323,13.323,0,0,0,153.853,4790.24Zm-8.48-1.82a0.644,0.644,0,0,0-.42-0.63,5.775,5.775,0,0,1-1.752-.49,0.558,0.558,0,0,1-.456-0.03,0.809,0.809,0,0,0-.84,1.01c-0.141.49-.035,1.05-0.211,1.72a9.5,9.5,0,0,1-.28,1.68,4.628,4.628,0,0,1-.35,1.65c-0.176.77-.421,1.19-0.456,1.64,0,0.28-.245.53-0.245,0.91a1.48,1.48,0,0,0,1.086,1.16,1.694,1.694,0,0,0,1.121.52,0.946,0.946,0,0,0,.806-0.56,3.466,3.466,0,0,0,.386-1.36,5.231,5.231,0,0,0,.385-1.58c-0.035-.42.315-0.91,0.315-1.57,0.106-.39.035-0.84,0.211-1.41a5.888,5.888,0,0,1,.21-1.71C144.813,4788.88,145.444,4788.81,145.373,4788.42Zm22.951,5.33a1.564,1.564,0,0,1-.595,1.33c-0.316.52-1.227,0.17-1.612,0.28a9.072,9.072,0,0,1-2.558,0,21.237,21.237,0,0,1-2.523,0,2.026,2.026,0,0,1-1.752-.25,1.948,1.948,0,0,1-.525-1.78c0.07-.91-0.071-1.44,0-2.39a1.614,1.614,0,0,1,1.331-1.5,8.652,8.652,0,0,0,1.647-.11,5.291,5.291,0,0,0,1.822,0,10.451,10.451,0,0,0,1.857,0,6.918,6.918,0,0,0,1.717.07,1.3,1.3,0,0,1,1.121,1.47C168.289,4791.86,168.254,4792.87,168.324,4793.75Zm4.871,21.72c-0.281-.07-0.561-0.21-1.086-0.38a3.574,3.574,0,0,1-1.3-.49,4.386,4.386,0,0,1-1.577-.7,3.1,3.1,0,0,1-1.541-.81,7.148,7.148,0,0,1-1.542-.91c-0.6-.17-0.841-0.84-1.472-1.05a8.357,8.357,0,0,1-1.4-1.12,14.679,14.679,0,0,1-1.3-1.23,4.325,4.325,0,0,1-1.226-1.33,1.423,1.423,0,0,0-.631-0.73,6.605,6.605,0,0,0-.6-0.88c-0.385-.42-0.1-0.7.07-1.01,0.281-.53-0.035-0.81-0.49-0.91a6.022,6.022,0,0,0-1.261-.42,6.789,6.789,0,0,1-1.052-.39c-0.28-.03-0.525-0.21-0.771-0.21a0.9,0.9,0,0,0-.77.6,8.153,8.153,0,0,1-.876,1.47,18.684,18.684,0,0,0-1.122,1.61,6.418,6.418,0,0,0-1.261,1.54,4.113,4.113,0,0,1-.666.73,4.629,4.629,0,0,0-.736.74,6.776,6.776,0,0,1-.735.7,3.086,3.086,0,0,1-.771.7c-0.281.14-.456,0.46-0.771,0.67a2.626,2.626,0,0,1-.806.63,4.265,4.265,0,0,0-.841.63,5.778,5.778,0,0,1-.806.56,7.294,7.294,0,0,1-1.682,1.05,9.106,9.106,0,0,1-1.717.94,2.178,2.178,0,0,1-1.156.56,0.779,0.779,0,0,0-.736.74v0.21a7.256,7.256,0,0,0,.771,1.65c0.28,0.63.49,1.4,1.121,1.26a3.606,3.606,0,0,0,1.156-.39,11,11,0,0,1,1.612-.91c0.386-.21.981-0.7,1.507-1.05a2.333,2.333,0,0,0,.946-0.74,6.033,6.033,0,0,0,1.3-.91,16.273,16.273,0,0,1,1.3-1.01c0.491-.46.981-0.67,1.226-0.98a7.078,7.078,0,0,0,1.262-1.12c0.56-.39.771-0.81,1.191-1.02a12.285,12.285,0,0,1,1.121-1.05c0.106-.28.771-0.91,1.052-1.33a0.962,0.962,0,0,1,1.681.24,3.233,3.233,0,0,0,.7.95c0.246,0.39.6,0.6,0.876,1.02,0.386,0.42.736,0.7,0.981,0.98a8.443,8.443,0,0,1,1.3.94,5.294,5.294,0,0,0,1.3.95,6.271,6.271,0,0,0,1.367.98,14.019,14.019,0,0,0,1.366.91,6.447,6.447,0,0,0,1.157.66,6.245,6.245,0,0,0,1.576,1.02,5.886,5.886,0,0,0,1.787.77,5.372,5.372,0,0,0,1.367.39c0.526,0.07.841-.56,1.156-1.27a5.624,5.624,0,0,0,.736-1.64,0.619,0.619,0,0,0,.035-0.25A0.581,0.581,0,0,0,173.2,4815.47Zm-19.8-.21a17.632,17.632,0,0,0-2.557-.17,0.81,0.81,0,0,0-.911,1.01,8.47,8.47,0,0,0,.035,1.3,11.415,11.415,0,0,0-.211,2.52,12.4,12.4,0,0,1,0,2.56c-0.1.38,0.07,0.98-.035,1.47a7.189,7.189,0,0,1-.175,1.29,3.547,3.547,0,0,1-.28,1.23,1.851,1.851,0,0,0-.421,1.09,5.44,5.44,0,0,1-.595,1.01,10.63,10.63,0,0,0-.771.91,7.963,7.963,0,0,1-1.051.84c-0.491.35-.736,0.42-1.262,0.81-0.49.24-.911,0.45-1.191,0.56a3,3,0,0,1-1.227.56,0.608,0.608,0,0,0-.455.7,2.905,2.905,0,0,0,.911,1.61c0.456,0.67.491,1.05,1.191,1.09a1.2,1.2,0,0,0,.316.07,1.12,1.12,0,0,0,.7-0.35,8.714,8.714,0,0,1,1.367-.67c0.456-.39.806-0.35,1.3-0.74,0.351-.21.631-0.45,0.876-0.56a4.621,4.621,0,0,0,1.3-1.01c0.42-.39.7-0.84,1.051-1.16,0.105-.31.526-0.84,0.771-1.29,0.21-.39.28-0.91,0.561-1.37a3.506,3.506,0,0,0,.385-1.43c0.1-.53.07-0.85,0.245-1.51a7.387,7.387,0,0,0,.1-1.54,4.139,4.139,0,0,1,.035-1.61c-0.035-.81,0-1.65,0-2.66-0.035-.95,0-1.79-0.035-2.6a1.128,1.128,0,0,1,.386-0.98,0.553,0.553,0,0,0,.35-0.52A0.6,0.6,0,0,0,153.4,4815.26Zm10.232,0.11a3.214,3.214,0,0,0-1.437-.14c-0.7.07-1.086-.18-1.717-0.14a0.77,0.77,0,0,0-.735.87,5.407,5.407,0,0,0,.035,1.09,3.625,3.625,0,0,1,.035,1.51,5.5,5.5,0,0,1,.035,1.5,5.671,5.671,0,0,0,0,1.54,4.457,4.457,0,0,1,.035,1.51,9.847,9.847,0,0,0,0,2.27,17.049,17.049,0,0,0,0,2.32,10.628,10.628,0,0,0-.035,1.5c0.035,0.67-.07.91,0,1.51-0.1.56,0.035,0.98-.035,1.5a7.752,7.752,0,0,0-.035,1.54,1.571,1.571,0,0,1,0,.99c-0.07.8,0.49,0.94,1.121,0.94h0.245c0.316,0,.666.04,1.016,0.04h0.07a1.051,1.051,0,0,0,.351-0.04h0.14a1.085,1.085,0,0,0,.981-0.91,3.4,3.4,0,0,1-.035-1.02,3.79,3.79,0,0,1-.035-1.54c0.105-.56-0.1-0.94-0.035-1.5a3.115,3.115,0,0,0,0-1.51c0.07-.49-0.1-0.91,0-1.5,0.035-.6-0.1-1.48,0-2.32a16.32,16.32,0,0,0,0-2.27,11.351,11.351,0,0,0-.035-1.51,7.514,7.514,0,0,1,0-1.54,12.625,12.625,0,0,0-.035-1.61,4.116,4.116,0,0,1,.14-1.47,1.256,1.256,0,0,1,.21-0.6,0.607,0.607,0,0,0,.316-0.66A0.438,0.438,0,0,0,163.629,4815.37Z" transform="translate(-135 -4686)"/>
</svg>
