<svg id="ttl" xmlns="http://www.w3.org/2000/svg" width="99" height="273" viewBox="0 0 99 273">
  <defs>
    <style>
      .cls-1 {
        fill: #5f9d7b;
      }

      .cls-1, .cls-2 {
        fill-rule: evenodd;
      }

      .cls-2 {
        fill: #fff;
      }
    </style>
  </defs>
  <path id="長方形_981_のコピー_5" data-name="長方形 981 のコピー 5" class="cls-1" d="M1133.01,5289.07h44v198h-44v-198Z" transform="translate(-1078 -5289)"/>
  <path id="長方形_981_のコピー_6" data-name="長方形 981 のコピー 6" class="cls-1" d="M1078.01,5289h44v273h-44V5289Z" transform="translate(-1078 -5289)"/>
  <path id="新入社員の_職場案内ツアー" data-name="新入社員の 職場案内ツアー" class="cls-2" d="M1143.39,5313.15a3.439,3.439,0,0,1-1.4-.07,5.521,5.521,0,0,1-1.44-.07c-0.73-.03-0.91.56-0.87,1.19a5.2,5.2,0,0,1,0,1.05,0.88,0.88,0,0,0,.98,1.16c0.49,0.17,1.08-.14,1.64,0,0.46-.07,1.09,0,1.65-0.04a5.17,5.17,0,0,0,1.47,0,1.136,1.136,0,0,1,1.01.46,0.815,0.815,0,0,1,.14.94,0.793,0.793,0,0,1-.94.56,5.053,5.053,0,0,0-1.23,0c-0.7.11-1.01-.14-1.64,0a6.3,6.3,0,0,1-1.68,0,0.946,0.946,0,0,0-.98,1.16,1.5,1.5,0,0,0,0,1.05,0.97,0.97,0,0,0,.98,1.15c0.42,0.14,1.19-.14,1.68,0,0.63-.07,1.15.07,1.64,0a0.358,0.358,0,0,1,.53,0c0.49,0,.52.49,0.21,1.02a6.577,6.577,0,0,0-.53.63,2.8,2.8,0,0,1-.73.87,2.4,2.4,0,0,1-.77.81,5.2,5.2,0,0,1-.81.8,4.383,4.383,0,0,0-.84.77,6.707,6.707,0,0,1-.87.74,1.558,1.558,0,0,1-.88.77,0.673,0.673,0,0,0-.38.56,1.063,1.063,0,0,0,.03.14,0.428,0.428,0,0,0-.03.17c0,0.53.63,0.84,0.77,1.23,0.38,0.52.49,1.15,1.19,1.08a5.274,5.274,0,0,0,1.36-.87,6.261,6.261,0,0,0,1.16-1.12,7.754,7.754,0,0,1,.77-0.81,3.226,3.226,0,0,0,.77-0.87c-0.04-.25.17-0.14,0.35-0.39,0.24-.31.98-0.52,0.94,0.39,0,0.38-.07.91-0.03,1.15a2.847,2.847,0,0,1,0,1.33,13.5,13.5,0,0,1-.04,2.7c0.14,0.8.28,1.15,1.05,1.15h0.11c0.24,0,.56.07,0.87,0.07a1.588,1.588,0,0,0,.46-0.07h0.07a1.152,1.152,0,0,0,1.08-1.15,6.164,6.164,0,0,0,0-1.82c0.04-.67-0.1-1.05-0.03-1.82a10.427,10.427,0,0,0-.07-1.65c-0.07-1.19.49-1.26,0.98-1.05a8.744,8.744,0,0,1,.84.63,5.188,5.188,0,0,0,1.68,1.09,0.851,0.851,0,0,0,.87-0.56,2.137,2.137,0,0,1,.7-1.09,1.6,1.6,0,0,0,.25-0.7,1.026,1.026,0,0,0-.39-0.84,3.124,3.124,0,0,0-1.19-.8,10.8,10.8,0,0,0-1.22-.7,18.766,18.766,0,0,1-1.68-.84c-0.53-.25-0.91-0.39-0.74-0.63a1.083,1.083,0,0,1,.91-0.32,3.627,3.627,0,0,1,1.23,0,4.969,4.969,0,0,0,1.64,0c0.6-.07,1.12.11,1.65,0a0.927,0.927,0,0,0,.98-1.15,1.874,1.874,0,0,0,0-1.05,1.151,1.151,0,0,0-.98-1.16,9.085,9.085,0,0,0-1.65,0c-0.45,0-1.12-.03-1.64,0-0.35-.1-0.77.07-1.23,0-0.56.11-1.12-.31-0.98-0.66a1.21,1.21,0,0,1,0-.6c-0.07-.28.39-0.73,1.19-0.7a5.158,5.158,0,0,1,1.47,0,3.6,3.6,0,0,1,1.61.04c0.7,0.03,1.19,0,1.68,0,0.53,0.14.98-.67,0.98-1.16v-1.05a0.982,0.982,0,0,0-.98-1.15,1.436,1.436,0,0,1-.77,0h-1.01c-0.84.03-.95,0.03-1.23-0.39a0.818,0.818,0,0,1,.14-1.01c0.32-.46.21-0.53,0.46-0.91a3.225,3.225,0,0,1,.28-0.63c0.31-.28.8,0.03,0.84-0.46a0.781,0.781,0,0,0-.56-0.8c-0.74-.46-0.35-0.67-0.11-0.67a10.752,10.752,0,0,0,1.12.03,0.987,0.987,0,0,0,.88-1.19c-0.07-.28.1-0.8,0-1.05a1.068,1.068,0,0,0-.98-1.15c-0.63-.07-1.26.1-1.65,0a4.258,4.258,0,0,1-1.64,0,9.2,9.2,0,0,0-1.05,0,0.941,0.941,0,0,1-.74-0.77,3.928,3.928,0,0,1,0-.84,0.973,0.973,0,0,1,.32-0.88,0.622,0.622,0,0,0,.38-0.63c0-.35-0.63-0.21-0.66-0.38a19.165,19.165,0,0,0-2.56-.18h-0.14a0.727,0.727,0,0,0-.8.88,9.646,9.646,0,0,0-.04,1.36,2.823,2.823,0,0,0,0,.77,0.577,0.577,0,0,1-.77.67,4.859,4.859,0,0,1-.94,0c-0.63-.04-1.23.07-1.65,0-0.42.1-1.26-.14-1.64,0a1.14,1.14,0,0,0-.98,1.15,3.578,3.578,0,0,1,0,1.05c0.14,0.81.35,1.12,0.98,1.16a5.13,5.13,0,0,0,1.26-.07c0.42,0,.7.31,0.45,0.49-0.28.32-.56,0.21-0.56,0.84a3.029,3.029,0,0,0,.46,1.19,5.654,5.654,0,0,1,.42,1.26C1144.02,5312.87,1144.02,5313.15,1143.39,5313.15Zm28.95,1.23v-1.12c-0.07-.77-0.28-1.16-0.95-1.16h-2.66a5.056,5.056,0,0,1-1.82,0c-0.52-.03-1.15-0.03-1.85,0h-1.96a1.7,1.7,0,0,1-1.05-.45,1.347,1.347,0,0,1-.56-0.95c-0.11-.38.03-1.08-0.04-1.75a2.376,2.376,0,0,1,.88-1.86,8.1,8.1,0,0,1,1.71-.35c0.63-.21,1.26-0.17,2-0.38a8.355,8.355,0,0,0,1.33-.32c0.52-.24.94-0.1,1.33-0.35a3.564,3.564,0,0,0,1.08-.31c0.42-.18.7-0.07,1.12-0.25l0.21,0.04c0.53,0,.88.03,0.98-0.42a0.723,0.723,0,0,0-.24-0.67c-0.39-.31-0.7-0.59-0.88-0.73a3.884,3.884,0,0,0-.87-0.84,1.253,1.253,0,0,0-1.37-.42c-0.7.31-1.43,0.42-1.96,0.73a12.161,12.161,0,0,1-1.99.56,13.763,13.763,0,0,1-1.89.46,16.549,16.549,0,0,1-2.04.31,7.1,7.1,0,0,1-1.47-.38,1.937,1.937,0,0,0-.7-0.11,0.763,0.763,0,0,0-.73.95,20.517,20.517,0,0,1,0,2.48,14.438,14.438,0,0,0,.03,2.46,17.618,17.618,0,0,1,0,2.41c0.11,0.98,0,1.4.04,2.42,0.03,0.73-.04,1.29-0.04,2.03a19.2,19.2,0,0,1-.07,2.06,7.038,7.038,0,0,0-.14,2.07c0.04,0.56-.35,1.29-0.31,2.06a14.31,14.31,0,0,0-.53,2,8.758,8.758,0,0,1-.7,1.89,4.142,4.142,0,0,1-1.01,1.75,9.235,9.235,0,0,0-.63.8,2.49,2.49,0,0,1-.7.81,1.726,1.726,0,0,0-.95,1.4c-0.03.66,0.49,0.8,0.88,1.29a2.04,2.04,0,0,0,1.22.91c0.21,0.18.74-.31,1.05-0.63,0.25-.28.7-0.84,1.26-1.47,0.42-.59.67-0.94,1.12-1.57a2.4,2.4,0,0,1,.63-1.05,8.51,8.51,0,0,1,.74-1.54,5.322,5.322,0,0,1,.56-1.61,11.072,11.072,0,0,1,.42-1.65,8.614,8.614,0,0,1,.28-1.68,7.335,7.335,0,0,1,.21-1.71,7.338,7.338,0,0,0,.11-1.72,14.308,14.308,0,0,0,.07-1.78,1.516,1.516,0,0,1,.94-1.44c0.42-.07.6-0.03,1.12-0.07a2.468,2.468,0,0,1,1.4.35,1.55,1.55,0,0,1,.42,1.19,4.8,4.8,0,0,0,.04,1.16c-0.04.49,0.03,1.01,0,1.4a4.369,4.369,0,0,0,0,1.4,6.53,6.53,0,0,1,0,1.4,9.217,9.217,0,0,0,0,1.4,3.6,3.6,0,0,0,0,1.4c0.1,0.49-.07.8,0,1.36,0,0.6.07,1.37,0,2.17-0.04.74-.07,1.51-0.04,2.17,0,0.77-.03,1.16,0,1.86a0.936,0.936,0,0,0,1.16,1.08,0.888,0.888,0,0,0,.42.07c0.31,0,.63-0.07.87-0.07,0.95-.03,1.26-0.38,1.16-1.08,0.1-.67-0.14-1.23,0-1.86a20.908,20.908,0,0,1-.04-2.17c-0.1-.84.07-1.54,0-2.17a8.816,8.816,0,0,1,0-1.36,4.655,4.655,0,0,0,0-1.4,6.543,6.543,0,0,1,0-1.4,10.869,10.869,0,0,1,0-1.4,4.348,4.348,0,0,0,0-1.4,9.77,9.77,0,0,1,0-1.44,9.746,9.746,0,0,0,0-1.43,1.446,1.446,0,0,1,.7-1.16l0.21-.07c0.11-.07.98,0.11,1.54,0a0.867,0.867,0,0,0,.98-0.94C1172.37,5314.52,1172.34,5314.45,1172.34,5314.38Zm-25.91-1.82a0.978,0.978,0,0,0,.63-0.7,5.038,5.038,0,0,0-.42-1.58,4.693,4.693,0,0,0-.56-1.15,0.652,0.652,0,0,1,.49-0.99,15.8,15.8,0,0,1,1.79.04c0.7,0.17,1.29-.18,1.78.14a0.889,0.889,0,0,1,.35,1.09,2.883,2.883,0,0,1-.35,1.26,7.2,7.2,0,0,0-.56,1.29,1.373,1.373,0,0,1-.7.88,1.13,1.13,0,0,1-1.19.28c-0.17,0-.63,0-1.15.03C1146.22,5313.08,1146.05,5312.77,1146.43,5312.56Zm25.84,53.69a1.127,1.127,0,0,0-.74-0.98,11.609,11.609,0,0,0-1.68-1.09,10.6,10.6,0,0,1-1.57-1.19,1.962,1.962,0,0,1-.77-0.7,5.032,5.032,0,0,1-.74-0.7,4.423,4.423,0,0,0-.7-0.73,2.2,2.2,0,0,1-.7-0.77,1.446,1.446,0,0,1-.63-0.77,2.159,2.159,0,0,1-.59-0.84c-0.32-.11-0.28-0.7-0.6-0.84a3.649,3.649,0,0,1-.52-0.88,3.932,3.932,0,0,1-.84-1.57,17.135,17.135,0,0,1-.77-1.61c-0.29-.67-0.46-1.16-0.67-1.65a3.51,3.51,0,0,1-.56-1.68,6.2,6.2,0,0,1-.49-1.72,9.283,9.283,0,0,0-.42-1.78,4.351,4.351,0,0,1-.28-1.72,7.681,7.681,0,0,1-.21-1.78,3.463,3.463,0,0,0-.07-0.7c0.03-.67.66-0.39,0.87-0.91a0.707,0.707,0,0,0-.35-0.91c-0.31-.32-0.84-0.74-1.36-1.19a2.334,2.334,0,0,0-.67-0.35h-0.07a2.792,2.792,0,0,1-1.12.28c-1.01.1-1.54,0.03-2.41,0.1h-2.42c-0.7-.14-1.19.04-1.85-0.07a1.016,1.016,0,0,0-.95,1.12c-0.1.39,0.07,0.7,0,1.05,0.04,0.67.21,1.23,0.91,1.23a7.957,7.957,0,0,0,1.86-.04,4.533,4.533,0,0,0,1.4.04c0.35,0.03,1.01.03,1.4,0.03a1.46,1.46,0,0,1,1.68.98,6.654,6.654,0,0,1,.1,1.33c-0.07.77-.77,0.67-1.33,0.67a1.368,1.368,0,0,0-1.08,1.26,5.12,5.12,0,0,0-.42,1.43,3.2,3.2,0,0,1-.39,1.37,10.475,10.475,0,0,1-.45,1.37c-0.18.42-.28,0.87-0.49,1.36a5.442,5.442,0,0,0-.7,1.54c-0.28.53-.49,0.91-0.77,1.51a3.844,3.844,0,0,1-.81,1.43,9.2,9.2,0,0,1-.91,1.4,5.9,5.9,0,0,0-.98,1.33,7.529,7.529,0,0,0-1.05,1.3,4.394,4.394,0,0,1-1.12,1.26,5.427,5.427,0,0,1-1.22,1.15c-0.35.39-.7,0.56-0.84,0.74a3.108,3.108,0,0,1-.91.7,4.009,4.009,0,0,1-.95.63c-0.49.35-.52,0.42-0.94,0.7a1.273,1.273,0,0,0-.7.94,2.631,2.631,0,0,0,.8,1.33c0.39,0.46.53,1.12,1.16,1.12h0.14a0.062,0.062,0,0,0,.07.04,8.876,8.876,0,0,0,1.12-.56,9.028,9.028,0,0,0,1.05-.77,7.563,7.563,0,0,0,1.36-1.09c0.46-.28.7-0.63,1.3-1.08a5.534,5.534,0,0,0,1.22-1.19,5.718,5.718,0,0,0,1.19-1.26,3.992,3.992,0,0,0,.7-0.81c0.28-.1.28-0.66,0.67-0.8a7.91,7.91,0,0,0,.63-0.88c0.1-.21.45-0.56,0.59-0.84a4.224,4.224,0,0,0,.6-0.91,4.242,4.242,0,0,1,.52-0.91c0.07-.21.32-0.49,0.53-0.94a3.72,3.72,0,0,1,.45-0.95,2.208,2.208,0,0,0,.46-0.94,9.587,9.587,0,0,0,.42-0.98c0.14-.63.56-1.33,0.73-2a3.952,3.952,0,0,1,.39-1.19c0.1-.7.77-0.8,0.98-0.42,0.17,0.49.31,0.95,0.52,1.51a5.448,5.448,0,0,0,.46,1.36,2.9,2.9,0,0,0,.49,1.26,3.238,3.238,0,0,1,.56,1.3c0.24,0.49.52,0.91,0.63,1.22a4.746,4.746,0,0,0,.66,1.23c0.39,0.56.49,0.91,0.74,1.19a10.94,10.94,0,0,0,.77,1.12,3.618,3.618,0,0,0,.84,1.12c0.28,0.45.7,0.63,0.91,1.05a12.237,12.237,0,0,0,.95,1.01,2.971,2.971,0,0,0,1.01.98,12.54,12.54,0,0,0,1.05.88,8.4,8.4,0,0,0,1.12.87,2.373,2.373,0,0,0,1.19.88,1.682,1.682,0,0,0,1.37.66,2.243,2.243,0,0,0,1.36-1.05,4.21,4.21,0,0,0,.88-1.57v-0.07Zm-21.57,30.24a0.774,0.774,0,0,0,.77.42,0.8,0.8,0,0,0,.84-0.46,8.53,8.53,0,0,0,.91-1.12,1.351,1.351,0,0,0,.35-0.8,1.545,1.545,0,0,0-.87-1.26,3.068,3.068,0,0,1-1.02-.84c-0.21-.25-0.77-0.53-1.08-0.84a6.64,6.64,0,0,0-1.54-.98,1.01,1.01,0,0,1-.46-0.98c0-.39.49-0.6,0.74-1.23a1.635,1.635,0,0,1,.66-1.01,5.953,5.953,0,0,1,.67-1.09,3.424,3.424,0,0,1,.63-1.15,2.683,2.683,0,0,1,.52-1.09c0.39-.42.56-0.94,0.81-1.12,0.14-.14.77-0.31,0.66-0.59a2.637,2.637,0,0,0-.35-0.84,8.548,8.548,0,0,0-1.36-1.23,4.978,4.978,0,0,0-.63-0.28,0.85,0.85,0,0,0-.7.17,2.284,2.284,0,0,1-1.09.04c-0.45.07-.63-0.28-0.84-0.77a4.25,4.25,0,0,1-.03-1.65,6.015,6.015,0,0,0,.03-1.57,0.725,0.725,0,0,1,.39-0.84,0.487,0.487,0,0,0,.35-0.49,0.669,0.669,0,0,0-.7-0.53c-0.84.04-1.72-.17-2.59-0.17a1.031,1.031,0,0,0-.91.84c-0.11.84,0.07,1.54,0,2.34,0.07,0.95-.07,1.23-0.04,2.17a1,1,0,0,1-.98.81,2.893,2.893,0,0,0-1.12-.04,16.439,16.439,0,0,1-1.82-.07,1.033,1.033,0,0,0-1.12,1.16c0.11,0.32-.14.7,0,1.05a1.041,1.041,0,0,0,1.12,1.16c0.7,0,1.33.03,1.79,0.03h1.43a2.91,2.91,0,0,1,1.44,0c0.28,0,1.22,0,1.64-.03a0.639,0.639,0,0,1,.56,1.01,3.689,3.689,0,0,1-.52.88,2.2,2.2,0,0,1-.63.94,4.032,4.032,0,0,0-.7.95,3.655,3.655,0,0,1-.74.91c-0.38.38-.52,0.7-0.73,0.91-0.21.17-.49,0.59-0.74,0.77a9.35,9.35,0,0,0-.84.8,2.422,2.422,0,0,1-.84.81,5.255,5.255,0,0,0-.87.73,2.266,2.266,0,0,0-.88.7,3.455,3.455,0,0,1-.91.77,1.4,1.4,0,0,0-.45.7v0.11a2.56,2.56,0,0,0,.49,1.08,1.918,1.918,0,0,0,1.19,1.51,4.032,4.032,0,0,0,.87-0.42c0.18-.14.74-0.6,1.19-0.95a12.85,12.85,0,0,1,1.12-1.05c0.46-.28,1.05-0.59,1.12.28a4.313,4.313,0,0,0-.03,1.33,6.426,6.426,0,0,0,0,1.47,3.971,3.971,0,0,0,0,1.47,14.288,14.288,0,0,0,0,2.17,7.6,7.6,0,0,1-.04,2.17,11.029,11.029,0,0,0,0,1.82,1.1,1.1,0,0,0,.95,1.16c0.07,0,.14-0.04.21-0.04a1.1,1.1,0,0,0,.49.07,4.05,4.05,0,0,0,.77-0.07h0.14c0.7,0,.87-0.28,1.05-1.12,0.03-.45-0.04-1.26-0.04-1.82a7.514,7.514,0,0,1,0-2.17,12.035,12.035,0,0,1,0-2.17,7.241,7.241,0,0,1-.03-2.34c0.07-.77-0.18-1.3.28-1.79,0.38-.38.59-0.21,0.98,0.14C1149.83,5395.54,1150.35,5396.14,1150.7,5396.49Zm21.64,7.03v-0.17a1.078,1.078,0,0,0-.95-0.98,11.8,11.8,0,0,0-1.19,0,8.311,8.311,0,0,0-1.43,0,2.389,2.389,0,0,1-1.4.03c-0.74.04-1.33,0-1.96,0a2.757,2.757,0,0,1-1.12-.56,1.6,1.6,0,0,1-.56-1.01,10.844,10.844,0,0,1,0-1.89c-0.11-.56.1-1.09,0-1.79a9.62,9.62,0,0,1,0-1.78,7.146,7.146,0,0,1,0-1.79,5.04,5.04,0,0,1,0-1.78,4.284,4.284,0,0,1,0-1.89,1.248,1.248,0,0,1,.59-1.05,2.3,2.3,0,0,1,1.12-.53c0.56-.07,1.33.11,2.03,0,0.46,0.07,1.12,0,1.65.04a5.541,5.541,0,0,0,1.68,0c0.73,0.14.91-.46,0.98-1.19a5.982,5.982,0,0,0,0-1.12,1.319,1.319,0,0,0-1.02-1.16,0.824,0.824,0,0,1-.77,0c-0.94,0-1.71-.03-2.52,0a7.664,7.664,0,0,1-2.03,0,1.307,1.307,0,0,1-1.12-.8,1.945,1.945,0,0,1-.59-1.58c-0.07-.66,0-1.68-0.04-2.59,0.11-.63-0.17-1.37,0-1.96a4.633,4.633,0,0,1,.04-1.47,0.86,0.86,0,0,1,.35-0.7,0.7,0.7,0,0,0,.38-0.7,0.6,0.6,0,0,0-.66-0.42,13.317,13.317,0,0,1-1.37-.11c-0.45-.1-1.08,0-1.44-0.07a0.831,0.831,0,0,0-.94.95,7.5,7.5,0,0,1,0,2.17c0.07,0.77-.07,1.54.03,2.17a24.862,24.862,0,0,0,0,2.73,15.233,15.233,0,0,1-.45,1.58c-0.14.38-.77,0.98-0.88,0.8a2.467,2.467,0,0,1-1.61,0,12.734,12.734,0,0,1-1.64,0c-0.42-.03-1.16.07-1.65,0a1,1,0,0,0-.98,1.16,2.488,2.488,0,0,0,0,1.12,1.249,1.249,0,0,0,.98,1.19c0.49,0.1,1.19-.07,1.65,0a8.046,8.046,0,0,1,1.64-.04,5.111,5.111,0,0,1,1.61,0,1.317,1.317,0,0,1,.88.53,2.951,2.951,0,0,1,.45,1.05,8.377,8.377,0,0,1,0,1.89c0.07,0.59-.07,1.33,0,1.78a15.271,15.271,0,0,0,0,1.79,7.57,7.57,0,0,1,0,1.78,10.7,10.7,0,0,0,0,1.79c-0.03.52-.03,1.22-0.07,1.89a1.965,1.965,0,0,1-.7,1.01,2.4,2.4,0,0,1-1.5.56,20.3,20.3,0,0,1-2.59,0c-0.84-.1-1.23.11-2-0.03a13.752,13.752,0,0,1-2.03,0,1.028,1.028,0,0,0-.98,1.15c-0.03.42,0,.67,0,1.16a0.9,0.9,0,0,0,.98,1.15c0.67,0.14,1.23-.1,2.03,0,0.56,0.18,1.47-.17,2-0.03a3.1,3.1,0,0,0,1.5,0,5.864,5.864,0,0,0,1.51,0c0.38,0.17,1.05-.14,1.54,0a3.83,3.83,0,0,0,1.51,0,3.8,3.8,0,0,1,1.54,0c0.38-.04.87,0.07,1.5,0,0.63,0.1.84-.14,1.54,0,0.42-.07.84,0.1,1.51,0a5.347,5.347,0,0,0,1.99.03,4.789,4.789,0,0,0,2.03,0,0.927,0.927,0,0,0,.95-1.05v-0.1a1.806,1.806,0,0,1-.04-0.42C1172.3,5404.01,1172.34,5403.84,1172.34,5403.52Zm-26.71,15.72a1.064,1.064,0,0,0,1.12,1.12,8.265,8.265,0,0,0,1.22,0c0.35-.21.74,0.07,0.88-0.21a1.742,1.742,0,0,1,1.54-.7,8.976,8.976,0,0,1,2.13.03c0.7,0,1.19-.03,1.75,0a5.675,5.675,0,0,0,1.75,0c0.63-.07,1.16.11,1.75,0a4.9,4.9,0,0,1,1.75,0,9.067,9.067,0,0,1,2.39-.03,1.363,1.363,0,0,1,1.36.63c0.21,0.38.6,0.1,0.84,0.24a4.189,4.189,0,0,0,1.19,0,1.172,1.172,0,0,0,1.12-1.12c0-1.01.04-1.61,0-2.63a12.734,12.734,0,0,0,0-1.64c0.07-.6-0.1-1.19,0-2.07a0.994,0.994,0,0,0-.91-1.08h-1.47a0.937,0.937,0,0,0-.35-0.04c-0.28,0-.59.04-0.91,0.04h-0.24a6.275,6.275,0,0,1-1.62,0,5.31,5.31,0,0,1-1.29-.04,1.139,1.139,0,0,0-.35.04,0.614,0.614,0,0,0-.28-0.04c-0.28,0-.6.07-0.95,0.07h-0.07c-0.1,0-.21-0.03-0.31-0.03-0.14,0-.28.03-0.39,0.03-0.35,0-.59-0.07-0.87-0.07a1.4,1.4,0,0,0-.39.04,6.921,6.921,0,0,1-1.64,0,4.176,4.176,0,0,1-1.33-.04,0.658,0.658,0,0,0-.28.04,2.368,2.368,0,0,0-.53-0.04c-0.31,0-.59.04-0.87,0.04h-0.25a5.071,5.071,0,0,1-1.61,0,3.907,3.907,0,0,1-1.26-.04,0.781,0.781,0,0,0-.28.04,2.3,2.3,0,0,1-1.08,0,1.174,1.174,0,0,0-1.26,1.08,20.16,20.16,0,0,0,0,2.07c-0.04.66,0.07,1.05,0,1.61A8.406,8.406,0,0,0,1145.63,5419.24Zm3.57-3.65a0.877,0.877,0,0,1,1.05-1.01c0.52-.14,1.01.1,1.43,0,0.46-.07.98,0.1,1.44,0,0.42-.11.87,0.07,1.43,0a10.3,10.3,0,0,0,1.47,0,3.469,3.469,0,0,1,1.47,0,6.849,6.849,0,0,0,1.44,0,6.111,6.111,0,0,1,1.43,0,5.3,5.3,0,0,0,1.44,0,0.882,0.882,0,0,1,1.05,1.01c0.11,0.21.32,0.56,0,.63a1.985,1.985,0,0,1-1.54.49,7.89,7.89,0,0,0-1.82,0,8.911,8.911,0,0,1-1.72,0,9.3,9.3,0,0,1-1.75,0,9.284,9.284,0,0,1-1.75,0,13.86,13.86,0,0,1-1.71,0,15.669,15.669,0,0,1-1.82,0c-0.74.07-1.51-.17-1.54-0.49A1.818,1.818,0,0,1,1149.2,5415.59Zm12.99,21.01c0.77,0.07,2.1-.25,2.48.73a1.6,1.6,0,0,0,.88.28,3.957,3.957,0,0,0,1.33,0,1.058,1.058,0,0,0,1.15-.94c0.07-.77-0.07-1.65-0.03-2.7a9.2,9.2,0,0,1,0-2.62,15.224,15.224,0,0,1,0-2.24,6.733,6.733,0,0,1,0-2.24c0.14-.88-0.18-1.61,0-2.28a15.9,15.9,0,0,0,.03-2.31,0.8,0.8,0,0,0-.94-1.01,7.87,7.87,0,0,1-2,0c-0.8-.11-1.43.17-1.99,0a4.9,4.9,0,0,0-1.75,0c-0.71-.04-1.34.07-1.79,0-0.49.1-1.33-.14-1.75,0-0.67-.07-1.33.1-1.79,0a5.03,5.03,0,0,1-1.78,0,14.57,14.57,0,0,1-1.75,0c-0.49-.07-1.3.03-1.79,0a4.665,4.665,0,0,0-1.75,0,5.006,5.006,0,0,1-1.89,0,4.438,4.438,0,0,1-1.92,0,1.219,1.219,0,0,0-.95.94,10.265,10.265,0,0,0,.04,2.35l0.03,2.31c-0.07.77,0.14,1.5,0,2.31a17.723,17.723,0,0,0,0,2.31c-0.1.94,0.04,1.85-.03,2.55a12.841,12.841,0,0,0,0,2.63,0.934,0.934,0,0,0,1.15,1.05,2.028,2.028,0,0,0,1.37-.04,1.9,1.9,0,0,0,.94-0.17,1.521,1.521,0,0,1,.7-0.67,1.665,1.665,0,0,1,1.33-.17c0.25-.04.32,0.31-0.52,0.66-0.49.11-1.58,0.7-1.86,0.74-0.52.17-.94,0.35-1.4,0.45a11.86,11.86,0,0,1-1.4.39c-0.66.31-1.26,0.14-1.96,0.42a16.984,16.984,0,0,0-2.03.42,1,1,0,0,0-.52.63v0.1a11.032,11.032,0,0,0,.63,1.65,0.856,0.856,0,0,0,.8.91h0.18a0.868,0.868,0,0,0,.31.03,5.652,5.652,0,0,0,1.58-.31,9.548,9.548,0,0,1,1.22-.28,2.92,2.92,0,0,1,1.26-.39,4.309,4.309,0,0,0,1.3-.38,2.2,2.2,0,0,0,1.15-.42c0.63-.35,1.37-0.39,1.82-0.7,0.32-.21.95-0.35,1.58-0.74a8.422,8.422,0,0,0,1.64-.77c0.39-.03.67-0.07,0.6-0.49a0.889,0.889,0,0,0-.46-0.59,9.245,9.245,0,0,1-1.33-.74c-0.24-.07-0.56-0.52-0.07-0.56a10.548,10.548,0,0,0,1.79-.07,9.824,9.824,0,0,0,2.1,0c0.56,0.18,1.4-.14,2.06,0,1.09-.07,1.3.04,1.05,0.63a2.222,2.222,0,0,0-.63.91,0.585,0.585,0,0,0-.31.67,1.255,1.255,0,0,0,.66.91,5.86,5.86,0,0,0,1.58.73,2.75,2.75,0,0,0,1.61.63,7.532,7.532,0,0,1,1.68.49,10.6,10.6,0,0,1,1.61.46,1.466,1.466,0,0,0,1.05.28,2,2,0,0,0,1.33.35,20.225,20.225,0,0,0,2.14.38,0.585,0.585,0,0,0,.24-0.03h0.07c0.46,0,.67-0.46,1.02-1.02,0.28-.52.56-1.33,0.73-1.75v-0.14c0-.38-0.28-0.49-0.77-0.52-0.52.07-.94-0.32-1.29-0.25a13.138,13.138,0,0,1-1.3-.24,1.924,1.924,0,0,1-1.26-.25,3,3,0,0,1-1.26-.28c-0.28-.17-0.98-0.14-1.22-0.31a2.148,2.148,0,0,0-1.23-.35l-0.59-.18c-0.49-.28-1.05-0.38-1.44-0.59C1161.42,5437.05,1161.06,5436.63,1162.19,5436.6Zm-13.2-12.32a4.841,4.841,0,0,1,1.78,0,4.9,4.9,0,0,1,1.75,0c0.56,0,1.12.03,1.79,0,0.73-.07,1.33.03,1.82,0a9.567,9.567,0,0,1,1.78,0,15.184,15.184,0,0,0,1.79,0,15.254,15.254,0,0,0,1.79,0c0.45-.07,1.12.1,1.75,0a0.919,0.919,0,0,1,1.12.84c0,0.52-1.05.42-1.93,0.56a6.585,6.585,0,0,1-2.17,0c-0.53-.14-1.44.14-2.07,0-0.77.14-1.5-.14-2.06,0-0.67-.14-1.3.1-2.1,0a6.841,6.841,0,0,1-2.07,0,9.264,9.264,0,0,1-2.17,0c-0.77.1-1.85,0.1-1.82-.53A0.8,0.8,0,0,1,1148.99,5424.28Zm-1.09,4.86c0.04-.77,1.12-0.66,1.89-0.84,0.56,0,1.54-.03,2.17,0a7.969,7.969,0,0,0,2.07,0,13.383,13.383,0,0,0,2.1,0,7.766,7.766,0,0,0,2.06,0,20.385,20.385,0,0,0,2.07,0c0.66-.14,1.61.07,2.17,0,0.77,0.04,1.89,0,1.93.6,0,0.7-1.19.73-1.93,0.8-0.7-.07-1.61.11-2.17,0-0.74.07-1.51-.1-2.07,0h-2.06c-0.84-.14-1.37.18-2.1,0-0.7-.1-1.23.14-2.07,0-0.77.04-1.47,0-2.17,0C1149.02,5429.81,1147.8,5429.6,1147.9,5429.14Zm10.29,4.59a14.155,14.155,0,0,1-2.06,0,5.494,5.494,0,0,1-2.1,0,5.146,5.146,0,0,1-2.07,0c-0.52,0-1.47-.07-2.17,0-0.73-.07-1.4.14-1.75-0.32a1.193,1.193,0,0,1,0-.77c-0.1-.35.88-0.14,1.75-0.31,0.53-.14,1.51.07,2.17,0a14.219,14.219,0,0,0,2.07,0,5.3,5.3,0,0,1,2.1,0c0.66,0.1,1.36-.04,2.06,0a14.279,14.279,0,0,0,2.07,0,19.635,19.635,0,0,1,2.17,0c0.91-.07,1.86-0.14,1.93.59,0,0.84-1.26.67-1.93,0.81a15.633,15.633,0,0,1-2.17,0A7.923,7.923,0,0,0,1158.19,5433.73Zm13.27,30.03v-0.95a3.357,3.357,0,0,0-.07-0.59,9.094,9.094,0,0,1-.24-1.4,4.372,4.372,0,0,0-.35-1.3c-0.28-.56-0.32-1.05-0.53-1.33a12.3,12.3,0,0,0-.59-1.08c-0.39-.49-0.49-0.77-0.74-1.02-0.38-.38-0.66-0.84-0.91-1.01a3.273,3.273,0,0,1-.94-0.84c-0.32-.36-0.84-0.46-1.05-0.74a6.336,6.336,0,0,0-1.12-.67c-0.42-.21-0.84-0.31-1.19-0.52a8.492,8.492,0,0,0-1.23-.39c-0.28-.14-0.94-0.21-1.3-0.35a7.207,7.207,0,0,0-1.4-.24,11.906,11.906,0,0,0-1.5-.18c-0.39,0-.77-0.03-1.12-0.03h-0.21a1.791,1.791,0,0,0-.46-0.04c-0.42,0-.77.07-1.15,0.07-0.56.07-1.19,0.18-1.72,0.25-0.66.1-.87,0.21-1.47,0.31a9.345,9.345,0,0,0-1.5.6,4.277,4.277,0,0,0-1.47.63,10.228,10.228,0,0,0-1.37.8,8.182,8.182,0,0,0-1.29.95,11.053,11.053,0,0,0-1.19,1.09,3.3,3.3,0,0,0-.98,1.08,4.484,4.484,0,0,0-.88,1.16,10.956,10.956,0,0,1-.77,1.26,12.3,12.3,0,0,0-.63,1.29,5.083,5.083,0,0,0-.52,1.37c-0.14.31-.18,0.98-0.35,1.4a5.119,5.119,0,0,0-.25,1.43c-0.07.56-.03,0.98-0.07,1.47a2.688,2.688,0,0,1,.04.56v0.77a1.422,1.422,0,0,0,.1.53c0.25,0.66.07,1.43,0.42,1.92,0.39,0.53.14,1.05,0.74,1.72,0.63,0.7.66,1.22,1.05,1.54l0.45,0.38a8.777,8.777,0,0,0,1.3.88,7.961,7.961,0,0,0,2.13.45,4.528,4.528,0,0,0,2.07-.52,7.661,7.661,0,0,0,1.61-1.16,20.171,20.171,0,0,0,1.33-1.54c0.38-.45.7-1.05,1.08-1.61a5.342,5.342,0,0,0,.7-1.36,9.432,9.432,0,0,0,.67-1.44c0.14-.52.42-0.98,0.56-1.43,0.1-.42.31-0.84,0.52-1.47,0.18-.42.35-1.02,0.53-1.47,0.14-.63.24-1.09,0.38-1.51a8.678,8.678,0,0,0,.42-1.47,14.757,14.757,0,0,1,.39-1.5c0.03-.28.21-0.63,0.28-1.23a5.391,5.391,0,0,1,.28-0.91c0.21-.42.77-0.49,0.77-0.98,0-.35.14-0.63,1.01-0.56,0.56,0,.88.28,1.55,0.35a10.124,10.124,0,0,1,1.47.56,15.168,15.168,0,0,1,1.61.91,2.766,2.766,0,0,1,.87.81,3.989,3.989,0,0,1,.91,1.05,6.839,6.839,0,0,1,.67,1.26,7.026,7.026,0,0,1,.49,1.85,10.514,10.514,0,0,1,.17,2.07,8.626,8.626,0,0,1-.14,1.57,10.877,10.877,0,0,1-.28,1.19,3.063,3.063,0,0,1-.49,1.23,5.9,5.9,0,0,1-.66,1.05,3.576,3.576,0,0,1-.81.94c-0.45.6-.66,0.42-1.01,0.88a4.787,4.787,0,0,1-1.09.73,5.2,5.2,0,0,1-1.33.67,4.028,4.028,0,0,1-1.37.56c-0.38.14-.91,0.31-1.43,0.45a1.086,1.086,0,0,0-.95.88,2.112,2.112,0,0,0,.49,1.36c0.25,0.63.39,1.58,1.26,1.58a0.658,0.658,0,0,0,.28-0.04,7.314,7.314,0,0,0,1.16-.35c0.56-.17.7-0.31,1.19-0.45a10.514,10.514,0,0,0,1.37-.6,5.626,5.626,0,0,0,1.12-.56,0.932,0.932,0,0,1,.59-0.31,6.837,6.837,0,0,0,.81-0.56,1.746,1.746,0,0,1,.73-0.53,1.51,1.51,0,0,0,.7-0.56,10.612,10.612,0,0,0,1.09-1.12,5.386,5.386,0,0,0,.87-1.19,11.635,11.635,0,0,0,.81-1.36c0.21-.67.49-1.16,0.63-1.68a9.332,9.332,0,0,0,.35-1.82C1171.39,5465.16,1171.43,5464.42,1171.46,5463.76Zm-17.64-6.48a5.6,5.6,0,0,0-.32,1.23,8.73,8.73,0,0,1-.31,1.05,12.042,12.042,0,0,1-.53,1.82,14.193,14.193,0,0,1-.59,1.82,13.591,13.591,0,0,1-.67,1.78c-0.21.98-.66,1.12-0.77,1.75a7.181,7.181,0,0,1-.59,1.19,4.8,4.8,0,0,1-.84,1.51,7.163,7.163,0,0,1-.95,1.15,1.475,1.475,0,0,1-1.08.53,2.015,2.015,0,0,1-1.33-.6,6.9,6.9,0,0,1-.74-1.22,10.842,10.842,0,0,1-.38-1.61c-0.11-.39-0.04-1.05-0.11-1.4a7.543,7.543,0,0,1,.11-1.44,5.37,5.37,0,0,1,.31-1.4,4.119,4.119,0,0,1,.46-1.36,7.937,7.937,0,0,1,.63-1.33,3.267,3.267,0,0,1,.8-1.23,4.121,4.121,0,0,0,.46-0.7,2.538,2.538,0,0,1,.98-1.01c0.35-.21.45-0.56,0.98-0.91a2.756,2.756,0,0,1,1.12-.77,6.27,6.27,0,0,1,1.22-.7c0.53-.11.67-0.35,1.09-0.42a1.062,1.062,0,0,1,1.12.03C1154.34,5455.57,1154.06,5456.37,1153.82,5457.28Zm-48.54-132.02a7.918,7.918,0,0,1,0-2.13c0.1-.7-0.08-1.58,0-2.17a8.689,8.689,0,0,0,.03-2.1,0.9,0.9,0,0,0-.95-1.05,2.709,2.709,0,0,1-1.08.03,3.407,3.407,0,0,0-1.19-.03h-1.33a12.5,12.5,0,0,0-2.03,0,9.512,9.512,0,0,0-1.51,0,0.9,0.9,0,0,0-1.05,1.05,13.249,13.249,0,0,0,.04,2.1c-0.04.91,0.03,1.85,0,2.66a15.744,15.744,0,0,0,0,2.66,11.525,11.525,0,0,0,0,2.69,1,1,0,0,0,1.15,1.12,2.929,2.929,0,0,1,.81,0,1.125,1.125,0,0,0,1.33-.84,1.017,1.017,0,0,1,.94-0.84,7.644,7.644,0,0,0,.98,0,0.806,0.806,0,0,1,.91.39,0.978,0.978,0,0,0,1.02.28c0.73,0,.52.38,0.31,0.52a4.309,4.309,0,0,1-1.43.81c-0.46.21-1.68,0.42-1.58,1.01a2.827,2.827,0,0,0,.77,1.33,1.753,1.753,0,0,0,1.16.91,10.752,10.752,0,0,0,1.78-.77,12.919,12.919,0,0,0,1.41-.8,3.433,3.433,0,0,1,1.36-.84,8.35,8.35,0,0,1,1.02-.74,2.133,2.133,0,0,1,1.15-.24,0.932,0.932,0,0,1,.98.66,2.224,2.224,0,0,0,.74,1.09,2.692,2.692,0,0,0,1.19,1.05,2.4,2.4,0,0,0,1.57.38,1.573,1.573,0,0,0,1.65-1.08c0.24-.74.59-1.51,0.7-2a9.1,9.1,0,0,1,.42-1.5c0.07-.56.24-0.88,0.24-1.26a1.158,1.158,0,0,0-.03-0.32,1.055,1.055,0,0,0-.6-0.91,7.812,7.812,0,0,0-1.36-.56,0.682,0.682,0,0,0-.7.56,3.47,3.47,0,0,1-.21,1.05c-0.07.25-.21,1.79-0.6,1.54-0.28.07-.52-0.56-0.77-0.98a2.262,2.262,0,0,1-.24-1.47,3.632,3.632,0,0,1,.63-1.33l0.87-1.47a3.876,3.876,0,0,0,.56-1.19,4.162,4.162,0,0,0,.42-1.29,4.335,4.335,0,0,1,.74-1.44c0.1-.17.8-0.21,0.7-0.8a0.584,0.584,0,0,0-.46-0.49,15.876,15.876,0,0,0-1.78-.7,0.8,0.8,0,0,0-.56-0.14,0.841,0.841,0,0,0-.81.59,11,11,0,0,1-.45,1.09,3.6,3.6,0,0,1-.42,1.05,1.8,1.8,0,0,0-.18.45c-0.24.56-.87,0.21-0.87-0.94a2.272,2.272,0,0,0-.04-0.77,3.409,3.409,0,0,0-.07-1.33,1.338,1.338,0,0,1,.91-1.16,9.932,9.932,0,0,0,1.89-.07,5.451,5.451,0,0,0,2.03,0,0.971,0.971,0,0,0,.95-1.19,3.948,3.948,0,0,0,0-.94,1.026,1.026,0,0,0-.95-1.16,6.114,6.114,0,0,0-1.22,0c-0.35.07-.98-0.11-1.4,0a9.2,9.2,0,0,1-1.44.03,1.884,1.884,0,0,1-.94-1.33c-0.04-.73-0.04-2.24-0.18-3.15,0-.45-0.07-0.8-0.07-1.33a3.11,3.11,0,0,1,.07-1.19,8.406,8.406,0,0,1-.03-1.36,9.34,9.34,0,0,1,.07-1.68,1.152,1.152,0,0,1,.49-0.84,0.473,0.473,0,0,0,.21-0.42,0.725,0.725,0,0,0-.6-0.46,5.931,5.931,0,0,1-1.36-.14c-0.63-.1-0.98-0.03-1.44-0.14a0.718,0.718,0,0,0-.77.77c-0.07.53,0.11,1.09,0.04,1.79a13.944,13.944,0,0,1,.03,1.71,10.363,10.363,0,0,1,.04,1.86,12.2,12.2,0,0,0,.07,1.99c0,0.77.1,1.51,0.07,2.1a1.593,1.593,0,0,1-.25,1.16,0.926,0.926,0,0,1-.77.63,1.61,1.61,0,0,1-.81.1,0.593,0.593,0,0,1-.35-0.84,1.893,1.893,0,0,0,.25-0.87,2.09,2.09,0,0,1,.53-0.81c0.38-.1.87-0.21,0.77-0.66a0.857,0.857,0,0,0-.74-0.67c-0.7-.17-0.49-0.59.11-0.56,0.56-.03.63-0.56,0.63-1.33a4.892,4.892,0,0,1,0-.77c-0.04-.73-0.25-1.05-0.7-1.05-0.57.07-.99-0.03-1.37,0a3.716,3.716,0,0,1-1.12,0,0.836,0.836,0,0,1-.91-0.84c0-.52-0.04-1.05-0.04-1.57a0.816,0.816,0,0,1,.39-0.88,0.619,0.619,0,0,0,.31-0.63,0.672,0.672,0,0,0-.7-0.42l-2.34-.14a0.9,0.9,0,0,0-.98.88,5.446,5.446,0,0,1,.03,1.36c0,0.67-.03,1.09-0.03,1.54a0.818,0.818,0,0,1-.84.7,1.672,1.672,0,0,1-.84-0.1,2.988,2.988,0,0,1-1.23,0,0.969,0.969,0,0,0-.94,1.15,1.621,1.621,0,0,1,0,.91c0,0.7.1,1.09,0.94,1.16,0.32,0.07.49,0.03,0.49,0.28,0.07,0.38-.52.45-0.52,0.84a7.488,7.488,0,0,0,.59,2.06,1.482,1.482,0,0,1,.11,1.26l-0.28.04a9.389,9.389,0,0,1-1.19-.07,0.921,0.921,0,0,0-.98,1.05,3.158,3.158,0,0,0,0,1.3c-0.18.63,0.59,0.84,0.91,0.87a17.183,17.183,0,0,0,2.03,0,18.585,18.585,0,0,0,1.99-.03c0.67,0.1,1.23-.07,2,0a6.861,6.861,0,0,0,2.03,0,19.271,19.271,0,0,0,2.24.1,1.937,1.937,0,0,1,1.3.39,1.993,1.993,0,0,1,.52,1.57,2.163,2.163,0,0,1,.11,1.3,3.409,3.409,0,0,1,.1,1.29,15.544,15.544,0,0,0,.35,2.38,3.964,3.964,0,0,1,.21,1.3,1.162,1.162,0,0,1-.1,1.01,2.755,2.755,0,0,1-.74,1.12c-0.59.32-.49,0.63-1.19,0.98-0.24.21-.66-0.07-0.7-0.49C1105.28,5326.59,1105.28,5326.17,1105.28,5325.26Zm-10.58-19.53c0.77,0,.88-0.46.95-1.16a5.681,5.681,0,0,1,0-.84,1.041,1.041,0,0,0-.98-1.15,17.753,17.753,0,0,1-2.63,0c-0.73-.14-1.75.17-2.41,0a9.318,9.318,0,0,1-2.42,0,22.9,22.9,0,0,1-2.62,0,0.9,0.9,0,0,0-.98,1.15,3.36,3.36,0,0,0,0,.84,1.543,1.543,0,0,0,.24,1.05,2.37,2.37,0,0,1,.77.63,5.665,5.665,0,0,1,.35,1.47c-0.14.74,0.11,1.68,0,2.24a7.867,7.867,0,0,0,0,2.17,6.558,6.558,0,0,1,0,2.21v2.17a8.648,8.648,0,0,1,0,2.17,8.176,8.176,0,0,0,0,2.21c-0.17.8-.07,1.75-0.21,2.48a1.507,1.507,0,0,1-.73.46,0.924,0.924,0,0,0-.6.63c0,0.03.04,0.1,0.04,0.14v0.38a0.138,0.138,0,0,0,.1.14c0.25,0.53.21,0.81,0.42,1.16,0.28,0.42.21,0.8,0.46,1.15a0.494,0.494,0,0,0,.73.46,2,2,0,0,0,.49-0.56,2.707,2.707,0,0,1,1.05-.6,4.843,4.843,0,0,0,1.05-.45,3.064,3.064,0,0,0,1.09-.39,1.455,1.455,0,0,1,1.33.25,2.846,2.846,0,0,1,.21,1.22c-0.07.63,0.07,1.19-.04,1.79a5.314,5.314,0,0,0,0,1.78,13.714,13.714,0,0,1,0,1.82,1.075,1.075,0,0,0,1.16,1.16,0.273,0.273,0,0,0,.17.03c0.21,0,.53-0.07.77-0.07a1.718,1.718,0,0,1,.18.04h0.17c0.67,0,.81-0.39.98-1.16-0.1-.63.11-1.26,0.04-1.82a14.768,14.768,0,0,0-.04-1.78,7.162,7.162,0,0,0-.03-1.75,3.816,3.816,0,0,1,0-1.79,8.578,8.578,0,0,0,0-2.48c-0.07-.91.03-1.72,0-2.49a11.378,11.378,0,0,1,0-2.48,19.189,19.189,0,0,1,0-2.52c0.14-.81-0.11-1.72,0-2.53a15.8,15.8,0,0,0,0-2.48,15.344,15.344,0,0,1,0-2.63,2.479,2.479,0,0,1,.28-1.99A1.349,1.349,0,0,1,1094.7,5305.73Zm16.18,1.29a16.519,16.519,0,0,0,.87,1.89c0.14,0.7.53,0.84,0.88,1.93a0.679,0.679,0,0,0,.8.56c0.28,0.14.35-.07,0.56-0.18a5.6,5.6,0,0,0,.77-0.35c0.53-.31.91-0.56,0.77-0.98a2.025,2.025,0,0,0-.21-0.91,2.369,2.369,0,0,0-.59-1.22,3.205,3.205,0,0,1-.63-1.19c-0.35-.32-0.18-0.67-0.53-0.84a1.151,1.151,0,0,0-.98-0.7,1.4,1.4,0,0,0-.63.17,3.4,3.4,0,0,1-.63.32,0.971,0.971,0,0,0-.66.87A1.184,1.184,0,0,0,1110.88,5307.02Zm-20.48,1.3c-0.04.35-.07,0.98-0.49,0.98a2.151,2.151,0,0,0-.67,0,0.946,0.946,0,0,1-.94-0.98,1.563,1.563,0,0,0,0-.98,1.625,1.625,0,0,1,.45-1.61,1.786,1.786,0,0,1,.98.03,1.082,1.082,0,0,1,.74,1.05A7.784,7.784,0,0,1,1090.4,5308.32Zm8.68,1.5c-0.46-.7-0.14-0.94.14-0.87,0.35,0,.7.03,1.4,0.03a4.8,4.8,0,0,1,1.22.04c0.49-.07.49,0.7,0.32,0.98a6.43,6.43,0,0,1-.46,2.17c-0.1.35-.24,1.22-1.01,1.19a1.9,1.9,0,0,1-.98,0c-0.53,0-.56-0.28-0.32-0.42a0.708,0.708,0,0,0,.39-0.91A13.029,13.029,0,0,0,1099.08,5309.82Zm-9.21,6.13a2.083,2.083,0,0,0-.66,0,0.932,0.932,0,0,1-.91-0.98,2.453,2.453,0,0,0,0-1.01,1.673,1.673,0,0,1,.52-1.58,1.789,1.789,0,0,1,1.05,0,1.37,1.37,0,0,1,.6,1.26c-0.07.46-.04,0.91-0.07,1.33C1090.43,5315.25,1090.22,5316.06,1089.87,5315.95Zm0.56,4.48a2.364,2.364,0,0,1-.24,1.54,1.436,1.436,0,0,1-1.16.46c-0.38-.04-0.8-0.14-0.7-0.98,0.04-.18-0.07-1.4-0.03-1.79a0.758,0.758,0,0,1,.8-0.66,1.125,1.125,0,0,1,.95.03C1090.43,5319.17,1090.43,5319.8,1090.43,5320.43Zm9.94,0.21a7.932,7.932,0,0,0,.98,0c0.63,0,.88.28,0.81,0.74-0.07.59-.39,0.45-0.98,0.49a7.2,7.2,0,0,1-1.23,0,0.534,0.534,0,0,1-.38-0.88A1.119,1.119,0,0,1,1100.37,5320.64Zm0.04,3.64a9.09,9.09,0,0,0,1.05,0c0.63,0,.84.25,0.77,0.7-0.07.6-.46,0.53-1.05,0.56a6.739,6.739,0,0,1-1.19,0,0.636,0.636,0,0,1-.6-0.87A0.95,0.95,0,0,1,1100.41,5324.28Zm-9.66,35.74a6.982,6.982,0,0,0,1.85-.63,6.546,6.546,0,0,0,1.82-.84,1.285,1.285,0,0,0,.98-0.95,9.407,9.407,0,0,0-.1-1.29,1.034,1.034,0,0,0-.81-0.95,0.582,0.582,0,0,0-.45.11,13.114,13.114,0,0,1-1.44.45,1.611,1.611,0,0,1-1.22-1.4,6.217,6.217,0,0,1,0-1.43c0.03-.35-0.07-1.65,0-2.1a1.074,1.074,0,0,1,1.12-1.13,10.557,10.557,0,0,1,1.78,0,1.034,1.034,0,0,0,1.12-1.19,2.649,2.649,0,0,1,0-1.05,1.106,1.106,0,0,0-1.12-1.19,15.088,15.088,0,0,0-1.78,0,1.284,1.284,0,0,1-1.12-1.05c-0.11-.56.1-0.98,0-1.26a5.8,5.8,0,0,1-.04-1.82,3.563,3.563,0,0,1,.14-1.85,3.516,3.516,0,0,0,.39-0.56,0.489,0.489,0,0,0-.42-0.88,6.588,6.588,0,0,1-1.33-.1c-0.6-.07-0.95-0.07-1.47-0.11h-0.07a0.815,0.815,0,0,0-.84.98c-0.04.88,0.14,1.54,0.03,2.17a19.627,19.627,0,0,1,0,2.17,10.09,10.09,0,0,1-.03,1.44,1.463,1.463,0,0,1-1.33.87,7.077,7.077,0,0,1-1.79,0,1.107,1.107,0,0,0-1.12.98,0.4,0.4,0,0,0,.04.21,2.5,2.5,0,0,0-.04.56,2.154,2.154,0,0,0,.04.49c0.07,0.7.1,1.12,0.91,1.12,0.52,0,.8-0.03,1.4,0,0.31,0.04.91,0,1.08,0.04a1.39,1.39,0,0,1,.84,1.3,7.564,7.564,0,0,1,0,2.38,11.96,11.96,0,0,1,0,2.24,1.9,1.9,0,0,1-1.05,1.64,6.6,6.6,0,0,1-1.36.28c-0.67.25-.98,0.11-1.23,0.28a0.735,0.735,0,0,0-.52.49,0.463,0.463,0,0,0-.07.18c0,0.17.1,0.38,0.1,0.59a5.6,5.6,0,0,1,.46,1.23,9.425,9.425,0,0,0,.45,1.29,0.468,0.468,0,0,0,.53.46c0.49,0.03.35-.25,0.73-0.56,0.21-.18.81-0.25,1.23-0.53a9.539,9.539,0,0,0,1.82-.49C1089.38,5360.54,1089.98,5360.16,1090.75,5360.02Zm6.26-9.87a1.017,1.017,0,0,0,1.12,1.05,3.406,3.406,0,0,0,.98-0.04,1.518,1.518,0,0,0,.95-0.14,3.157,3.157,0,0,1,.77-0.59,6.9,6.9,0,0,1,1.43-.11c0.6,0.07,1.68,0,2.35,0,0.63,0,1.68-.03,2.45,0a3.986,3.986,0,0,1,1.79.35,1.413,1.413,0,0,0,1.15.49,9.188,9.188,0,0,0,1.05,0,1.059,1.059,0,0,0,1.16-1.12,13.51,13.51,0,0,1-.04-2.63,9.354,9.354,0,0,1,0-2.59,9.361,9.361,0,0,1,0-2.59,15.091,15.091,0,0,0,.04-2.1,1.225,1.225,0,0,0-.98-1.05,1.475,1.475,0,0,1-.56,0,4.941,4.941,0,0,0-1.02,0,12.483,12.483,0,0,0-2.52,0c-0.8.18-1.71-.1-2.52,0a6.65,6.65,0,0,1-2.52,0,10.119,10.119,0,0,0-2.52,0,2.753,2.753,0,0,1-1.54,0c-0.7-.14-1.02.35-1.02,1.05a13.745,13.745,0,0,0,.04,2.1c-0.11.91,0.03,1.65,0,2.59-0.07,1.02,0,1.61,0,2.63C1097.05,5348.39,1096.98,5349.37,1097.01,5350.15Zm3.4-7.39a0.9,0.9,0,0,1,1.08-.74c0.53-.14,1.02.11,1.54,0,0.53-.03.98,0.04,1.58,0a5.912,5.912,0,0,1,1.58,0,7.87,7.87,0,0,1,1.54,0,0.976,0.976,0,0,1,1.08.63c0.11,0.7-1.29.7-1.96,0.6-0.84-.11-1.47.1-2.24-0.04-0.74-.03-1.61-0.03-2.42,0C1101.07,5343.25,1100.44,5343.35,1100.41,5342.76Zm2.03,3.18c0.7,0.07,1.57,0,2.24,0a15.224,15.224,0,0,0,2.24,0c0.7,0.14,1.86.28,1.89,0.74,0.04,0.56-1.01.7-1.96,0.59-0.66.14-1.72-.1-2.24,0a11.154,11.154,0,0,1-2.24,0c-0.67,0-1.89.07-1.93-.45C1100.41,5345.94,1101,5345.98,1102.44,5345.94Zm13.69,11.8a6.591,6.591,0,0,0-1.37-1.19,5.765,5.765,0,0,0-.87-0.42c-0.49-.07-0.91.35-1.16,0.21-0.42-.14-1.08.14-1.4,0a4.031,4.031,0,0,0-1.43,0,6.478,6.478,0,0,0-1.4,0,9.874,9.874,0,0,0-1.44,0c-0.38-.07-1.12.11-1.43,0a3.824,3.824,0,0,1-1.44,0,3.552,3.552,0,0,0-1.23,0c-0.84,0-1.29-.24-1.08-0.56a1.541,1.541,0,0,1,1.29-.7,14.677,14.677,0,0,0,1.68-.03c0.67,0.07,1.58-.07,2.39,0,0.66,0.14,1.36-.07,2.38,0,0.66,0.03,1.61-.04,2.38,0,0.49,0.03,1.01,0,1.64,0a5.359,5.359,0,0,0,1.65,0,0.92,0.92,0,0,0,1.01-1.12,1.643,1.643,0,0,0,.04-0.46,1.938,1.938,0,0,0-.07-0.63,0.911,0.911,0,0,0-.98-1.15,3.412,3.412,0,0,1-1.65,0,4.225,4.225,0,0,0-1.64.03,7.383,7.383,0,0,1-1.82,0,5.5,5.5,0,0,0-1.86,0,15.773,15.773,0,0,0-1.82,0,16.485,16.485,0,0,1-1.86,0,5.226,5.226,0,0,1-1.85,0,8.518,8.518,0,0,0-1.82,0c-0.6.14-1.12-.14-1.86,0a5.242,5.242,0,0,0-1.82,0,5.264,5.264,0,0,1-1.64-.03,8.271,8.271,0,0,0-1.65,0,1.1,1.1,0,0,0-.98,1.15c-0.03.39,0,.6,0,1.05a1,1,0,0,0,.95,1.16c0.45,0,.8-0.04,1.68,0,0.63,0.03,1.19-.07,1.64,0,0.81-.11.91,0.49,0.7,0.73a3.568,3.568,0,0,0-.77.88c-0.21.17-.63,0.66-0.87,0.84a2.891,2.891,0,0,1-.88.77,11.224,11.224,0,0,0-.94.73,4.9,4.9,0,0,1-.98.67,1.64,1.64,0,0,1-.98.63c-0.53.17-.74,0.56-1.05,0.63a8.174,8.174,0,0,1-1.23.63,7.874,7.874,0,0,0-1.29.66c-0.39.07-.39,0.35-0.42,0.7-0.18.35,0.42,0.67,0.56,1.09,0.31,0.31.56,1.15,1.15,0.98a4.332,4.332,0,0,0,1.51-.6c0.52-.21,1.15-0.73,1.36-0.8a4.45,4.45,0,0,1,1.51-.91,3.872,3.872,0,0,0,1.43-1.02c0.53-.24.84-0.8,1.4-1.05a6.8,6.8,0,0,1,1.19-.98,2.513,2.513,0,0,1,1.19-.24c0.77,0.03.7,0.52,0.18,1.15a1.245,1.245,0,0,1-.53.53,1.775,1.775,0,0,1-.84.8,2.825,2.825,0,0,1-.91.74c-0.38.24-.66,0.49-0.98,0.66a2.88,2.88,0,0,1-1.01.6,2.88,2.88,0,0,0-1.02.59,4.71,4.71,0,0,0-1.05.53,5.878,5.878,0,0,0-1.33.52l-1.33.6a0.535,0.535,0,0,0-.45.7,2.176,2.176,0,0,0,.49,1.01c0.24,0.46.52,1.19,1.12,1.05a2.032,2.032,0,0,0,1.29-.42,18.968,18.968,0,0,1,1.89-.87c0.25-.28.67-0.18,0.98-0.53,0.42-.1.49-0.42,0.88-0.49a3.18,3.18,0,0,0,1.19-.7c0.24-.14.77-0.56,0.94-0.66a1.777,1.777,0,0,1,.88-0.7,2.312,2.312,0,0,0,.84-0.74,8.585,8.585,0,0,1,.77-0.8,3.05,3.05,0,0,0,.73-0.81,2.867,2.867,0,0,0,.7-0.87c0.32-.18.32-0.7,0.67-0.91a1.385,1.385,0,0,0,.49-0.7,2.836,2.836,0,0,1,.91-0.21,0.734,0.734,0,0,1,.7,1.05,1.144,1.144,0,0,0-.42.63,1.022,1.022,0,0,0-.63.87,1.762,1.762,0,0,0-.7.84,2.891,2.891,0,0,1-.7.77,3.86,3.86,0,0,0-.77.74,3.113,3.113,0,0,0-.84.66,6.053,6.053,0,0,1-.88.63c-0.66.39-.98,0.49-1.57,0.88-0.46.14-.81,0.42-1.51,0.66a1.042,1.042,0,0,0-.56.67c-0.17.49,0.46,0.91,0.63,1.33a1.447,1.447,0,0,0,1.05.84,8.444,8.444,0,0,0,1.65-.6,2.792,2.792,0,0,0,1.08-.59,2.693,2.693,0,0,0,1.09-.67,11.949,11.949,0,0,1,1.01-.73,5.577,5.577,0,0,1,.98-0.77,16.22,16.22,0,0,0,1.83-1.75,6.518,6.518,0,0,1,.8-0.98,2.452,2.452,0,0,1,.74-1.05,3.317,3.317,0,0,1,.66-1.16l0.7-1.19a2.134,2.134,0,0,1,1.23-1.12c1.12,0.04.84,0.46,0.84,1.05,0,0.56-.25.91-0.25,1.4a7.862,7.862,0,0,1-.38,1.93c-0.32.8-.67,1.15-0.81,1.71a4.414,4.414,0,0,1-1.01.98,2.127,2.127,0,0,1-1.51.25,3.541,3.541,0,0,1-.87,0,1.047,1.047,0,0,0-.74,0,0.705,0.705,0,0,0-.59.91c0.1,0.52.31,1.08,0.38,1.61a1.091,1.091,0,0,0,.95,1.15h0.8a8.766,8.766,0,0,0,1.58-.1,3.834,3.834,0,0,0,2.2-.63,3.887,3.887,0,0,0,1.26-1.12,5.071,5.071,0,0,0,.95-1.61c0.35-.56.31-1.26,0.63-1.79a10.516,10.516,0,0,0,.38-1.64,12.584,12.584,0,0,1,.46-2.24c0.17-.67.14-1.02,0.42-1.93a3.524,3.524,0,0,0,.73-0.91c0-.07.04-0.1,0.04-0.17A0.757,0.757,0,0,0,1116.13,5357.74Zm-31.09,23.63c0.07,0.73.46,0.7,1.12,0.77,0.6-.07,1.37.1,1.72,0.07a0.77,0.77,0,0,0,.77-0.84,8.051,8.051,0,0,1,0-1.3,0.608,0.608,0,0,1,.52-0.74,11.215,11.215,0,0,1,2.66,0,8.718,8.718,0,0,1,2.7,0c0.77,0.14,1.82-.14,2.69,0h2.7c1.05-.07,1.75,0,2.69,0a17.875,17.875,0,0,1,2.74,0,8.134,8.134,0,0,0,2.66,0,21.915,21.915,0,0,0,2.69,0c0.35-.07.46,0.39,0.53,0.74a5.4,5.4,0,0,1,.03,1.26,0.985,0.985,0,0,0,1.09.91c0.38,0.07,1.01-.07,1.33,0a0.833,0.833,0,0,0,1.15-.77,7.007,7.007,0,0,1-.03-1.72v-1.33a5.842,5.842,0,0,1,.03-1.15,1.082,1.082,0,0,0-.94-0.95,9.9,9.9,0,0,1-1.54,0,6.815,6.815,0,0,1-1.51.04,5.468,5.468,0,0,0-1.5.03,7.481,7.481,0,0,1-1.51.04c-0.42.07-1.08-.11-1.54,0a8.25,8.25,0,0,1-1.58,0,8.981,8.981,0,0,1-1.64,0,1.518,1.518,0,0,1-1.19-.28c-0.25-.49-0.32-0.7.17-0.98,0.28,0.07.35-.28,0.35-0.67,0-.42-0.49-0.35-0.7-0.45-0.8-.14-1.75-0.04-2.59-0.14-0.1,0-.17-0.04-0.24-0.04-0.56,0-.6.42-0.7,0.91a2.274,2.274,0,0,1,.07,1.09c-0.14.45-.84,0.45-1.44,0.56-0.59.17-1.29-.14-1.64,0-0.46-.14-1.19.17-1.58,0a3.935,3.935,0,0,1-1.57,0,2.617,2.617,0,0,1-1.47-.04,2.48,2.48,0,0,1-1.51-.03,5.635,5.635,0,0,0-1.54-.04c-0.56-.1-0.87.11-1.54,0a1,1,0,0,0-.91.95,4.391,4.391,0,0,0,0,1.15c-0.1.56,0.07,1.05,0,1.33A14.454,14.454,0,0,0,1085.04,5381.37Zm31.23,21.8a7.66,7.66,0,0,0-.53-0.66c-0.38-.25-1.19-0.25-1.61-0.46a3.7,3.7,0,0,0-1.61-.42,3.668,3.668,0,0,1-1.12-.35c-0.45-.28-0.94-0.28-1.12-0.42-0.28-.21-0.66-0.14-1.15-0.42-0.49-.21-0.63-0.28-1.09-0.49a1.709,1.709,0,0,1-1.08-.49c-0.25-.28-0.7-0.24-1.09-0.56a2.617,2.617,0,0,1-.81-0.49c-0.49-.31-0.21-0.66.25-0.7,0.49-.03,1.26.07,2.28,0.04,0.42,0,.98.07,1.43,0.07a4.417,4.417,0,0,0,1.51,0,10.8,10.8,0,0,0,1.54.03c0.42,0.07.87-.07,1.54,0.04l1.54-.04c0.8,0.07.8-.49,0.94-1.12a6.563,6.563,0,0,1,0-.77,0.953,0.953,0,0,0-.94-1.12c-0.49-.1-1.16.11-1.54-0.03a11.91,11.91,0,0,1-1.54.03,3.824,3.824,0,0,1-1.54.04,7.511,7.511,0,0,1-1.51.03,4.645,4.645,0,0,0-1.82,0,7.916,7.916,0,0,1-1.89,0c-0.74-.1-1.23.14-1.89,0a2.326,2.326,0,0,1-1.4-.28,1.278,1.278,0,0,1-.21-0.63,1.011,1.011,0,0,1,.38-0.94,0.5,0.5,0,0,0,.25-0.49c0.14-.28-0.32-0.46-0.63-0.46a5.982,5.982,0,0,1-1.75-.17c-0.18-.18.24-0.35,0.49-0.49a5.625,5.625,0,0,1,2.69.28c0.84,0.24,1.37.35,2.11,0.52,0.8,0.11,1.29.39,2.1,0.56,0.63,0.11,1.22.46,2.06,0.67,0.91,0.21,1.58.73,2.17,0.66a1.257,1.257,0,0,0,.98-0.59,2.5,2.5,0,0,1,.7-0.98,0.743,0.743,0,0,0,.25-0.6,0.813,0.813,0,0,0-.39-0.7,1.908,1.908,0,0,0-1.19-.45,14.442,14.442,0,0,1-1.85-.53c-0.56-.07-1.51-0.49-1.89-0.49a12.425,12.425,0,0,1-1.37-.31,3.132,3.132,0,0,1-1.05-.25c-0.56-.07-0.28-0.77.39-1.08a1.551,1.551,0,0,1,.56-0.49c0.17-.11.63-0.67,0.87-0.81a2.149,2.149,0,0,0,.88-0.91c0.35-.03.91,0.07,1.43,0.04a3.58,3.58,0,0,0,1.51.03,2.738,2.738,0,0,0,1.54.04,6.338,6.338,0,0,0,1.57,0,0.967,0.967,0,0,0,.95-1.16,0.884,0.884,0,0,0,0-.73,0.911,0.911,0,0,0-.95-1.16c-0.45-.07-0.98.07-1.57,0-0.67.11-.95-0.14-1.54,0a4.486,4.486,0,0,1-1.51.04,11.047,11.047,0,0,1-1.5.03c-0.81.07-1.75-.14-2.7,0-1.02.07-1.82-.03-2.7,0-0.45.14-1.26-.1-1.57,0a7.353,7.353,0,0,1-2.52,0c-0.84-.07-0.7-0.56-0.42-0.8l0.28-.25a1.69,1.69,0,0,0,1.12-.59,0.4,0.4,0,0,0-.32-0.53,6.859,6.859,0,0,0-1.12-.6c-0.45-.31-0.8-0.31-1.12-0.52a1.445,1.445,0,0,0-.87-0.21,2.408,2.408,0,0,0-.6.59c-0.24.6-.91,0.98-1.05,1.51a12.817,12.817,0,0,1-.91,1.4,22.261,22.261,0,0,1-2.73,0,10.734,10.734,0,0,1-1.5-.03,4.607,4.607,0,0,0-1.54-.04,5.455,5.455,0,0,1-1.51,0c-0.66.14-.98-0.14-1.57,0a1.119,1.119,0,0,0-.95,1.16c0.04,0.17-.03.42,0,0.73a1,1,0,0,0,.95,1.16c0.63,0,1.05-.04,1.57,0a12.591,12.591,0,0,0,1.54-.04c0.21,0.04,1.12-.03,1.44-0.03,0.84,0,1.4.28,0.91,0.77a2.2,2.2,0,0,1-.74.66,2.181,2.181,0,0,0-.7,1.02,0.654,0.654,0,0,0,.46.8,3.67,3.67,0,0,1,.73.6,1.735,1.735,0,0,0,.81.38,2.347,2.347,0,0,0,1.26-.63c0.24,0.07.8-.1,0.94,0,0.6,0.18,1.02.6,0.32,0.77a8.114,8.114,0,0,0-.98.18,14.016,14.016,0,0,0-1.68.28,12.351,12.351,0,0,1-1.68.21,13.163,13.163,0,0,0-2.03.14,4.638,4.638,0,0,0-2.03.17,0.67,0.67,0,0,0-.56.7,5.622,5.622,0,0,0,.38,1.68,0.767,0.767,0,0,0,.91.67,1.849,1.849,0,0,0,.98-0.04c0.7-.21,1.37-0.03,1.93-0.21a17.781,17.781,0,0,0,1.96-.28c0.56-.17,1.19-0.1,1.92-0.31a13.052,13.052,0,0,0,1.93-.35,11.335,11.335,0,0,0,1.64-.42,3.034,3.034,0,0,1,1.33-.28,0.732,0.732,0,0,1,.56.59,1.425,1.425,0,0,1-.31,1.47,1.623,1.623,0,0,1-1.47.35c-0.7.18-1.23-.14-1.96,0a7.715,7.715,0,0,1-1.86,0c-0.8-.03-1.33.07-1.85,0l-1.51-.03c-0.38-.07-0.91.03-1.54-0.04a11.715,11.715,0,0,0-1.54-.03c-0.35-.07-0.98.14-1.54,0.03-0.84.04-.91,0.49-0.87,1.12-0.07.21,0.1,0.7,0.03,1.12a0.685,0.685,0,0,0,.84.81c0.56-.14,1.16.1,1.54,0,0.53-.14,1.09.07,1.54-0.04a3.661,3.661,0,0,1,1.51-.03,3.8,3.8,0,0,1,1.54,0,2.65,2.65,0,0,0,1.05,0,10.711,10.711,0,0,1,2.17.03c0.45,0.07.56,0.35,0.31,0.67a1.152,1.152,0,0,1-.77.49,2.437,2.437,0,0,1-1.08.59,11.007,11.007,0,0,0-1.09.6,8.015,8.015,0,0,1-1.12.52,2.2,2.2,0,0,1-1.15.49c-0.32.25-.95,0.28-1.16,0.46a5.334,5.334,0,0,1-1.15.42,2.7,2.7,0,0,1-1.44.45c-0.66.14-1.15,0.46-1.47,0.49a0.621,0.621,0,0,0-.56.7v0.07a3,3,0,0,0,.56,1.37,0.886,0.886,0,0,0,.98.91c0.32-.35.63-0.11,1.3-0.28a10.1,10.1,0,0,0,1.82-.7c0.77-.39,1.15-0.39,1.75-0.74a9.962,9.962,0,0,1,1.22-.56,1.5,1.5,0,0,0,.98-0.45,2.491,2.491,0,0,0,.98-0.49,3.242,3.242,0,0,0,.95-0.53,3.846,3.846,0,0,1,.91-0.56,9.126,9.126,0,0,0,.91-0.59,2.491,2.491,0,0,1,.91-0.6,1.893,1.893,0,0,1,.49-0.38c0.38-.39,1.22-0.18,1.12.42a4.777,4.777,0,0,1-.07.94,14.855,14.855,0,0,0,.07,2.28,5.406,5.406,0,0,0-.11,1.96c-0.14.7,0.35,0.98,1.05,0.98h0.11a0.8,0.8,0,0,1,.35-0.07c0.28,0,.59.07,0.84,0.07h0.1c0.77-.04,1.3-0.35,1.16-0.95,0.1-.73-0.11-1.29,0-2.17a12.352,12.352,0,0,0,.03-1.96,10.958,10.958,0,0,1,.11-1.26c-0.07-.42.35-0.8,1.15-0.17a3.964,3.964,0,0,0,1.05.84c0.49,0.49.98,0.52,1.34,0.87a4.064,4.064,0,0,1,1.36.77,8.3,8.3,0,0,0,1.58.74,1.874,1.874,0,0,1,1.08.49,3,3,0,0,0,1.23.49,5.36,5.36,0,0,1,1.19.45,2.912,2.912,0,0,0,1.15.39c0.67,0.1,1.44.49,1.65,0.31a1.15,1.15,0,0,0,.91-0.8,4.092,4.092,0,0,0,.73-1.51A1.063,1.063,0,0,0,1116.27,5403.17Zm-18.49-15.47c-0.66,0-1.15-.24-1.57-0.21a1.976,1.976,0,0,1-1.26-.35c-0.39-.24-0.07-0.45.14-0.7a0.85,0.85,0,0,1,.87-0.38,9.5,9.5,0,0,0,1.65-.07,11.544,11.544,0,0,0,2.2,0,1.681,1.681,0,0,0,1.09,0,5.274,5.274,0,0,0,1.64,0c0.42-.04.77,0.35,0.53,0.63a0.828,0.828,0,0,1-.56.56,2,2,0,0,0-.81.52c-0.35.18-.66,0.35-0.94,0.46a5.015,5.015,0,0,1-1.51-.25A2.487,2.487,0,0,1,1097.78,5387.7Zm16.56,50.82c-0.03-.35-0.03-0.59-0.03-0.87v-0.42a1.988,1.988,0,0,0-.04-0.49,4.5,4.5,0,0,1,0-1.51,10.018,10.018,0,0,1-.03-1.5,3.312,3.312,0,0,1,0-1.47,6.623,6.623,0,0,0,.07-1.19,5.608,5.608,0,0,0-.07-1.12c0.03-.46.07-0.91,0.07-1.4,0-.28-0.04-0.63-0.07-0.95a13.063,13.063,0,0,1,0-2.34,5.026,5.026,0,0,0,.07-0.7c0-.49-0.07-1.05-0.07-1.65a22.1,22.1,0,0,1,0-2.31c0-.59.03-1.12,0.03-1.61a5.942,5.942,0,0,0-.03-0.73,6.408,6.408,0,0,0,0-1.16,1.179,1.179,0,0,0-.91-1.05c-0.67.03-1.02,0-1.54,0a10.693,10.693,0,0,0-1.54.03,10.882,10.882,0,0,0-1.51.04,7.465,7.465,0,0,1-1.5,0c-0.77.14-1.61-.07-2.53,0a2.036,2.036,0,0,1-1.75-.32c-0.49-.49-0.77-0.8-0.63-1.19a9.539,9.539,0,0,1,.11-1.4,2.175,2.175,0,0,1,.03-0.94c0.14-.35.74-0.28,0.81-1.02a0.774,0.774,0,0,0-.77-0.63,7.886,7.886,0,0,0-1.23-.17c-0.59-.11-0.84-0.04-1.4-0.11h-0.14c-0.84,0-.98.84-0.87,1.65,0.07,0.59-.14,1.36-0.11,2.38a1.488,1.488,0,0,1-.38,1.29,1.919,1.919,0,0,1-.91.46,5.349,5.349,0,0,1-1.65,0,10.2,10.2,0,0,1-1.47,0c-0.38-.04-1.05.07-1.43,0a13.126,13.126,0,0,1-1.54,0c-0.53-.04-1.05,0-1.51-0.04a5.258,5.258,0,0,1-1.5-.03,4.321,4.321,0,0,0-1.54,0,0.958,0.958,0,0,0-.98.87c0,0.07.03,0.11,0.03,0.18a2.687,2.687,0,0,1-.07.91,0.579,0.579,0,0,0,.07.21c0,0.67.11,1.65,0.04,2.38a12.915,12.915,0,0,0-.07,1.3,8.009,8.009,0,0,0,.07,1.01,2.4,2.4,0,0,0-.07.49c0,0.39.1,0.7,0.07,1.16a4.509,4.509,0,0,1,0,1.68,7.112,7.112,0,0,1-.04,1.22c0,0.14.04,0.28,0.04,0.42a15.686,15.686,0,0,1,0,1.68c0,0.35-.07.77-0.07,1.16a2.322,2.322,0,0,0,.07.52c-0.04.67,0.03,1.02,0,1.65a6.744,6.744,0,0,1,0,1.68c-0.04.45,0.07,1.08,0,1.64a5.045,5.045,0,0,1,0,1.4c-0.04.42-.04,0.91-0.04,1.44a7.637,7.637,0,0,1-.03,1.01v0.07a1.5,1.5,0,0,0,.03.35v0.49c0,0.39,0,.7-0.03,1.16v0.14c0,0.84.59,0.8,1.22,0.87,0.21,0,.56.07,0.91,0.07a0.811,0.811,0,0,0,.42-0.07c0.81-.03,1.33-0.28,1.19-1.22,0.04-.74-0.07-1.09,0-1.82,0.07-.77-0.17-1.68-0.03-2.66a21.459,21.459,0,0,1,0-2.66,4.315,4.315,0,0,1,0-1.79c-0.11-.7.1-1.15,0-1.75-0.11-.45.1-1.05,0-1.82,0.14-.59-0.11-1.01,0-1.78a4.262,4.262,0,0,1,0-1.79,6.992,6.992,0,0,1,0-1.78,4.3,4.3,0,0,1,0-1.79,10.835,10.835,0,0,1-.11-1.22,1.526,1.526,0,0,1,1.51-1.58,11.063,11.063,0,0,1,1.54.04,11.175,11.175,0,0,1,1.92,0c0.56,0.03,1.3-.07,1.82,0a1.887,1.887,0,0,1,1.26.52,1.562,1.562,0,0,1,.14,1.47,15.275,15.275,0,0,0-.59,1.65,9.2,9.2,0,0,1-.7,1.5,14.175,14.175,0,0,1-.88,1.47,12.644,12.644,0,0,0-.98,1.3c-0.31.31-.87,0.87-1.15,1.22-0.49.56-1.02,0.74-1.33,1.09a6.144,6.144,0,0,1-1.33.94,1.107,1.107,0,0,0-.74.98,2.058,2.058,0,0,0,.81,1.58c0.31,0.38.35,0.87,1.01,0.84,0.11,0.07.18,0.03,0.49-.14,0.32-.32.88-0.42,1.37-0.88a4.916,4.916,0,0,1,1.26-1.01,2.867,2.867,0,0,0,.77-0.7c0.17-.25.49-0.46,0.77-0.84a7.3,7.3,0,0,1,.73-0.81,4.688,4.688,0,0,0,.74-1.01,9.714,9.714,0,0,1,.91-1.16c0.35-.28.35-0.49,0.8-0.91a1.186,1.186,0,0,1,1.33-.21,3.862,3.862,0,0,1,.84.46,4.173,4.173,0,0,0,.91.8,2.288,2.288,0,0,0,.91.81,3.926,3.926,0,0,0,.84.84c0.18,0.49.7,0.45,0.85,0.91,0.1,0.17.63,0.73,0.77,0.91,0.24,0.24.59,0.73,0.77,0.94a1.547,1.547,0,0,0,1.15.91,1.174,1.174,0,0,0,.81-0.42c0.42-.28.49-0.7,0.98-1.12a0.964,0.964,0,0,0,.38-0.84,5.45,5.45,0,0,0-.98-1.54,8.937,8.937,0,0,0-1.22-1.19,1.5,1.5,0,0,0-.81-0.77,2.586,2.586,0,0,1-.8-0.63,5.494,5.494,0,0,1-.84-0.77,4.23,4.23,0,0,1-.85-0.63,3.479,3.479,0,0,1-.87-0.73,2.23,2.23,0,0,1-.88-0.74,4.84,4.84,0,0,1-.94-0.66,2.068,2.068,0,0,1-.63-1.09,3.067,3.067,0,0,1,.31-1.36,1.818,1.818,0,0,1,1.72-1.02,22.247,22.247,0,0,0,2.31,0,7.143,7.143,0,0,0,1.96,0,6.04,6.04,0,0,0,1.58-.03,1.6,1.6,0,0,1,1.33,1.57,8.2,8.2,0,0,0,.07,1.65c0.1,0.77-.07,1.43,0,2.13,0.03,0.74-.04,1.37,0,2.17a7.171,7.171,0,0,0,0,2.17,10.93,10.93,0,0,0,0,2.14,6.554,6.554,0,0,1,0,2.17,4.154,4.154,0,0,0,0,1.89,14.544,14.544,0,0,1-.11,2.2c0.11,1.12-.07,1.51-1.19,1.54a4.9,4.9,0,0,1-1.75,0,0.628,0.628,0,0,0-.8.74c-0.18.24,0.28,1.71,0.31,2.24-0.03.73,0.91,0.8,1.47,0.87a5.9,5.9,0,0,0,2.38-.07,2.62,2.62,0,0,0,1.19-.28,1.36,1.36,0,0,0,1.02-.49,2.488,2.488,0,0,0,1.01-1.5c0.04-.56.21-1.3,0.21-1.93v-0.14Zm-18.94,14.8a8.182,8.182,0,0,1,.6.99,6.1,6.1,0,0,0,.7,1.4,4.19,4.19,0,0,0,.56,1.26c0.07,0.45.35,0.59,0.49,1.22,0.14,0.56.31,0.88,0.45,1.33a0.871,0.871,0,0,0,.77.74,5.461,5.461,0,0,0,.98-0.21,13.258,13.258,0,0,1,1.44-.67,1.1,1.1,0,0,0,.84-1.26,3.038,3.038,0,0,0-.39-1.19c-0.24-.28-0.07-0.49-0.45-1.05a5.871,5.871,0,0,1-.56-1.22l-0.25-.46c-0.14-.39-0.45-0.77-0.7-1.33a8.918,8.918,0,0,1-.73-1.12,1.207,1.207,0,0,0-.95-0.95,1.318,1.318,0,0,0-.45-0.1,1.457,1.457,0,0,0-.74.35,7.925,7.925,0,0,1-1.12.52,1.168,1.168,0,0,0-.73.98A2.322,2.322,0,0,0,1095.4,5453.32Zm19.01-.03a11.56,11.56,0,0,0-1.54-.63,6.229,6.229,0,0,0-1.12-.49,5.184,5.184,0,0,0-1.05-.28c-0.66,0-.84.94-0.84,1.43-0.17.49-.17,0.95-0.28,1.27a4.754,4.754,0,0,0-.31,1.19,4.573,4.573,0,0,1-.35,1.19,5.584,5.584,0,0,1-.42,1.15,4.429,4.429,0,0,1-.46,1.16,2.108,2.108,0,0,1-.49,1.12c-0.1.42-.49,0.87-0.52,1.15-0.14.77-.49,0.63-0.56,1.09a4.827,4.827,0,0,1-.81,1.4c-0.28.31-.7,1.05-0.91,1.33-0.39.52-.7,0.77-0.98,1.22a6.442,6.442,0,0,1-1.05,1.19,3.864,3.864,0,0,1-1.16,1.12c-0.45.46-.87,0.7-1.19,1.09a10.466,10.466,0,0,1-1.29.98c-0.39.24-.91,0.63-1.3,0.87a13.8,13.8,0,0,1-1.61.95,11.465,11.465,0,0,0-1.61.8c-0.73.35-.84,0.35-1.36,0.6-0.6.28-.88,0.35-1.51,0.59a1.018,1.018,0,0,0-.94,1.02,0.941,0.941,0,0,0,.38.84,7.2,7.2,0,0,1,.56.84,8.357,8.357,0,0,1,.49.8,0.865,0.865,0,0,0,.88.6h0.14a2.738,2.738,0,0,0,1.08-.28,2.879,2.879,0,0,0,1.05-.53,4.07,4.07,0,0,0,1.3-.63c0.28-.28.66-0.24,0.91-0.49,0.35-.52.7-0.14,1.08-0.63a3.5,3.5,0,0,1,1.09-.66c0.38-.32.84-0.42,1.08-0.7a10.176,10.176,0,0,0,1.05-.74,2.6,2.6,0,0,1,1.02-.73,4.253,4.253,0,0,1,.98-0.81,7.224,7.224,0,0,0,.94-0.84,2.232,2.232,0,0,0,.95-0.91c0.42-.49.95-0.94,1.23-1.33a14.637,14.637,0,0,1,1.12-1.43,9.215,9.215,0,0,0,1.05-1.54c0.38-.42.49-0.98,0.94-1.58a10.573,10.573,0,0,1,.84-1.64c0.25-.7.56-1.05,0.74-1.68a9.291,9.291,0,0,1,.7-1.72,13.39,13.39,0,0,1,.59-1.71c0.11-.56.46-1.12,0.53-1.72a7.146,7.146,0,0,0,.59-1.47c0.18-.52.88-0.59,0.91-1.16v-0.1C1114.97,5453.39,1114.76,5453.5,1114.41,5453.29Zm-21.42,7.81a2.362,2.362,0,0,0-.39-1.3,2.007,2.007,0,0,0-.52-1.01c-0.49-.49-0.14-0.63-0.53-1.02a2.73,2.73,0,0,0-.73-1.01c-0.35-.25-0.18-0.63-0.6-0.98s-0.77-1.02-1.05-1.16a1.238,1.238,0,0,0-1.99-.52,4.311,4.311,0,0,0-1.26.8,1.341,1.341,0,0,0-.67.98v0.07a2,2,0,0,0,.56,1.02c0.11,0.38.39,0.31,0.42,0.56a11.121,11.121,0,0,0,.74,1.08,10.849,10.849,0,0,1,.59.95c0.14,0.42.39,0.52,0.46,0.8a7.319,7.319,0,0,1,.42,1.02,3.662,3.662,0,0,1,.63,1.19,0.868,0.868,0,0,0,.84.63,1.294,1.294,0,0,0,.87-0.35c0.53-.32.77-0.46,1.44-0.84A1.183,1.183,0,0,0,1092.99,5461.1Zm21.63,27.85a6.136,6.136,0,0,0-1.05-1.05,3.118,3.118,0,0,0-1.43-1.12h-0.11c-0.49,0-.35.25-1.05,0.35a9.69,9.69,0,0,1-1.75.04c-0.59.14-1.15-.14-1.85,0.03a10.97,10.97,0,0,1-1.96.04,16.179,16.179,0,0,0-1.86.03,15.784,15.784,0,0,1-1.82,0c-0.6.18-1.3-.07-1.79,0.07-0.52.07-1.19-.14-1.92-0.03a8.16,8.16,0,0,1-1.86.03,3.533,3.533,0,0,1-1.71,0,11.062,11.062,0,0,1-2.45,0,9.387,9.387,0,0,1-2.42-.03,22.9,22.9,0,0,1-2.62,0,0.989,0.989,0,0,0-.84,1.19v0.21c0,0.52.1,0.94,0.1,1.36,0,0.88.39,0.99,1.23,1.06,0.38,0,.7-0.07,1.15-0.07s0.81-.07,1.3-0.04a9.354,9.354,0,0,0,1.71-.07,12.519,12.519,0,0,0,2.28-.03,9.641,9.641,0,0,0,2.27-.04,12.321,12.321,0,0,0,1.58-.03,3.231,3.231,0,0,0,1.61,0,4.818,4.818,0,0,0,1.61-.04,4.638,4.638,0,0,0,1.57-.03c0.53,0.1,1.19-.07,1.61,0a7.85,7.85,0,0,1,1.62-.04c0.42,0.07.94-.07,1.57-0.03a1.116,1.116,0,0,1,1.12,1.61,11.765,11.765,0,0,1-.91,1.15,5.655,5.655,0,0,1-1.15,1.26,6.4,6.4,0,0,1-1.2,1.23c-0.59.49-.77,0.73-1.33,1.12a1.584,1.584,0,0,0-.8,1.01,0.863,0.863,0,0,0,.31.95,4.634,4.634,0,0,1,.63.59c0.21,0.21.32,0.46,0.63,0.74a1.64,1.64,0,0,0,.88.49,1.053,1.053,0,0,0,.81-0.39,4.641,4.641,0,0,0,.84-0.77,3.524,3.524,0,0,0,.8-0.8,5.961,5.961,0,0,1,.77-0.81,5.092,5.092,0,0,1,.74-0.84,5.776,5.776,0,0,1,.7-0.84,6.744,6.744,0,0,0,.66-0.91,3.447,3.447,0,0,1,.67-0.87c0.21-.14.31-0.63,0.59-0.91a4.484,4.484,0,0,0,.77-1.37c0.39-.49.42-0.77,0.81-1.22,0.28-.25.24-0.46,0.52-0.67a1.091,1.091,0,0,0,.77-0.63c0-.04.04-0.11,0.04-0.14A1.344,1.344,0,0,0,1114.62,5488.95Zm-12.99,4.59a5.649,5.649,0,0,0-1.43-.1,11.06,11.06,0,0,1-1.47-.07,0.938,0.938,0,0,0-.91,1.15c0.03,0.81-.11,1.33-0.04,2.17,0.07,0.67-.17.95-0.1,1.51a2.6,2.6,0,0,1-.21,1.05c-0.11.45-.14,0.77-0.25,1.26a2.369,2.369,0,0,1-.42,1.26,2.826,2.826,0,0,1-.35,1.15,7.228,7.228,0,0,1-.45,1.05,9.077,9.077,0,0,0-.67,1.19,3.653,3.653,0,0,1-.8,1.09,6.511,6.511,0,0,1-.84.94c-0.42.32-.67,0.6-1.05,0.91a9.412,9.412,0,0,1-1.16.84c-0.45.21-.87,0.63-1.15,0.74a8.991,8.991,0,0,1-1.23.63c-0.52.14-.84,0.49-1.29,0.59a0.669,0.669,0,0,0-.63.88,0.986,0.986,0,0,0,.42.73c0.24,0.39.38,0.56,0.56,0.88,0.45,0.52.42,0.94,1.19,1.01h0.07a5.23,5.23,0,0,0,1.43-.59,10.1,10.1,0,0,0,1.4-.84c0.56-.35,1.02-0.6,1.26-0.77a7,7,0,0,0,1.12-.77c0.42-.14.53-0.7,1.02-0.81a6.462,6.462,0,0,0,.94-0.84c0.18-.21.6-0.56,0.81-0.84,0.14-.28.45-0.38,0.73-0.87a1.829,1.829,0,0,0,.63-0.91,4.289,4.289,0,0,0,.56-0.95,5.589,5.589,0,0,1,.49-0.98,2.358,2.358,0,0,0,.39-1.05,8.131,8.131,0,0,0,.63-2.24,8.265,8.265,0,0,0,.24-1.19,2.044,2.044,0,0,0,.18-1.01c-0.11-.56.21-0.74,0.14-1.37-0.14-.66.24-0.77,0.1-1.4a7.428,7.428,0,0,1,.14-1.43c-0.03-.49.67-0.74,0.7-1.26A0.688,0.688,0,0,0,1101.63,5493.54Zm0.98,28.7a0.64,0.64,0,0,0-.59-0.35,4.942,4.942,0,0,0-1.51-.14c-0.49-.04-0.77-0.07-1.12-0.07h-0.42a0.93,0.93,0,0,0-.94,1.01v0.14a9.474,9.474,0,0,1,.07,1.33v0.39c0.03,0.45-.07.91-0.07,1.29a1.1,1.1,0,0,0,.07.49,8.061,8.061,0,0,1,0,1.3,2.175,2.175,0,0,0,.03.46,15.048,15.048,0,0,1,0,1.78c-0.03.6,0.04,0.95,0,1.51-0.07.56,0.11,1.05,0,1.54-0.03.63,0.07,0.98,0,1.54a10.048,10.048,0,0,1-.07,1.12,0.667,0.667,0,0,0,.07.38,5.657,5.657,0,0,1,0,1.54,11.246,11.246,0,0,1,0,1.54,3.383,3.383,0,0,0-.1.81,2.622,2.622,0,0,0,.1.73,6.368,6.368,0,0,0-.07.7,5.551,5.551,0,0,0,.07.81,4.114,4.114,0,0,1,0,1.75l-0.03,1.78v0.21a5.846,5.846,0,0,1-.04,1.58,1.981,1.981,0,0,0-.03.42c0,0.45.1,0.87,0.07,1.4a1.061,1.061,0,0,0,1.15,1.15,6.479,6.479,0,0,0,.84.07,7.179,7.179,0,0,0,.81-0.07c0.8-.1,1.22-0.24,1.15-1.15-0.03-.7.04-1.3,0-1.82a9.94,9.94,0,0,1-.03-1.79c0.07-.56-0.11-1.05,0-1.78a4.919,4.919,0,0,0-.04-1.75,3.65,3.65,0,0,0,0-1.51c0.14-.59-0.17-0.94,0-1.54a3.324,3.324,0,0,1,0-1.54,5.657,5.657,0,0,0,0-1.54,3.783,3.783,0,0,1,0-1.5c-0.03-.6.04-0.91,0-1.54a13.126,13.126,0,0,1,0-1.54,10.784,10.784,0,0,1,0-1.51,7.867,7.867,0,0,0,0-1.61,6.182,6.182,0,0,1,0-1.61,3.49,3.49,0,0,1,0-1.58,9.777,9.777,0,0,1,0-1.33,1.229,1.229,0,0,1,.46-0.91,0.54,0.54,0,0,0,.21-0.38A0.4,0.4,0,0,0,1102.61,5522.24Z" transform="translate(-1078 -5289)"/>
</svg>
