<svg xmlns="http://www.w3.org/2000/svg" width="164.12" height="22.56" viewBox="0 0 164.12 22.56">
  <defs>
    <style>
      .cls-1 {
        fill: #5f9d7b;
        fill-rule: evenodd;
      }
    </style>
  </defs>
  <path id="人と仕事を知る" class="cls-1" d="M1068.91,4507.68a3.765,3.765,0,0,0-.84-0.48,3.7,3.7,0,0,1-.84-0.55,1.593,1.593,0,0,1-.79-0.55,5.361,5.361,0,0,1-.77-0.63,6.025,6.025,0,0,1-.65-0.6,1.668,1.668,0,0,1-.62-0.62,4.747,4.747,0,0,0-.58-0.65,1.807,1.807,0,0,1-.52-0.7,7.425,7.425,0,0,1-.51-0.72,4.462,4.462,0,0,0-.48-0.72,1.251,1.251,0,0,1-.41-0.76,1.818,1.818,0,0,1-.4-0.8c-0.2-.26-0.17-0.57-0.36-0.79a2.063,2.063,0,0,1-.34-0.81,3.2,3.2,0,0,1-.29-0.84,3.278,3.278,0,0,1-.29-0.87,3.571,3.571,0,0,1-.24-0.84,4.164,4.164,0,0,0-.19-0.81,2.2,2.2,0,0,1-.19-0.87,2.763,2.763,0,0,1-.14-0.77c-0.05-.16.02-0.4-0.03-0.57a2.694,2.694,0,0,0,.05-0.89,6.677,6.677,0,0,1,.1-0.84,0.537,0.537,0,0,1,.45-0.48,0.344,0.344,0,0,0,.27-0.36,0.745,0.745,0,0,0-.65-0.43c-0.24-.03-0.7-0.05-0.91-0.1a3.14,3.14,0,0,1-1.01-.09,0.583,0.583,0,0,0-.65.64,4.61,4.61,0,0,0-.02,1.04,3.728,3.728,0,0,0-.03,1.24c-0.05.36-.02,0.92-0.07,1.23,0.05,0.48-.19.84-0.1,1.22-0.14.41-.07,0.94-0.16,1.23a1.932,1.932,0,0,0-.17.93,1.843,1.843,0,0,0-.22.91,3.533,3.533,0,0,1-.26.92,1.673,1.673,0,0,1-.29.88,3.889,3.889,0,0,0-.34.84c-0.12.2-.31,0.7-0.38,0.84a1.369,1.369,0,0,0-.43.8,2.379,2.379,0,0,1-.46.79,1.94,1.94,0,0,1-.5.74,4.457,4.457,0,0,0-.55.72,1.288,1.288,0,0,1-.6.67,2.118,2.118,0,0,1-.65.65c-0.29.24-.46,0.48-0.68,0.63a3.561,3.561,0,0,1-.74.55,4.292,4.292,0,0,0-.77.55c-0.33.22-.6,0.34-0.81,0.48-0.08.1-.36,0.12-0.68,0.34a0.622,0.622,0,0,0-.45.55,3.3,3.3,0,0,0,.57,1.01,1.026,1.026,0,0,0,.72.79c0.05,0,.08-0.02.12-0.02h0.05a2.117,2.117,0,0,0,.87-0.36,1.893,1.893,0,0,0,.6-0.36,5.062,5.062,0,0,1,.64-0.44,3.727,3.727,0,0,0,.65-0.48c0.12-.09.41-0.28,0.58-0.43a1.639,1.639,0,0,0,.79-0.65,1.252,1.252,0,0,1,.51-0.48,4.59,4.59,0,0,1,.48-0.5,1.214,1.214,0,0,0,.48-0.53,3.309,3.309,0,0,0,.45-0.55,6.658,6.658,0,0,0,.82-1.11c0.05-.19.24-0.28,0.38-0.6a0.955,0.955,0,0,0,.34-0.6c0.12-.33.53-0.84,0.65-1.24,0.09-.41.4-0.94,0.52-1.3a0.559,0.559,0,0,1,.17-0.41,1.009,1.009,0,0,1,.53-0.74c0.31-.1.6,0.14,0.65,0.62a3.087,3.087,0,0,0,.17.39,4.534,4.534,0,0,1,.52,1.22c0.32,0.36.29,0.84,0.65,1.18a7.867,7.867,0,0,0,.53.86,8.734,8.734,0,0,0,.62.84,4.569,4.569,0,0,0,.65.79,2.007,2.007,0,0,0,.7.77c0.29,0.36.55,0.41,0.74,0.72a7.885,7.885,0,0,0,.79.67,2.137,2.137,0,0,0,.82.63,1.339,1.339,0,0,0,.86.57,3.6,3.6,0,0,0,.94.65c0.5,0.22.65,0.58,1.06,0.48a1.008,1.008,0,0,0,.84-0.67,2.868,2.868,0,0,0,.74-1.08v-0.07A1.121,1.121,0,0,0,1068.91,4507.68Zm21.72,0.63a2.372,2.372,0,0,0,.03-0.46v-0.29a0.485,0.485,0,0,0-.48-0.5,3.184,3.184,0,0,0-.75.07,6.724,6.724,0,0,1-1.08.19l-0.72.15a4.389,4.389,0,0,1-1.27.12c-0.53-.12-0.91.24-1.27,0.12-0.48-.15-0.87.16-1.27,0.04-0.46-.14-0.89.15-1.3,0.03a16.542,16.542,0,0,0-1.82-.05,4.134,4.134,0,0,1-.89-0.1,2.1,2.1,0,0,1-.87-0.21,2.557,2.557,0,0,1-1.17-.6,1.36,1.36,0,0,1-.53-1.18,2.8,2.8,0,0,1,.31-1.22,8.347,8.347,0,0,1,.77-1.04,9.363,9.363,0,0,1,1.01-.88,3.581,3.581,0,0,1,1.05-.72c0.41-.22.63-0.44,1.13-0.75a7.539,7.539,0,0,0,1.15-.67c0.36-.19.75-0.48,1.2-0.67,0.32-.19.7-0.39,1.2-0.63,0.27-.19.72-0.4,1.25-0.72l0.72-.38a8.07,8.07,0,0,1,1.32-.6,2.084,2.084,0,0,1,.79-0.34,4.981,4.981,0,0,1,.6-0.14,0.465,0.465,0,0,0,.53-0.41,1.091,1.091,0,0,0-.45-0.79l-0.27-.36a3.626,3.626,0,0,1-.53-0.72,0.774,0.774,0,0,0-1.12-.14,3.28,3.28,0,0,1-.87.5,10.028,10.028,0,0,1-.96.58,2.063,2.063,0,0,1-.74.45,3.787,3.787,0,0,0-.79.41c-0.41.12-.36,0.31-0.77,0.43a5.4,5.4,0,0,1-.6.39,5.234,5.234,0,0,1-.67.33,1.165,1.165,0,0,1-1.2-.53,4.05,4.05,0,0,1-.29-1.2,11.566,11.566,0,0,1-.15-1.22,2.043,2.043,0,0,1-.07-0.72c0.05-.31-0.09-0.46-0.05-0.74,0.05-.32-0.09-0.34-0.04-0.6a2.73,2.73,0,0,1-.03-0.65,3.643,3.643,0,0,1,.12-1.06,0.633,0.633,0,0,0,.22-0.57,0.341,0.341,0,0,0-.41-0.27c-0.29-.02-0.48-0.02-0.72-0.02h-0.34a2.918,2.918,0,0,1-.91-0.03,0.342,0.342,0,0,0-.17.03h-0.04a0.587,0.587,0,0,0-.6.53,2.032,2.032,0,0,0,.09.72,6.966,6.966,0,0,0,.1.96,8.541,8.541,0,0,1,.09,1,8.05,8.05,0,0,1,.1,1.06c0.12,0.29,0,.65.12,1.06a10.345,10.345,0,0,0,.14,1.03,4.03,4.03,0,0,0,.17,1.01c0.1,0.43.1,0.62,0.22,1a1.353,1.353,0,0,1,.07.92,1.749,1.749,0,0,1-.6.84c-0.22.19-.34,0.24-0.67,0.5a8.575,8.575,0,0,0-.82.67,4.876,4.876,0,0,0-.77.7,3.607,3.607,0,0,1-.65.79,7.253,7.253,0,0,0-.5.86,3.278,3.278,0,0,0-.34.96,3.614,3.614,0,0,0-.14.82c0,0.07.02,0.17,0.02,0.26,0.05,0.36,0,.72.08,1.08,0.07,0.24.24,0.73,0.33,0.99a1.727,1.727,0,0,0,.6.79,2.882,2.882,0,0,0,.8.7c0.19,0.12.4,0.21,0.69,0.38a4.724,4.724,0,0,0,.75.29c0.57,0.05.98,0.26,1.6,0.34a7.847,7.847,0,0,0,1.64.14,5.382,5.382,0,0,0,.86.05,6.109,6.109,0,0,0,.72-0.03,4.583,4.583,0,0,0,.7.05c0.26,0,.52-0.02.79-0.02,0.53-.03.91-0.05,1.49-0.07a9.428,9.428,0,0,0,1.48-.12,8.572,8.572,0,0,0,1.52-.15,11.843,11.843,0,0,0,1.56-.33,0.78,0.78,0,0,0,.6-0.63A7.774,7.774,0,0,0,1090.63,4508.31Zm10.54-14.55a6.592,6.592,0,0,0,.33-0.94c0.2-.36.12-0.62,0.32-0.93,0-.34.24-0.48,0.24-0.75a3.893,3.893,0,0,1,.38-0.84,0.658,0.658,0,0,0,.43-0.43,0.354,0.354,0,0,0-.29-0.43,2.921,2.921,0,0,0-.84-0.41,3.145,3.145,0,0,1-.67-0.21c-0.14,0-.31-0.15-0.5-0.17h-0.1c-0.5,0-.5.67-0.65,1.03a4.131,4.131,0,0,1-.26.96,3.652,3.652,0,0,1-.27.91,3.222,3.222,0,0,1-.31.94,3.593,3.593,0,0,0-.33.91,1.126,1.126,0,0,0-.29.74,1.56,1.56,0,0,0-.31.75,1.813,1.813,0,0,0-.34.72,2.724,2.724,0,0,1-.34.74c-0.14.27-.19,0.46-0.33,0.7a2.2,2.2,0,0,0-.36.67c-0.17.24-.27,0.5-0.41,0.72-0.24.19-.22,0.5-0.43,0.67a2.241,2.241,0,0,0-.48,1.01,4.591,4.591,0,0,0,.65,1.22,2.056,2.056,0,0,0,.67.7c0.24-.02.38-0.05,0.38-0.19a0.951,0.951,0,0,0,.31-0.39c0.27-.4.48-0.36,0.65-0.26,0.29,0.07.29,0.53,0.31,1.1a1.365,1.365,0,0,1,0,.58,14.734,14.734,0,0,0,0,1.63,14.771,14.771,0,0,0,0,1.63c-0.02.46,0.03,0.75,0,1.04a3.757,3.757,0,0,0-.02,1.05,6.916,6.916,0,0,1-.02,1.06,1.972,1.972,0,0,0,.02,1.08,0.6,0.6,0,0,0,.79.74,1.187,1.187,0,0,0,.48.1,0.817,0.817,0,0,0,.44-0.1,0.714,0.714,0,0,0,.79-0.74c-0.07-.29.05-0.62,0-1.08a3.764,3.764,0,0,1,0-1.06,4.092,4.092,0,0,1-.03-1.05,9.021,9.021,0,0,1,0-1.04c-0.02-.38.03-1.05,0-1.41-0.09-.39.05-1.06,0-1.44a4.626,4.626,0,0,0,0-1.44,11.212,11.212,0,0,0,0-1.42,5.306,5.306,0,0,1,0-.81c-0.07-.39.05-0.82-0.02-1.23-0.05-.33.07-0.86,0-1.13a5.216,5.216,0,0,0,.07-0.62,0.858,0.858,0,0,1,.22-0.36,0.427,0.427,0,0,0,.21-0.46,0.423,0.423,0,0,0-.45-0.33c-0.22-.07-0.12-0.58.07-0.96C1101.02,4494.24,1101.05,4494.05,1101.17,4493.76Zm16.85,3.41c-0.1-.46-0.2-0.84-0.68-0.79-0.48,0-1-.03-1.63,0a8.672,8.672,0,0,0-1.61.02,5.1,5.1,0,0,1-1.7,0,1.411,1.411,0,0,1-.98-0.29,0.836,0.836,0,0,1-.48-0.74,3.388,3.388,0,0,1-.03-0.87c0.05-.21-0.05-0.52,0-0.98a1.949,1.949,0,0,1,0-.96c-0.02-.17-0.05-0.72-0.05-1.25,0-.6.08-0.89,0.08-1.13a6.422,6.422,0,0,0,.45-0.62,0.428,0.428,0,0,0-.45-0.5,2.507,2.507,0,0,0-.99-0.05c-0.33,0-.65-0.07-0.96-0.07a0.551,0.551,0,0,0-.65.64c0.03,0.84-.04,1.18,0,1.49,0.05,0.51-.07.89,0.03,1.49,0.09,0.22-.12.58,0,0.96a7.964,7.964,0,0,1,0,.98c0.09,0.36-.1.75,0,1.04a1.53,1.53,0,0,1-.43.57,1.18,1.18,0,0,1-.84.29c-0.48-.05-1.04.1-1.52,0a6.761,6.761,0,0,0-1.56-.02c-0.48.04-1.1-.08-1.58,0-0.41-.03-0.72.09-0.77,0.79a5.463,5.463,0,0,0,0,.81,0.714,0.714,0,0,0,.77.8,5.964,5.964,0,0,0,1.58,0c0.44,0.02.99-.03,1.56-0.03,0.46,0.1,1.16-.05,1.52,0a1.046,1.046,0,0,1,.84.34,0.922,0.922,0,0,1,.43.69,5.333,5.333,0,0,1,0,1.2,3.337,3.337,0,0,1,0,1.18,5.805,5.805,0,0,0,0,1.18,6.525,6.525,0,0,1,0,1.17,3.4,3.4,0,0,0,0,1.15,9.755,9.755,0,0,1-.05,1.08,1.723,1.723,0,0,1-.43.85,1.061,1.061,0,0,1-.96.33,9.15,9.15,0,0,1-1.66,0,8.5,8.5,0,0,1-1.13,0c-0.5-.07-0.81.07-1.15,0-0.53.1-.77,0.22-0.72,0.72,0.1,0.19-.07.63,0.05,0.84a0.571,0.571,0,0,0,.67.79,1.525,1.525,0,0,0,1.15,0c0.32,0.05.75-.04,1.13,0a4.273,4.273,0,0,0,1.13,0,4.373,4.373,0,0,0,1.15,0c0.31,0.12.7-.09,1.15,0,0.27-.09.68,0.1,1.13,0a2.237,2.237,0,0,0,1.15,0,5.487,5.487,0,0,0,1.16,0h1.15a2.685,2.685,0,0,1,1.13,0,3.819,3.819,0,0,1,1.12,0,5.588,5.588,0,0,0,1.16,0c0.45-.04.81-0.19,0.67-0.79a1.432,1.432,0,0,0,0-.77,0.59,0.59,0,0,0-.67-0.79,3.753,3.753,0,0,0-1.16,0c-0.4.1-.79-0.09-1.12,0a9.833,9.833,0,0,1-1.88,0,1.821,1.821,0,0,1-1-.31,1.354,1.354,0,0,1-.56-0.7,2.4,2.4,0,0,1-.07-1.25c0.1-.31-0.12-0.79,0-1.15a6.435,6.435,0,0,1,0-1.17c0.07-.48-0.05-0.8,0-1.18a2.467,2.467,0,0,1,0-1.18c0.07-.38-0.09-0.84,0-1.2-0.09-.14.1-0.4,0.51-0.69a4.09,4.09,0,0,1,.98-0.34,7.429,7.429,0,0,0,1.7,0c0.41,0,.96.07,1.61,0.03a9.854,9.854,0,0,0,1.63,0,0.892,0.892,0,0,0,.68-0.8v-0.14c0-.17-0.03-0.31-0.03-0.46v-0.04A0.323,0.323,0,0,1,1118.02,4497.17Zm11.47,13.92a3.248,3.248,0,0,0,1.94-.7,1.51,1.51,0,0,0,.43-0.62,2.992,2.992,0,0,0,.24-1.56c-0.09-.14.03-0.26-0.07-0.58,0.17-.43.65-0.19,1.13-0.14a4.1,4.1,0,0,1,1.22,0,10.409,10.409,0,0,1,1.28.02,1.726,1.726,0,0,1,1.03.44,0.687,0.687,0,0,0,.84.38,1.08,1.08,0,0,0,.77-0.02c0.43-.08.81-0.08,0.79-0.65,0.07-.55-0.12-1.08-0.03-1.78a1.109,1.109,0,0,1,.72-1.27c0.56-.03,1.04,0,1.59.02a0.6,0.6,0,0,0,.65-0.67v-0.65a0.791,0.791,0,0,0-.65-0.77,3.15,3.15,0,0,1-.87,0,1.289,1.289,0,0,1-.98-0.07,0.927,0.927,0,0,1-.43-0.67,3.293,3.293,0,0,1,0-1.3,0.653,0.653,0,0,0-.63-0.76,0.521,0.521,0,0,0-.48,0,7.875,7.875,0,0,1-1.75,0,8.3,8.3,0,0,0-.98.07,6.476,6.476,0,0,0-1.08,0,4.108,4.108,0,0,0-1.11-.03,1.419,1.419,0,0,1-1.03-.26,0.347,0.347,0,0,1,.03-0.48,1.775,1.775,0,0,1,.88-0.29,3.437,3.437,0,0,0,1.11,0,13.2,13.2,0,0,0,1.39.05,0.7,0.7,0,0,1,.67.22,0.9,0.9,0,0,0,.82.26,2.455,2.455,0,0,0,.72,0c0.55-.02.86-0.17,0.77-0.77-0.03-.57.09-1.17,0-1.8,0.02-.26-0.03-0.45,0-0.62a6.3,6.3,0,0,0,0-1.44,0.8,0.8,0,0,0-.65-0.72,1.093,1.093,0,0,1-.41,0c-0.22-.07-0.41.05-0.67,0a2.855,2.855,0,0,0-1.2,0,5.144,5.144,0,0,1-1.18,0,9.923,9.923,0,0,1-1.22,0,1.666,1.666,0,0,1-1.06-.19,1.021,1.021,0,0,1,0-.46,1.055,1.055,0,0,1,1.08-.31,7.693,7.693,0,0,0,1.27,0,5.62,5.62,0,0,0,1.23,0c0.29-.03.77,0.05,1.2,0a3.361,3.361,0,0,0,1.05,0,5.194,5.194,0,0,0,1.04.02,3.082,3.082,0,0,0,1.05.03,5.566,5.566,0,0,0,1.06-.03,0.655,0.655,0,0,0,.67-0.79,1.605,1.605,0,0,1,0-.62,0.729,0.729,0,0,0-.67-0.8,6.209,6.209,0,0,0-1.06,0c-0.26-.04-0.69.1-1.05,0.03-0.34-.05-0.77.09-1.04,0.02-0.45-.05-0.72.07-1.05,0a11.94,11.94,0,0,0-1.2,0c-0.48.05-.84-0.05-1.23-0.02a5.589,5.589,0,0,1-1.68.02,0.594,0.594,0,0,1-.69-0.69,4.543,4.543,0,0,1,.48-0.82,0.408,0.408,0,0,0-.36-0.41,3.916,3.916,0,0,1-.96-0.07,0.555,0.555,0,0,0-.19-0.02,2.191,2.191,0,0,1-.82-0.03h-0.1a0.61,0.61,0,0,0-.6.46,4.026,4.026,0,0,0,.08,1.1c-0.08.48-.51,0.39-1.04,0.48a5.394,5.394,0,0,1-1.27,0,3.494,3.494,0,0,0-1.22,0,7.98,7.98,0,0,1-1.2,0,2.6,2.6,0,0,0-1.04,0,2.105,2.105,0,0,0-1.03-.02c-0.38-.03-0.77,0-1.05-0.03s-0.65.03-1.08,0a0.785,0.785,0,0,0-.65.8,0.773,0.773,0,0,0,0,.62,0.612,0.612,0,0,0,.65.82c0.45-.1.67,0.09,1.08,0,0.28,0.09.62-.1,1.03-0.03,0.38-.09.77,0.05,1.05-0.02a2.6,2.6,0,0,0,1.04,0c0.33,0.05.74-.07,1.22,0a6.206,6.206,0,0,1,1.23,0,4.463,4.463,0,0,1,1.27,0c0.43,0.07,1.01.05,1.05,0.45l-0.02.22c-0.02.31-.6,0.38-0.98,0.29-0.32-.03-0.94.05-1.25,0a2.476,2.476,0,0,1-1.18,0,2.8,2.8,0,0,1-1.2,0c-0.24-.05-0.81.05-1.03,0a0.725,0.725,0,0,0-.72.72,10.117,10.117,0,0,1,.02,1.44,2.62,2.62,0,0,0,0,.74,8.42,8.42,0,0,0-.07,1.61,0.74,0.74,0,0,0,.79.89,2.565,2.565,0,0,0,.96.02,0.781,0.781,0,0,0,.65-0.31,1.023,1.023,0,0,1,.84-0.29,9.6,9.6,0,0,1,1.2,0,8.15,8.15,0,0,0,1.11,0,0.863,0.863,0,0,1,.76.22,0.465,0.465,0,0,1,.1.48,1.063,1.063,0,0,1-1.18.29c-0.48.07-.96-0.05-1.48,0a5.046,5.046,0,0,0-1.4,0c-0.5-.08-0.81.07-1.39,0-0.29-.05-0.79.02-1.1,0a4.06,4.06,0,0,0-1.16,0c-0.55-.08-0.76.24-0.67,0.76a4.85,4.85,0,0,0-.02.65c0.05,0.43.14,0.58,0.69,0.58a3.2,3.2,0,0,0,1.16,0c0.45,0.02.72-.03,1.1-0.03a5.875,5.875,0,0,0,1.39,0,8.167,8.167,0,0,0,1.4,0,6.65,6.65,0,0,0,1.48,0c0.51,0.03,1.25-.04,1.23.51-0.03.33-.39,0.5-1.15,0.45a4.835,4.835,0,0,1-1.37,0c-0.39-.02-0.84-0.02-1.32,0a7.045,7.045,0,0,1-1.3,0,2.745,2.745,0,0,0-1.03,0,4.266,4.266,0,0,1-1.03-.02,5.552,5.552,0,0,0-1.06-.02,4.29,4.29,0,0,1-1.08,0,0.669,0.669,0,0,0-.67.55,0.34,0.34,0,0,0,.02.14c0,0.12,0,.46-0.02.67v0.1a0.538,0.538,0,0,0,.67.55c0.41-.09.77,0.07,1.08,0a9.2,9.2,0,0,0,1.06-.02c0.28-.07.62,0.05,1.03,0,0.36-.07.65,0.07,1.03-0.03a9.4,9.4,0,0,0,1.3,0,7.271,7.271,0,0,0,1.32,0,5.231,5.231,0,0,0,1.37,0c0.55,0,1.22.05,1.17,0.48s-0.74.41-1.25,0.41c-0.5.05-1.08-.02-1.48,0a9.286,9.286,0,0,1-1.4,0,7.156,7.156,0,0,0-1.39,0c-0.29.07-.84-0.09-1.1-0.02-0.44-.05-0.87,0-1.16-0.05a0.727,0.727,0,0,0-.69.82,2.245,2.245,0,0,0,.05.69,0.619,0.619,0,0,0,.74.65c0.48-.02.58,0,1.01-0.02,0.29-.03.69,0,1.15-0.05,0.39-.1.96,0.12,1.39,0a14.238,14.238,0,0,1,1.73,0c0.51-.02,1.18,0,1.59,0,0.69,0,.86.17,0.81,0.72s-0.72.43-.91,0.48a4.983,4.983,0,0,1-.94-0.07c-0.19-.03-0.76.09-0.67,0.45a7.511,7.511,0,0,1,.24,1.47,0.8,0.8,0,0,0,.91.57,0.644,0.644,0,0,0,.24.05A6.879,6.879,0,0,1,1129.49,4511.09Zm-0.79-14.28a5.028,5.028,0,0,1-1.16.07c-0.24-.02-0.62,0-1,0-0.46-.05-1.08.02-1.08-0.46,0-.52.33-0.64,0.81-0.55a5.009,5.009,0,0,0,1.18-.07,6.575,6.575,0,0,0,1.03.05c0.6-.03,1.15-0.05,1.15.53A0.787,0.787,0,0,1,1128.7,4496.81Zm3.33-.19a0.407,0.407,0,0,1-.02-0.48,1.02,1.02,0,0,1,.79-0.32c0.34-.09.5,0.15,0.77,0.05,0.45,0,1.08.03,1.77,0,0.63,0.03.77,0.27,0.77,0.63,0,0.33-.6.48-0.91,0.38a2.156,2.156,0,0,1-1.1,0c-0.34.1-.87,0-1.11,0.07A1.552,1.552,0,0,1,1132.03,4496.62Zm-0.09,5.59c-0.03-.36.45-0.51,1.08-0.46a2.242,2.242,0,0,0,.93,0c0.41,0.05.65-.07,1.01,0h1.01a0.573,0.573,0,0,1,.62.43c0.07,0.48-.62.53-0.96,0.51a6.507,6.507,0,0,0-1.25,0c-0.4-.03-0.91,0-1.41-0.03C1132.51,4502.64,1131.96,4502.66,1131.94,4502.21Zm3.93,3.33a12.32,12.32,0,0,0-1.37-.04c-0.43.02-.96,0-1.29,0a2.018,2.018,0,0,1-1.08-.12,0.366,0.366,0,0,1,.02-0.63,2.1,2.1,0,0,1,1.11-.17,11.1,11.1,0,0,1,1.12-.02c0.27,0,.94.02,1.25,0,0.34-.02.99,0.05,0.99,0.48C1136.69,4505.47,1136.4,4505.54,1135.87,4505.54Zm27.89-7c-0.26-.27-0.34-0.41-0.55-0.6a3.134,3.134,0,0,1-.63-0.63,0.959,0.959,0,0,0-.62-0.33,2.965,2.965,0,0,0-1.25.48,5.01,5.01,0,0,1-.77.38,3.814,3.814,0,0,1-.57.29,4.449,4.449,0,0,1-.7.31,5.325,5.325,0,0,1-.69.29,1.053,1.053,0,0,1-.89.07,1.013,1.013,0,0,1-.53-0.58,1.251,1.251,0,0,0-.5-0.76,6.181,6.181,0,0,0-.8-0.6c-0.36-.05-0.43-0.24-0.76-0.27a1.427,1.427,0,0,0-.82-0.09,6.944,6.944,0,0,0-1.32.19c-0.29.07-.6-0.24-0.26-0.58a2.731,2.731,0,0,0,.28-0.41,1.289,1.289,0,0,1,.34-0.6,5.467,5.467,0,0,0,.38-0.52,1.516,1.516,0,0,1,.77-0.36c0.31,0,.6-0.03,1.11-0.05,0.55-.03.93-0.05,1.41-0.12,0.53-.03,1.11-0.12,1.71-0.17,0.31-.02.64-0.19,0.88-0.19a1.827,1.827,0,0,0,.8-0.22,0.627,0.627,0,0,0,.45-0.31,0.884,0.884,0,0,0-.05-0.55,5.912,5.912,0,0,1-.16-0.77,0.683,0.683,0,0,0-.51-0.5,0.893,0.893,0,0,0-.6.07c-0.24.09-.57,0.05-0.96,0.17-0.29.09-.74,0.09-1.13,0.16s-0.69.1-1.1,0.15c-0.48,0-.98-0.31-0.74-0.75l0.02-.16a5.164,5.164,0,0,1,.48-0.92,1.791,1.791,0,0,0,.48-0.48,0.387,0.387,0,0,0-.34-0.48c-0.28-.04-0.5-0.12-0.74-0.14a4.349,4.349,0,0,1-.89-0.19,0.208,0.208,0,0,0-.12-0.05c-0.05,0-.09.02-0.17,0.02a0.544,0.544,0,0,0-.62.46,1.268,1.268,0,0,0-.26.67,7.056,7.056,0,0,1-.32.75,3.047,3.047,0,0,1-.48.91,1.215,1.215,0,0,1-1.1.57c-0.34.12-.65-0.09-1.03,0a2.3,2.3,0,0,1-1.03-.04,10.842,10.842,0,0,1-1.37-.1,0.68,0.68,0,0,0-.75.79,3.239,3.239,0,0,0-.02.82,0.711,0.711,0,0,0,.36.69,3.812,3.812,0,0,0,.91.15c0.34-.03.65,0,0.91,0l0.68,0.02a0.425,0.425,0,0,1,.5.51,1.2,1.2,0,0,1-.48.74c-0.19.29-.31,0.41-0.55,0.77a5.951,5.951,0,0,1-.77.93,10.126,10.126,0,0,0-.82.94,8.372,8.372,0,0,1-.86.89,7.522,7.522,0,0,1-.72.67,0.87,0.87,0,0,0-.51.74v0.05a0.9,0.9,0,0,0,.32.51,3.129,3.129,0,0,0,.91.79,0.87,0.87,0,0,0,.86.05,7.092,7.092,0,0,0,.58-0.65,2.149,2.149,0,0,1,.67-0.63,2.208,2.208,0,0,1,.41-0.45,4.557,4.557,0,0,1,.53-0.43,2.4,2.4,0,0,1,.72-0.53,3.973,3.973,0,0,1,1.1-.55,4.348,4.348,0,0,1,1.39-.27,1.772,1.772,0,0,1,1.2.43,1.161,1.161,0,0,1,.36.7,0.848,0.848,0,0,1-.4.79c-0.32.27-.44,0.19-0.84,0.48a3.323,3.323,0,0,0-.99.55,4.244,4.244,0,0,0-.93.63,7.374,7.374,0,0,0-.92.72c-0.6.24-.4,0.62-0.74,0.77a3.84,3.84,0,0,0-.62.88,1.738,1.738,0,0,0-.41,1.01,1.717,1.717,0,0,0-.15,1.13,2.117,2.117,0,0,0,.2,1.37,1.181,1.181,0,0,0,.5,1.01,2.824,2.824,0,0,0,.77.74,9.542,9.542,0,0,0,.96.48,3.2,3.2,0,0,0,1.1.31,7.687,7.687,0,0,0,1.2.15c0.39,0,.75.07,1.03,0.07h0.29c0.19,0,.39.02,0.63,0.02h0.04a2.751,2.751,0,0,0,.39-0.02l1.87-.02a3.788,3.788,0,0,1,.6.02,0.829,0.829,0,0,0,.34-0.07,5.356,5.356,0,0,1,1.03-.03c0.45-.19.93,0.05,1.39-0.16,0.41-.2.84-0.1,1.42-0.29a0.728,0.728,0,0,0,.64-0.77c0-.41.05-0.82,0.05-1.34a0.623,0.623,0,0,0-.69-0.53,4.794,4.794,0,0,1-.87.19c-0.41.05-.6,0.1-0.86,0.14a5.3,5.3,0,0,1-1.3.15,3.081,3.081,0,0,1-1.32.09,2.707,2.707,0,0,1-1.32.05c-0.43.12-.98-0.05-1.32,0.03a8.749,8.749,0,0,1-1.56-.05,2.6,2.6,0,0,1-1.53-.29,0.939,0.939,0,0,1-.75-0.48,1.265,1.265,0,0,1-.29-0.84,1.873,1.873,0,0,1,.39-1.27,5.159,5.159,0,0,1,.91-1.01,4.386,4.386,0,0,1,1.03-.79,0.878,0.878,0,0,1,.99-0.41,0.488,0.488,0,0,1,.24.6,4.493,4.493,0,0,0,.02.67,10,10,0,0,1-.02,1.22,0.743,0.743,0,0,0,.86.77,2.811,2.811,0,0,0,.82,0c0.52-.07.86-0.09,0.84-0.74a2.715,2.715,0,0,0-.03-0.79c-0.07-.22.05-0.46,0-0.77a3.41,3.41,0,0,0-.02-0.7,4.38,4.38,0,0,1,0-.81,0.855,0.855,0,0,1,.41-0.94,2.362,2.362,0,0,1,.72-0.31,3.084,3.084,0,0,1,.69-0.31,4.172,4.172,0,0,1,.7-0.32,1.848,1.848,0,0,1,.72-0.28,2.681,2.681,0,0,1,.69-0.29c0.32-.03.39-0.22,0.72-0.27a5.689,5.689,0,0,1,.7-0.26,6.432,6.432,0,0,1,.74-0.24c0.27-.02.82,0.02,0.82-0.31A0.655,0.655,0,0,0,1163.76,4498.54Zm16.15,1.29a0.711,0.711,0,0,0-.65-0.86,11.024,11.024,0,0,1-1.15,0,4.741,4.741,0,0,1-1.13,0c-0.24-.07-0.69.05-0.93,0a0.7,0.7,0,0,1-.79-0.63,4.122,4.122,0,0,0,0-.74,7.751,7.751,0,0,1,0-1.37,1.017,1.017,0,0,1,.86-1.17,4.8,4.8,0,0,0,1.13.02,1.878,1.878,0,0,0,1.15,0,0.616,0.616,0,0,0,.65-0.79,2.615,2.615,0,0,1,0-.79,0.662,0.662,0,0,0-.67-0.8c-0.41-.04-0.82.05-1.13,0-0.36,0-.84.03-1.13,0.03-0.43.12-.74-0.03-1.03,0.07-0.46-.1-0.84.02-1.13-0.07a3.232,3.232,0,0,1-.86.07,1.215,1.215,0,0,1-.8-0.34,0.915,0.915,0,0,1,.03-0.93c0.04-.17.17-0.63,0.24-0.84a0.846,0.846,0,0,1,.26-0.72,1.294,1.294,0,0,0,.55-0.43c0.1-.24-0.19-0.36-0.45-0.39a12.563,12.563,0,0,0-1.49-.36,1.411,1.411,0,0,0-.31-0.07,0.872,0.872,0,0,0-.2.02,0.6,0.6,0,0,0-.48.72,3.913,3.913,0,0,1-.24.84c-0.16.39-.09,0.48-0.24,0.87a2.771,2.771,0,0,1-.28.84,3.894,3.894,0,0,0-.32.81,3.988,3.988,0,0,1-.36.8c-0.16.38-.26,0.43-0.38,0.79a2.827,2.827,0,0,0-.43.77,7.192,7.192,0,0,0-.48.74,2.127,2.127,0,0,0-.36.74v0.05a1.368,1.368,0,0,0,.53.79c0.38,0.39.45,0.82,0.79,0.75a0.713,0.713,0,0,0,.69-0.55,5.757,5.757,0,0,1,.44-0.65,2.036,2.036,0,0,0,.38-0.67l0.38-.65a1.06,1.06,0,0,1,.94-0.63,2.418,2.418,0,0,1,.6.03,0.649,0.649,0,0,1,.63.74c0.04,0.48-.05,1.11-0.03,1.42a1.723,1.723,0,0,1,0,.93,0.922,0.922,0,0,1-.82.8c-0.4.02-.93-0.05-1.36-0.05a2.69,2.69,0,0,1-1.13,0c-0.48-.12-0.72.09-1.13,0a0.71,0.71,0,0,0-.67.79,1.993,1.993,0,0,0,0,.77c0.05,0.45.12,0.89,0.65,0.79,0.33,0.07.84-.05,1.15,0,0.48-.05.81,0.02,1.13,0a3.546,3.546,0,0,0,1.17.05,0.981,0.981,0,0,1,.58.91,5.774,5.774,0,0,0-.31,1.08,1.706,1.706,0,0,1-.36.94,4.319,4.319,0,0,0-.46.88,4.212,4.212,0,0,1-.53.82c-0.29.31-.43,0.6-0.62,0.77a5.286,5.286,0,0,1-.7.72,9.445,9.445,0,0,0-.77.6,6.669,6.669,0,0,0-.64.48,0.766,0.766,0,0,0-.41.65,1.841,1.841,0,0,0,.53.98,1.152,1.152,0,0,0,.79.67,0.11,0.11,0,0,0,.09.03,1.131,1.131,0,0,0,.65-0.36,7.454,7.454,0,0,1,.67-0.53,8.723,8.723,0,0,0,.89-0.77,3.272,3.272,0,0,0,.84-0.81c0.34-.36.48-0.58,0.77-0.89a2.323,2.323,0,0,1,.67-0.96,1.67,1.67,0,0,1,.34-0.65,0.935,0.935,0,0,1,1.32.05,4.079,4.079,0,0,1,.65.74l0.74,0.91c0.15,0.29.53,0.7,0.7,1.01,0.14,0.12.36,0.51,0.6,0.39,0.24,0.04.26,0,.5-0.24a2.415,2.415,0,0,0,.89-0.77,0.673,0.673,0,0,0,.34-0.63,0.365,0.365,0,0,0-.1-0.38,1.538,1.538,0,0,1-.48-0.67,2.392,2.392,0,0,1-.5-0.63,5.407,5.407,0,0,1-.56-0.62,2.15,2.15,0,0,1-.57-0.55,2.183,2.183,0,0,0-.55-0.53,2.9,2.9,0,0,1-.6-0.51,4.006,4.006,0,0,1-.63-0.52,0.792,0.792,0,0,1-.5-0.53,0.887,0.887,0,0,1,.05-0.65,0.848,0.848,0,0,1,.84-0.48,2.784,2.784,0,0,0,1.12,0,2.529,2.529,0,0,0,1.13,0,4.412,4.412,0,0,0,1.15,0c0.34,0.07.6-.22,0.65-0.74C1180.01,4500.36,1179.82,4500.1,1179.91,4499.83Zm9.15,2.93a1.1,1.1,0,0,0,.02-0.24,4.944,4.944,0,0,1-.02-0.86,3.267,3.267,0,0,1,0-1.13,2.756,2.756,0,0,1,0-1.11,0.749,0.749,0,0,0,.02-0.21,2.6,2.6,0,0,1-.02-0.89,5.045,5.045,0,0,1,0-1.1,3.181,3.181,0,0,1,0-1.11c0-.17.02-0.53,0.02-0.79v-0.17a3.131,3.131,0,0,1,0-.81v-0.12c0-.08-0.02-0.15-0.02-0.24,0-.27.04-0.56,0.04-0.75a0.944,0.944,0,0,0-.67-0.96,1.184,1.184,0,0,1-.77,0,3.67,3.67,0,0,1-1.44,0,8.52,8.52,0,0,1-1.44,0c-0.36-.05-1.03.05-1.41,0a4.344,4.344,0,0,0-1.44,0,1.666,1.666,0,0,0-.77,0,0.663,0.663,0,0,0-.67.63c0.09,0.45-.12,1,0.02,1.63,0.07,0.62-.02,1.03,0,1.58a2.5,2.5,0,0,0,0,1.25,8.667,8.667,0,0,1,0,1.25,8.687,8.687,0,0,0,0,1.25,6.69,6.69,0,0,1,0,1.27,6.473,6.473,0,0,1,0,1.25,3.39,3.39,0,0,0,0,1.27,10.423,10.423,0,0,0,0,1.25,3.686,3.686,0,0,0,0,1.24,15.134,15.134,0,0,1-.02,1.81,6.525,6.525,0,0,0,0,1.82,0.6,0.6,0,0,0,.81.65,1.272,1.272,0,0,0,.94,0,0.772,0.772,0,0,0,.82-0.79,4.142,4.142,0,0,1,.02-1.11,0.65,0.65,0,0,1,.55-0.57,1.453,1.453,0,0,1,1.08-.29,9.088,9.088,0,0,0,1.01.05,0.97,0.97,0,0,1,.79.28,1.121,1.121,0,0,1,.03.46,0.684,0.684,0,0,0,.81.79,3.084,3.084,0,0,0,.96,0,0.579,0.579,0,0,0,.77-0.65,3.17,3.17,0,0,0,.02-0.45c0-.31-0.02-0.65-0.02-1.01v-0.36a6.045,6.045,0,0,1-.02-1.8,2.739,2.739,0,0,1,0-1.11,1.374,1.374,0,0,0,.04-0.31A6.738,6.738,0,0,1,1189.06,4502.76Zm-2.55-4.92a4.359,4.359,0,0,0,0,1.25c0.03,0.38-.05.93,0,1.27,0.1,0.31-.09.79,0,1.25a4.5,4.5,0,0,0,0,1.27c-0.02.43-.05,1.22-0.02,1.61a0.816,0.816,0,0,1-.75.91,7.664,7.664,0,0,1-1.08,0,1.659,1.659,0,0,1-1.08-.19,1.2,1.2,0,0,1-.48-0.72c0-.48.03-1.18-0.02-1.61,0-.43.02-0.84,0-1.27a7.441,7.441,0,0,1,0-1.25,10.762,10.762,0,0,0,0-1.27,4.361,4.361,0,0,1,0-1.25,5.989,5.989,0,0,0,0-1.27c-0.05-.31.02-0.58,0-1.03a0.82,0.82,0,0,1,.72-0.92,3.189,3.189,0,0,0,.98,0c0.29,0,.8-0.02,1.01,0a0.787,0.787,0,0,1,.72.92,3.553,3.553,0,0,1,0,1.03C1186.51,4496.95,1186.54,4497.48,1186.51,4497.84Zm25.23,4.37a2.563,2.563,0,0,0-.32-1.11,4.5,4.5,0,0,0-.5-1.03,5.679,5.679,0,0,0-.79-0.89c-0.19-.12-0.29-0.28-0.55-0.43a3.916,3.916,0,0,1-.6-0.38c-0.32-.22-0.96-0.36-1.3-0.58-0.58-.09-0.86-0.31-1.39-0.36a10.079,10.079,0,0,0-1.42-.12c-0.43.03-.79,0.05-1.03,0.07-0.43.08-.6,0.1-0.94,0.17-0.36.05-.64-0.29-0.21-0.74a3.266,3.266,0,0,1,.55-0.46,1.366,1.366,0,0,1,.36-0.36c0.31-.17.26-0.36,0.5-0.45a3.03,3.03,0,0,1,.53-0.48,3.615,3.615,0,0,0,.51-0.48,2.281,2.281,0,0,1,.52-0.46c0.22-.24.65-0.58,0.92-0.84a12.536,12.536,0,0,1,1-.79,1.862,1.862,0,0,0,.82-0.55,0.518,0.518,0,0,0-.19-0.58c-0.27-.17-0.34-0.43-0.58-0.6a3.1,3.1,0,0,1-.6-0.6,0.664,0.664,0,0,0-.69-0.36h-0.08c-0.24,0-.31.1-0.88,0.14a13.035,13.035,0,0,0-1.52.15c-0.55.07-.98,0.12-1.53,0.14-0.58.03-1.08,0.17-1.68,0.17a8.069,8.069,0,0,0-1.35.12c-0.36.12-.74-0.1-1.15,0.02a5.3,5.3,0,0,1-1.44.05,0.652,0.652,0,0,0-.74.82c0.12,0.36,0,.79.14,1.15a0.661,0.661,0,0,0,.65.7,4.029,4.029,0,0,0,.94-0.12,5.431,5.431,0,0,0,.91-0.12c0.26-.12.6,0,0.89-0.15,0.31-.17.69,0.03,0.98-0.12a5.251,5.251,0,0,1,.98-0.14,6.569,6.569,0,0,1,1.01-.15c0.39-.07,1.01-0.31,1.18.15a0.665,0.665,0,0,1-.31.57c-0.22.39-.34,0.22-0.53,0.56a1.743,1.743,0,0,0-.43.43,1.467,1.467,0,0,1-.53.43,2.89,2.89,0,0,1-.48.5,3.834,3.834,0,0,0-.53.48,6.139,6.139,0,0,0-.6.48,1.866,1.866,0,0,1-.55.48,4.589,4.589,0,0,1-.39.39c-0.28.14-.31,0.31-0.57,0.45a5.152,5.152,0,0,1-.67.58,1.95,1.95,0,0,1-.53.43c-0.27.05-.22,0.31-0.58,0.43-0.31.1-.38,0.39-0.65,0.44a2.092,2.092,0,0,1-.6.4c-0.14.12-.33,0.24-0.62,0.44a0.573,0.573,0,0,0-.34.5v0.1a0.785,0.785,0,0,0,.17.45c0.24,0.39.38,0.53,0.6,0.89a0.686,0.686,0,0,0,.86.36,1.584,1.584,0,0,0,.41-0.24c0.2-.22.32-0.17,0.68-0.48a4.378,4.378,0,0,1,.98-0.53,1.876,1.876,0,0,1,.7-0.36,1.08,1.08,0,0,1,.67-0.29,1.794,1.794,0,0,1,.74-0.28,9.124,9.124,0,0,0,1.06-.29c0.48-.1.62-0.12,1.22-0.27a10.248,10.248,0,0,1,1.54-.12,7.156,7.156,0,0,0,.89.05c0.36,0,.52.15,0.86,0.17a1.158,1.158,0,0,1,.77.26,1.124,1.124,0,0,1,.69.41c0.15,0.24.32,0.15,0.58,0.51a1.876,1.876,0,0,1,.48.69,2.152,2.152,0,0,1,.26.7c-0.02.38,0.1,0.5,0.1,0.93a2.7,2.7,0,0,1-.14,1.06,5.533,5.533,0,0,1-.39.96c-0.31.36-.33,0.5-0.6,0.84a5.63,5.63,0,0,1-.62.65,5.1,5.1,0,0,1-.77.5c-0.34.22-1.25,0.39-1.3-.33a3.157,3.157,0,0,0-.36-1.56,2.274,2.274,0,0,0-.38-0.6c-0.24-.12-0.24-0.36-0.5-0.51a2.654,2.654,0,0,0-.6-0.38c-0.27-.05-0.48-0.24-0.68-0.27a13.52,13.52,0,0,0-1.41-.16,5.379,5.379,0,0,0-1.59.19,2.637,2.637,0,0,0-1.22.65,3.706,3.706,0,0,0-.86,1.05,3.339,3.339,0,0,0-.32,1.44,4.554,4.554,0,0,1,.12,1.01,5.164,5.164,0,0,0,.36.82,1.562,1.562,0,0,0,.53.65,1.9,1.9,0,0,0,.7.48,2.1,2.1,0,0,0,.81.33,1.728,1.728,0,0,0,.87.22,4.215,4.215,0,0,0,.91.12c0.19,0.02.62,0,.89,0.05a11.55,11.55,0,0,0,1.65-.1,4.6,4.6,0,0,1,.82-0.12,1.9,1.9,0,0,0,.82-0.19,5.814,5.814,0,0,0,.81-0.22,2.457,2.457,0,0,0,.77-0.29c0.22,0,.41-0.31.74-0.33a1.956,1.956,0,0,0,.7-0.41c0.26-.24.36-0.19,0.65-0.46a3.959,3.959,0,0,0,.6-0.52,1.839,1.839,0,0,0,.5-0.58,5.9,5.9,0,0,0,.46-0.65,3.341,3.341,0,0,1,.36-0.7,7.3,7.3,0,0,0,.26-0.79,3.158,3.158,0,0,1,.17-0.81c0-.17.07-0.46,0.07-0.8v-0.12a3.784,3.784,0,0,1-.02-0.45v-0.34C1211.78,4502.5,1211.78,4502.35,1211.74,4502.21Zm-10.01,6.02a3.616,3.616,0,0,1-1.23-.21,1.473,1.473,0,0,1-.72-0.41,1.1,1.1,0,0,1-.31-0.87,1.074,1.074,0,0,1,.1-0.52,1.3,1.3,0,0,1,.41-0.44,2.136,2.136,0,0,1,.48-0.24,5.011,5.011,0,0,1,.6-0.04,2.685,2.685,0,0,1,.72.09,1.742,1.742,0,0,1,.55.41,1.162,1.162,0,0,1,.33.55,1.2,1.2,0,0,1,.12.72,1.082,1.082,0,0,1-.19.68A1.173,1.173,0,0,1,1201.73,4508.23Z" transform="translate(-1047.72 -4488.66)"/>
</svg>
