<svg xmlns="http://www.w3.org/2000/svg" width="15" height="197" viewBox="0 0 15 197">
  <defs>
    <style>
      .cls-1 {
        fill: #5f9d7b;
        fill-rule: evenodd;
      }
    </style>
  </defs>
  <path id="PEOPLE_WORKS_03" data-name="PEOPLE &amp; WORKS  03" class="cls-1" d="M201.541,5894.63a0.38,0.38,0,0,0-.38.38v1.84a0.393,0.393,0,0,0,.38.38h4.7v2.5a4.459,4.459,0,1,0,8.917-.02v-4.7a0.38,0.38,0,0,0-.38-0.38H201.541Zm7.138,2.6H212.7v2.32a2,2,0,0,1-1.939,2.06,2.061,2.061,0,0,1-2.079-2.06v-2.32Zm-7.138,9.24a0.38,0.38,0,0,0-.38.38v8.14a0.38,0.38,0,0,0,.38.38h1.64a0.38,0.38,0,0,0,.379-0.38v-5.92h3.5v4.94a0.38,0.38,0,0,0,.38.38H209.1a0.393,0.393,0,0,0,.38-0.38v-4.94h3.279v5.92a0.38,0.38,0,0,0,.38.38h1.639a0.38,0.38,0,0,0,.38-0.38v-8.14a0.38,0.38,0,0,0-.38-0.38H201.541Zm6.6,10.77a7.19,7.19,0,1,0,7.217,7.18A7.135,7.135,0,0,0,208.139,5917.24Zm0,2.6a4.59,4.59,0,1,1-4.579,4.58A4.626,4.626,0,0,1,208.139,5919.84Zm-6.6,14.41a0.38,0.38,0,0,0-.38.38v1.84a0.393,0.393,0,0,0,.38.38h4.7v2.5a4.459,4.459,0,1,0,8.917-.02v-4.7a0.38,0.38,0,0,0-.38-0.38H201.541Zm7.138,2.6H212.7v2.32a2,2,0,0,1-1.939,2.06,2.061,2.061,0,0,1-2.079-2.06v-2.32Zm-7.138,9.24a0.38,0.38,0,0,0-.38.38v7.32a0.38,0.38,0,0,0,.38.38h1.64a0.38,0.38,0,0,0,.379-0.38v-5.1h11.216a0.393,0.393,0,0,0,.38-0.38v-1.84a0.38,0.38,0,0,0-.38-0.38H201.541Zm0,10.11a0.38,0.38,0,0,0-.38.38v8.14a0.38,0.38,0,0,0,.38.38h1.64a0.38,0.38,0,0,0,.379-0.38v-5.92h3.5v4.94a0.38,0.38,0,0,0,.38.38H209.1a0.393,0.393,0,0,0,.38-0.38v-4.94h3.279v5.92a0.38,0.38,0,0,0,.38.38h1.639a0.38,0.38,0,0,0,.38-0.38v-8.14a0.38,0.38,0,0,0-.38-0.38H201.541Zm3.179,15.85a3.9,3.9,0,0,0-3.759,4.22,5.747,5.747,0,0,0,1.7,4.36l-1.46,1.44a0.583,0.583,0,0,0-.06.88l0.84,0.82c0.46,0.48.68,0.28,0.92,0.04l1.679-1.78a13.621,13.621,0,0,0,3.179,1.24,0.544,0.544,0,0,0,.78-0.34l0.319-1.1c0.14-.46-0.08-0.58-0.5-0.66a8.755,8.755,0,0,1-2.22-.72l2.32-2.3c0.359,0.4,1.579,2.44,3.638,2.44,1.8,0,3.259-1.54,3.259-3.78,0-2.52-1.719-3.78-3.239-3.78a3.979,3.979,0,0,0-2.879,1.36l-0.46.42h-0.039C208.519,5974.45,207.359,5972.05,204.72,5972.05Zm5.158,4.68,0.44-.44a2.627,2.627,0,0,1,1.8-1.04,1.369,1.369,0,0,1,1.36,1.48,1.59,1.59,0,0,1-1.5,1.7C210.738,5978.43,210.058,5977.03,209.878,5976.73Zm-4.9-2.3a2.869,2.869,0,0,1,2.459,1.7l-3.159,2.98a3.281,3.281,0,0,1-1.179-2.58A1.947,1.947,0,0,1,204.98,5974.43Zm-3.739,18.71a0.384,0.384,0,0,0-.28.36v0.32a0.34,0.34,0,0,0,.22.34l9.057,3.54v0.1l-9.057,3.58a0.34,0.34,0,0,0-.22.34v0.32a0.384,0.384,0,0,0,.28.36l13.435,3.78a0.349,0.349,0,0,0,.48-0.36v-1.84a0.411,0.411,0,0,0-.28-0.36l-7.977-2.04v-0.08l8.237-3.2a0.323,0.323,0,0,0,.22-0.34v-0.36a0.323,0.323,0,0,0-.22-0.34l-8.237-3.18V5994l7.977-2.08a0.424,0.424,0,0,0,.28-0.37v-1.84a0.349,0.349,0,0,0-.48-0.36Zm6.9,14.44a7.2,7.2,0,1,0,7.217,7.18A7.135,7.135,0,0,0,208.139,6007.58Zm0,2.6a4.6,4.6,0,1,1-4.579,4.58A4.626,4.626,0,0,1,208.139,6010.18Zm-6.6,14.41a0.38,0.38,0,0,0-.38.38v1.84a0.393,0.393,0,0,0,.38.38h5.1v2.22l-5.3,2.66a0.343,0.343,0,0,0-.18.32v2.1a0.378,0.378,0,0,0,.58.34l5.078-2.74a4.412,4.412,0,0,0,4.039,2.96,4.331,4.331,0,0,0,4.3-4.36v-5.72a0.38,0.38,0,0,0-.38-0.38H201.541Zm7.237,2.62h3.979v3.26a1.99,1.99,0,0,1-1.939,1.98,2.037,2.037,0,0,1-2.04-1.98v-3.26Zm-7.137,10.71a0.474,0.474,0,0,0-.48.48v1.76a0.487,0.487,0,0,0,.48.48h6.1l-6.438,5.22a0.434,0.434,0,0,0-.14.36v2.18a0.439,0.439,0,0,0,.7.36l6.7-5.6,5.877,5.22a0.425,0.425,0,0,0,.72-0.32v-2a0.478,0.478,0,0,0-.2-0.38l-5.678-5.04h5.4a0.487,0.487,0,0,0,.48-0.48v-1.76a0.474,0.474,0,0,0-.48-0.48H201.641Zm0.88,12.38a6.493,6.493,0,0,0-1.56,4.41c0,2.82,1.9,4.6,3.959,4.6,2.579,0,3.739-2.24,4.518-4.18,0.66-1.62,1.3-2.36,2.239-2.36a1.593,1.593,0,0,1,1.4,1.76,6.58,6.58,0,0,1-1.1,2.78,0.526,0.526,0,0,0,.24.7l1.14,0.76a0.5,0.5,0,0,0,.66-0.12,7.05,7.05,0,0,0,1.339-4c0-3.18-2.059-4.51-3.839-4.51-2.359,0-3.558,1.89-4.318,3.77-0.68,1.68-1.379,2.54-2.4,2.54a1.669,1.669,0,0,1-1.539-1.82,6.625,6.625,0,0,1,1.239-3.02,0.463,0.463,0,0,0-.14-0.68l-1.239-.73A0.4,0.4,0,0,0,202.521,6050.3Zm-1.56,24.86c0,3.2,2.619,5.04,7,5.04s7-1.84,7-5.04-2.619-5.05-7-5.05S200.961,6071.95,200.961,6075.16Zm2.359,0c0-1.54,1.66-2.42,4.639-2.42,2.959,0,4.638.88,4.638,2.42s-1.679,2.42-4.638,2.42C204.98,6077.58,203.32,6076.7,203.32,6075.16Zm-0.579,6.98a5.162,5.162,0,0,0-1.78,4.16c0,2.76,1.64,4.6,3.9,4.6a3.749,3.749,0,0,0,3.259-2.42h0.06a3.638,3.638,0,0,0,3.119,2.06c2.239,0,3.658-1.94,3.658-4.26a5.469,5.469,0,0,0-1.759-3.76,0.357,0.357,0,0,0-.52,0l-0.92.98a0.363,0.363,0,0,0,.02.54,2.589,2.589,0,0,1,.96,2.02A1.87,1.87,0,0,1,210.9,6088c-1.02,0-1.84-.84-1.84-2.48v-1.12a0.353,0.353,0,0,0-.4-0.38H207.4a0.373,0.373,0,0,0-.4.38v1.12c0,1.8-.94,2.76-1.979,2.76a2.026,2.026,0,0,1-1.879-2.12,4.211,4.211,0,0,1,1.079-2.46,0.342,0.342,0,0,0,0-.52l-0.979-1.02A0.393,0.393,0,0,0,202.741,6082.14Z" transform="translate(-200.969 -5894.62)"/>
</svg>
