<svg xmlns="http://www.w3.org/2000/svg" width="158" height="12" viewBox="0 0 158 12">
  <defs>
    <style>
      .cls-1 {
        fill: #5f9d7b;
        fill-rule: evenodd;
      }
    </style>
  </defs>
  <path id="RECOMMENDED_MAP" data-name="RECOMMENDED MAP" class="cls-1" d="M1310.5,8610.72a0.3,0.3,0,0,0,.31.3h1.47a0.308,0.308,0,0,0,.3-0.3v-4.08h1.78l2.13,4.24a0.271,0.271,0,0,0,.25.14h1.69a0.3,0.3,0,0,0,.27-0.46l-2.2-4.07a3.521,3.521,0,0,0,2.37-3.23,3.47,3.47,0,0,0-3.49-3.44h-4.57a0.3,0.3,0,0,0-.31.3v10.6Zm2.1-5.8v-3.18h2.61a1.584,1.584,0,0,1,1.58,1.55,1.621,1.621,0,0,1-1.58,1.63h-2.61Zm8.24,5.8a0.3,0.3,0,0,0,.3.3h6.52a0.3,0.3,0,0,0,.3-0.3v-1.31a0.31,0.31,0,0,0-.3-0.31h-4.74v-2.8h3.95a0.31,0.31,0,0,0,.31-0.3v-1.33a0.326,0.326,0,0,0-.31-0.31h-3.95v-2.62h4.74a0.3,0.3,0,0,0,.3-0.3v-1.32a0.3,0.3,0,0,0-.3-0.3h-6.52a0.3,0.3,0,0,0-.3.3v10.6Zm8.27-5.28a5.736,5.736,0,0,0,5.78,5.74,5.487,5.487,0,0,0,3.89-1.55,0.3,0.3,0,0,0,.01-0.43l-0.99-1.03a0.3,0.3,0,0,0-.4,0,3.815,3.815,0,0,1-2.45.92,3.718,3.718,0,0,1-.01-7.43,3.789,3.789,0,0,1,2.46.94,0.254,0.254,0,0,0,.4,0l0.98-1a0.294,0.294,0,0,0-.02-0.45,5.408,5.408,0,0,0-3.87-1.49A5.77,5.77,0,0,0,1329.11,8605.44Zm10.64,0a5.755,5.755,0,1,0,5.75-5.78A5.7,5.7,0,0,0,1339.75,8605.44Zm2.08,0a3.675,3.675,0,1,1,3.67,3.66A3.7,3.7,0,0,1,1341.83,8605.44Zm10.46,5.22a0.292,0.292,0,0,0,.31.36h1.44a0.311,0.311,0,0,0,.29-0.24l0.92-6.06h0.05l2.84,6.29a0.275,0.275,0,0,0,.27.17h0.29a0.275,0.275,0,0,0,.27-0.17l2.8-6.29h0.05l0.94,6.06a0.335,0.335,0,0,0,.31.24h1.45a0.273,0.273,0,0,0,.29-0.36l-1.89-10.76a0.264,0.264,0,0,0-.29-0.24h-0.25a0.256,0.256,0,0,0-.27.16l-3.53,7.55h-0.04l-3.53-7.55a0.273,0.273,0,0,0-.27-0.16h-0.25a0.264,0.264,0,0,0-.29.24Zm13.65,0a0.292,0.292,0,0,0,.31.36h1.44a0.291,0.291,0,0,0,.28-0.24l0.93-6.06h0.05l2.83,6.29a0.3,0.3,0,0,0,.28.17h0.28a0.289,0.289,0,0,0,.28-0.17l2.8-6.29h0.04l0.95,6.06a0.333,0.333,0,0,0,.3.24h1.46a0.273,0.273,0,0,0,.29-0.36l-1.89-10.76a0.27,0.27,0,0,0-.29-0.24h-0.25a0.278,0.278,0,0,0-.28.16l-3.52,7.55h-0.05l-3.52-7.55a0.282,0.282,0,0,0-.27-0.16h-0.26a0.261,0.261,0,0,0-.28.24Zm14.39,0.06a0.3,0.3,0,0,0,.3.3h6.51a0.3,0.3,0,0,0,.31-0.3v-1.31a0.311,0.311,0,0,0-.31-0.31h-4.73v-2.8h3.95a0.3,0.3,0,0,0,.3-0.3v-1.33a0.317,0.317,0,0,0-.3-0.31h-3.95v-2.62h4.73a0.3,0.3,0,0,0,.31-0.3v-1.32a0.3,0.3,0,0,0-.31-0.3h-6.51a0.3,0.3,0,0,0-.3.3v10.6Zm9.08,0a0.317,0.317,0,0,0,.31.3h1.45a0.3,0.3,0,0,0,.31-0.3v-6.88h0.01l6.69,7.34h0.39a0.291,0.291,0,0,0,.3-0.28v-10.78a0.308,0.308,0,0,0-.3-0.3h-1.47a0.3,0.3,0,0,0-.31.3v6.61h-0.01l-6.66-7.07h-0.4a0.308,0.308,0,0,0-.31.29v10.77Zm12.05,0a0.3,0.3,0,0,0,.29.3h3.79a5.6,5.6,0,1,0,0-11.2h-3.79a0.3,0.3,0,0,0-.29.3v10.6Zm2.07-1.65v-7.31h1.82a3.655,3.655,0,0,1,0,7.31h-1.82Zm9.42,1.65a0.3,0.3,0,0,0,.3.3h6.52a0.3,0.3,0,0,0,.3-0.3v-1.31a0.31,0.31,0,0,0-.3-0.31h-4.74v-2.8h3.95a0.31,0.31,0,0,0,.31-0.3v-1.33a0.326,0.326,0,0,0-.31-0.31h-3.95v-2.62h4.74a0.3,0.3,0,0,0,.3-0.3v-1.32a0.3,0.3,0,0,0-.3-0.3h-6.52a0.3,0.3,0,0,0-.3.3v10.6Zm9.09,0a0.291,0.291,0,0,0,.28.3h3.8a5.6,5.6,0,1,0,0-11.2h-3.8a0.291,0.291,0,0,0-.28.3v10.6Zm2.06-1.65v-7.31h1.83a3.655,3.655,0,0,1,0,7.31h-1.83Zm11.9,1.59a0.292,0.292,0,0,0,.31.36h1.44a0.311,0.311,0,0,0,.29-0.24l0.93-6.06h0.04l2.84,6.29a0.275,0.275,0,0,0,.27.17h0.29a0.275,0.275,0,0,0,.27-0.17l2.8-6.29h0.05l0.94,6.06a0.335,0.335,0,0,0,.31.24h1.45a0.273,0.273,0,0,0,.29-0.36l-1.89-10.76a0.264,0.264,0,0,0-.29-0.24h-0.25a0.256,0.256,0,0,0-.27.16l-3.53,7.55h-0.04l-3.52-7.55a0.3,0.3,0,0,0-.28-0.16h-0.25a0.27,0.27,0,0,0-.29.24Zm13.2,0.36h1.4a0.479,0.479,0,0,0,.46-0.32l0.78-1.73h4.79l0.79,1.73a0.447,0.447,0,0,0,.46.32h1.39a0.276,0.276,0,0,0,.27-0.41l-4.93-10.78a0.265,0.265,0,0,0-.27-0.17h-0.16a0.3,0.3,0,0,0-.27.17l-4.98,10.78A0.279,0.279,0,0,0,1449.2,8611.02Zm3.43-3.82,1.57-3.52h0.05l1.6,3.52h-3.22Zm8.05,3.52a0.3,0.3,0,0,0,.3.3h1.47a0.317,0.317,0,0,0,.31-0.3v-3.76h2a3.57,3.57,0,1,0-.02-7.14h-3.76a0.3,0.3,0,0,0-.3.3v10.6Zm2.08-5.72v-3.21h1.85a1.594,1.594,0,0,1,1.65,1.55,1.647,1.647,0,0,1-1.65,1.66h-1.85Z" transform="translate(-1310.5 -8599.66)"/>
</svg>
