<svg xmlns="http://www.w3.org/2000/svg" width="14.406" height="124.687" viewBox="0 0 14.406 124.687">
  <defs>
    <style>
      .cls-1 {
        fill: #5f9d7b;
        fill-rule: evenodd;
      }
    </style>
  </defs>
  <path id="RECRUITING" class="cls-1" d="M506.012,161.862a0.38,0.38,0,0,0-.38.38v1.841a0.393,0.393,0,0,0,.38.38h5.1v2.221l-5.3,2.661a0.343,0.343,0,0,0-.18.32v2.1a0.378,0.378,0,0,0,.58.34l5.082-2.741a4.416,4.416,0,0,0,4.042,2.961,4.334,4.334,0,0,0,4.3-4.362v-5.722a0.38,0.38,0,0,0-.38-0.38H506.012Zm7.243,2.621h3.982v3.261a1.99,1.99,0,0,1-1.941,1.981,2.038,2.038,0,0,1-2.041-1.981v-3.261Zm-7.243,11.7a0.38,0.38,0,0,0-.38.38v8.144a0.38,0.38,0,0,0,.38.38h1.641a0.38,0.38,0,0,0,.38-0.38v-5.923h3.5v4.943a0.38,0.38,0,0,0,.38.38h1.66a0.394,0.394,0,0,0,.381-0.38v-4.943h3.281v5.923a0.38,0.38,0,0,0,.38.38h1.641a0.38,0.38,0,0,0,.38-0.38v-8.144a0.38,0.38,0,0,0-.38-0.38H506.012Zm6.6,11.68a7.173,7.173,0,0,0-7.183,7.223,6.868,6.868,0,0,0,1.941,4.863,0.381,0.381,0,0,0,.54.02l1.28-1.241a0.366,0.366,0,0,0,0-.5,4.805,4.805,0,0,1-1.14-3.062,4.645,4.645,0,0,1,9.284-.02,4.737,4.737,0,0,1-1.18,3.082,0.32,0.32,0,0,0,0,.5l1.26,1.221a0.373,0.373,0,0,0,.561-0.02,6.776,6.776,0,0,0,1.86-4.843A7.207,7.207,0,0,0,512.615,187.861Zm-6.6,15.7a0.38,0.38,0,0,0-.38.38v1.841a0.393,0.393,0,0,0,.38.38h5.1v2.221l-5.3,2.662a0.343,0.343,0,0,0-.18.32v2.1a0.378,0.378,0,0,0,.58.34l5.082-2.741a4.417,4.417,0,0,0,4.042,2.961,4.334,4.334,0,0,0,4.3-4.362v-5.723a0.38,0.38,0,0,0-.38-0.38H506.012Zm7.243,2.621h3.982v3.262a1.991,1.991,0,0,1-1.941,1.981,2.039,2.039,0,0,1-2.041-1.981v-3.262Zm-2.321,11.5a5.573,5.573,0,0,0,0,11.145h8.324a0.393,0.393,0,0,0,.38-0.38v-1.9a0.38,0.38,0,0,0-.38-0.38h-8.2a2.914,2.914,0,1,1,.02-5.823h8.184a0.38,0.38,0,0,0,.38-0.38v-1.9a0.393,0.393,0,0,0-.38-0.38h-8.324Zm-4.922,15.58a0.393,0.393,0,0,0-.38.38V235.5a0.393,0.393,0,0,0,.38.38h13.246a0.393,0.393,0,0,0,.38-0.38v-1.861a0.393,0.393,0,0,0-.38-0.38H506.012Zm0,9.14a0.393,0.393,0,0,0-.38.38v1.861a0.394,0.394,0,0,0,.38.381h11.225v3.061a0.38,0.38,0,0,0,.38.38h1.641a0.38,0.38,0,0,0,.38-0.38V239.34a0.38,0.38,0,0,0-.38-0.38h-1.641a0.38,0.38,0,0,0-.38.38V242.4H506.012Zm0,9.139a0.393,0.393,0,0,0-.38.38v1.861a0.393,0.393,0,0,0,.38.38h13.246a0.393,0.393,0,0,0,.38-0.38V251.92a0.393,0.393,0,0,0-.38-0.38H506.012Zm0,7.26a0.393,0.393,0,0,0-.38.38V261a0.38,0.38,0,0,0,.38.38h8.6v0.02l-9.184,8.364v0.48a0.377,0.377,0,0,0,.36.381h13.466a0.394,0.394,0,0,0,.38-0.381V268.4a0.38,0.38,0,0,0-.38-0.38h-8.264V268l8.844-8.324v-0.5a0.376,0.376,0,0,0-.36-0.38H506.012Zm6.6,15.459a7.135,7.135,0,0,0-7.163,7.184,10.113,10.113,0,0,0,1.3,4.962,0.385,0.385,0,0,0,.32.16H512.2a0.376,0.376,0,0,0,.38-0.36v-3.842a0.368,0.368,0,0,0-.38-0.38h-1.581a0.363,0.363,0,0,0-.36.38v1.6h-1.7a6.263,6.263,0,0,1-.5-2.381,4.612,4.612,0,1,1,8.064,3,0.342,0.342,0,0,0,0,.52l1.3,1.241a0.388,0.388,0,0,0,.561-0.02,7.566,7.566,0,0,0,1.86-4.882A7.186,7.186,0,0,0,512.615,274.259Z" transform="translate(-505.438 -161.875)"/>
</svg>
