<svg xmlns="http://www.w3.org/2000/svg" width="370.406" height="46.06" viewBox="0 0 370.406 46.06">
  <defs>
    <style>
      .cls-1 {
        fill: #5f9d7b;
        fill-rule: evenodd;
      }
    </style>
  </defs>
  <path id="RECRUITING" class="cls-1" d="M458.665,6681.14a1.218,1.218,0,0,0,1.215,1.22h5.885a1.262,1.262,0,0,0,1.215-1.22v-16.31h7.1l8.507,16.95a1.092,1.092,0,0,0,1.024.58h6.716a1.212,1.212,0,0,0,1.087-1.86l-8.763-16.24c5.565-2.24,9.467-7.04,9.467-12.92a13.857,13.857,0,0,0-13.945-13.76H459.88a1.218,1.218,0,0,0-1.215,1.22v42.34Zm8.379-23.15v-12.73h10.427a6.359,6.359,0,0,1,6.332,6.2,6.514,6.514,0,0,1-6.332,6.53H467.044Zm34.245,23.15a1.218,1.218,0,0,0,1.215,1.22h26.034a1.219,1.219,0,0,0,1.216-1.22v-5.24a1.219,1.219,0,0,0-1.216-1.22H509.6v-11.19h15.8a1.214,1.214,0,0,0,1.215-1.22v-5.3a1.262,1.262,0,0,0-1.215-1.22H509.6v-10.49h18.934a1.219,1.219,0,0,0,1.216-1.22v-5.24a1.219,1.219,0,0,0-1.216-1.22H502.5a1.218,1.218,0,0,0-1.215,1.22v42.34Zm34.369-21.1A22.931,22.931,0,0,0,558.75,6683a21.925,21.925,0,0,0,15.544-6.21,1.209,1.209,0,0,0,.064-1.72l-3.966-4.1a1.19,1.19,0,0,0-1.6,0,15.328,15.328,0,0,1-9.787,3.65,14.485,14.485,0,0,1-14.328-14.78c0-8.06,6.076-14.9,14.264-14.9a15.166,15.166,0,0,1,9.851,3.77,1.014,1.014,0,0,0,1.6,0l3.9-4.03a1.187,1.187,0,0,0-.064-1.79,21.658,21.658,0,0,0-15.48-5.95A23.044,23.044,0,0,0,535.658,6660.04Zm47.039,21.1a1.218,1.218,0,0,0,1.215,1.22H589.8a1.262,1.262,0,0,0,1.215-1.22v-16.31h7.1l8.508,16.95a1.092,1.092,0,0,0,1.023.58h6.717a1.212,1.212,0,0,0,1.087-1.86l-8.763-16.24c5.565-2.24,9.467-7.04,9.467-12.92a13.857,13.857,0,0,0-13.945-13.76H583.912a1.218,1.218,0,0,0-1.215,1.22v42.34Zm8.379-23.15v-12.73H601.5a6.359,6.359,0,0,1,6.332,6.2,6.514,6.514,0,0,1-6.332,6.53H591.076Zm33.605,7.42a17.816,17.816,0,0,0,35.629,0V6638.8a1.262,1.262,0,0,0-1.215-1.22h-6.077a1.219,1.219,0,0,0-1.216,1.22v26.23c0,5.37-3.774,9.65-9.339,9.65s-9.275-4.28-9.275-9.72V6638.8a1.218,1.218,0,0,0-1.215-1.22H625.9a1.262,1.262,0,0,0-1.215,1.22v26.61Zm46.655,15.73a1.262,1.262,0,0,0,1.216,1.22H678.5a1.262,1.262,0,0,0,1.215-1.22V6638.8a1.262,1.262,0,0,0-1.215-1.22h-5.949a1.262,1.262,0,0,0-1.216,1.22v42.34Zm26.045,0a1.262,1.262,0,0,0,1.216,1.22h5.948a1.262,1.262,0,0,0,1.216-1.22v-35.88h9.787a1.218,1.218,0,0,0,1.215-1.22v-5.24a1.218,1.218,0,0,0-1.215-1.22H687.594a1.218,1.218,0,0,0-1.215,1.22v5.24a1.218,1.218,0,0,0,1.215,1.22h9.787v35.88Zm26.051,0a1.262,1.262,0,0,0,1.216,1.22H730.6a1.262,1.262,0,0,0,1.215-1.22V6638.8a1.262,1.262,0,0,0-1.215-1.22h-5.949a1.262,1.262,0,0,0-1.216,1.22v42.34Zm20.032,0a1.262,1.262,0,0,0,1.216,1.22H750.5a1.218,1.218,0,0,0,1.215-1.22v-27.5h0.064L778.518,6683h1.535a1.2,1.2,0,0,0,1.215-1.15V6638.8a1.262,1.262,0,0,0-1.215-1.22h-5.885a1.218,1.218,0,0,0-1.215,1.22v26.42h-0.064l-26.61-28.28h-1.6a1.21,1.21,0,0,0-1.216,1.16v43.04Zm46.274-21.1a22.812,22.812,0,0,0,22.964,22.9,32.3,32.3,0,0,0,15.863-4.16,1.228,1.228,0,0,0,.512-1.03v-16.37a1.207,1.207,0,0,0-1.151-1.22H815.644a1.182,1.182,0,0,0-1.215,1.22v5.05a1.161,1.161,0,0,0,1.215,1.15h5.118v5.44a20.045,20.045,0,0,1-7.612,1.6,14.554,14.554,0,0,1-14.393-14.65c0-7.99,6.333-14.84,14.329-14.84a14.506,14.506,0,0,1,9.659,3.71,1.1,1.1,0,0,0,1.663,0l3.966-4.16a1.238,1.238,0,0,0-.064-1.79,24.183,24.183,0,0,0-15.608-5.95A22.976,22.976,0,0,0,789.738,6660.04Z" transform="translate(-458.656 -6636.94)"/>
</svg>
