<svg xmlns="http://www.w3.org/2000/svg" width="13.69" height="98.28" viewBox="0 0 13.69 98.28">
  <defs>
    <style>
      .cls-1 {
        fill: #5f9d7b;
        fill-rule: evenodd;
      }
    </style>
  </defs>
  <path id="SPECIAL_01" data-name="SPECIAL  01" class="cls-1" d="M1465.21,2234.15a6.1,6.1,0,0,0-1.48,4.18c0,2.68,1.81,4.37,3.76,4.37,2.45,0,3.55-2.13,4.3-3.97,0.62-1.54,1.23-2.24,2.12-2.24a1.505,1.505,0,0,1,1.33,1.67,6.4,6.4,0,0,1-1.04,2.64,0.5,0.5,0,0,0,.23.66l1.08,0.72a0.468,0.468,0,0,0,.63-0.11,6.726,6.726,0,0,0,1.27-3.8c0-3.02-1.96-4.27-3.65-4.27-2.24,0-3.38,1.78-4.1,3.57-0.65,1.59-1.31,2.41-2.28,2.41a1.582,1.582,0,0,1-1.46-1.73,6.453,6.453,0,0,1,1.17-2.87,0.425,0.425,0,0,0-.13-0.64l-1.18-.69A0.378,0.378,0,0,0,1465.21,2234.15Zm-0.93,10.98a0.358,0.358,0,0,0-.36.36v1.75a0.372,0.372,0,0,0,.36.36h4.47v2.37a4.235,4.235,0,1,0,8.47-.02v-4.46a0.358,0.358,0,0,0-.36-0.36h-12.58Zm6.78,2.47h3.82v2.2a1.9,1.9,0,0,1-1.84,1.96,1.961,1.961,0,0,1-1.98-1.96v-2.2Zm-6.78,8.78a0.358,0.358,0,0,0-.36.36v7.73a0.358,0.358,0,0,0,.36.36h1.56a0.358,0.358,0,0,0,.36-0.36v-5.62h3.33v4.69a0.358,0.358,0,0,0,.36.36h1.57a0.372,0.372,0,0,0,.36-0.36v-4.69h3.12v5.62a0.358,0.358,0,0,0,.36.36h1.56a0.358,0.358,0,0,0,.36-0.36v-7.73a0.358,0.358,0,0,0-.36-0.36h-12.58Zm6.27,10.2a6.812,6.812,0,0,0-6.82,6.86,6.517,6.517,0,0,0,1.84,4.61,0.366,0.366,0,0,0,.52.02l1.21-1.17a0.344,0.344,0,0,0,0-.48,4.6,4.6,0,0,1-1.08-2.91,4.408,4.408,0,0,1,8.81-.01,4.454,4.454,0,0,1-1.12,2.92,0.312,0.312,0,0,0,0,.48l1.2,1.15a0.34,0.34,0,0,0,.53-0.02,6.4,6.4,0,0,0,1.77-4.59A6.846,6.846,0,0,0,1470.55,2266.58Zm-6.27,13.97a0.372,0.372,0,0,0-.36.36v1.76a0.372,0.372,0,0,0,.36.36h12.58a0.372,0.372,0,0,0,.36-0.36v-1.76a0.372,0.372,0,0,0-.36-0.36h-12.58Zm-0.36,4.54v1.65a0.579,0.579,0,0,0,.38.55l2.05,0.93v5.68l-2.05.93a0.554,0.554,0,0,0-.38.55v1.65a0.342,0.342,0,0,0,.5.33l12.78-5.85a0.342,0.342,0,0,0,.21-0.33v-0.19a0.348,0.348,0,0,0-.21-0.32l-12.78-5.91A0.342,0.342,0,0,0,1463.92,2285.09Zm4.54,4.06,4.18,1.86v0.06l-4.18,1.9v-3.82Zm-4.18,9.94a0.358,0.358,0,0,0-.36.36v6.95a0.358,0.358,0,0,0,.36.36h1.56a0.358,0.358,0,0,0,.36-0.36v-4.84h10.66a0.372,0.372,0,0,0,.36-0.36v-1.75a0.358,0.358,0,0,0-.36-0.36h-12.58Zm-0.55,22.21c0,3.04,2.49,4.79,6.65,4.79s6.65-1.75,6.65-4.79-2.49-4.79-6.65-4.79S1463.73,2318.26,1463.73,2321.3Zm2.24,0c0-1.46,1.58-2.3,4.41-2.3,2.81,0,4.41.84,4.41,2.3s-1.6,2.3-4.41,2.3C1467.55,2323.6,1465.97,2322.76,1465.97,2321.3Zm-1.69,8.63a0.358,0.358,0,0,0-.36.36v1.63a0.355,0.355,0,0,0,.36.34h12.2a0.355,0.355,0,0,0,.36-0.34v-1.33l-2.3-2.73a0.381,0.381,0,0,0-.34-0.1l-0.93.11a0.316,0.316,0,0,0-.25.38l0.36,1.68h-9.1Z" transform="translate(-1463.72 -2233.97)"/>
</svg>
