<svg xmlns="http://www.w3.org/2000/svg" width="14.4" height="107.68" viewBox="0 0 14.4 107.68">
  <defs>
    <style>
      .cls-1 {
        fill: #5f9d7b;
        fill-rule: evenodd;
      }
    </style>
  </defs>
  <path id="SPECIAL_03" data-name="SPECIAL  03" class="cls-1" d="M1200.75,3551.14a6.434,6.434,0,0,0-1.56,4.4c0,2.82,1.9,4.6,3.96,4.6,2.59,0,3.75-2.24,4.53-4.18,0.66-1.62,1.3-2.36,2.24-2.36a1.593,1.593,0,0,1,1.4,1.76,6.58,6.58,0,0,1-1.1,2.78,0.526,0.526,0,0,0,.24.7l1.14,0.76a0.5,0.5,0,0,0,.66-0.12,7.041,7.041,0,0,0,1.34-4c0-3.18-2.06-4.5-3.84-4.5-2.36,0-3.56,1.88-4.32,3.76-0.68,1.68-1.39,2.54-2.41,2.54a1.67,1.67,0,0,1-1.54-1.82,6.623,6.623,0,0,1,1.24-3.02,0.463,0.463,0,0,0-.14-0.68l-1.24-.72A0.4,0.4,0,0,0,1200.75,3551.14Zm-0.98,11.56a0.38,0.38,0,0,0-.38.38v1.84a0.393,0.393,0,0,0,.38.38h4.71v2.5a4.46,4.46,0,1,0,8.92-.02v-4.7a0.38,0.38,0,0,0-.38-0.38h-13.25Zm7.15,2.6h4.02v2.32a2,2,0,0,1-1.94,2.06,2.061,2.061,0,0,1-2.08-2.06v-2.32Zm-7.15,9.24a0.38,0.38,0,0,0-.38.38v8.14a0.38,0.38,0,0,0,.38.38h1.64a0.38,0.38,0,0,0,.38-0.38v-5.92h3.51v4.94a0.38,0.38,0,0,0,.38.38h1.66a0.393,0.393,0,0,0,.38-0.38v-4.94H1211v5.92a0.38,0.38,0,0,0,.38.38h1.64a0.38,0.38,0,0,0,.38-0.38v-8.14a0.38,0.38,0,0,0-.38-0.38h-13.25Zm6.61,10.74a7.172,7.172,0,0,0-7.19,7.22,6.864,6.864,0,0,0,1.94,4.86,0.381,0.381,0,0,0,.54.02l1.28-1.24a0.368,0.368,0,0,0,0-.5,4.8,4.8,0,0,1-1.14-3.06,4.648,4.648,0,0,1,9.29-.02,4.732,4.732,0,0,1-1.18,3.08,0.32,0.32,0,0,0,0,.5l1.26,1.22a0.372,0.372,0,0,0,.56-0.02,6.769,6.769,0,0,0,1.86-4.84A7.2,7.2,0,0,0,1206.38,3585.28Zm-6.61,14.7a0.393,0.393,0,0,0-.38.38v1.86a0.393,0.393,0,0,0,.38.38h13.25a0.393,0.393,0,0,0,.38-0.38v-1.86a0.393,0.393,0,0,0-.38-0.38h-13.25Zm-0.38,4.78v1.74a0.6,0.6,0,0,0,.4.58l2.16,0.98v5.98l-2.16.98a0.575,0.575,0,0,0-.4.58v1.74a0.353,0.353,0,0,0,.52.34l13.47-6.16a0.34,0.34,0,0,0,.22-0.34v-0.2a0.359,0.359,0,0,0-.22-0.34l-13.47-6.22A0.353,0.353,0,0,0,1199.39,3604.76Zm4.79,4.28,4.4,1.96v0.06l-4.4,2v-4.02Zm-4.41,10.46a0.38,0.38,0,0,0-.38.38v7.32a0.38,0.38,0,0,0,.38.38h1.64a0.38,0.38,0,0,0,.38-0.38v-5.1h11.23a0.393,0.393,0,0,0,.38-0.38v-1.84a0.38,0.38,0,0,0-.38-0.38h-13.25Zm-0.58,23.38c0,3.2,2.62,5.04,7.01,5.04s7-1.84,7-5.04-2.62-5.04-7-5.04S1199.19,3639.68,1199.19,3642.88Zm2.36,0c0-1.54,1.66-2.42,4.65-2.42,2.96,0,4.64.88,4.64,2.42s-1.68,2.42-4.64,2.42C1203.21,3645.3,1201.55,3644.42,1201.55,3642.88Zm-0.58,6.98a5.162,5.162,0,0,0-1.78,4.16c0,2.76,1.64,4.6,3.9,4.6a3.752,3.752,0,0,0,3.27-2.42h0.06a3.639,3.639,0,0,0,3.12,2.06c2.24,0,3.66-1.94,3.66-4.26a5.468,5.468,0,0,0-1.76-3.76,0.357,0.357,0,0,0-.52,0l-0.92.98a0.363,0.363,0,0,0,.02.54,2.589,2.589,0,0,1,.96,2.02,1.87,1.87,0,0,1-1.84,1.94c-1.02,0-1.84-.84-1.84-2.48v-1.12a0.353,0.353,0,0,0-.4-0.38h-1.26a0.373,0.373,0,0,0-.4.38v1.12c0,1.8-.94,2.76-1.99,2.76a2.026,2.026,0,0,1-1.88-2.12,4.209,4.209,0,0,1,1.08-2.46,0.342,0.342,0,0,0,0-.52l-0.98-1.02A0.393,0.393,0,0,0,1200.97,3649.86Z" transform="translate(-1199.19 -3550.94)"/>
</svg>
