<svg xmlns="http://www.w3.org/2000/svg" width="236.25" height="20.91" viewBox="0 0 236.25 20.91">
  <defs>
    <style>
      .cls-1 {
        fill: #5f9d7b;
        fill-rule: evenodd;
      }
    </style>
  </defs>
  <path id="スペシャルコンテンツ" class="cls-1" d="M156.442,2191.49a3.164,3.164,0,0,0-.672-1.06,4.2,4.2,0,0,1-.84-0.84,4.491,4.491,0,0,0-.96-0.91,3.8,3.8,0,0,1-.96-0.89,2.976,2.976,0,0,1-1.032-.84,12.719,12.719,0,0,1-1.056-.74c-0.336-.24-0.84-0.48-1.176-0.77a0.889,0.889,0,0,1-.36-1.15,2.268,2.268,0,0,0,.36-0.6,2.642,2.642,0,0,0,.336-0.6,2.629,2.629,0,0,1,.5-0.72,2.852,2.852,0,0,1,.336-0.65,4.673,4.673,0,0,1,.288-0.65,1.63,1.63,0,0,0,.336-0.72c0.168-.4.36-0.79,0.5-1.2,0.072-.19.192-0.38,0.336-0.67a3.532,3.532,0,0,0,.576-0.55,0.623,0.623,0,0,0-.216-0.7c-0.216-.19-0.48-0.4-0.792-0.72a1.8,1.8,0,0,0-.984-0.72h-0.048c-0.456,0-.5.39-1.032,0.41a2.59,2.59,0,0,1-.864.03c-0.456.04-.672,0.02-1.056,0.04a8.954,8.954,0,0,0-1.081.03,7.3,7.3,0,0,0-1.056.05c-0.48.02-.792,0.04-1.272,0.02a7.923,7.923,0,0,1-1.3.05c-0.384.05-.96,0-1.272,0.02-0.408.03-.816-0.07-1.3,0a7.351,7.351,0,0,0-1.056.03,0.647,0.647,0,0,0-.744.81,2.533,2.533,0,0,0,.144,1.06c0.12,0.48.312,0.77,0.7,0.72,0.432-.05.528,0.05,0.96-0.03,0.24,0,.552-0.07.96-0.07,0.312,0,.7-0.02,1.056-0.05,0.408-.02.624,0,1.08-0.04,0.288-.03.72-0.08,1.08-0.08,0.36-.09.768,0.03,1.08-0.04a9.3,9.3,0,0,0,1.537-.1c0.48,0.05.672-.05,1.176-0.02,0.36-.05.528,0.69,0.384,1a3.735,3.735,0,0,1-.36.7,5.678,5.678,0,0,1-.408.65,3.425,3.425,0,0,0-.36.67,5.253,5.253,0,0,0-.36.55c-0.1.31-.288,0.24-0.361,0.51-0.216.24-.264,0.38-0.432,0.57-0.216.19-.312,0.51-0.432,0.58a9.559,9.559,0,0,1-.888,1.05,3.069,3.069,0,0,1-.48.53,2,2,0,0,0-.5.51,2.271,2.271,0,0,0-.5.5c-0.12.12-.408,0.36-0.528,0.46s-0.264.26-.552,0.48a1.692,1.692,0,0,1-.552.5c-0.5.22-.384,0.46-0.864,0.62s-0.36.44-.768,0.56a3.6,3.6,0,0,0-.768.45c-0.48.19-.552,0.43-1.032,0.6-0.408.15-.672,0.34-1.224,0.53a0.953,0.953,0,0,0-.912.84v0.05a2.694,2.694,0,0,0,.672.93,1.439,1.439,0,0,0,.816.92h0.1a1.817,1.817,0,0,0,1.1-.46,9.447,9.447,0,0,0,1.1-.55c0.24-.24.648-0.36,1.008-0.65a3.129,3.129,0,0,1,.888-0.62,4.72,4.72,0,0,1,.96-0.68c0.192-.16.672-0.5,0.912-0.74a2.65,2.65,0,0,1,.7-0.5c0.36-.27.456-0.48,0.816-0.8a2.683,2.683,0,0,0,.672-0.64,1.528,1.528,0,0,1,1.657-.27l0.432,0.29a4.047,4.047,0,0,0,.816.6c0.432,0.1.264,0.43,0.792,0.62a4.816,4.816,0,0,1,.768.65c0.432,0.22.384,0.53,0.744,0.67a2.991,2.991,0,0,1,.72.72,7.9,7.9,0,0,0,.672.75c0.288,0.33.408,0.53,0.648,0.77a1.451,1.451,0,0,0,.912.74,0.556,0.556,0,0,0,.552-0.29c0.36-.29.552-0.6,0.936-0.93a0.76,0.76,0,0,0,.288-0.46v-0.12Zm18.36-13.39a4.351,4.351,0,0,0,.552.79,1.73,1.73,0,0,0,.792.55,1.87,1.87,0,0,0,.984.19,5.081,5.081,0,0,0,.96-0.19,2.113,2.113,0,0,0,.816-0.55,3.467,3.467,0,0,0,.528-0.79,2.767,2.767,0,0,0,.216-0.99,2.255,2.255,0,0,0-.216-0.96,1.055,1.055,0,0,0-.216-0.4c-0.144-.12-0.168-0.27-0.312-0.41a1.306,1.306,0,0,0-.312-0.24c-0.264-.07-0.36-0.27-0.528-0.27-0.192,0-.312-0.14-0.48-0.14h-0.048a1.243,1.243,0,0,1-.336-0.05h-0.048a4.934,4.934,0,0,0-.576.07,2.859,2.859,0,0,1-.528.15,1.822,1.822,0,0,0-.7.5,3.068,3.068,0,0,0-.552.79,2.412,2.412,0,0,0-.216.99A2.1,2.1,0,0,0,174.8,2178.1Zm1.08-.79a0.945,0.945,0,0,1,.024-0.51,0.8,0.8,0,0,1,.36-0.55,0.747,0.747,0,0,1,.384-0.26,0.8,0.8,0,0,1,.5-0.1,1.045,1.045,0,0,1,.552.12,1.645,1.645,0,0,1,.36.31,0.952,0.952,0,0,1,.24.43,2.324,2.324,0,0,1,.072.44,1.39,1.39,0,0,1-.1.45,1.2,1.2,0,0,1-.336.46,1.124,1.124,0,0,1-.984.26,1.265,1.265,0,0,1-.7-0.31A1,1,0,0,1,175.882,2177.31Zm5.4,9.98a2.216,2.216,0,0,0-.48-0.36l-0.672-.46a2.178,2.178,0,0,1-.648-0.45,2.037,2.037,0,0,1-.648-0.43,3.436,3.436,0,0,1-.624-0.46,1.989,1.989,0,0,1-.648-0.46,7.022,7.022,0,0,0-.624-0.45c-0.312-.17-0.408-0.36-0.624-0.48a1.708,1.708,0,0,1-.648-0.46,5.294,5.294,0,0,0-.6-0.45,6.832,6.832,0,0,1-.864-0.65c-0.48-.19-0.48-0.53-0.84-0.65a2.223,2.223,0,0,1-.864-0.62l-0.84-.65c-0.24-.12-0.408-0.36-0.6-0.46-0.168-.09-0.336-0.26-0.624-0.43a2.125,2.125,0,0,0-.6-0.46c-0.24-.19-0.552-0.28-0.648-0.4a2.306,2.306,0,0,0-1.392-.44,1.973,1.973,0,0,0-.96.24,3.436,3.436,0,0,0-.816.63c-0.264.19-.5,0.62-0.816,0.86a6.87,6.87,0,0,0-.816.89c-0.36.29-.5,0.55-0.816,0.84a4.335,4.335,0,0,0-.816.82,1.091,1.091,0,0,1-.6.57c-0.336.15-.36,0.43-0.624,0.53a1.559,1.559,0,0,0-.6.55,1.994,1.994,0,0,0-.6.48,0.7,0.7,0,0,0-.288.58,0.517,0.517,0,0,0,.264.53,3.777,3.777,0,0,0,.576.76,2.211,2.211,0,0,0,.456.7,0.632,0.632,0,0,0,.6.36,0.739,0.739,0,0,0,.528-0.67,3.47,3.47,0,0,1,.408-0.58,3.668,3.668,0,0,0,.456-0.53,3.752,3.752,0,0,0,.648-0.64,5.107,5.107,0,0,0,.48-0.53,4.831,4.831,0,0,1,.72-0.82c0.216-.33.5-0.45,0.72-0.81a2.409,2.409,0,0,1,.5-0.56c0.192-.12.168-0.26,0.528-0.52a1.121,1.121,0,0,1,.36-0.44,1.445,1.445,0,0,1,1.416-.07c0.264,0.17.264,0.22,0.552,0.43a3.486,3.486,0,0,0,.744.56c0.36,0.09.36,0.4,0.888,0.62a3.6,3.6,0,0,1,.625.55c0.36,0.22.408,0.41,0.792,0.63a5.366,5.366,0,0,0,.672.6,0.9,0.9,0,0,1,.48.4,1.685,1.685,0,0,1,.72.6,3.767,3.767,0,0,0,.744.58,5.274,5.274,0,0,0,.768.6,3.517,3.517,0,0,0,.744.58,4.264,4.264,0,0,0,.744.57,3.956,3.956,0,0,1,.768.58c0.168,0.26.456,0.24,0.744,0.57,0.216,0.27.384,0.24,0.672,0.58a1.768,1.768,0,0,0,.624.38,0.566,0.566,0,0,0,.216.05,0.6,0.6,0,0,0,.48-0.33,5.966,5.966,0,0,1,.336-0.58c0.072-.12.312-0.43,0.432-0.65a1.071,1.071,0,0,0,.312-0.57v-0.12A0.9,0.9,0,0,0,181.282,2187.29Zm8.327-9.98a7.5,7.5,0,0,1,.984.72,3.852,3.852,0,0,0,.648.6,5.523,5.523,0,0,1,.528.52,0.957,0.957,0,0,0,.672.39,0.765,0.765,0,0,0,.648-0.31,3.1,3.1,0,0,0,.672-0.84,0.9,0.9,0,0,0,.336-0.7,1.368,1.368,0,0,0-.432-0.74c-0.144-.29-0.48-0.34-0.648-0.63a3.055,3.055,0,0,0-.672-0.57,2.253,2.253,0,0,0-.7-0.51,3.033,3.033,0,0,0-1.056-.6,0.985,0.985,0,0,0-.72-0.29,0.949,0.949,0,0,0-.72.41,4.955,4.955,0,0,0-.5.65,1,1,0,0,0-.288.86,0.742,0.742,0,0,0,.456.56A3.807,3.807,0,0,1,189.609,2177.31Zm14.377,2.64a1.714,1.714,0,0,0-1.1-.8,0.91,0.91,0,0,0-.672.68,5.134,5.134,0,0,1-.624.91c-0.216.41-.36,0.48-0.552,0.91-0.168.31-.408,0.48-0.552,0.79a5.967,5.967,0,0,0-.6.79,5.444,5.444,0,0,1-.792.94,5.232,5.232,0,0,1-.84.86,7.872,7.872,0,0,0-.888.82,10.765,10.765,0,0,0-.936.79,3.291,3.291,0,0,0-.96.72,10.147,10.147,0,0,1-1.009.7,3.089,3.089,0,0,1-1.008.62c-0.24.05-.408,0.34-0.7,0.41-0.288.1-.528,0.34-0.7,0.38-0.336.17-.432,0.27-0.7,0.39a2.678,2.678,0,0,0-.72.36,3.905,3.905,0,0,0-.72.36,1.843,1.843,0,0,1-.72.31c-0.192.12-.48,0.17-0.744,0.31a2.6,2.6,0,0,0-.768.27,1.231,1.231,0,0,0-.912.62,0.74,0.74,0,0,0,.144.72,8.678,8.678,0,0,0,.5.79c0.168,0.29.36,0.7,0.5,0.89a0.642,0.642,0,0,0,.5.34c0.048,0,.072-0.03.12-0.03a0.6,0.6,0,0,0,.456-0.38,1.528,1.528,0,0,1,.48-0.43c0.48-.22.84-0.41,1.176-0.53,0.36-.12.72-0.36,1.2-0.55,0.312-.17.648-0.36,1.152-0.6a6.563,6.563,0,0,1,1.224-.63,5.962,5.962,0,0,1,.648-0.38,1.583,1.583,0,0,0,.673-0.41,2.7,2.7,0,0,1,.624-0.43,3.565,3.565,0,0,1,.648-0.46,4.162,4.162,0,0,1,.6-0.45,2.617,2.617,0,0,1,.6-0.48c0.144-.05.312-0.34,0.6-0.51a3.175,3.175,0,0,1,.552-0.5,3.534,3.534,0,0,0,.576-0.53c0.216-.14.24-0.34,0.528-0.53,0.216-.14.264-0.41,0.528-0.57,0.312-.22.312-0.41,0.528-0.56,0.1-.14.36-0.4,0.48-0.6,0.1-.19.312-0.28,0.48-0.6a1.163,1.163,0,0,0,.48-0.62,1.719,1.719,0,0,1,.456-0.62,2.547,2.547,0,0,1,.336-0.48,4.783,4.783,0,0,0,.456-0.7,2.971,2.971,0,0,0,.576-1.27A1.64,1.64,0,0,0,203.986,2179.95Zm-16.537,3.91a7.626,7.626,0,0,1,.576.5,6.756,6.756,0,0,0,.576.53,0.84,0.84,0,0,0,.672.38,0.831,0.831,0,0,0,.672-0.33c0.288-.43.48-0.48,0.672-0.82a1.256,1.256,0,0,0,.336-0.69,2.279,2.279,0,0,0-.432-0.75,3.984,3.984,0,0,0-.6-0.55,4.866,4.866,0,0,0-.576-0.48,4.489,4.489,0,0,0-.864-0.65,3.874,3.874,0,0,0-.84-0.53,1.19,1.19,0,0,0-.912-0.38,0.637,0.637,0,0,0-.672.34,4.26,4.26,0,0,0-.624.74,1,1,0,0,0-.24.6v0.07a0.9,0.9,0,0,0,.5.72,2.029,2.029,0,0,1,.6.41c0.192,0.24.288,0.14,0.576,0.43C187.137,2183.67,187.305,2183.67,187.449,2183.86Zm39.985-1.32c-0.24-.24-0.48-0.46-0.648-0.6a4.1,4.1,0,0,1-.5-0.53,0.593,0.593,0,0,0-.864-0.12,2.884,2.884,0,0,1-.768.34,10.648,10.648,0,0,0-1.128.14c-0.6.17-1.008,0.14-1.44,0.24a12.9,12.9,0,0,0-1.416.22c-0.48.02-.72,0.09-1.32,0.12a1.211,1.211,0,0,1-1.1-.63,1.78,1.78,0,0,1-.168-0.86c0.048-.27-0.168-0.48-0.12-0.87a6.053,6.053,0,0,1-.12-1.24c-0.048-.36.312-0.56,0.264-0.84a0.5,0.5,0,0,0-.576-0.46c-0.744.02-1.176,0.07-1.728,0.1a0.586,0.586,0,0,0-.7.57,4.552,4.552,0,0,1,.144.75,6.511,6.511,0,0,1,.192,1.05,10.15,10.15,0,0,0,.192,1.37,2.217,2.217,0,0,1-.144,1.39,0.845,0.845,0,0,1-.84.43,9.082,9.082,0,0,1-1.152.15c-0.336-.03-0.672.12-1.008,0.09-0.336,0-.744.12-1.08,0.15a0.568,0.568,0,0,0-.576.67c0,0.1.024,0.17,0.024,0.26a3.629,3.629,0,0,0,.216,1.04,0.644,0.644,0,0,0,.84.6,9.258,9.258,0,0,1,1.32-.29,3.118,3.118,0,0,0,1.008-.17c0.288-.12.576-0.02,0.84-0.14a0.914,0.914,0,0,1,.936.33,1.816,1.816,0,0,1,.336,1.03,4.365,4.365,0,0,1,.1.89,8.483,8.483,0,0,1,.288,1.85c0.072,0.77.12,1.2,0.144,1.46a5.794,5.794,0,0,1,.168,1.06c-0.048.29,0.12,0.41,0.072,0.77-0.072.45,0.144,0.55,0.1,0.96a2.7,2.7,0,0,0,.1.89,0.711,0.711,0,0,0,.864.52,4.308,4.308,0,0,0,.985-0.12,0.723,0.723,0,0,0,.744-0.86c-0.1-.5-0.12-0.74-0.168-0.89a4.193,4.193,0,0,1-.144-0.81c-0.024-.36-0.144-0.65-0.168-0.99a5.9,5.9,0,0,1-.144-1.17,7.676,7.676,0,0,1-.144-1.16c-0.048-.24-0.024-0.5-0.121-0.91a2.941,2.941,0,0,1-.144-0.93c-0.024-.24-0.1-0.58-0.12-0.99a1.3,1.3,0,0,1,.865-1.63c0.48-.12.768-0.1,1.248-0.22,0.36-.07.816-0.12,1.2-0.19a8.61,8.61,0,0,0,1.152-.26,0.61,0.61,0,0,1,.744.74,5.534,5.534,0,0,1-.408.58c-0.216.14-.288,0.38-0.456,0.48-0.288.17-.144,0.31-0.456,0.53-0.24.16-.312,0.36-0.552,0.52a3.98,3.98,0,0,0-.552.51,0.577,0.577,0,0,0-.336.55,0.885,0.885,0,0,0,.384.58,5.175,5.175,0,0,1,.5.5,1.083,1.083,0,0,0,.816.43,1.579,1.579,0,0,0,.96-0.69c0.288-.32.432-0.46,0.792-0.89l0.312-.39a3.325,3.325,0,0,0,.768-1.12,4.068,4.068,0,0,1,.552-0.84,6.783,6.783,0,0,0,.456-0.8,2.86,2.86,0,0,1,.384-0.76c0.12-.32.552-0.41,0.672-0.77a0.6,0.6,0,0,0,.024-0.19A0.7,0.7,0,0,0,227.434,2182.54Zm26.28,2.16c-0.072-.46-0.24-0.48-0.312-0.94a0.466,0.466,0,0,0-.792-0.17c-0.144.24-.456,0.39-0.6,0.63a6.746,6.746,0,0,1-.72.72c-0.264.29-.528,0.43-1.008,0.91a5.384,5.384,0,0,1-.72.6c-0.24.31-.624,0.38-0.744,0.62a1.973,1.973,0,0,1-.792.58,2.04,2.04,0,0,1-.7.48,1,1,0,0,1-1.536-.94,9.706,9.706,0,0,0-.024-1.34c0.048-.31-0.072-0.62,0-1.03a4.925,4.925,0,0,1,0-1.03c0.024-.22-0.048-0.72,0-1.04a7.351,7.351,0,0,1,0-1.03,7.027,7.027,0,0,1,0-1.01c-0.024-.48.024-0.57,0-1.03a6.3,6.3,0,0,1,0-1.17c0.024-.22-0.024-0.46-0.024-0.87a0.834,0.834,0,0,1,.24-0.69,0.592,0.592,0,0,0,.288-0.53,0.432,0.432,0,0,0-.48-0.31c-0.432-.03-0.6,0-1.008-0.05-0.384-.05-0.528-0.03-0.912-0.07h-0.12a0.618,0.618,0,0,0-.672.72c0.024,0.5,0,.88.048,1.34a7.277,7.277,0,0,0,0,1.03,8.9,8.9,0,0,0-.024.94c0.12,0.43-.072.69,0.048,1.32,0.072,0.38-.1.65-0.048,0.96a8.776,8.776,0,0,1,.024,1.1,3.372,3.372,0,0,1,0,.99,2.952,2.952,0,0,0-.024.79c0.024,0.77-.072,1.15,0,1.8a7.061,7.061,0,0,0-.024,1.22,12.424,12.424,0,0,1-.024,1.32,6.2,6.2,0,0,1-.145,1.13,0.954,0.954,0,0,0,.553,1.27c0.168,0.12.672,0.24,0.816,0.34a1.763,1.763,0,0,0,1.032.36,1.024,1.024,0,0,0,.672-0.63,5.7,5.7,0,0,1,.96-0.55,2.516,2.516,0,0,1,.672-0.38c0.192-.07.36-0.29,0.648-0.39,0.168-.14.48-0.31,0.7-0.45,0.216-.24.5-0.27,0.672-0.46a4.467,4.467,0,0,1,.648-0.5c0.12-.15.456-0.34,0.648-0.53a2.409,2.409,0,0,1,.624-0.53,6.924,6.924,0,0,1,.6-0.53,1.511,1.511,0,0,0,.624-0.55,7.816,7.816,0,0,0,.6-0.55,1.484,1.484,0,0,0,.6-0.91A3.108,3.108,0,0,0,253.714,2184.7Zm-13.489-8.47a4.618,4.618,0,0,1-.936-0.08c-0.456-.02-0.768-0.09-1.056-0.12h-0.048a0.616,0.616,0,0,0-.6.68,6.711,6.711,0,0,1,0,1.39c0.024,0.48-.024.86,0,1.27,0.024,0.65,0,.86,0,1.34a10.393,10.393,0,0,1-.072,1.35,5.476,5.476,0,0,1-.144,1.34c-0.12.48-.144,0.96-0.24,1.32a6.814,6.814,0,0,1-.384,1.27,5.66,5.66,0,0,1-.576,1.37,3.134,3.134,0,0,1-.768,1.01,1.294,1.294,0,0,1-.672.62,2.167,2.167,0,0,1-.744.65,7.735,7.735,0,0,0-.816.58c-0.36.12-.5,0.33-0.792,0.43a0.836,0.836,0,0,0-.576.77,3.583,3.583,0,0,0,.744,1.13,1.348,1.348,0,0,0,.888.6h0.048a1.646,1.646,0,0,0,.744-0.32,8.78,8.78,0,0,0,.96-0.64c0.384-.27.528-0.39,0.936-0.7a7.515,7.515,0,0,0,.84-0.77,6.657,6.657,0,0,1,.768-0.84,5.239,5.239,0,0,1,.72-1.08,6.131,6.131,0,0,1,.552-1.13,5.257,5.257,0,0,0,.456-1.17,4.114,4.114,0,0,0,.312-1.25,9.883,9.883,0,0,1,.24-1.25,12.585,12.585,0,0,1,.12-1.27,2.986,2.986,0,0,1,.1-1.25,3.757,3.757,0,0,0,0-1.27c-0.024-.41.024-0.65,0-1.1a8.8,8.8,0,0,0-.024-1.08,1.151,1.151,0,0,1,.24-1.01,0.5,0.5,0,0,0,.264-0.51A0.459,0.459,0,0,0,240.225,2176.23Zm34.393,9.52a2.8,2.8,0,0,1,0-1c-0.048-.27.024-0.63,0-1.04a6.9,6.9,0,0,1,0-1,5.02,5.02,0,0,1,0-1.04,6.944,6.944,0,0,0,0-1,8.124,8.124,0,0,1,.024-1.32v-0.24a3.786,3.786,0,0,0,.048-0.75,5.111,5.111,0,0,0-.048-0.84,0.606,0.606,0,0,0-.624-0.69,6.177,6.177,0,0,0-.72-0.03,5.975,5.975,0,0,0-.72.03,7.133,7.133,0,0,1-1.224,0h-0.168c-0.384,0-.672-0.05-0.96-0.05a2.578,2.578,0,0,0-.456.05,5.57,5.57,0,0,1-1.416,0,5.165,5.165,0,0,1-1.416,0h-0.193a5.536,5.536,0,0,1-1.224,0h-0.24a6.585,6.585,0,0,1-1.176,0,1.188,1.188,0,0,0-.312-0.03,5.769,5.769,0,0,1-1.1.03,0.728,0.728,0,0,0-.24-0.03,3.6,3.6,0,0,1-1.152.03,1.387,1.387,0,0,0-.384-0.05c-0.192,0-.432.02-0.6,0.02h-1.3a0.7,0.7,0,0,0-.672.79,4.715,4.715,0,0,0,0,1.01,0.728,0.728,0,0,0,.7.79c0.432-.02.84,0.03,1.128,0a3.6,3.6,0,0,1,1.128-.02c0.36,0.02.888,0.02,1.224,0a6.256,6.256,0,0,0,1.224,0,4.17,4.17,0,0,0,1.224,0,9.963,9.963,0,0,0,1.224,0,5.209,5.209,0,0,0,1.249,0,7.049,7.049,0,0,0,1.224,0,3.207,3.207,0,0,0,.768.05c0.5,0.02.72-.03,1.224,0a1.389,1.389,0,0,1,1.176,1.15,3.435,3.435,0,0,0,0,.86c0.1,0.32-.1.51,0,0.8,0.1,0.4-.1.67,0,1.08a6.548,6.548,0,0,1,.048,1.2,7.593,7.593,0,0,0-.048.96,5.786,5.786,0,0,0,.048.93,1.61,1.61,0,0,1-.048.75c-0.024.43,0.024,0.67,0,1.08a1.335,1.335,0,0,1-1.08,1.22c-0.384.1-.672-0.12-1.152-0.02-0.312.12-.672-0.15-1.128-0.03a8.057,8.057,0,0,1-1.1,0,7.342,7.342,0,0,1-1.249,0c-0.5.12-.936-0.09-1.272,0-0.528.1-.744-0.07-1.248,0a5.193,5.193,0,0,1-1.248,0c-0.456.05-.864-0.02-1.248,0a3.394,3.394,0,0,1-1.1,0,10.97,10.97,0,0,0-1.152,0,0.737,0.737,0,0,0-.672.79,0.72,0.72,0,0,1,.024.22c0,0.19-.048.41-0.048,0.58v0.04a0.329,0.329,0,0,0,.024.15c0.048,0.48.12,0.91,0.672,0.81a8.822,8.822,0,0,0,1.152,0,4.155,4.155,0,0,0,1.1-.02c0.384-.05.768,0.07,1.272,0,0.312,0.02.864,0,1.248,0a10.742,10.742,0,0,1,1.272,0,10.794,10.794,0,0,1,1.272,0,7.705,7.705,0,0,0,1.273,0,10.358,10.358,0,0,1,1.248,0,10.718,10.718,0,0,1,1.272,0,3.47,3.47,0,0,0,.864,0,1.394,1.394,0,0,1,1.056.77,0.691,0.691,0,0,0,.816.36h0.648a2.843,2.843,0,0,0,.5-0.03H273.9a0.785,0.785,0,0,0,.792-0.86v-0.24c0-.5-0.048-0.91-0.048-1.37v-0.24a11.159,11.159,0,0,1-.024-1.56,7.774,7.774,0,0,0-.024-1.01,3.141,3.141,0,0,1,.048-0.81,0.573,0.573,0,0,0-.024-0.19A7.407,7.407,0,0,1,274.618,2185.75Zm9.815-6.69a6.161,6.161,0,0,0,.576.5c0.168,0.12.384,0.43,0.552,0.53a2.223,2.223,0,0,0,.552.58,1.079,1.079,0,0,0,.816.55,0.485,0.485,0,0,0,.552-0.29,1.736,1.736,0,0,0,.5-0.5c0.264-.2.288-0.39,0.48-0.51a0.523,0.523,0,0,0,.288-0.57,1.263,1.263,0,0,0-.36-0.68c-0.312-.28-0.5-0.48-0.936-0.88a3.152,3.152,0,0,0-.96-0.82c-0.24-.31-0.816-0.48-1.032-0.77a4.18,4.18,0,0,1-1.1-.69,0.8,0.8,0,0,0-.552-0.2,0.212,0.212,0,0,0-.1-0.02,1.152,1.152,0,0,0-.552.38l-0.5.58a1.149,1.149,0,0,0-.456.84c0,0.17.048,0.43,0.192,0.41a2.517,2.517,0,0,0,.648.53,8.186,8.186,0,0,0,.792.55A4.448,4.448,0,0,1,284.433,2179.06Zm15.337-.55c-0.216-.24-0.288-0.41-0.552-0.68a0.532,0.532,0,0,0-.7-0.14,0.7,0.7,0,0,0-.408.55c-0.192.34-.312,0.51-0.528,0.87a4.144,4.144,0,0,1-.5.81,1.7,1.7,0,0,1-.36.6,5.725,5.725,0,0,0-.7,1.03,4.769,4.769,0,0,0-.792.99,9.2,9.2,0,0,1-.84.93,5.17,5.17,0,0,1-.864.92c-0.312.24-.552,0.52-0.936,0.86-0.312.36-.768,0.5-0.96,0.79a3.34,3.34,0,0,1-1.009.77,4.7,4.7,0,0,1-1.032.72,1.516,1.516,0,0,1-.648.43,2.907,2.907,0,0,1-.648.41c-0.336.19-.36,0.24-0.648,0.38a2.393,2.393,0,0,0-.672.39,1.064,1.064,0,0,1-.672.38,1.356,1.356,0,0,1-.672.34,4.384,4.384,0,0,0-.7.33c-0.336.05-.5,0.32-0.72,0.32a0.842,0.842,0,0,0-.816.74c-0.12.1,0.144,0.24,0.168,0.43a3.613,3.613,0,0,0,.576.84c0.072,0.34.384,0.51,0.456,0.82a0.575,0.575,0,0,0,.528.38h0.048a0.562,0.562,0,0,0,.5-0.45,3.411,3.411,0,0,1,.864-0.58c0.408-.19.672-0.34,0.96-0.48a7.534,7.534,0,0,1,.84-0.46c0.264-.26.6-0.28,0.816-0.48a7.5,7.5,0,0,1,.792-0.5l0.792-.53a4.167,4.167,0,0,1,.769-0.55c0.24-.14.528-0.43,0.768-0.55a2.32,2.32,0,0,0,.744-0.58,9.257,9.257,0,0,0,.72-0.62,2.642,2.642,0,0,1,.7-0.63,3.73,3.73,0,0,1,.7-0.64,4.05,4.05,0,0,0,.648-0.68,1.229,1.229,0,0,0,.648-0.67,3.037,3.037,0,0,1,.624-0.72,7.544,7.544,0,0,1,.576-0.72,1.682,1.682,0,0,1,.576-0.77,2.372,2.372,0,0,0,.552-0.76c0.12-.08.12-0.27,0.384-0.58a2.945,2.945,0,0,0,.552-0.84,3.351,3.351,0,0,0,.48-0.86,3.735,3.735,0,0,0,.24-0.72A1.169,1.169,0,0,0,299.77,2178.51Zm7.991-2a0.728,0.728,0,0,0,.672.8,10.608,10.608,0,0,0,1.128,0,4.29,4.29,0,0,0,1.128-.03c0.384,0.1.768-.09,1.08,0a3.88,3.88,0,0,0,1.08,0c0.36-.02.7,0.03,1.1,0a3.9,3.9,0,0,0,1.081,0,3.635,3.635,0,0,1,1.1,0,9.63,9.63,0,0,1,1.08,0,3.89,3.89,0,0,0,1.08,0c0.312,0.05.672-.02,1.08,0a8.818,8.818,0,0,0,1.128.03,10.543,10.543,0,0,0,1.128,0,0.642,0.642,0,0,0,.7-0.8c0-.28-0.024-0.55,0-0.98a0.611,0.611,0,0,0-.72-0.72,3.175,3.175,0,0,1-.672-0.07,0.254,0.254,0,0,0-.12.02,1.073,1.073,0,0,1-.48,0,0.18,0.18,0,0,0-.12.03,3.027,3.027,0,0,1-.792.02,2.8,2.8,0,0,0-.5,0,6.749,6.749,0,0,1-1.008,0,3.964,3.964,0,0,1-.84-0.02,2.456,2.456,0,0,1-.936,0c-0.264,0-.48-0.03-0.72-0.03a1.764,1.764,0,0,0-.384.03,9.743,9.743,0,0,1-1.081,0,1.368,1.368,0,0,0-.336-0.03,8.3,8.3,0,0,1-.864,0h-0.048a2.054,2.054,0,0,1-.888.03,0.251,0.251,0,0,0-.144-0.03,3.063,3.063,0,0,1-.864.03,0.942,0.942,0,0,0-.288-0.03,3.432,3.432,0,0,1-.96-0.02,1.286,1.286,0,0,1-.264.02c-0.24,0-.456-0.05-0.7-0.05-0.048,0-.12.03-0.168,0.03a0.691,0.691,0,0,0-.672.79A3.351,3.351,0,0,0,307.761,2176.51Zm16.825,4.9a0.66,0.66,0,0,0-.648-0.79,2.472,2.472,0,0,0-1.056,0,10.164,10.164,0,0,1-1.1,0,3.891,3.891,0,0,1-1.08.02c-0.552-.05-1.056.07-1.488,0-0.6.03-.96-0.02-1.488,0a4.7,4.7,0,0,0-.72-0.02,2.245,2.245,0,0,1-.768.02,2.485,2.485,0,0,0-.72-0.02,4.215,4.215,0,0,1-.769.02c-0.7.17-.936-0.17-1.512,0a1.993,1.993,0,0,1-.672-0.02,3.506,3.506,0,0,1-.84.02,14.6,14.6,0,0,1-1.488,0h-1.488l-1.56-.02c-0.576.02-.888,0-1.344,0a0.8,0.8,0,0,0-.984.79,0.816,0.816,0,0,0-.024.24c0,0.19.048,0.36,0.048,0.55,0,0.05-.024.1-0.024,0.15a0.734,0.734,0,0,0,.864.81c0.528,0,1.056,0,1.464-.02a12.088,12.088,0,0,1,1.56-.03,5.486,5.486,0,0,1,1.344,0,3.808,3.808,0,0,1,1.344.03,9.827,9.827,0,0,1,1.416-.03,1.1,1.1,0,0,1,.984.51,1.284,1.284,0,0,1,.216.89,7.389,7.389,0,0,1-.216,1.1,5.94,5.94,0,0,1-.384,1.15c-0.168.22-.24,0.55-0.336,0.65a1.281,1.281,0,0,1-.384.62,2.087,2.087,0,0,1-.432.58,3.7,3.7,0,0,1-.48.55,2.987,2.987,0,0,1-1.008.89,5.7,5.7,0,0,1-.744.48c-0.336.14-.432,0.34-0.816,0.5a3.746,3.746,0,0,1-.792.39c-0.336.09-.576,0.24-0.84,0.33a0.833,0.833,0,0,0-.864.65,1.6,1.6,0,0,0,.528,1.06c0.072,0.17.264,0.41,0.384,0.62a0.637,0.637,0,0,0,.528.41,0.359,0.359,0,0,0,.144-0.02,2.849,2.849,0,0,0,1.128-.39c0.288-.12.432-0.24,0.888-0.45,0.384-.17.6-0.36,1.032-0.6,0.36-.27.792-0.51,1.056-0.68,0.336-.14.552-0.55,0.984-0.76a9.421,9.421,0,0,0,.864-0.84c0.264-.39.432-0.58,0.745-0.99,0.168-.33.408-0.62,0.576-1.01a5.369,5.369,0,0,0,.528-1.15c0.024-.24.192-0.62,0.312-1.2a7.037,7.037,0,0,0,.288-1.2c0.048-.31.048-0.48,0.12-0.89a1.424,1.424,0,0,1,.624-0.88,1.747,1.747,0,0,1,1.056-.32,7.766,7.766,0,0,0,1.08,0,4.827,4.827,0,0,0,1.08,0c0.384,0.05.6-.02,1.08,0a5.592,5.592,0,0,1,1.1.03,6.027,6.027,0,0,0,1.056,0c0.336,0.07.6-.27,0.648-0.79v-0.94Zm7.847-2.35a6.161,6.161,0,0,0,.576.5c0.168,0.12.384,0.43,0.552,0.53a2.223,2.223,0,0,0,.552.58,1.079,1.079,0,0,0,.816.55,0.485,0.485,0,0,0,.552-0.29,1.736,1.736,0,0,0,.5-0.5c0.264-.2.288-0.39,0.48-0.51a0.523,0.523,0,0,0,.288-0.57,1.263,1.263,0,0,0-.36-0.68c-0.312-.28-0.5-0.48-0.936-0.88a3.152,3.152,0,0,0-.96-0.82c-0.24-.31-0.816-0.48-1.032-0.77a4.18,4.18,0,0,1-1.1-.69,0.8,0.8,0,0,0-.552-0.2,0.212,0.212,0,0,0-.1-0.02,1.152,1.152,0,0,0-.552.38l-0.5.58a1.149,1.149,0,0,0-.456.84c0,0.17.048,0.43,0.192,0.41a2.517,2.517,0,0,0,.648.53,8.186,8.186,0,0,0,.792.55A4.448,4.448,0,0,1,332.433,2179.06Zm15.337-.55c-0.216-.24-0.288-0.41-0.552-0.68a0.532,0.532,0,0,0-.7-0.14,0.7,0.7,0,0,0-.408.55c-0.192.34-.312,0.51-0.528,0.87a4.144,4.144,0,0,1-.5.81,1.7,1.7,0,0,1-.36.6,5.725,5.725,0,0,0-.7,1.03,4.769,4.769,0,0,0-.792.99,9.2,9.2,0,0,1-.84.93,5.17,5.17,0,0,1-.864.92c-0.312.24-.552,0.52-0.936,0.86-0.312.36-.768,0.5-0.96,0.79a3.34,3.34,0,0,1-1.009.77,4.7,4.7,0,0,1-1.032.72,1.516,1.516,0,0,1-.648.43,2.907,2.907,0,0,1-.648.41c-0.336.19-.36,0.24-0.648,0.38a2.393,2.393,0,0,0-.672.39,1.064,1.064,0,0,1-.672.38,1.356,1.356,0,0,1-.672.34,4.384,4.384,0,0,0-.7.33c-0.336.05-.5,0.32-0.72,0.32a0.842,0.842,0,0,0-.816.74c-0.12.1,0.144,0.24,0.168,0.43a3.613,3.613,0,0,0,.576.84c0.072,0.34.384,0.51,0.456,0.82a0.575,0.575,0,0,0,.528.38h0.048a0.562,0.562,0,0,0,.5-0.45,3.411,3.411,0,0,1,.864-0.58c0.408-.19.672-0.34,0.96-0.48a7.534,7.534,0,0,1,.84-0.46c0.264-.26.6-0.28,0.816-0.48a7.5,7.5,0,0,1,.792-0.5l0.793-.53a4.124,4.124,0,0,1,.768-0.55c0.24-.14.528-0.43,0.768-0.55a2.32,2.32,0,0,0,.744-0.58,9.257,9.257,0,0,0,.72-0.62,2.642,2.642,0,0,1,.7-0.63,3.73,3.73,0,0,1,.7-0.64,4.05,4.05,0,0,0,.648-0.68,1.229,1.229,0,0,0,.648-0.67,3.037,3.037,0,0,1,.624-0.72,7.544,7.544,0,0,1,.576-0.72,1.682,1.682,0,0,1,.576-0.77,2.372,2.372,0,0,0,.552-0.76c0.12-.08.12-0.27,0.384-0.58a2.945,2.945,0,0,0,.552-0.84,3.351,3.351,0,0,0,.48-0.86,3.735,3.735,0,0,0,.24-0.72A1.169,1.169,0,0,0,347.77,2178.51Zm11.807-1.18a5.753,5.753,0,0,1,.408.67,4.055,4.055,0,0,0,.48.96,2.919,2.919,0,0,0,.384.87c0.048,0.31.24,0.4,0.336,0.84,0.1,0.38.216,0.6,0.312,0.91a0.58,0.58,0,0,0,.528.5,3.213,3.213,0,0,0,.673-0.14,8.689,8.689,0,0,1,.984-0.46,0.746,0.746,0,0,0,.576-0.86,2.044,2.044,0,0,0-.264-0.82c-0.168-.19-0.048-0.33-0.312-0.72a4.427,4.427,0,0,1-.384-0.84l-0.168-.31c-0.1-.26-0.312-0.53-0.481-0.91a6.1,6.1,0,0,1-.5-0.77,0.827,0.827,0,0,0-.648-0.65,0.881,0.881,0,0,0-.312-0.07,0.957,0.957,0,0,0-.5.24,6.221,6.221,0,0,1-.768.36,0.785,0.785,0,0,0-.5.67A1.474,1.474,0,0,0,359.577,2177.33Zm13.033-.02a9.46,9.46,0,0,0-1.056-.44,4.213,4.213,0,0,0-.768-0.33,3.437,3.437,0,0,0-.72-0.19,0.867,0.867,0,0,0-.576.98c-0.12.34-.12,0.65-0.192,0.86a3.455,3.455,0,0,0-.216.82,3.187,3.187,0,0,1-.24.82,3.811,3.811,0,0,1-.288.79,3.04,3.04,0,0,1-.312.79,1.48,1.48,0,0,1-.336.77c-0.072.29-.336,0.6-0.36,0.79a3.806,3.806,0,0,1-.384.74,3.237,3.237,0,0,1-.552.96c-0.192.22-.48,0.72-0.624,0.92-0.264.36-.48,0.52-0.672,0.84a4.143,4.143,0,0,1-.72.81,2.687,2.687,0,0,1-.792.77c-0.312.31-.6,0.48-0.816,0.74a6.679,6.679,0,0,1-.889.68c-0.264.16-.624,0.43-0.888,0.6a9.692,9.692,0,0,1-1.1.64,8.191,8.191,0,0,0-1.1.56c-0.5.24-.576,0.24-0.936,0.4-0.408.2-.6,0.24-1.032,0.41a0.7,0.7,0,0,0-.648.7,0.63,0.63,0,0,0,.264.57,5.837,5.837,0,0,1,.384.58,6.274,6.274,0,0,1,.336.55,0.575,0.575,0,0,0,.6.41h0.1a2,2,0,0,0,.744-0.19,2.082,2.082,0,0,0,.72-0.36,2.819,2.819,0,0,0,.888-0.43c0.192-.2.456-0.17,0.624-0.34,0.24-.36.48-0.1,0.744-0.43a2.37,2.37,0,0,1,.744-0.46,7.291,7.291,0,0,0,.745-0.48,8.453,8.453,0,0,0,.72-0.5,1.789,1.789,0,0,1,.7-0.51,2.974,2.974,0,0,1,.672-0.55,5.218,5.218,0,0,0,.648-0.57,1.585,1.585,0,0,0,.648-0.63c0.288-.33.648-0.65,0.84-0.91a10.134,10.134,0,0,1,.768-0.98,6.252,6.252,0,0,0,.72-1.06c0.264-.29.336-0.67,0.648-1.08a7.336,7.336,0,0,1,.576-1.13c0.168-.48.384-0.72,0.5-1.15a6.974,6.974,0,0,1,.48-1.18,8.341,8.341,0,0,1,.408-1.17c0.072-.39.312-0.77,0.36-1.18a4.828,4.828,0,0,0,.408-1.01c0.12-.36.6-0.4,0.624-0.79v-0.07C372.994,2177.38,372.85,2177.45,372.61,2177.31Zm-14.689,5.35a1.6,1.6,0,0,0-.264-0.89,1.438,1.438,0,0,0-.36-0.7,6.371,6.371,0,0,1-.36-0.69,1.93,1.93,0,0,0-.5-0.7c-0.24-.17-0.12-0.43-0.408-0.67s-0.528-.7-0.72-0.79a0.862,0.862,0,0,0-1.368-.36,3.082,3.082,0,0,0-.864.55,0.923,0.923,0,0,0-.456.67v0.05a1.332,1.332,0,0,0,.384.7,4.59,4.59,0,0,0,.288.38,7.2,7.2,0,0,0,.5.74c0.144,0.32.312,0.36,0.408,0.65s0.264,0.36.312,0.55a4.309,4.309,0,0,1,.288.7,2.365,2.365,0,0,1,.432.82,0.607,0.607,0,0,0,.576.43,0.912,0.912,0,0,0,.6-0.24c0.36-.22.528-0.31,0.984-0.58A0.792,0.792,0,0,0,357.921,2182.66Z" transform="translate(-136.75 -2174.34)"/>
</svg>
