<svg id="ttl" xmlns="http://www.w3.org/2000/svg" width="99" height="238" viewBox="0 0 99 238">
  <defs>
    <style>
      .cls-1 {
        fill: #bea574;
      }

      .cls-1, .cls-2 {
        fill-rule: evenodd;
      }

      .cls-2 {
        fill: #fff;
      }
    </style>
  </defs>
  <path id="長方形_981_のコピー_2" data-name="長方形 981 のコピー 2" class="cls-1" d="M650,2942h44v238H650V2942Z" transform="translate(-595 -2942)"/>
  <path id="長方形_981_のコピー_2-2" data-name="長方形 981 のコピー 2" class="cls-1" d="M595.01,2942h44v142H595.01V2942Z" transform="translate(-595 -2942)"/>
  <path id="新しい価値を_育てる_" data-name="新しい価値を 育てる。" class="cls-2" d="M659.005,2965.79a3.619,3.619,0,0,1-1.4-.07,5.958,5.958,0,0,1-1.435-.07c-0.735-.04-0.91.56-0.875,1.19a5.218,5.218,0,0,1,0,1.05,0.877,0.877,0,0,0,.98,1.15c0.49,0.18,1.085-.14,1.645,0,0.454-.07,1.084,0,1.644-0.03a5.17,5.17,0,0,0,1.47,0,1.114,1.114,0,0,1,1.015.45,0.839,0.839,0,0,1,.14.95,0.809,0.809,0,0,1-.945.56,4.56,4.56,0,0,0-1.225,0c-0.7.1-1.015-.14-1.645,0a7.253,7.253,0,0,1-1.679,0,0.941,0.941,0,0,0-.98,1.15,1.53,1.53,0,0,0,0,1.05,0.981,0.981,0,0,0,.98,1.16c0.42,0.14,1.19-.14,1.679,0,0.63-.07,1.155.07,1.645,0a0.345,0.345,0,0,1,.525,0c0.49,0,.525.49,0.21,1.01a7.926,7.926,0,0,0-.525.63,3.056,3.056,0,0,1-.735.88,2.446,2.446,0,0,1-.77.8,5.521,5.521,0,0,1-.8.8,4.24,4.24,0,0,0-.84.77,6.451,6.451,0,0,1-.875.74,1.549,1.549,0,0,1-.875.77,0.68,0.68,0,0,0-.385.56,0.934,0.934,0,0,0,.035.14,0.373,0.373,0,0,0-.035.17c0,0.53.63,0.84,0.77,1.23,0.385,0.52.49,1.15,1.19,1.08a5.272,5.272,0,0,0,1.364-.87,6.2,6.2,0,0,0,1.155-1.12,7.754,7.754,0,0,1,.77-0.81,3.226,3.226,0,0,0,.77-0.87c-0.035-.25.175-0.14,0.35-0.39,0.245-.31.98-0.52,0.945,0.39,0,0.38-.07.91-0.035,1.15a2.847,2.847,0,0,1,0,1.33,13.89,13.89,0,0,1-.035,2.7c0.14,0.8.28,1.15,1.049,1.15h0.105c0.245,0,.56.07,0.875,0.07a1.58,1.58,0,0,0,.455-0.07h0.07a1.152,1.152,0,0,0,1.085-1.15,6.338,6.338,0,0,0,0-1.82c0.035-.67-0.1-1.05-0.035-1.82a9.85,9.85,0,0,0-.07-1.65c-0.07-1.19.49-1.26,0.98-1.05a8.744,8.744,0,0,1,.84.63,5.291,5.291,0,0,0,1.679,1.09,0.857,0.857,0,0,0,.875-0.56,2.1,2.1,0,0,1,.7-1.09,1.653,1.653,0,0,0,.245-0.7,1,1,0,0,0-.385-0.83,3.216,3.216,0,0,0-1.19-.81c-0.525-.31-0.84-0.52-1.224-0.7a17.508,17.508,0,0,1-1.68-.84c-0.525-.24-0.91-0.38-0.735-0.63a1.048,1.048,0,0,1,.91-0.31,3.6,3.6,0,0,1,1.225,0,5.283,5.283,0,0,0,1.644,0c0.6-.07,1.12.1,1.645,0a0.934,0.934,0,0,0,.98-1.16,1.788,1.788,0,0,0,0-1.05,1.14,1.14,0,0,0-.98-1.15,8.212,8.212,0,0,0-1.645,0c-0.455,0-1.12-.04-1.644,0-0.35-.11-0.77.07-1.225,0-0.56.1-1.12-.32-0.98-0.67a1.116,1.116,0,0,1,0-.59c-0.07-.28.385-0.74,1.19-0.7a5.15,5.15,0,0,1,1.469,0,3.471,3.471,0,0,1,1.61.03c0.7,0.04,1.19,0,1.68,0,0.525,0.14.98-.66,0.98-1.15v-1.05a0.988,0.988,0,0,0-.98-1.16,1.436,1.436,0,0,1-.77,0h-1.015c-0.84.04-.945,0.04-1.225-0.38a0.832,0.832,0,0,1,.14-1.02,9.613,9.613,0,0,0,.455-0.91,4.357,4.357,0,0,1,.28-0.63c0.315-.28.805,0.04,0.84-0.45a0.781,0.781,0,0,0-.56-0.81c-0.735-.45-0.35-0.66-0.1-0.66a10.717,10.717,0,0,0,1.12.03,0.984,0.984,0,0,0,.875-1.19c-0.07-.28.1-0.8,0-1.05a1.068,1.068,0,0,0-.98-1.15c-0.63-.07-1.26.1-1.645,0a4.277,4.277,0,0,1-1.644,0,9.2,9.2,0,0,0-1.05,0,0.931,0.931,0,0,1-.735-0.77,3.371,3.371,0,0,1,0-.84,0.968,0.968,0,0,1,.315-0.88,0.618,0.618,0,0,0,.385-0.63c0-.35-0.63-0.21-0.665-0.38a19.086,19.086,0,0,0-2.554-.18h-0.14a0.731,0.731,0,0,0-.8.88,9.51,9.51,0,0,0-.035,1.36,2.823,2.823,0,0,0,0,.77,0.578,0.578,0,0,1-.77.67,4.912,4.912,0,0,1-.945,0c-0.63-.04-1.225.07-1.645,0-0.42.1-1.259-.14-1.644,0a1.144,1.144,0,0,0-.98,1.15,3.409,3.409,0,0,1,0,1.05c0.14,0.81.35,1.12,0.98,1.16a5.121,5.121,0,0,0,1.259-.07c0.42,0,.7.31,0.455,0.49-0.28.31-.56,0.21-0.56,0.84a3.055,3.055,0,0,0,.455,1.19,5.259,5.259,0,0,1,.42,1.26C659.635,2965.51,659.635,2965.79,659.005,2965.79Zm28.94,1.22v-1.12c-0.07-.77-0.28-1.15-0.945-1.15h-2.66a5.547,5.547,0,0,1-1.819,0,14.281,14.281,0,0,0-1.855,0h-1.959a1.732,1.732,0,0,1-1.05-.46,1.365,1.365,0,0,1-.56-0.94c-0.105-.39.035-1.09-0.035-1.75a2.372,2.372,0,0,1,.875-1.86,8.115,8.115,0,0,1,1.714-.35c0.63-.21,1.26-0.17,2-0.38a8.355,8.355,0,0,0,1.33-.32c0.525-.24.945-0.1,1.329-0.35a3.626,3.626,0,0,0,1.085-.31c0.42-.18.7-0.07,1.12-0.25l0.21,0.04c0.525,0,.875.03,0.98-0.42a0.715,0.715,0,0,0-.245-0.67c-0.385-.31-0.7-0.59-0.875-0.73a3.914,3.914,0,0,0-.875-0.84,1.245,1.245,0,0,0-1.365-.42c-0.7.31-1.434,0.42-1.959,0.73a12.2,12.2,0,0,1-2,.56,13.607,13.607,0,0,1-1.889.46,16.525,16.525,0,0,1-2.03.31,7.021,7.021,0,0,1-1.47-.38,1.956,1.956,0,0,0-.7-0.11,0.766,0.766,0,0,0-.734.95,19.729,19.729,0,0,1,0,2.48,14.308,14.308,0,0,0,.034,2.45,18.435,18.435,0,0,1,0,2.42c0.105,0.98,0,1.4.035,2.41,0.035,0.74-.035,1.3-0.035,2.03a19.5,19.5,0,0,1-.069,2.07,6.972,6.972,0,0,0-.14,2.06c0.035,0.56-.35,1.3-0.315,2.07a14.132,14.132,0,0,0-.525,1.99,9.03,9.03,0,0,1-.7,1.89,4.1,4.1,0,0,1-1.015,1.75c-0.315.45-.49,0.52-0.63,0.8a2.431,2.431,0,0,1-.7.81,1.722,1.722,0,0,0-.945,1.4c-0.035.66,0.49,0.8,0.875,1.29a2.066,2.066,0,0,0,1.225.91c0.21,0.18.735-.31,1.05-0.63,0.245-.28.7-0.84,1.26-1.47,0.42-.59.664-0.94,1.119-1.57a2.35,2.35,0,0,1,.63-1.05,8.1,8.1,0,0,1,.735-1.54,5.461,5.461,0,0,1,.56-1.61,12.709,12.709,0,0,1,.42-1.64,9.135,9.135,0,0,1,.28-1.68,7.483,7.483,0,0,1,.21-1.72,7.24,7.24,0,0,0,.105-1.71,14.392,14.392,0,0,0,.07-1.79,1.509,1.509,0,0,1,.945-1.43,9,9,0,0,1,1.119-.07,2.408,2.408,0,0,1,1.4.35,1.558,1.558,0,0,1,.42,1.19,4.424,4.424,0,0,0,.035,1.15c-0.035.49,0.035,1.02,0,1.4a4.68,4.68,0,0,0,0,1.4,6.224,6.224,0,0,1,0,1.4,9.24,9.24,0,0,0,0,1.4,3.7,3.7,0,0,0,0,1.4c0.105,0.49-.07.8,0,1.36,0,0.6.07,1.37,0,2.17-0.035.74-.07,1.51-0.035,2.17,0,0.77-.035,1.16,0,1.86,0.07,0.87.385,1.15,1.155,1.08a0.888,0.888,0,0,0,.42.07c0.315,0,.63-0.07.875-0.07,0.944-.03,1.259-0.38,1.154-1.08,0.105-.67-0.14-1.23,0-1.86a21.068,21.068,0,0,1-.035-2.17c-0.1-.84.07-1.54,0-2.17a8.816,8.816,0,0,1,0-1.36,4.65,4.65,0,0,0,0-1.4,6.233,6.233,0,0,1,0-1.4,9.314,9.314,0,0,1,0-1.4,4.65,4.65,0,0,0,0-1.4,9.633,9.633,0,0,1,0-1.43,9.885,9.885,0,0,0,0-1.44,1.4,1.4,0,0,1,.7-1.15l0.21-.07c0.105-.07.98,0.1,1.54,0a0.876,0.876,0,0,0,.98-0.95C687.98,2967.15,687.945,2967.08,687.945,2967.01Zm-25.9-1.82a0.978,0.978,0,0,0,.63-0.7,5.273,5.273,0,0,0-.42-1.57,5.22,5.22,0,0,0-.56-1.16,0.646,0.646,0,0,1,.49-0.98,15.676,15.676,0,0,1,1.784.04c0.7,0.17,1.295-.18,1.785.14a0.876,0.876,0,0,1,.35,1.08,2.912,2.912,0,0,1-.35,1.26,6.613,6.613,0,0,0-.56,1.3,1.358,1.358,0,0,1-.7.87,1.13,1.13,0,0,1-1.19.28c-0.174,0-.629,0-1.154.04C661.84,2965.72,661.665,2965.4,662.05,2965.19Zm22.815,47.11a4.883,4.883,0,0,1-.874-0.84c-0.21-.17-0.56-0.56-0.91-0.87a0.669,0.669,0,0,0-.6-0.25,0.956,0.956,0,0,0-.84.53c-0.14.42-.455,0.49-0.595,0.98a9.153,9.153,0,0,1-.525.94,5.725,5.725,0,0,1-.84,1.16l-0.735.76a12.512,12.512,0,0,1-1.154.98,2.87,2.87,0,0,1-1.225.88,5.877,5.877,0,0,1-1.33.66,6.313,6.313,0,0,1-1.4.53c-0.524.28-1.049,0.1-1.469,0.31a5.816,5.816,0,0,1-1.54.11,3.5,3.5,0,0,1-1.61-.14,2.212,2.212,0,0,1-.979-0.32,5.393,5.393,0,0,1-.91-0.63,2.088,2.088,0,0,1-.665-1.05,5.679,5.679,0,0,1-.35-1.08c0-.49-0.14-0.77-0.175-1.26-0.035-.38-0.035-0.84-0.035-1.36a6.872,6.872,0,0,0-.07-1.47c-0.07-.91.07-1.68,0.035-2.56-0.07-.73.14-1.75,0.07-2.55a16.724,16.724,0,0,1,.07-1.96c0.035-.49-0.07-1.12.035-1.96a4.021,4.021,0,0,1,.07-1.93,18.728,18.728,0,0,1,.035-1.92c0.1-.67-0.07-1.09,0-1.68,0.1-.77-0.105-1.09.035-1.51a2.506,2.506,0,0,1,.315-0.98,1.076,1.076,0,0,0,.455-0.56c0-.66-0.42-0.7-0.91-0.8-0.455-.11-0.735,0-1.365-0.11h-0.35c-0.455,0-.84-0.03-1.19-0.03a0.856,0.856,0,0,0-1.014,1.08,17.763,17.763,0,0,1,0,2.73c0.1,0.98-.035,1.86.035,2.7v1.68a3.559,3.559,0,0,0-.035,1.71,8.771,8.771,0,0,0-.07,1.72,13.846,13.846,0,0,0-.035,1.68c-0.035.45,0.035,1.22-.035,1.71a4.5,4.5,0,0,1-.07,1.68c0.035,0.53-.035,1.09-0.035,1.72a3.758,3.758,0,0,0-.14.87,2.946,2.946,0,0,0,.14.84,3.452,3.452,0,0,0-.105.84,5.119,5.119,0,0,0,.175,1.29,5.639,5.639,0,0,0,.35,2.17,3.363,3.363,0,0,0,.8,2,1.214,1.214,0,0,0,.63.91,3.107,3.107,0,0,0,.77.77,2.192,2.192,0,0,0,1.3.84,2.891,2.891,0,0,0,1.435.52,4.357,4.357,0,0,0,1.5.28,9.428,9.428,0,0,1,1.54.07h0.98a2.355,2.355,0,0,0,.49-0.07,1.3,1.3,0,0,0,.385.07,3.207,3.207,0,0,0,1.05-.24,9.587,9.587,0,0,0,1.4-.28,3.193,3.193,0,0,0,1.33-.39c0.28-.24.84-0.21,1.33-0.52a5.262,5.262,0,0,0,1.295-.67,5.926,5.926,0,0,0,1.189-.77,13.84,13.84,0,0,0,1.155-.91,6.849,6.849,0,0,0,.91-0.87c0.245-.14.315-0.46,0.665-0.74,0.315-.24.35-0.45,0.7-0.77,0.21-.21.42-0.59,0.664-0.84a2.2,2.2,0,0,1,.6-0.8,3.9,3.9,0,0,0,.56-1.26V3013A0.843,0.843,0,0,0,684.865,3012.3ZM670.2,3047.23a4.127,4.127,0,0,0-1.68-1.05,0.828,0.828,0,0,0-.839.91,3.632,3.632,0,0,1-.315.84,8.65,8.65,0,0,1-.6,1.16,1.912,1.912,0,0,1-1.365,1.25,1.821,1.821,0,0,1-1.47-1.01c-0.21-.21-0.28-0.8-0.56-1.12a11.294,11.294,0,0,1-.559-1.26,3.534,3.534,0,0,1-.455-1.33,5.063,5.063,0,0,1-.28-1.36c-0.175-.49-0.175-1.3-0.315-1.82-0.14-.56-0.035-1.19-0.175-1.86-0.07-.45,0-1.26-0.105-1.82,0-.56-0.07-1.05-0.035-1.82,0-.45,0-1.19-0.035-1.68a11.759,11.759,0,0,1,.035-1.57c-0.035-.21,0-0.53,0-1.19a1.016,1.016,0,0,1,.315-0.98,1.148,1.148,0,0,0,.455-0.91,0.725,0.725,0,0,0-.77-0.6,7.415,7.415,0,0,1-1.575-.17c-0.665-.07-1.155-0.07-1.715-0.18H658.1a0.814,0.814,0,0,0-.734.84,0.619,0.619,0,0,0,.035.25,0.855,0.855,0,0,1,.035.28c0,0.21-.035.35-0.035,0.49v0.07a0.3,0.3,0,0,0,.035.17v0.21a7.129,7.129,0,0,1,.035,1.19,1.347,1.347,0,0,1,.035.63c-0.105.49,0.07,1.05,0,1.68-0.07.81,0.105,1.86,0.07,2.7,0.035,0.59.07,1.12,0.105,1.4a6.327,6.327,0,0,0,.1,1.33c0,0.63.14,1.36,0.175,2.06,0.174,0.91.139,1.51,0.279,2.07,0.07,0.52.42,1.29,0.49,1.99a9.859,9.859,0,0,0,.665,1.96c0.28,0.52.315,0.84,0.455,0.98a5.153,5.153,0,0,1,.525,1.08,6.357,6.357,0,0,0,.63.81,3.388,3.388,0,0,0,.7.84,2.121,2.121,0,0,0,.84.73,1.62,1.62,0,0,0,.909.56,3.043,3.043,0,0,0,1.68.53,1.753,1.753,0,0,0,.455-0.04h0.35a2.4,2.4,0,0,0,1.12-.28,4.6,4.6,0,0,0,1.19-.8,11.225,11.225,0,0,0,.944-1.12,5.343,5.343,0,0,0,.805-1.23c0.035-.24.35-0.52,0.665-1.26a2.848,2.848,0,0,0,.455-1.39A1.518,1.518,0,0,0,670.2,3047.23Zm16.692-2.27a7.193,7.193,0,0,0-.35-1.44c-0.175-.63-0.42-1.08-0.665-1.75a15.491,15.491,0,0,0-.77-1.68,9.983,9.983,0,0,0-.91-1.71c-0.384-.63-0.629-1.09-1.014-1.65-0.14-.24-0.42-0.52-0.735-1.05-0.245-.38-0.945-1.08-1.225-1.54a5.678,5.678,0,0,1-.665-0.77,4.155,4.155,0,0,1-.665-0.66,1.811,1.811,0,0,0-1.119-.63,0.885,0.885,0,0,0-.84.31c-0.175.21-.7,0.46-0.98,0.77a1.033,1.033,0,0,0-.175,1.68,8.9,8.9,0,0,1,.945.98,3.2,3.2,0,0,1,.77,1.02,7.64,7.64,0,0,1,.874,1.05,8.278,8.278,0,0,0,.56,1.05,5.864,5.864,0,0,0,.665,1.12,6.521,6.521,0,0,1,.6,1.22,9.252,9.252,0,0,0,.595,1.16,3.3,3.3,0,0,1,.49,1.4,3.344,3.344,0,0,1,.42,1.22c0,0.46.21,0.35,0.35,1.19a0.774,0.774,0,0,0,.84.67,1.981,1.981,0,0,0,.874-0.28c0.49-.25.63-0.28,1.225-0.6a1.306,1.306,0,0,0,.91-1.01v-0.07Zm-22.5,16.94a3.513,3.513,0,0,0-.49-0.56,4.741,4.741,0,0,1-1.154-.49,9.055,9.055,0,0,1-1.12-.42c-0.245,0-.28-0.14-0.56-0.14-0.875,0-.77,1.05-0.98,1.5a11.426,11.426,0,0,0-.35,1.37,6.341,6.341,0,0,1-.385,1.36,3.531,3.531,0,0,0-.42,1.33c-0.035.46-.385,1.02-0.42,1.33l-0.734,2.14a2.257,2.257,0,0,0-.385,1.05c0,0.49-.42.59-0.385,1.08-0.21.77-.595,1.23-0.84,1.96a3.17,3.17,0,0,0-.49,1.05,5.488,5.488,0,0,0-.525,1.02,3.052,3.052,0,0,0-.595,1.4,5.851,5.851,0,0,0,.875,1.75c0.385,0.35.385,1.26,1.085,1.22a0.443,0.443,0,0,0,.525-0.28,1.792,1.792,0,0,0,.42-0.7c0.385-.56.49-0.21,0.629,0a3.3,3.3,0,0,1,.14,1.68,2.147,2.147,0,0,0,0,.67,15.306,15.306,0,0,1,0,2.2,15.891,15.891,0,0,1,0,2.24,7.145,7.145,0,0,0,0,1.5,5.668,5.668,0,0,1-.035,1.54c0,0.42-.035,1.12,0,1.54,0.035,0.46,0,1.16,0,1.58a1.067,1.067,0,0,0,1.155,1.12,1.724,1.724,0,0,0,.56.1,6.761,6.761,0,0,0,.77-0.1,1.04,1.04,0,0,0,1.155-1.12,2.715,2.715,0,0,1,.035-1.58c0.14-.59-0.14-0.98-0.035-1.54a7.446,7.446,0,0,0,0-1.54,3.609,3.609,0,0,0,0-1.5,6.758,6.758,0,0,1,0-2.06,4.692,4.692,0,0,1,0-2.1v-2.1a13.614,13.614,0,0,1,0-2.07c-0.175-.8.07-1.54-0.035-2.41v-1.44a6.743,6.743,0,0,0,0-1.19,5.118,5.118,0,0,1,.28-0.87,0.937,0.937,0,0,0,.385-0.81,0.741,0.741,0,0,0-.77-0.42c-0.49-.17-0.35-0.7-0.21-1.19a9.32,9.32,0,0,0,.525-1.57,4.974,4.974,0,0,1,.525-1.58,4.8,4.8,0,0,1,.49-1.61c0.14-.45.279-0.94,0.559-1.68C664.009,3062.32,664.534,3062.32,664.394,3061.9Zm23.236,1.75v-0.11a1.257,1.257,0,0,0-.945-1.08c-0.875,0-1.47-.04-2.38,0a10.093,10.093,0,0,0-2.344.03,11.277,11.277,0,0,1-1.54,0c-0.42-.07-1.12.04-1.54,0a4.139,4.139,0,0,0-1.574,0,7.155,7.155,0,0,1-1.54,0,7.2,7.2,0,0,1-1.54,0,7.509,7.509,0,0,1-1.574,0,11.225,11.225,0,0,1-1.54,0c-0.455-.14-0.945.11-1.54,0-0.875.14-1.434-.14-2.239,0a20.723,20.723,0,0,1-2.17.07c-0.6-.03-1.19,0-1.225.77,0.07,0.49-.07,1.05-0.035,1.3-0.07.98,0.455,1.33,1.085,1.15,0.665-.14,1.47.11,2.31,0,0.735,0.14,1.574-.17,2.274-0.03a5.906,5.906,0,0,1,.91.24,1.241,1.241,0,0,1,.56.81,7.164,7.164,0,0,1,.035,1.71,2.117,2.117,0,0,1-.385,1.19,1.319,1.319,0,0,1-1.05.46H668a3.6,3.6,0,0,1-1.225.03,1.373,1.373,0,0,1-.84-0.07,0.962,0.962,0,0,0-.945.95c0.07,0.94-.035,1.57,0,2.38,0.07,0.91-.035,1.71.035,2.31a20.584,20.584,0,0,1,0,2.55c0.07,0.84-.07,1.86,0,2.56-0.14,1.01.07,1.57,0,2.59a15.026,15.026,0,0,1,0,2.51,9.491,9.491,0,0,0-.035,2.63,22.37,22.37,0,0,0,0,2.66,1.094,1.094,0,0,0,1.155.98,2.106,2.106,0,0,0,1.225,0c0.875-.14,1.4-0.28,1.259-1.12,0-.56.735-0.7,1.54-0.74a7.892,7.892,0,0,0,1.89,0c0.6-.07,1.225.11,1.784,0.04,0.56-.11,1.12.07,1.82,0a15.525,15.525,0,0,0,1.82.03,5.353,5.353,0,0,1,1.784.07,9.472,9.472,0,0,1,1.96.11,1.492,1.492,0,0,1,1.715.87,1.014,1.014,0,0,0,1.015.35,4.561,4.561,0,0,0,1.224,0,1.267,1.267,0,0,0,1.155-.94c-0.14-.77.105-1.72,0-2.7-0.105-.84,0-1.75-0.035-2.62a19.075,19.075,0,0,1,0-2.45c-0.1-.77.105-1.54,0-2.45a19.542,19.542,0,0,1,0-2.48,14.316,14.316,0,0,1,0-2.45,7.362,7.362,0,0,1,.035-2.31,7.709,7.709,0,0,1,0-2.38c-0.175-.6-0.385-0.98-0.945-0.91a0.474,0.474,0,0,0-.49,0,11.811,11.811,0,0,0-1.574,0,3.384,3.384,0,0,1-1.645,0,1.382,1.382,0,0,1-1.4-1.05,13.108,13.108,0,0,0,.035-2.03,1.3,1.3,0,0,1,1.015-1.26,2,2,0,0,0,1.015-.11c0.63,0.11,1.19-.07,1.959.07,0.63,0.04,1.47-.1,2.38,0a0.928,0.928,0,0,0,.945-1.05v-0.28c0-.21-0.035-0.35-0.035-0.56A0.573,0.573,0,0,1,687.63,3063.65Zm-12.353,2.1a6,6,0,0,0,.735,0,0.976,0.976,0,0,1,.84.94,5.245,5.245,0,0,0-.035,1.65c-0.07.35,0.105,1.12-.245,1.4-0.245.52-.49,0.7-0.875,0.52a2.361,2.361,0,0,0-.665-0.1,1.437,1.437,0,0,1-.49-1.05,5.057,5.057,0,0,1,0-1.26C674.437,3066.94,674.367,3065.54,675.277,3065.75Zm1.47,19.73c0.07,0.74,0,1.47-.49,1.51a1.476,1.476,0,0,1-.945.07c-0.56.1-.7-0.81-0.77-1.58a5.069,5.069,0,0,0,0-1.78,9.281,9.281,0,0,0,0-1.71,9.409,9.409,0,0,1,0-1.72,9.294,9.294,0,0,0,0-1.71,5.4,5.4,0,0,0,0-1.68c0-.39-0.035-1.3,0-1.79a1.987,1.987,0,0,1,.49-1.5c0.1-.28.385,0.1,0.665,0,0.56-.18,1.12.87,1.05,1.5a15.117,15.117,0,0,0,0,1.79,13.244,13.244,0,0,0,0,1.68v1.71a14.068,14.068,0,0,1,0,1.72,5.556,5.556,0,0,1,0,1.71C676.642,3084.4,676.817,3084.82,676.747,3085.48Zm4.164-11.89c0.21,0.14.49-.14,0.805,0a1.062,1.062,0,0,1,1.05,1.01,3.273,3.273,0,0,1,0,1.54,4.777,4.777,0,0,0,0,1.58,4.723,4.723,0,0,1,0,1.57,11.289,11.289,0,0,0,0,1.54,4.786,4.786,0,0,0,0,1.58c-0.07.66,0.035,1.08,0,1.57,0.035,0.42-.035,1.05,0,1.61,0.035,0.59.07,1.4-.595,1.47a3.809,3.809,0,0,1-1.225,0,1.387,1.387,0,0,1-.665-1.58,3.081,3.081,0,0,1,0-1.78c-0.07-.42.105-1.22,0-1.71a3.173,3.173,0,0,1,0-1.72,6.975,6.975,0,0,1,0-1.71,4.518,4.518,0,0,1,0-1.68,15.238,15.238,0,0,1,0-1.79A2.006,2.006,0,0,1,680.911,3073.59Zm-9.868,10.11c0,0.42-.035,1.29,0,1.78a1.383,1.383,0,0,1-.56,1.51,4.959,4.959,0,0,1-.98.07c-0.63.1-.875-0.53-0.91-1.47a8.247,8.247,0,0,0,0-1.61,4.728,4.728,0,0,1,0-1.57,5.968,5.968,0,0,0,0-1.58c-0.07-.38.035-0.94,0-1.54-0.1-.63.07-1.15,0-1.57a11.783,11.783,0,0,0,0-1.58,7.54,7.54,0,0,1,0-1.54c0.14-.77.385-1.08,1.015-1.01a1.966,1.966,0,0,1,.805,0,2.213,2.213,0,0,1,.63,1.5,15.258,15.258,0,0,0,0,1.79,13.426,13.426,0,0,0,0,1.68c-0.035.52,0,1.15,0,1.71a14.048,14.048,0,0,0,0,1.72A13.935,13.935,0,0,1,671.043,3083.7Zm16.937,17.29a0.855,0.855,0,0,0,.035-0.28,0.824,0.824,0,0,0-1.015-.87c-0.245-.07-0.35.07-0.77,0a10.017,10.017,0,0,0-2.519.03c-0.875-.07-1.785.14-2.52,0a13.741,13.741,0,0,1-1.61.04c-0.6-.04-1.154-0.18-1.084-0.63a1.82,1.82,0,0,1,.314-0.95c0.175-.35.8-0.42,0.8-0.73a0.547,0.547,0,0,0-.665-0.53c-0.314-.03-0.839-0.14-1.4-0.17a5.788,5.788,0,0,0-1.54-.18h-0.175a0.718,0.718,0,0,0-.8.84,6.667,6.667,0,0,1-.21,1.3,1.164,1.164,0,0,1-1.225,1.01c-0.419.04-1.084,0-1.714,0a6.252,6.252,0,0,1-1.435,0,6.55,6.55,0,0,1-1.47,0,3.511,3.511,0,0,1-1.609-.03,4.518,4.518,0,0,1-1.68,0,1,1,0,0,0-.98,1.15c-0.035.32,0.035,0.74,0,1.16a0.97,0.97,0,0,0,.98,1.15,15.5,15.5,0,0,1,1.68,0,4.767,4.767,0,0,0,1.609,0,8.767,8.767,0,0,0,2.345,0,4.411,4.411,0,0,0,1.75.07c0.734,0.04.874,0.49,0.7,1.16-0.07.31-.7,1.08-0.909,0.91-0.63,0-1.015.07-1.575,0.03a1.105,1.105,0,0,1-.49,0,0.908,0.908,0,0,0-.945.81,13.768,13.768,0,0,0,.035,2.38,16.96,16.96,0,0,0,0,2.31,8.247,8.247,0,0,1,0,1.61c0.105,0.45-.105,1.08,0,1.57a4.94,4.94,0,0,0,0,1.61,4.143,4.143,0,0,0,0,1.61,10.678,10.678,0,0,1,0,2.59c-0.105.87,0.105,1.75,0,2.69a1,1,0,0,0,1.085.95,6.965,6.965,0,0,0,1.12,0,1.425,1.425,0,0,0,1.26-.49,2.607,2.607,0,0,1,1.714-.53,13.625,13.625,0,0,0,2.135,0c0.56,0,1.609.07,2.274,0,0.875-.07,1.435.07,1.54,0.39a1.436,1.436,0,0,0,1.19.38,6.284,6.284,0,0,0,1.155,0,0.862,0.862,0,0,0,1.154-.94c0.14-.81-0.175-1.82,0-2.66a15.8,15.8,0,0,1-.035-2.62c0-.6.035-0.91,0-1.54a4.548,4.548,0,0,1,0-1.54c0.035-.6-0.07-0.88,0-1.54,0.14-.67-0.14-1.09,0-1.54l0.035-2.31c-0.14-.84.14-1.51,0-2.38a0.9,0.9,0,0,0-.944-0.84,1.043,1.043,0,0,1-.49.03,4.831,4.831,0,0,0-1.575-.03,5.569,5.569,0,0,1-2,0c-0.595.03-.909,0-1.434,0-0.35-.04-0.98-0.32-0.875-0.77a0.735,0.735,0,0,1,.315-0.74c0.035-.42.84-0.52,1.434-0.59a6.711,6.711,0,0,1,1.68-.04,11.189,11.189,0,0,0,1.54,0c0.595-.14,1.085.11,1.54,0,0.454,0.04,1.119,0,1.644,0,0.525-.07.945,0.11,1.68,0,0.805-.03.805-0.49,0.945-1.15v-1.16Zm-23.411-2.66a1.542,1.542,0,0,0-.525-0.56c-0.35-.21-0.8-0.21-1.189-0.45a2.443,2.443,0,0,0-1.155-.42,1.152,1.152,0,0,0-.56-0.11h-0.07c-0.7,0-.77,1.02-0.945,1.44a5.181,5.181,0,0,0-.315,1.33c-0.245.45-.14,0.94-0.385,1.29a10.47,10.47,0,0,0-.385,1.26,4.692,4.692,0,0,0-.42,1.3,1.843,1.843,0,0,1-.385,1.05c-0.035.17-.21,0.52-0.349,1.01a12.844,12.844,0,0,1-.84,2.07,1.937,1.937,0,0,1-.455,1.01,6.293,6.293,0,0,0-.455.98l-0.525.95a2.055,2.055,0,0,1-.525.98,1.825,1.825,0,0,0-.6,1.22v0.21a1.132,1.132,0,0,0-.07.28,0.81,0.81,0,0,0,.455.67,1.27,1.27,0,0,1,.63.87,1.606,1.606,0,0,0,.945,1.02c0.455,0.03.7-.6,1.015-1.12,0.07-.35.525-0.74,0.594-0.14a10.475,10.475,0,0,0,0,2.34,4.553,4.553,0,0,0,0,.7,10.314,10.314,0,0,0,0,2.31,12.294,12.294,0,0,1,0,2.27,3.3,3.3,0,0,0,0,1.54,10.925,10.925,0,0,0-.035,1.51,3.988,3.988,0,0,0,0,1.57,3.437,3.437,0,0,0,0,1.58,0.956,0.956,0,0,0,1.015,1.08h0.14a0.511,0.511,0,0,1,.21-0.03c0.245,0,.49.07,0.735,0.07h0.07a0.854,0.854,0,0,0,.315-0.04,0.6,0.6,0,0,0,.245.04,0.976,0.976,0,0,0,.91-1.16,7.592,7.592,0,0,0,.035-1.57,7.5,7.5,0,0,1-.035-1.54,7.18,7.18,0,0,0,0-1.51,10.528,10.528,0,0,0-.035-1.54,13.244,13.244,0,0,1,0-1.68v-1.68a13.924,13.924,0,0,0,0-1.71,5.582,5.582,0,0,0,0-1.71,8.962,8.962,0,0,0,0-1.68c-0.14-.49.105-0.98,0-1.72a6.663,6.663,0,0,1,0-1.68c-0.07-.59.07-1.15-0.035-1.61a1.521,1.521,0,0,1,.35-0.84,0.756,0.756,0,0,0,.42-0.7,0.627,0.627,0,0,0-.7-0.63c-0.315-.03-0.28-0.77.105-1.5a11.445,11.445,0,0,0,.455-1.26,8.35,8.35,0,0,1,.56-1.54,3.942,3.942,0,0,1,.489-1.58,4.613,4.613,0,0,1,.49-1.47C663.974,3098.89,664.6,3098.75,664.569,3098.33Zm23.306,27.16a1.124,1.124,0,0,0-.98-1.19,6.745,6.745,0,0,0-1.68,0,4.827,4.827,0,0,0-1.644.03,6.137,6.137,0,0,1-1.96,0,6.67,6.67,0,0,0-2,0,6.346,6.346,0,0,0-1.994,0c-0.7,0-1.4.04-2,0-0.56-.07-1.26.04-2.03,0a13.216,13.216,0,0,0-1.994,0c-0.525-.07-1.61,0-2.1,0a1.482,1.482,0,0,1-1.329-.49,2.434,2.434,0,0,1-.42-1.22c-0.105-.6.105-1.44,0-2a8.8,8.8,0,0,1,0-1.92,5.886,5.886,0,0,1,0-1.92,12.207,12.207,0,0,0,0-1.96,11.358,11.358,0,0,1,0-1.89,11.845,11.845,0,0,0,0-1.93c0.035-.45-0.035-1.01,0-1.54a1.164,1.164,0,0,1,.455-1.22,0.539,0.539,0,0,0,.209-0.56,0.681,0.681,0,0,0-.629-0.42,7.152,7.152,0,0,0-1.295-.11,3.483,3.483,0,0,1-1.4-.07,0.894,0.894,0,0,0-.98.88,22.66,22.66,0,0,0,.035,2.73,22.094,22.094,0,0,0,.035,2.69c0.035,0.7-.07,1.75,0,2.38a7.185,7.185,0,0,0,0,2.45,9.241,9.241,0,0,0,0,2.41c0.14,0.67-.07,1.75,0,2.42a10.383,10.383,0,0,0-.035,2.55,6.984,6.984,0,0,0-.07,2.56,1.021,1.021,0,0,0,1.225,1.12,2.962,2.962,0,0,0,1.225,0c0.42-.14.98,0.03,1.12-0.46a1.743,1.743,0,0,1,.8-0.77c0.49-.24.84-0.1,1.05-0.28,0.665-.07,1.365.07,2.1,0a18.864,18.864,0,0,0,1.994,0,19.607,19.607,0,0,0,2.03,0c0.525-.07,1.3.11,2,0a7.4,7.4,0,0,0,1.994,0,12.079,12.079,0,0,0,2,0,7.067,7.067,0,0,0,1.96,0,6.461,6.461,0,0,0,1.644,0,6.666,6.666,0,0,0,1.68,0,0.916,0.916,0,0,0,.98-1.15C687.805,3126.36,687.91,3125.94,687.875,3125.49ZM677.2,3108.66a21.022,21.022,0,0,1,2.659.03,0.978,0.978,0,0,1,1.12.63c0.035,0.63-.91.74-1.785,0.77-0.8,0-1.469-.03-2.029-0.03-0.805.03-1.855,0-2.7,0s-1.014-.21-1.049-0.6c-0.035-.45.279-0.73,1.014-0.8A18.228,18.228,0,0,0,677.2,3108.66Zm3.779,5.35c0.035,0.46-.315.7-1.225,0.67-0.875.07-1.749,0.03-2.2,0.07a16.855,16.855,0,0,0-2.24-.04,2.242,2.242,0,0,1-1.889-.35,0.614,0.614,0,0,1,.14-0.77c0.384-.45.874-0.28,1.574-0.35,0.735-.1,1.47.07,2.065,0a12.4,12.4,0,0,0,2.029,0c0.525,0.04.84,0.07,1.295,0.07A0.615,0.615,0,0,1,680.981,3114.01Zm0.035,4.79c-0.035.42-.56,0.56-1.715,0.53a10.573,10.573,0,0,1-2.029,0,5.959,5.959,0,0,1-2.065,0c-0.77.14-1.784,0.07-1.784-.56,0-.7.349-0.84,1.714-0.87,0.6,0.03,1.33.03,2.065,0a13.413,13.413,0,0,0,2.029,0C680.141,3117.93,681.086,3117.93,681.016,3118.8Zm3.674,29.27c-0.385-.39-0.49-0.6-0.8-0.88a4.244,4.244,0,0,1-.91-0.91,1.468,1.468,0,0,0-.91-0.49,4.549,4.549,0,0,0-1.82.7,6.01,6.01,0,0,1-1.12.56,5.665,5.665,0,0,1-.839.42,5.788,5.788,0,0,1-1.015.46,9.015,9.015,0,0,1-1.015.42,1.578,1.578,0,0,1-1.295.1,1.46,1.46,0,0,1-.77-0.84,1.867,1.867,0,0,0-.734-1.12,10.556,10.556,0,0,0-1.155-.87c-0.525-.07-0.63-0.35-1.12-0.39a2.145,2.145,0,0,0-1.19-.14,12.082,12.082,0,0,0-1.924.28c-0.42.11-.875-0.35-0.385-0.84a5.145,5.145,0,0,0,.42-0.59c0.314-.46.14-0.74,0.489-0.88a8.248,8.248,0,0,0,.56-0.77,2.28,2.28,0,0,1,1.12-.52c0.455,0,.875-0.04,1.61-0.07a18.116,18.116,0,0,0,2.064-.18c0.77-.03,1.61-0.17,2.485-0.24,0.455-.04.945-0.28,1.295-0.28a2.745,2.745,0,0,0,1.154-.32,0.915,0.915,0,0,0,.665-0.45,1.313,1.313,0,0,0-.07-0.81,9.278,9.278,0,0,1-.245-1.12,0.984,0.984,0,0,0-.734-0.73,1.353,1.353,0,0,0-.875.1c-0.35.14-.84,0.07-1.4,0.25a15.363,15.363,0,0,1-1.645.24c-0.6.11-1.014,0.14-1.609,0.21-0.7,0-1.435-.45-1.085-1.08l0.035-.25a7.28,7.28,0,0,1,.7-1.33c0.1-.31.56-0.17,0.7-0.7a0.561,0.561,0,0,0-.49-0.7c-0.42-.07-0.735-0.17-1.085-0.21a5.834,5.834,0,0,1-1.3-.28,0.43,0.43,0,0,0-.175-0.07c-0.07,0-.14.04-0.245,0.04a0.793,0.793,0,0,0-.91.66,1.994,1.994,0,0,0-.385.98,11.7,11.7,0,0,1-.454,1.09,4.775,4.775,0,0,1-.7,1.33,1.8,1.8,0,0,1-1.61.84c-0.49.17-.945-0.14-1.5,0a3.307,3.307,0,0,1-1.5-.07,16.715,16.715,0,0,1-2-.14,0.983,0.983,0,0,0-1.085,1.15,4.569,4.569,0,0,0-.035,1.19,1.069,1.069,0,0,0,.525,1.02,5.66,5.66,0,0,0,1.33.21c0.49-.04.945,0,1.33,0l0.979,0.03a0.615,0.615,0,0,1,.735.74,1.761,1.761,0,0,1-.7,1.08c-0.28.42-.455,0.6-0.8,1.12a8.841,8.841,0,0,1-1.119,1.37,12.671,12.671,0,0,0-1.19,1.36,11.422,11.422,0,0,1-1.26,1.3,10.162,10.162,0,0,1-1.05.98,1.246,1.246,0,0,0-.734,1.08v0.07a1.285,1.285,0,0,0,.454.74,4.722,4.722,0,0,0,1.33,1.15,1.253,1.253,0,0,0,1.26.07,11.5,11.5,0,0,0,.84-0.94,2.987,2.987,0,0,1,.98-0.91,3.144,3.144,0,0,1,.594-0.67c0.455-.17.42-0.59,0.77-0.63a3.736,3.736,0,0,1,1.05-.77,7.144,7.144,0,0,1,3.639-1.19,2.537,2.537,0,0,1,1.75.63,1.763,1.763,0,0,1,.525,1.02,1.253,1.253,0,0,1-.6,1.15c-0.455.39-.63,0.28-1.225,0.7a4.768,4.768,0,0,0-1.434.81,6.006,6.006,0,0,0-1.365.91c-0.735.24-.735,0.8-1.33,1.05-0.875.35-.6,0.91-1.085,1.11-0.42.18-.49,0.88-0.909,1.3a2.574,2.574,0,0,0-.6,1.47,2.534,2.534,0,0,0-.21,1.64,3.086,3.086,0,0,0,.28,2,1.747,1.747,0,0,0,.734,1.47,4.069,4.069,0,0,0,1.12,1.08,12.181,12.181,0,0,0,1.4.7,4.893,4.893,0,0,0,1.61.46,11.407,11.407,0,0,0,1.749.21c0.56,0,1.085.1,1.5,0.1h0.42c0.28,0,.56.04,0.91,0.04h0.07a2.809,2.809,0,0,0,.56-0.04l2.729-.03a6.017,6.017,0,0,1,.875.03,1.228,1.228,0,0,0,.49-0.1,7.212,7.212,0,0,1,1.5-.04c0.664-.28,1.364.07,2.029-0.24,0.595-.28,1.225-0.14,2.065-0.42a1.058,1.058,0,0,0,.945-1.12c0-.6.07-1.19,0.07-1.96a0.913,0.913,0,0,0-1.015-.77,8.4,8.4,0,0,1-1.26.28c-0.6.07-.875,0.14-1.26,0.21a7.844,7.844,0,0,1-1.889.21,4.459,4.459,0,0,1-1.925.14,4.079,4.079,0,0,1-1.925.07,18.156,18.156,0,0,1-1.924.03,11.975,11.975,0,0,1-2.275-.07,3.756,3.756,0,0,1-2.239-.42,1.372,1.372,0,0,1-1.085-.7,1.79,1.79,0,0,1-.42-1.22,2.748,2.748,0,0,1,.56-1.86,8.133,8.133,0,0,1,1.33-1.47,6.61,6.61,0,0,1,1.5-1.15c0.56-.59,1.085-0.8,1.435-0.59a0.691,0.691,0,0,1,.35.87,8.02,8.02,0,0,0,.035.98,15.276,15.276,0,0,1-.035,1.78,1.089,1.089,0,0,0,1.26,1.12,4.3,4.3,0,0,0,1.189,0c0.77-.1,1.26-0.14,1.225-1.08a3.984,3.984,0,0,0-.035-1.16c-0.1-.31.07-0.66,0-1.12a5.1,5.1,0,0,0-.035-1.01,6.754,6.754,0,0,1,0-1.19,1.241,1.241,0,0,1,.6-1.36,3.549,3.549,0,0,1,1.05-.46,5.586,5.586,0,0,1,1.015-.45,5.189,5.189,0,0,1,1.015-.46,2.622,2.622,0,0,1,1.049-.42,4.367,4.367,0,0,1,1.015-.42c0.455-.03.56-0.31,1.05-0.38a7.42,7.42,0,0,1,1.015-.39,8.655,8.655,0,0,1,1.085-.35c0.384-.03,1.189.04,1.189-0.45A0.968,0.968,0,0,0,684.69,3148.07Zm-52.815-190.12v-0.21a0.748,0.748,0,0,0-.945-0.81,5.5,5.5,0,0,1-1.54-.03,3.2,3.2,0,0,1-1.539.03,5.388,5.388,0,0,1-1.5.04c-0.665.17-.98-0.14-1.54,0a16.4,16.4,0,0,1-1.855,0,5.494,5.494,0,0,0-1.854,0h-1.96a1.952,1.952,0,0,1-1.54-.35,5.262,5.262,0,0,1-.174-0.7,1.037,1.037,0,0,1,.419-0.81,0.659,0.659,0,0,0,.14-0.7,0.6,0.6,0,0,0-.524-0.42,16.8,16.8,0,0,1-2.625-.17h-0.105a0.761,0.761,0,0,0-.875.91,8.41,8.41,0,0,1,0,1.33,0.817,0.817,0,0,1-.21.7,3.146,3.146,0,0,1-1.469.21,7.148,7.148,0,0,0-1.96,0c-0.63-.07-1.225.1-1.89,0-0.7-.11-1.364.07-1.889,0-0.665.1-.945-0.14-1.5,0a5.425,5.425,0,0,1-1.5-.04c-0.595.18-1.05-.17-1.539-0.03-0.63-.07-1.085.03-1.575,0a1.079,1.079,0,0,0-.98.98c0,0.07.035,0.14,0.035,0.21a0.82,0.82,0,0,0-.07.24c0,0.18.07,0.39,0.07,0.67v0.31a0.764,0.764,0,0,0,.945.91,4.815,4.815,0,0,1,1.575.04,5.672,5.672,0,0,0,1.539-.04c0.35,0.14,1.085-.17,1.5-0.03,0.56-.07,1.085.07,1.5,0a9.82,9.82,0,0,0,1.329,0c0.98,0,1.54-.07,1.75.35,0.315,0.21.21,0.42-.385,1.12a4.026,4.026,0,0,1-.805,1.29,1.4,1.4,0,0,1-.455.46,7.45,7.45,0,0,1-2.659.03,4.467,4.467,0,0,1-1.225,0,2.992,2.992,0,0,0-.56.04,10.109,10.109,0,0,1-1.714-.04,1.119,1.119,0,0,0-1.225.53,0.557,0.557,0,0,0,.07.66,2.859,2.859,0,0,0,.42.98,4.991,4.991,0,0,0,.385,1.02c0.28,0.31.245,1.08,0.839,0.94a2.134,2.134,0,0,0,.84-0.7c0.28-.1,1.19.04,2.45-0.17a7.986,7.986,0,0,0,2.694-.04,16.46,16.46,0,0,0,2.31-.1,18.756,18.756,0,0,0,2.309-.11c0.735,0.11,1.435-.14,2.345-0.1,0.84-.18,1.645.07,2.31-0.07a9.718,9.718,0,0,1,1.819-.11c0.735-.07,1.225-0.14,1.82-0.14a8.915,8.915,0,0,0,1.854-.14c0.665-.1,1.225,0,1.855-0.1a17.577,17.577,0,0,1,1.925,0c0.28,0.31.455,0.28,0.735,0.56a1.809,1.809,0,0,0,.769.77,1.131,1.131,0,0,0,1.085.63c0.315,0.14.49,0,.8-0.39a2.114,2.114,0,0,1,.875-0.8,1.213,1.213,0,0,0,.455-0.84c0-.53-0.42-0.63-0.665-1.16s-0.8-.31-1.015-0.87a6.169,6.169,0,0,1-1.26-1.02,3.715,3.715,0,0,1-1.434-1.01,0.9,0.9,0,0,1-.63-0.32,2.929,2.929,0,0,1-1.26-.8c0-.46.455-0.28,1.155-0.35a3.61,3.61,0,0,1,1.5.03c0.384-.03.874,0.11,1.539,0.04,0.63,0.1.875-.14,1.575-0.04,0.77-.07.945-0.35,0.945-1.15A2.4,2.4,0,0,1,631.875,2957.95Zm-9.868,3.01a1.094,1.094,0,0,0-.35.66,0.841,0.841,0,0,0,.56.77c0.28,0.11.35,0.53-.21,0.53-0.315.35-.945,0.17-1.715,0.28a1.876,1.876,0,0,1-.875.03c-0.77-.07-1.645.14-2.2,0.04l-2.2.03a3.021,3.021,0,0,1-1.015.04c-0.315.07-.49-0.07-0.7,0a1.048,1.048,0,0,1-.875-0.28,1.269,1.269,0,0,1,.14-0.63,8.829,8.829,0,0,1,.63-0.95c0.385-.28.56-0.63,1.085-1.05a3.286,3.286,0,0,1,2.03-.24c0.8-.14,1.644.1,2.309,0a0.682,0.682,0,0,0,.6,0,7.811,7.811,0,0,0,2.415.03C622.217,2960.19,622.567,2960.5,622.007,2960.96Zm3.884,21.73a2.081,2.081,0,0,1-.035-0.95c-0.14-.49.07-0.98-0.07-1.4-0.07-.42.105-1.05,0-1.43a6.848,6.848,0,0,1,0-2.24,6.158,6.158,0,0,1,0-2.27,16.96,16.96,0,0,1,0-2.31,6.589,6.589,0,0,1,.035-2.35c0.035-.24,0-0.8,0-1.15a0.993,0.993,0,0,0-.945-1.05,7.7,7.7,0,0,1-1.54,0c-0.385-.07-1.154.07-1.539,0.03a3.227,3.227,0,0,0-1.5.04c-0.35.03-.91,0-1.5,0a11.24,11.24,0,0,1-1.539,0c-0.385-.07-1.12.03-1.54,0a3.6,3.6,0,0,0-1.54,0,7.812,7.812,0,0,1-1.54,0,5.353,5.353,0,0,1-1.5,0c-0.63.17-1.12-.18-1.54-0.04-0.63-.17-1.085.11-1.5-0.03a2.962,2.962,0,0,1-1.539,0,1.127,1.127,0,0,0-.945,1.05,2.631,2.631,0,0,0,0,1.29,16.353,16.353,0,0,1,.035,2.28,15.862,15.862,0,0,0,0,2.24c-0.14.98,0.07,1.57,0,2.59a10.579,10.579,0,0,1,0,2.58,6.432,6.432,0,0,0,0,1.44c0.105,0.31-.105.94-0.035,1.4a2.468,2.468,0,0,0,0,1.43c0.105,0.49-.105,1.12,0,1.47a1.134,1.134,0,0,0,1.19,1.23,1.735,1.735,0,0,0,.385.07c0.314,0,.629-0.07.909-0.07h0.07c0.875-.14,1.26-0.49,1.19-1.19a2.712,2.712,0,0,1,0-1.4c-0.035-.35.035-1.16,0-1.4a2.624,2.624,0,0,1,.175-1.72,1.925,1.925,0,0,1,1.26-.7,6.724,6.724,0,0,1,1.679,0,4.334,4.334,0,0,0,1.645,0,4.357,4.357,0,0,1,1.61,0,4.144,4.144,0,0,1,1.61,0c0.524,0,1.014.04,1.644,0a8.565,8.565,0,0,0,1.68,0,1.387,1.387,0,0,1,1.33.39,2.453,2.453,0,0,1,.14.98,1.071,1.071,0,0,1-.315.91,1.236,1.236,0,0,1-1.3.24c-0.525.11-.875-0.07-1.19,0.04a0.63,0.63,0,0,0-.84.66c-0.175.39,0.35,1.05,0.42,2.14a1.18,1.18,0,0,0,1.4.87c0.56-.14,1.54.18,2.24-0.1a6.345,6.345,0,0,0,2.134-.6,1.471,1.471,0,0,0,.98-1.08,3.7,3.7,0,0,0,.245-1.44A1.7,1.7,0,0,1,625.891,2982.69Zm-16.552-10.74c0.1-.84.1-1.19,1.05-1.23a21.371,21.371,0,0,0,2.659,0,23.457,23.457,0,0,1,2.66,0,15.685,15.685,0,0,0,2.659,0c1.05-.14,1.715.14,2.66,0a0.873,0.873,0,0,1,1.05,1.09c0,0.45-.665.63-1.435,0.59a6.74,6.74,0,0,1-1.68,0c-0.42-.07-0.98.04-1.644,0a8.622,8.622,0,0,0-1.61,0,12.275,12.275,0,0,1-1.61,0,12.886,12.886,0,0,1-1.645,0c-0.384.04-1.084,0-1.679,0C610.039,2972.44,609.3,2972.37,609.339,2971.95Zm12.6,4.9a1.409,1.409,0,0,1-1.295.31,6.74,6.74,0,0,1-1.68,0,12.83,12.83,0,0,1-1.644,0c-0.6.07-1.225-.1-1.61,0a14.377,14.377,0,0,0-1.61,0c-0.7-.14-1.05.18-1.645,0-0.419-.14-1.049.18-1.679,0-0.77,0-1.225,0-1.435-.38a6.15,6.15,0,0,1,0-.81c0-.35.665-0.59,1.435-0.56a6.738,6.738,0,0,1,1.679,0c0.42-.07,1.05.11,1.645,0a4.833,4.833,0,0,0,1.61,0,7.867,7.867,0,0,0,1.61,0,4.936,4.936,0,0,0,1.644,0,8.366,8.366,0,0,0,1.68,0c0.595,0.11,1.33.07,1.435,0.39A1.313,1.313,0,0,1,621.937,2976.85Zm6.123,18.16a6.026,6.026,0,0,0-.594-0.84,6.629,6.629,0,0,1-.63-0.8,1.232,1.232,0,0,0-1.015-.6,1.65,1.65,0,0,0-.63.18c-1.05.28-1.435,0.38-2.065,0.49-0.7.14-1.329,0.17-1.819,0.24-0.63.07-1.12,0.07-1.855,0.21a9.443,9.443,0,0,1-1.855.14,6.544,6.544,0,0,1-1.854.14,9.443,9.443,0,0,1-1.855.14,5.718,5.718,0,0,1-1.784.14l-1.855.11c-0.455,0-1.365.14-1.82,0.1a3.34,3.34,0,0,1-1.434.07,8.086,8.086,0,0,1-1.435.07c-0.63-.1-0.84.18-1.5,0.04a6.126,6.126,0,0,0-1.435.03c-0.944,0-1.5.18-1.5,1.09v0.14a12.517,12.517,0,0,0,.21,2.13,0.925,0.925,0,0,0,1.049.91c0.7-.07,1.155-0.21,1.68-0.21,0.665-.1,1.225-0.21,1.96-0.35,0.525-.03,1.015-0.14,1.609-0.17a11.972,11.972,0,0,1,1.82-.21c0.525-.07,1.12-0.07,1.785-0.21a6.8,6.8,0,0,0,1.259-.18l1.295-.14a3.853,3.853,0,0,1,1.47-.17c0.595-.07.7-0.11,1.12-0.14a6.713,6.713,0,0,1,1.05-.07,0.354,0.354,0,0,1,.384.35,1.3,1.3,0,0,1-.8.91,5.087,5.087,0,0,1-.665.59,9.063,9.063,0,0,0-1.435,1.33,7.76,7.76,0,0,1-1.3,1.47c-0.28.63-.77,1.05-1.05,1.58a7.871,7.871,0,0,0-.8,1.78,17.1,17.1,0,0,0-.525,1.93,6.926,6.926,0,0,0-.175,2.13,5.724,5.724,0,0,0,.14,1.72c0.105,0.7.245,0.94,0.35,1.61a11.223,11.223,0,0,0,.6,1.5,7.743,7.743,0,0,0,.8,1.4c0.315,0.28.665,0.87,1.05,1.22,0.315,0.28.63,0.6,1.225,1.09,0.525,0.35,1.05.49,1.47,0.8a4.94,4.94,0,0,0,1.469.67c0.28,0.17.84,0.24,1.54,0.52a10.536,10.536,0,0,0,1.82.49,6.073,6.073,0,0,0,1.889.39,4.928,4.928,0,0,0,1.575.24c0.07,0,.14.04,0.21,0.04a0.949,0.949,0,0,0,.875-0.81,3.965,3.965,0,0,1,.315-1.12,4.627,4.627,0,0,0,.385-1.43,1.213,1.213,0,0,0-1.33-.7,9.067,9.067,0,0,0-1.47-.18c-0.385.04-.525-0.24-0.84-0.21a5.2,5.2,0,0,1-1.259-.21c-0.455-.03-0.8-0.35-1.26-0.42a3.526,3.526,0,0,1-1.365-.49,6.221,6.221,0,0,1-.98-0.52c-0.385-.28-0.595-0.42-0.909-0.67a2.691,2.691,0,0,1-.77-0.76,4.333,4.333,0,0,1-.595-0.88c-0.105-.24-0.245-0.59-0.455-1.01,0-.35-0.245-0.63-0.28-1.16a4.445,4.445,0,0,1-.07-1.33,7.146,7.146,0,0,1,.105-1.61,4.152,4.152,0,0,1,.385-1.47c0.21-.31.245-0.87,0.6-1.4,0.21-.49.6-0.91,0.77-1.26a4.619,4.619,0,0,1,.944-1.19c0.245-.21.665-0.7,1.085-1.08a13.394,13.394,0,0,1,1.19-1.02,8.017,8.017,0,0,1,1.3-.94,4.231,4.231,0,0,1,1.19-.81,8.884,8.884,0,0,1,1.469-.94c0.525-.21,1.12-0.7,1.575-0.84a9.188,9.188,0,0,1,1.05-.39,5.871,5.871,0,0,1,.84-0.14,0.548,0.548,0,0,0,.664-0.42,0.688,0.688,0,0,0,.035-0.14A0.82,0.82,0,0,0,628.06,2995.01Zm0.6,50.61a3.537,3.537,0,0,0-.455-1.61c-0.419-.63-0.279-1.12-0.734-1.5a7.71,7.71,0,0,0-1.155-1.3c-0.28-.17-0.42-0.42-0.805-0.63a5.525,5.525,0,0,1-.875-0.56c-0.455-.31-1.4-0.52-1.889-0.84-0.84-.14-1.26-0.45-2.03-0.52a13.459,13.459,0,0,0-2.065-.18c-0.63.04-1.154,0.07-1.5,0.11-0.63.1-.875,0.14-1.365,0.24-0.525.07-.945-0.42-0.315-1.08a4.951,4.951,0,0,1,.805-0.67,1.794,1.794,0,0,1,.525-0.52c0.455-.25.385-0.53,0.735-0.67a4.028,4.028,0,0,1,.769-0.7,4.044,4.044,0,0,0,.735-0.7,3.212,3.212,0,0,1,.77-0.66c0.315-.35.945-0.84,1.33-1.23,0.315-.42.98-0.66,1.47-1.15,0.314-.32.944-0.21,1.189-0.81a0.761,0.761,0,0,0-.28-0.84c-0.385-.24-0.49-0.63-0.839-0.87a4.294,4.294,0,0,1-.875-0.88,0.984,0.984,0,0,0-1.015-.52h-0.105c-0.35,0-.455.14-1.3,0.21a17.548,17.548,0,0,0-2.2.21c-0.8.1-1.435,0.17-2.24,0.21-0.84.03-1.575,0.24-2.45,0.24a10.844,10.844,0,0,0-1.959.18c-0.525.17-1.085-.14-1.68,0.03a7.528,7.528,0,0,1-2.1.07,0.949,0.949,0,0,0-1.085,1.19c0.175,0.53,0,1.16.21,1.68a0.963,0.963,0,0,0,.945,1.02,5.361,5.361,0,0,0,1.364-.18,5.984,5.984,0,0,0,1.33-.17c0.385-.18.875,0,1.295-0.21,0.455-.25,1.015.03,1.435-0.18a7.874,7.874,0,0,1,1.434-.21,9.256,9.256,0,0,1,1.47-.21c0.56-.1,1.47-0.45,1.715.21a0.931,0.931,0,0,1-.455.84c-0.315.56-.49,0.32-0.77,0.81a2.5,2.5,0,0,0-.63.63,2.012,2.012,0,0,1-.77.63,4.925,4.925,0,0,1-.7.73,4.881,4.881,0,0,0-.77.7,9.114,9.114,0,0,0-.874.7,3.121,3.121,0,0,1-.8.7,6.3,6.3,0,0,1-.56.56c-0.42.21-.455,0.46-0.84,0.67a8.139,8.139,0,0,1-.98.84c-0.385.14-.245,0.52-0.77,0.63-0.385.07-.315,0.45-0.839,0.63-0.455.14-.56,0.56-0.945,0.63a3.21,3.21,0,0,1-.875.59,10.685,10.685,0,0,1-.91.63,0.851,0.851,0,0,0-.49.74v0.14a1.165,1.165,0,0,0,.245.66c0.35,0.56.56,0.77,0.875,1.3a1,1,0,0,0,1.26.52,2.279,2.279,0,0,0,.6-0.35c0.28-.31.454-0.24,0.979-0.7a6.44,6.44,0,0,1,1.435-.77,2.772,2.772,0,0,1,1.015-.52,1.547,1.547,0,0,1,.98-0.42c0.385,0,.35-0.46,1.085-0.42a11.479,11.479,0,0,0,1.539-.42c0.7-.14.91-0.18,1.785-0.39a15.238,15.238,0,0,1,2.239-.17c0.35,0.07.77,0.03,1.295,0.07,0.525,0,.77.21,1.26,0.24a6.173,6.173,0,0,1,2.135.98c0.209,0.35.454,0.21,0.839,0.74a2.773,2.773,0,0,1,.7,1.01,3.4,3.4,0,0,1,.385,1.02c-0.035.56,0.14,0.73,0.14,1.36a3.836,3.836,0,0,1-.21,1.54,8.415,8.415,0,0,1-.56,1.4c-0.455.52-.49,0.73-0.875,1.22a7.952,7.952,0,0,1-.909.95,7.119,7.119,0,0,1-1.12.73c-0.49.32-1.82,0.56-1.89-.49a4.848,4.848,0,0,0-.525-2.27,3.77,3.77,0,0,0-.56-0.88c-0.35-.17-0.35-0.52-0.734-0.73a3.442,3.442,0,0,0-.875-0.56c-0.385-.07-0.7-0.35-0.98-0.39a20.732,20.732,0,0,0-2.065-.24,7.7,7.7,0,0,0-2.309.28,3.788,3.788,0,0,0-1.785.94,5.736,5.736,0,0,0-1.26,1.54,4.869,4.869,0,0,0-.455,2.1,7.353,7.353,0,0,1,.175,1.47,6.587,6.587,0,0,0,.525,1.19,2.245,2.245,0,0,0,.77.95,2.563,2.563,0,0,0,1.015.7,3.237,3.237,0,0,0,1.19.49,2.4,2.4,0,0,0,1.259.31,6.373,6.373,0,0,0,1.33.18c0.28,0.03.91,0,1.3,0.07a17.06,17.06,0,0,0,2.415-.14,6.116,6.116,0,0,1,1.189-.18,2.667,2.667,0,0,0,1.19-.28,8.558,8.558,0,0,0,1.19-.31,4.055,4.055,0,0,0,1.12-.42,10.427,10.427,0,0,1,1.084-.49,3,3,0,0,0,1.015-.6c0.385-.35.525-0.28,0.945-0.66a5.572,5.572,0,0,0,.875-0.77,2.638,2.638,0,0,0,.735-0.84,8.589,8.589,0,0,0,.665-0.95,4.719,4.719,0,0,1,.524-1.01c0.175-.49.245-0.67,0.385-1.16a4.539,4.539,0,0,1,.245-1.19c0-.24.1-0.66,0.1-1.15v-0.18a4.566,4.566,0,0,1-.035-0.66v-0.49A4.988,4.988,0,0,0,628.655,3045.62Zm-14.592,8.78a5.469,5.469,0,0,1-1.784-.31,2.036,2.036,0,0,1-1.05-.6,1.572,1.572,0,0,1-.455-1.26,1.526,1.526,0,0,1,.14-0.77,2.06,2.06,0,0,1,.6-0.63,2.764,2.764,0,0,1,.7-0.35,7.186,7.186,0,0,1,.874-0.07,4.851,4.851,0,0,1,1.05.14,2.341,2.341,0,0,1,.8.6,2.621,2.621,0,0,1,.665,1.85,1.588,1.588,0,0,1-.28.98A1.671,1.671,0,0,1,614.063,3054.4Zm16.9,10.4a1.863,1.863,0,0,0-.665-0.84c-0.28-.21-0.49-0.45-0.8-0.66-0.21-.18-0.735-0.32-0.91-0.49a4.675,4.675,0,0,0-2.029-.39H626.1a8.358,8.358,0,0,0-1.715.39,2.715,2.715,0,0,0-.945.49,3.686,3.686,0,0,0-.8.66c-0.42.28-.28,0.49-0.77,0.91a3.593,3.593,0,0,0-.49.95,4.3,4.3,0,0,0-.35,1.99,4.628,4.628,0,0,0,.315,1.82,2.424,2.424,0,0,0,.63,1.23c0.455,0.35.385,0.56,0.735,0.8,0.489,0.35.314,0.42,0.734,0.67a3.663,3.663,0,0,0,1.26.52,9.187,9.187,0,0,0,1.785.32,7.385,7.385,0,0,0,2.064-.39,2.109,2.109,0,0,0,.945-0.45,5.665,5.665,0,0,1,.8-0.67,9.89,9.89,0,0,0,.665-0.84,8.5,8.5,0,0,1,.525-0.91,4.365,4.365,0,0,0,.42-2.1v-0.31a5.461,5.461,0,0,0-.42-1.79A8.128,8.128,0,0,0,630.965,3064.8Zm-1.785,3.05a2.054,2.054,0,0,1-.1.77,2.563,2.563,0,0,1-.7,1.12,2.206,2.206,0,0,1-1.924.77,1.925,1.925,0,0,1-1.89-.77,2.451,2.451,0,0,1-.805-1.89,2.927,2.927,0,0,1,.77-2,2.152,2.152,0,0,1,1.785-.84,1.982,1.982,0,0,1,1.19.25,1.212,1.212,0,0,1,.874.59,2.114,2.114,0,0,1,.56.81A3.179,3.179,0,0,1,629.18,3067.85Z" transform="translate(-595 -2942)"/>
</svg>
