<svg id="ttl" xmlns="http://www.w3.org/2000/svg" width="99" height="262" viewBox="0 0 99 262">
  <defs>
    <style>
      .cls-1 {
        fill: #bea574;
      }

      .cls-1, .cls-2 {
        fill-rule: evenodd;
      }

      .cls-2 {
        fill: #fff;
      }
    </style>
  </defs>
  <path id="長方形_981_のコピー_3" data-name="長方形 981 のコピー 3" class="cls-1" d="M1133,3549h43.99v261.99H1133V3549Z" transform="translate(-1078 -3549)"/>
  <path id="長方形_981_のコピー_3-2" data-name="長方形 981 のコピー 3" class="cls-1" d="M1078.01,3549h44.43v135.46h-44.43V3549Z" transform="translate(-1078 -3549)"/>
  <path id="次世代の才能を_育てる_" data-name="次世代の才能を 育てる。" class="cls-2" d="M1146.8,3571.98a0.978,0.978,0,0,0-.56.98,1.5,1.5,0,0,0,.8,1.08c0.49,0.46.63,1.3,1.44,1.12,0.42,0.18.7-.28,1.15-0.8a4.438,4.438,0,0,0,.84-1.09,7.114,7.114,0,0,0,.98-1.29,9.456,9.456,0,0,1,.95-1.37,6.647,6.647,0,0,0,.7-1.19,2.445,2.445,0,0,1,1.05-1.19,2.258,2.258,0,0,1,1.57-.42,7.2,7.2,0,0,1,1.47,0,10.286,10.286,0,0,0,1.47,0,10.149,10.149,0,0,0,1.47,0,2.808,2.808,0,0,0,1.44,0,3.315,3.315,0,0,0,1.47,0,1.89,1.89,0,0,0,1.01,0,0.875,0.875,0,0,1,1.09,1.02,2.283,2.283,0,0,0-.42.63c-0.32.28-.46,0.77-0.63,0.87a3.232,3.232,0,0,1-.67.7,1.011,1.011,0,0,0-.21.74,1.243,1.243,0,0,0,.84,1.05,1.874,1.874,0,0,0,1.51.94,3.584,3.584,0,0,0,.87-0.52c0.07-.21.42-0.49,0.6-0.91a6.024,6.024,0,0,1,.63-0.95c0.17-.35.63-0.91,0.91-1.43a7.7,7.7,0,0,1,.77-1.51,4.633,4.633,0,0,1,.8-0.91,2.013,2.013,0,0,0,.66-0.49,1.125,1.125,0,0,0-.17-0.84,4.579,4.579,0,0,1-.91-0.87,5.207,5.207,0,0,1-.91-0.84,0.643,0.643,0,0,0-.7-0.39c-0.63.07-.35,0.39-1.05,0.35-0.42-.03-1.92-0.07-2.48-0.03-0.49.07-1.4-.04-1.82,0.07a3.078,3.078,0,0,0-1.51,0,10.725,10.725,0,0,0-1.5,0c-0.6.03-.88-0.07-1.54,0a3.382,3.382,0,0,0-1.19,0,1.611,1.611,0,0,1-.98-0.74,1.258,1.258,0,0,1,0-1.12,2.989,2.989,0,0,1,.49-1.08,1.3,1.3,0,0,0,.84-0.98,0.64,0.64,0,0,0-.63-0.6,2.644,2.644,0,0,1-1.09-.35c-0.38,0-.59-0.31-1.05-0.35a2.951,2.951,0,0,0-.56-0.17c-0.03,0-.1.03-0.14,0.03a0.756,0.756,0,0,0-.7.74c-0.24.52-.24,0.91-0.38,1.12a7.018,7.018,0,0,1-.46,1.47c-0.17.56-.49,1.12-0.59,1.47a5.255,5.255,0,0,1-.63,1.43,3.309,3.309,0,0,0-.74,1.44c-0.35.31-.42,0.91-0.8,1.36a5.582,5.582,0,0,1-.84,1.33,6.276,6.276,0,0,1-.95,1.26A2.689,2.689,0,0,0,1146.8,3571.98Zm-6.09-7.32c0.46,0.28.63,0.7,1.09,0.95a1.911,1.911,0,0,1,1.01.87,8.382,8.382,0,0,1,1.05.98,6.945,6.945,0,0,0,1.05,1.05c0.17,0.14.56,0.42,0.66,0.25a0.93,0.93,0,0,0,.81-0.46,5.8,5.8,0,0,0,.98-1.05,2.06,2.06,0,0,0,.42-0.84,1.641,1.641,0,0,0-.74-1.19,5.146,5.146,0,0,1-1.05-.91,17.409,17.409,0,0,1-1.4-1.19,5.017,5.017,0,0,1-1.32-1.01,0.944,0.944,0,0,0-.77-0.35,1.082,1.082,0,0,0-.88.49,11.5,11.5,0,0,1-.87.94,1.616,1.616,0,0,0-.39.77A1.128,1.128,0,0,0,1140.71,3564.66Zm29.32,22.43c-0.48-.28-0.8-0.56-1.08-0.7a1.485,1.485,0,0,1-.91-0.63,1.571,1.571,0,0,1-.91-0.7c-0.45-.07-0.42-0.52-0.84-0.73a7.181,7.181,0,0,1-.84-0.77,1.871,1.871,0,0,0-.77-0.84,5.953,5.953,0,0,0-.7-0.84c-0.28-.28-0.35-0.63-0.66-0.94a2.576,2.576,0,0,1-.6-0.95,13.525,13.525,0,0,1-.91-1.75,4.66,4.66,0,0,1-.73-1.85,5.038,5.038,0,0,1-.56-1.89,9.167,9.167,0,0,1-.42-1.89c0.1-.21-0.11-0.53,0-1.16a2.1,2.1,0,0,1,.28-1.4c0.31-.31.63-0.24,0.63-0.8a0.462,0.462,0,0,0-.46-0.56,6.387,6.387,0,0,0-1.4-.14c-0.59,0-1.08-.11-1.54-0.14a0.9,0.9,0,0,0-1.01,1.01c-0.14.91,0,1.44-.07,2.38a2.779,2.779,0,0,0-.11,1.26,4.151,4.151,0,0,0-.24,1.26,4.6,4.6,0,0,1-.25,1.09,2.784,2.784,0,0,0-.35,1.12,2.059,2.059,0,0,0-.42,1.12,3.51,3.51,0,0,1-.45,1.08,8.169,8.169,0,0,0-.56,1.09,5.783,5.783,0,0,1-.63.98,3.114,3.114,0,0,0-.7.91,3.09,3.09,0,0,1-.77.84,3.236,3.236,0,0,1-.98.83,9.211,9.211,0,0,0-1.02.81,1.963,1.963,0,0,1-1.08.7,2.849,2.849,0,0,0-1.09.66,11.635,11.635,0,0,1-1.15.6,4.852,4.852,0,0,0-1.19.56,6.976,6.976,0,0,1-1.23.49,2.11,2.11,0,0,1-1.22.45c-0.63.21-1.08,0.11-1.36,0.84-0.25.67,0.56,1.3,0.66,1.61,0.46,0.49.42,1.33,1.26,1.33h0.07a4.454,4.454,0,0,0,1.36-.42,8.649,8.649,0,0,0,1.4-.66,6.892,6.892,0,0,1,1.44-.7,6.05,6.05,0,0,1,1.61-.77,5.193,5.193,0,0,0,1.57-.84,9.86,9.86,0,0,0,1.47-.98c0.46-.42.63-0.53,1.05-0.88a2.141,2.141,0,0,0,1.02-.94,2.817,2.817,0,0,1,.91-1.02c0.24-.31.49-0.73,0.8-1.08a8.749,8.749,0,0,1,.74-1.15,5.4,5.4,0,0,1,.66-1.33,0.912,0.912,0,0,1,1.61-.14,7.5,7.5,0,0,1,.84,1.47,5.581,5.581,0,0,1,.67,1.15c0.21,0.31.56,0.77,0.77,1.12a1.63,1.63,0,0,0,.8,1.08,2.519,2.519,0,0,1,.91,1.02,3.057,3.057,0,0,0,.98.98,1.688,1.688,0,0,1,.84.73,6.812,6.812,0,0,0,1.33,1.12,7.538,7.538,0,0,1,1.44,1.02,1.462,1.462,0,0,0,1.05.42,1.34,1.34,0,0,0,1.08-.74,2.933,2.933,0,0,1,.59-0.8,1.688,1.688,0,0,0,.46-0.84,0.46,0.46,0,0,0-.14-0.35C1170.91,3587.76,1170.31,3587.44,1170.03,3587.09Zm-26.94-4.26c0.7-.18,1.29-0.53,1.5-0.56a10.5,10.5,0,0,0,1.82-.74c0.63-.28,1.16-0.59,1.79-0.8,0.42-.18,1.15-0.56,1.78-0.84a15.918,15.918,0,0,0,1.75-.88c0.67-.38,1.3-0.49,1.37-1.05a1.983,1.983,0,0,0-.07-0.91c-0.07-.28-0.25-0.63-0.35-1.08a0.933,0.933,0,0,0-.88-0.77c-0.21.07-.63,0.31-1.22,0.49-0.56.31-1.02,0.49-1.16,0.59l-1.19.53c-0.49.24-.73,0.28-1.15,0.52-0.49.32-.67,0.18-1.19,0.49a3.23,3.23,0,0,0-1.23.46c-0.45.35-.98,0.21-1.18,0.45a5.635,5.635,0,0,1-1.23.46,3.614,3.614,0,0,0-1.22.38,2.658,2.658,0,0,1-1.26.42,1.254,1.254,0,0,0-.95.91,1.091,1.091,0,0,1,.04.32v0.1a0.312,0.312,0,0,0,.17.14,6.634,6.634,0,0,0,.56,1.19,5.882,5.882,0,0,0,.63,1.22,0.654,0.654,0,0,0,.98.39,4.389,4.389,0,0,0,.56-0.84A2.479,2.479,0,0,1,1143.09,3582.83Zm27.99,39.61c0-.1.04-0.17,0.04-0.28a0.8,0.8,0,0,0-.98-0.87,3.367,3.367,0,0,1-1.57-.04,2.788,2.788,0,0,1-1.51.04,5.643,5.643,0,0,1-1.54.03c-0.45.04-1.05-.03-1.5,0.04a7.02,7.02,0,0,0-2.1,0c-0.77.03-1.51,0-2.14,0a5.078,5.078,0,0,1-2.17,0,11.643,11.643,0,0,1-2.13,0,5.7,5.7,0,0,1-2.14,0,13.769,13.769,0,0,0-2.13,0,6.234,6.234,0,0,1-2.24,0c-0.49.14-.74-0.39-1.26-0.56a1.2,1.2,0,0,1-.67-1.09,8.454,8.454,0,0,0,0-1.95,8.187,8.187,0,0,0,0-1.86,11.865,11.865,0,0,1,0-1.89c0.07-.77-0.1-1.19,0-1.85,0.11-.53-0.07-1.09,0-1.89a8.893,8.893,0,0,1,0-1.93,1.751,1.751,0,0,1,.46-1.08,1.128,1.128,0,0,1,.87-0.56,11.814,11.814,0,0,1,1.58,0,8.944,8.944,0,0,1,1.33.03,1.4,1.4,0,0,1,1.22.63,3.183,3.183,0,0,1,.35,1.65,14.215,14.215,0,0,0,0,2.69,15.275,15.275,0,0,0,0,2.14,6.571,6.571,0,0,0-.03,2.17c0.14,0.73-.18,1.26,0,1.85a1,1,0,0,0,1.15,1.08c0.28,0.04.88,0,1.23,0a0.95,0.95,0,0,0,1.26-.91,2.4,2.4,0,0,1,.21-0.97c0.28-.56.59-0.35,1.12-0.46a12.057,12.057,0,0,1,1.61.04,2.7,2.7,0,0,1,1.4.21,1.141,1.141,0,0,1,.63.77c0.07,0.62.8,0.41,1.12,0.48,0.28,0,.8-0.03,1.22,0a1.115,1.115,0,0,0,1.16-1.11,13.875,13.875,0,0,0,0-1.58,5.671,5.671,0,0,1,0-1.54c-0.07-.38,0-1.08-0.04-1.5a5.616,5.616,0,0,0-.03-1.54c0.07-.56-0.14-1.47,0-2.21a1.857,1.857,0,0,1,.73-1.47,1.488,1.488,0,0,1,1.16-.42,8.353,8.353,0,0,1,.87,0c0.91-.07,1.4.11,2.34,0a0.936,0.936,0,0,0,.95-1.15,5.025,5.025,0,0,0,0-1.23,1.049,1.049,0,0,0-.98-1.15,12.672,12.672,0,0,1-2.31,0,0.9,0.9,0,0,1-.84.03,1.7,1.7,0,0,1-1.89-1.33c0-.7-0.03-1.08,0-1.61a19.475,19.475,0,0,1-.03-2.03,8.772,8.772,0,0,1,.07-1.71,1.692,1.692,0,0,1,.35-0.39c0.21-.14.24-0.1,0.28-0.63a0.636,0.636,0,0,0-.6-0.38,3.949,3.949,0,0,0-1.36-.11,4.442,4.442,0,0,1-1.4-.07,0.9,0.9,0,0,0-.95,1.05c-0.17.67,0.14,0.98,0,1.58a5.689,5.689,0,0,0,.04,1.54,3.941,3.941,0,0,1,0,1.57c0.1,0.49-.04.88,0.03,1.54a1.458,1.458,0,0,1-1.4,1.09c-0.45-.07-1.47-0.07-1.96-0.11a1.674,1.674,0,0,1-1.47-1.22,7.6,7.6,0,0,1-.07-1.79,12.307,12.307,0,0,1,0-1.92,5.821,5.821,0,0,1,.04-1.54,1.16,1.16,0,0,1,.31-0.63,0.545,0.545,0,0,0,.35-0.67,0.468,0.468,0,0,0-.59-0.38c-0.49-.11-0.84.03-1.37-0.11-0.52.14-1.08-.21-1.43-0.07a1.127,1.127,0,0,0-1.02,1.16,13.688,13.688,0,0,0,.11,1.47,9.782,9.782,0,0,0,.07,1.71,6.677,6.677,0,0,0-.04,1.37c-0.07.7,0.04,0.87,0,1.57a2,2,0,0,1-1.29,1.09c-0.46.14-1.05-.14-1.61,0a2.5,2.5,0,0,1-1.58,0,1.353,1.353,0,0,1-1.29-1.16,7.718,7.718,0,0,1,0-1.36,7.3,7.3,0,0,0,0-1.75,19.8,19.8,0,0,1,.03-2.07,1.5,1.5,0,0,1,.28-0.87,0.946,0.946,0,0,0,.35-0.67,0.657,0.657,0,0,0-.52-0.42,6.458,6.458,0,0,0-1.02-.14,2,2,0,0,0-.45.04,1.95,1.95,0,0,0-.46-0.04,2.851,2.851,0,0,1-1.08-.03c-0.07,0-.14-0.04-0.21-0.04a0.709,0.709,0,0,0-.7.88,5,5,0,0,0,.04,1.26,11.658,11.658,0,0,0,.03,1.92,6.912,6.912,0,0,0,.04,1.93,0.738,0.738,0,0,0,0,.73,8.011,8.011,0,0,0,0,.98,1.521,1.521,0,0,1-1.19.77,3.049,3.049,0,0,1-.91.07,7.687,7.687,0,0,0-2-.1,0.829,0.829,0,0,0-.94.98v0.17a7.678,7.678,0,0,1-.07.91,0.439,0.439,0,0,0,.07.32c0.07,0.7.17,1.33,0.94,1.15a11.878,11.878,0,0,0,2.31,0,2.916,2.916,0,0,0,.6,0c0.38,0.07,1.08.39,1.19,2.17a7.351,7.351,0,0,0,0,2.52c-0.04.74,0.07,1.61,0,2.42a8.945,8.945,0,0,0,0,2.38,12.682,12.682,0,0,1,0,1.95,5.168,5.168,0,0,0,0,1.96c-0.11.53,0.1,1.3-.04,1.96-0.1.81,0.11,1.47-.03,1.96,0,0.56.03,1.23,0,1.58a0.811,0.811,0,0,0,.87.98,0.7,0.7,0,0,0,.28-0.04,0.828,0.828,0,0,0,.31.04c0.25,0,.6-0.07.84-0.07,0.07,0,.14.03,0.18,0.03,0.07,0,.14.04,0.21,0.04a0.766,0.766,0,0,0,.91-0.77c0.17-.56,1.22-0.95,2.03-1.05a9.865,9.865,0,0,0,2.24,0,15,15,0,0,0,2.13,0,8.494,8.494,0,0,1,2.14,0,8.928,8.928,0,0,0,2.13,0,7.463,7.463,0,0,1,2.17,0,8.877,8.877,0,0,0,2.14,0,7.031,7.031,0,0,0,2.1,0,7.436,7.436,0,0,0,1.5,0c0.53,0.03.88,0,1.51,0.03a4.984,4.984,0,0,0,1.57.04,5.883,5.883,0,0,0,1.54-.04,1.012,1.012,0,0,0,.94-1.15,3.2,3.2,0,0,1,0-.98v-0.25Zm-14.66-14.27a1.567,1.567,0,0,1,1.16-1.47,8.524,8.524,0,0,1,1.43,0,2.2,2.2,0,0,1,1.75.38,1.386,1.386,0,0,1,.56,1.09,7.318,7.318,0,0,0,0,1.75,4.677,4.677,0,0,1,0,1.75,1.366,1.366,0,0,1-1.19,1.47,6.462,6.462,0,0,1-1.4,0,1.813,1.813,0,0,1-1.61-.39,1.587,1.587,0,0,1-.66-1.36,6.737,6.737,0,0,1-.04-1.47A10.225,10.225,0,0,1,1156.42,3608.17Zm-10.04,26.84a5.713,5.713,0,0,1,.42-1.33,8.689,8.689,0,0,1,.31-1.26,2.31,2.31,0,0,1,.46-1.12c0.14-.28.66-0.17,0.8-0.77,0.14-.35-0.45-0.38-0.52-0.56-0.46-.24-0.91-0.24-1.19-0.45-0.39-.14-0.91-0.28-1.19-0.42a0.363,0.363,0,0,0-.35-0.14h-0.18c-0.77,0-.73,1.08-1.05,1.47l-0.34,1.33a10.383,10.383,0,0,0-.39,1.29,2.683,2.683,0,0,1-.42,1.33,9.568,9.568,0,0,1-.49,1.26,5.281,5.281,0,0,1-.38,1.09,6.569,6.569,0,0,0-.42,1.05,2.8,2.8,0,0,1-.46,1.01,6.479,6.479,0,0,0-.45,1.02,5.777,5.777,0,0,1-.46,1.01,6.131,6.131,0,0,0-.49.95,3.269,3.269,0,0,0-.56,1.01,2.424,2.424,0,0,0-.59.98,2.105,2.105,0,0,0-.67,1.3v0.24a1.246,1.246,0,0,0,.39.88,3.678,3.678,0,0,0,.63.98,1.117,1.117,0,0,0,.94,1.01,0.949,0.949,0,0,0,.84-0.7c0.42-.56.63-0.59,0.95-0.31a3.056,3.056,0,0,1,.21,1.43c0,0.39-.04.74-0.04,1.09-0.07.8,0.04,1.54,0,2.31a8.625,8.625,0,0,0,0,2.27c-0.1.91,0.11,1.82,0,2.76a3.878,3.878,0,0,1-.03,1.4c0,0.42.03,1.05,0,1.44a2.908,2.908,0,0,0,0,.59,0.926,0.926,0,0,0,.91,1.12,0.661,0.661,0,0,0,.24-0.03,5.474,5.474,0,0,0,.74.07,1.65,1.65,0,0,0,.59-0.07h0.21c0.66,0,.77-0.42.94-1.12-0.03-.6.04-0.95,0-1.65-0.03-.56.04-1.43-0.03-2.24a15.461,15.461,0,0,1,0-2.27,2.968,2.968,0,0,1,0-1.68,15.621,15.621,0,0,0,0-1.68,8.882,8.882,0,0,1,0-1.71,9.8,9.8,0,0,0,0-1.72,9.344,9.344,0,0,0,0-1.68,3.946,3.946,0,0,1,0-1.71,11.764,11.764,0,0,1,0-1.68,9.459,9.459,0,0,1-.04-1.37,0.9,0.9,0,0,1,.32-0.87,0.861,0.861,0,0,0,.38-0.74,0.6,0.6,0,0,0-.56-0.66c-0.24-.18-0.14-0.7.11-1.37a3.393,3.393,0,0,0,.42-1.08A3.642,3.642,0,0,1,1146.38,3635.01Zm24.98,20.02c0-.04.04-0.11,0.04-0.14a1.476,1.476,0,0,0-1.19-1.09,2,2,0,0,0-1.15-.35,0.557,0.557,0,0,0-.67.42c-0.14.39-.17,1.51-0.31,1.82-0.04.56-.25,1.44-0.84,1.4a1.575,1.575,0,0,1-1.3-.59,5.054,5.054,0,0,1-.77-0.63,5.742,5.742,0,0,1-.73-0.81,4.578,4.578,0,0,1-.74-0.91,1.575,1.575,0,0,1-.66-0.94c-0.14-.45-0.53-0.66-0.63-1.01a3.409,3.409,0,0,1-.6-0.98,7.911,7.911,0,0,1-.84-1.86,15.2,15.2,0,0,1-.66-1.85,4.417,4.417,0,0,1-.56-1.86c-0.18-.73-0.32-1.43-0.46-1.96a2.506,2.506,0,0,1,.25-1.22,1.369,1.369,0,0,1,1.22-.63c0.49-.14.98-0.14,1.26-0.25a4.647,4.647,0,0,0,1.58-.17,4.114,4.114,0,0,0,1.57-.18c0.35-.07.91,0,1.65-0.14a8.93,8.93,0,0,0,1.64-.14,4.326,4.326,0,0,0,1.71-.14,0.936,0.936,0,0,0,.49-1.29,4.568,4.568,0,0,1-.14-1.19,0.991,0.991,0,0,0-.97-1.05,1.194,1.194,0,0,0-.91.07,14.382,14.382,0,0,1-1.96.24,8.848,8.848,0,0,0-1.93.21,8.508,8.508,0,0,0-1.57.18,7.331,7.331,0,0,1-1.58.17,4.542,4.542,0,0,1-1.64.18,1.442,1.442,0,0,1-1.44-1.3c0-.52-0.21-1.4-0.21-1.82,0.07-.31-0.1-0.73-0.03-1.36a2.3,2.3,0,0,1-.04-1.37c0.04-.49-0.24-1.05.49-1.54a0.58,0.58,0,0,0,.39-0.73,0.672,0.672,0,0,0-.6-0.42,8.046,8.046,0,0,1-1.57-.14,13.444,13.444,0,0,0-1.65-.11c-0.63-.07-0.84.28-0.91,0.88-0.03.45,0.18,1.08,0.11,1.47a9.2,9.2,0,0,1,.07,1.61,9.675,9.675,0,0,1,.07,1.61l0.1,2.06a1.311,1.311,0,0,1-.35,1.37,1.79,1.79,0,0,1-1.08.52,4.267,4.267,0,0,0-1.26.25,7.154,7.154,0,0,0-1.47.1,9.3,9.3,0,0,1-1.68.11c-0.39.07-.77,0.03-1.61,0.17a1.024,1.024,0,0,0-.74,1.02c0,0.59.28,0.94,0.21,1.36,0.14,0.6.28,1.16,0.98,1.05a2.458,2.458,0,0,1,.91-0.1,12.4,12.4,0,0,0,1.96-.21,11.527,11.527,0,0,1,1.96-.21,10.535,10.535,0,0,0,1.47-.18,1.648,1.648,0,0,1,1.33,1.16,5.013,5.013,0,0,0,.39,1.4,3.341,3.341,0,0,1,.31,1.36,6.294,6.294,0,0,0,.39,1.37,8.67,8.67,0,0,1,.45,1.36,2.491,2.491,0,0,0,.49,1.33c0.21,0.39.35,0.98,0.56,1.3a3.458,3.458,0,0,1,.63,1.26,8.066,8.066,0,0,0,.7,1.22,9.738,9.738,0,0,1,.88,1.33,4.448,4.448,0,0,0,1.01,1.36,4.683,4.683,0,0,0,1.19,1.33,2.832,2.832,0,0,0,1.26,1.16,2.584,2.584,0,0,0,1.37.98,14.832,14.832,0,0,0,1.43.63,5.916,5.916,0,0,1,1.47.21,3.929,3.929,0,0,0,1.92-.74,4.482,4.482,0,0,0,.56-0.84,6.119,6.119,0,0,1,.39-1.08,4.159,4.159,0,0,0,.38-1.72A9.823,9.823,0,0,0,1171.36,3655.03Zm-11.19-21a4.333,4.333,0,0,0,.84.63,3.414,3.414,0,0,0,.84.6,1.949,1.949,0,0,1,.8.66,2.292,2.292,0,0,0,.81.67,1.2,1.2,0,0,0,.7.28c0.42,0.07.45-.14,0.84-0.53a11.426,11.426,0,0,1,.77-1.05,0.928,0.928,0,0,0,.28-0.73,2.293,2.293,0,0,0-1.12-1.47,11.215,11.215,0,0,0-1.65-1.16,3.194,3.194,0,0,0-1.78-.8,1.159,1.159,0,0,0-.95.63,3.409,3.409,0,0,0-.52.77,0.961,0.961,0,0,0-.28.91A1.171,1.171,0,0,0,1160.17,3634.03Zm9.9,46.76v-0.94a4.618,4.618,0,0,0-.07-0.6,8.89,8.89,0,0,1-.25-1.4,4.346,4.346,0,0,0-.34-1.29c-0.28-.56-0.32-1.05-0.53-1.33-0.31-.42-0.31-0.81-0.59-1.09-0.39-.49-0.49-0.77-0.74-1.01-0.38-.39-0.66-0.84-0.91-1.02a3.134,3.134,0,0,1-.94-0.84c-0.32-.35-0.84-0.45-1.05-0.73a6.336,6.336,0,0,0-1.12-.67c-0.42-.21-0.84-0.31-1.19-0.52a8.492,8.492,0,0,0-1.23-.39c-0.28-.14-0.94-0.21-1.29-0.35a7.337,7.337,0,0,0-1.4-.24,12.231,12.231,0,0,0-1.51-.18c-0.38,0-.77-0.03-1.12-0.03h-0.21a1.715,1.715,0,0,0-.45-0.04c-0.42,0-.77.07-1.16,0.07-0.56.07-1.19,0.18-1.71,0.25-0.67.1-.88,0.21-1.47,0.31a9.8,9.8,0,0,0-1.51.6,4.365,4.365,0,0,0-1.47.63,10.006,10.006,0,0,0-1.36.8,7.655,7.655,0,0,0-1.3.95,11.968,11.968,0,0,0-1.19,1.08,3.346,3.346,0,0,0-.97,1.09,4.459,4.459,0,0,0-.88,1.15,10.138,10.138,0,0,1-.77,1.26,12.336,12.336,0,0,0-.63,1.3,4.9,4.9,0,0,0-.52,1.36c-0.14.32-.18,0.98-0.35,1.4a5.187,5.187,0,0,0-.25,1.44c-0.07.56-.03,0.98-0.07,1.47a2.6,2.6,0,0,1,.04.56v0.77a1.372,1.372,0,0,0,.1.52c0.25,0.67.07,1.44,0.42,1.93,0.39,0.52.14,1.04,0.74,1.71,0.63,0.7.66,1.22,1.05,1.54l0.45,0.38a9.278,9.278,0,0,0,1.29.88,8.111,8.111,0,0,0,2.14.45,4.482,4.482,0,0,0,2.06-.52,7.412,7.412,0,0,0,1.61-1.16,18.166,18.166,0,0,0,1.33-1.54c0.39-.45.7-1.04,1.09-1.6a5.931,5.931,0,0,0,.7-1.37,9.335,9.335,0,0,0,.66-1.43c0.14-.53.42-0.98,0.56-1.44,0.11-.42.32-0.84,0.53-1.47,0.17-.42.35-1.01,0.52-1.47a15.016,15.016,0,0,1,.39-1.5,8.969,8.969,0,0,0,.42-1.47c0.14-.35.14-0.95,0.38-1.51,0.04-.28.21-0.63,0.28-1.22a8.19,8.19,0,0,1,.28-0.91c0.21-.42.77-0.49,0.77-0.98,0-.35.14-0.63,1.02-0.56,0.56,0,.87.28,1.54,0.35a10.124,10.124,0,0,1,1.47.56,12.32,12.32,0,0,1,1.61.91,2.876,2.876,0,0,1,.87.8,4.152,4.152,0,0,1,.91,1.05,6.839,6.839,0,0,1,.67,1.26,7.2,7.2,0,0,1,.49,1.86,10.476,10.476,0,0,1,.17,2.06,8.751,8.751,0,0,1-.14,1.58,11.5,11.5,0,0,1-.28,1.19,2.953,2.953,0,0,1-.49,1.22,5.555,5.555,0,0,1-.66,1.05,3.628,3.628,0,0,1-.81.95c-0.45.59-.66,0.42-1.01,0.87a4.474,4.474,0,0,1-1.09.73,5.2,5.2,0,0,1-1.33.67,3.974,3.974,0,0,1-1.36.56c-0.39.14-.91,0.31-1.44,0.45a1.085,1.085,0,0,0-.94.88,2.008,2.008,0,0,0,.49,1.36c0.24,0.63.38,1.58,1.26,1.58a0.7,0.7,0,0,0,.28-0.04,7.2,7.2,0,0,0,1.15-.35c0.56-.17.7-0.31,1.19-0.45a10.514,10.514,0,0,0,1.37-.6,5.626,5.626,0,0,0,1.12-.56,0.932,0.932,0,0,1,.59-0.31,6.837,6.837,0,0,0,.81-0.56,1.746,1.746,0,0,1,.73-0.53,1.51,1.51,0,0,0,.7-0.56,10.612,10.612,0,0,0,1.09-1.12,5.535,5.535,0,0,0,.87-1.18,11.825,11.825,0,0,0,.81-1.37c0.21-.66.49-1.15,0.62-1.68a9.332,9.332,0,0,0,.35-1.82C1170,3682.19,1170.03,3681.46,1170.07,3680.79Zm-17.64-6.47a5.91,5.91,0,0,0-.31,1.22,6.52,6.52,0,0,1-.32,1.05,12.218,12.218,0,0,1-.52,1.82,12.64,12.64,0,0,1-.6,1.82,14.514,14.514,0,0,1-.66,1.79c-0.21.98-.67,1.12-0.77,1.75a7.467,7.467,0,0,1-.6,1.19,4.4,4.4,0,0,1-.84,1.5,6.787,6.787,0,0,1-.94,1.16,1.532,1.532,0,0,1-1.09.52,2.024,2.024,0,0,1-1.33-.59,6.445,6.445,0,0,1-.73-1.23,10.842,10.842,0,0,1-.38-1.61c-0.11-.38-0.04-1.05-0.11-1.4a7.5,7.5,0,0,1,.11-1.43,5.283,5.283,0,0,1,.31-1.4,4.2,4.2,0,0,1,.45-1.37,9.306,9.306,0,0,1,.63-1.33,3.3,3.3,0,0,1,.81-1.22,5.86,5.86,0,0,0,.45-0.7,2.691,2.691,0,0,1,.98-1.02c0.35-.21.46-0.56,0.98-0.91a2.964,2.964,0,0,1,1.12-.77,6.387,6.387,0,0,1,1.23-.7c0.52-.1.66-0.35,1.08-0.42a1.058,1.058,0,0,1,1.12.04C1152.96,3672.6,1152.68,3673.41,1152.43,3674.32Zm17.64,32.62v-0.11a1.152,1.152,0,0,0-.94-1.05,8.492,8.492,0,0,0-2.31,0c-0.56-.03-1.23.04-1.58,0.04a7.778,7.778,0,0,1-1.54,0,6.728,6.728,0,0,1-1.43,0c-0.42,0-.98-0.04-1.44,0a2.664,2.664,0,0,1-1.82-.25,1.217,1.217,0,0,1-.66-1.19,4.087,4.087,0,0,1,0-.7,12.417,12.417,0,0,1-.07-1.96,1.418,1.418,0,0,1,.24-1.5,0.621,0.621,0,0,0,.42-0.53,0.493,0.493,0,0,0-.52-0.59,2.193,2.193,0,0,0-.63-0.07c-0.32,0-.6.03-0.91,0a11.712,11.712,0,0,1-1.58-.07h-0.1a0.744,0.744,0,0,0-.84.84c0.03,0.38.03,0.49,0.07,0.8a10.236,10.236,0,0,0,.07,1.58,7.744,7.744,0,0,1,.07,1.57,2.6,2.6,0,0,0,0,.56,1.222,1.222,0,0,0,0,.63c-0.04.67-1.19,1.05-2.03,0.88a13.169,13.169,0,0,1-2.35,0,9.571,9.571,0,0,0-2.27,0c-0.84-.07-1.68.1-2.28,0a14.261,14.261,0,0,0-2.69-.04,9.963,9.963,0,0,1-2.73,0,1.163,1.163,0,0,0-.94,1.16,3.8,3.8,0,0,0,0,1.26,0.873,0.873,0,0,0,.94,1.15c0.77-.07,1.79.14,2.73,0a11.947,11.947,0,0,1,2.69-.07,12.345,12.345,0,0,1,2.28,0,12.731,12.731,0,0,0,2.31,0,18.641,18.641,0,0,0,2.48,0,4.506,4.506,0,0,1,1.47.39,2.521,2.521,0,0,1,.6,1.05c-0.04.7,0.1,1.22,0.03,1.78a10.152,10.152,0,0,0,.07,2.31,2.317,2.317,0,0,1-.91,1.44,4.628,4.628,0,0,1-1.12.59c-0.35.35-.98,0.28-1.15,0.6a12.209,12.209,0,0,1-1.65.77c-0.66.31-1.12,0.49-1.71,0.73a12.545,12.545,0,0,0-1.72.67c-0.66.31-1.26,0.45-1.75,0.66-0.45.18-1.22,0.49-1.74,0.63a16.436,16.436,0,0,0-1.79.49,2.626,2.626,0,0,1-1.19.32,7.571,7.571,0,0,0-1.22.28,0.511,0.511,0,0,0-.42.49,0.4,0.4,0,0,0,.1.28,11.493,11.493,0,0,0,.63,1.67,2.178,2.178,0,0,0,.98,1.16c0.21,0.03.88-.21,1.33-0.25a2.5,2.5,0,0,0,1.26-.42,1.9,1.9,0,0,0,1.29-.45,3.186,3.186,0,0,0,1.26-.42,4.772,4.772,0,0,0,1.26-.46,8.942,8.942,0,0,0,1.3-.45,5.947,5.947,0,0,0,1.82-.77c0.56-.17,1.15-0.56,1.85-0.8l1.3-.63a2.04,2.04,0,0,1,1.4-.07,1.208,1.208,0,0,1,.73.91,2.065,2.065,0,0,0,.04,1.22,8.678,8.678,0,0,0,.03,1.68,3.836,3.836,0,0,0,.04,1.68c-0.14.21,0.28,0.52,0.03,0.52a0.751,0.751,0,0,1-.7.77,6.107,6.107,0,0,1-1.4.04,4.008,4.008,0,0,0-1.15,0,0.894,0.894,0,0,0-.95.77,13.51,13.51,0,0,0,.49,2.2,0.886,0.886,0,0,0,1.02.88,1.831,1.831,0,0,0,.45-0.04,9.048,9.048,0,0,1,1.65-.03,2.908,2.908,0,0,0,.77-0.07,4.367,4.367,0,0,0,1.22-.21,5.014,5.014,0,0,1,1.12-.42,1.822,1.822,0,0,0,1.02-1.02,6.36,6.36,0,0,0,.28-1.43,5.1,5.1,0,0,1-.04-1.47c-0.07-.35,0-0.88-0.07-1.47a12.249,12.249,0,0,0-.07-1.65,4.452,4.452,0,0,1-.03-1.67,5.928,5.928,0,0,1-.07-1.65,8.178,8.178,0,0,1-.04-1.64,12.133,12.133,0,0,1,.81-1.61,4.668,4.668,0,0,1,.87-0.6c0.21-.03.35-0.38,0.91-0.66,0.14-.32.7-0.28,0.88-0.63a2.707,2.707,0,0,1,1.22-1.02,7.584,7.584,0,0,0,1.26-.98c0.49-.21,1.05.04,1.12-0.63a0.546,0.546,0,0,0-.31-0.63c-0.39-.24-0.77-0.52-1.05-0.66a6.073,6.073,0,0,1-1.05-.63,1.48,1.48,0,0,0-.63-0.35,0.6,0.6,0,0,0-.77.31,9.06,9.06,0,0,1-.88.74,2.136,2.136,0,0,1-.91.7,1.766,1.766,0,0,1-.56.45,0.6,0.6,0,0,1-1.05-.52,4.075,4.075,0,0,1-.03-0.74c0.1-.35-0.14-1.12.42-1.57a3.2,3.2,0,0,1,2.03-.46,23.006,23.006,0,0,0,2.76,0c0.56,0.18,1.09-.1,1.54.04a2.5,2.5,0,0,0,1.58,0,15.656,15.656,0,0,1,2.31.03,0.885,0.885,0,0,0,.97-0.87,0.861,0.861,0,0,0-.03-0.28c0-.18.07-0.53,0.07-0.84A1.672,1.672,0,0,0,1170.07,3706.94Zm-14.73,34.79a6.451,6.451,0,0,1-.7-0.98,4.982,4.982,0,0,1-.88-1.02,11.663,11.663,0,0,1-.94-1.01,3.655,3.655,0,0,0-.95-0.84,1.816,1.816,0,0,0-1.33-.81c-0.38,0-.45.35-0.8,0.35a1.561,1.561,0,0,0-.49.46,0.684,0.684,0,0,0-.42.77,0.744,0.744,0,0,0,.42.8,1.177,1.177,0,0,1,.42.46c0.38,0.42.03,0.8-.67,0.91-0.42-.04-0.87.14-1.5,0.1a10.378,10.378,0,0,1-1.37.04,0.852,0.852,0,0,1-.24-1.26,1.913,1.913,0,0,0,.42-0.77,6.747,6.747,0,0,0,.7-1.16,8.032,8.032,0,0,0,.59-1.12c0.18-.42.39-0.52,0.49-0.77,0.35-.24.81-0.07,0.77-0.56a0.512,0.512,0,0,0-.35-0.52,5.237,5.237,0,0,1-1.22-.39c-0.56,0-.74-0.42-1.19-0.38a0.658,0.658,0,0,1-.53-0.11,1.051,1.051,0,0,0-.94.77,8.46,8.46,0,0,0-.74,1.72c-0.14.49-.73,1.29-0.83,1.68-0.28.49-.67,1.29-0.84,1.64a3.119,3.119,0,0,1-1.05,1.44c-0.6.21-1.3,0.03-1.72,0.17-0.63.14-.87,0.14-0.91,0.77,0,0.04-.03.11-0.03,0.14,0,0.21.21,0.25,0.1,0.32l0.32,1.15a3.176,3.176,0,0,1,.31,1.16,0.548,0.548,0,0,0,.7.49c0.56,0.03.46-.42,1.47-0.67a8.252,8.252,0,0,0,1.26-.17c0.63,0,.91-0.11,1.4-0.14,0.59-.11.84-0.07,1.43-0.14a2.991,2.991,0,0,1,1.4-.14,8,8,0,0,1,1.4-.14c0.42-.14.81,0,1.4-0.14,0.67-.04,1.44-0.28,1.86-0.25a3.979,3.979,0,0,1,1.22.46,5.873,5.873,0,0,0,1.19.98,1.055,1.055,0,0,0,.67-0.32,6.507,6.507,0,0,1,.87-0.66,0.994,0.994,0,0,0,.53-0.98A9.466,9.466,0,0,0,1155.34,3741.73Zm1.22,3.18a7.457,7.457,0,0,0,.32,2.07,2,2,0,0,0,1.43,1.43,4.068,4.068,0,0,0,1.33.28c0.6,0,.98.14,1.37,0.14a8.584,8.584,0,0,1,1.54.07,6.322,6.322,0,0,1,1.29-.07c0.46,0.04,1.09-.03,1.51-0.03a7.383,7.383,0,0,0,1.71-.11,10.151,10.151,0,0,1,1.61-.35,3.545,3.545,0,0,0,1.15-.8,2.614,2.614,0,0,0,.77-1.86,16.6,16.6,0,0,0,.25-2.06,1.026,1.026,0,0,0-.56-0.88l-1.08-.42a3.7,3.7,0,0,0-.67-0.17c-0.73.03-.87,0.66-0.91,1.36a1.929,1.929,0,0,1-.84,1.75,2.18,2.18,0,0,1-1.61.25,3.921,3.921,0,0,1-1.68,0,8.884,8.884,0,0,0-1.47,0,3.622,3.622,0,0,1-1.33-.18,1.159,1.159,0,0,1-.56-1.22,2.511,2.511,0,0,1,.32-1.51,3.13,3.13,0,0,1,1.78-.91,13.485,13.485,0,0,0,2-.7c0.77-.38,1.22-0.38,1.92-0.8,0.53-.14,1.12-0.74,1.79-0.91,0.24-.32.56-0.07,1.29-0.49,0.38,0.1.45-.07,0.66-0.42a0.74,0.74,0,0,0-.24-0.46,8.883,8.883,0,0,1-.98-0.8,5.694,5.694,0,0,1-.94-0.77c-0.42,0-.56-0.46-0.84-0.35a3.418,3.418,0,0,0-1.12.7,3.942,3.942,0,0,0-1.19.66,14.613,14.613,0,0,1-1.51.74,2.694,2.694,0,0,1-1.22.45,1.229,1.229,0,0,1-1.37.14,1.274,1.274,0,0,1-.38-1.08,8.011,8.011,0,0,1,0-1.4,0.793,0.793,0,0,1,.42-0.84,0.537,0.537,0,0,0,.28-0.63,0.732,0.732,0,0,0-.7-0.46,21.607,21.607,0,0,0-2.56-.14,1.02,1.02,0,0,0-.98.88,8.808,8.808,0,0,0,0,1.36c0.04,0.95-.03,1.47,0,2.14a18.907,18.907,0,0,1,0,2.13c-0.03.74,0.04,1.3,0,2.14A7.572,7.572,0,0,0,1156.56,3744.91Zm-3.04,15.71a3.857,3.857,0,0,0-.04-1.54,11.66,11.66,0,0,0-.03-1.57,10.422,10.422,0,0,1,0-2.1c-0.07-.77.1-1.54,0-2.13-0.07-.81.14-1.3,0-2.14a14.561,14.561,0,0,0,0-2.1c0.07-.63-0.11-1.29.03-2.2a1.035,1.035,0,0,0-1.12-.95,6.644,6.644,0,0,1-1.89,0,8.562,8.562,0,0,1-1.68,0,5.744,5.744,0,0,0-1.71,0,8.952,8.952,0,0,1-1.72,0,3.3,3.3,0,0,1-1.68,0,3.824,3.824,0,0,1-1.78,0,1.037,1.037,0,0,0-1.12,1.12l0.04,1.51a10.3,10.3,0,0,0,0,1.47,3,3,0,0,0,0,1.4,10.9,10.9,0,0,1,0,1.4,3.133,3.133,0,0,1,0,1.4,9.746,9.746,0,0,0,0,1.43,4.64,4.64,0,0,1,0,1.4,5.943,5.943,0,0,0,0,1.4,8.114,8.114,0,0,0,0,1.4,4.968,4.968,0,0,1,0,1.4c0.07,0.84-.07,1.54,0,2.06a4.521,4.521,0,0,0,0,2.07,1.074,1.074,0,0,0,1.15,1.12,3.356,3.356,0,0,1,.6-0.07,1.867,1.867,0,0,1,.52.07c0.87-.14,1.26-0.49,1.15-1.19a9.508,9.508,0,0,0,.04-1.4c0-.39-0.04-0.91-0.04-1.37-0.14-.31.11-0.87-0.07-1.43,0.04-.91.28-1.65,1.3-1.68a4.677,4.677,0,0,0,1.54,0,6.653,6.653,0,0,0,1.61,0c0.66,0.1,1.36.21,1.43,0.94-0.07.49,0.04,0.91,0,1.16-0.03.8,0.07,1.36-1.22,1.36a2.339,2.339,0,0,1-1.02,0,0.628,0.628,0,0,0-.8.74,6.447,6.447,0,0,0,.28,1.85c-0.07.63,0.59,0.95,1.33,0.88a16.035,16.035,0,0,1,2.2-.14,2.582,2.582,0,0,0,1.51-.53,2.773,2.773,0,0,0,1.19-2.1l0.03-1.33a2.613,2.613,0,0,0,0-.56A2.052,2.052,0,0,1,1153.52,3760.62Zm-4.13-9.27c-0.77-.03-1.02.07-1.44,0a1.787,1.787,0,0,0-1.12,0c-0.52.11-.94-0.07-1.5,0-0.7-.1-1.16-0.35-1.05-0.77-0.04-.24-0.21-0.24-0.07-0.49a0.934,0.934,0,0,1,1.05-1.05,10.587,10.587,0,0,0,1.89,0,7.962,7.962,0,0,0,1.89,0A1.232,1.232,0,0,1,1149.39,3751.35Zm20.89,8.5a2.283,2.283,0,0,0-1.05-.38,1.715,1.715,0,0,0-.77-0.18c-0.7-.07-0.77,1.09-0.8,1.61a1.73,1.73,0,0,1-.88,1.47,4.065,4.065,0,0,1-1.61.25c-0.77-.11-1.36.14-1.68,0a4.894,4.894,0,0,1-1.43,0,1.9,1.9,0,0,1-1.44-.25,1.319,1.319,0,0,1-.49-1.15,12.579,12.579,0,0,0,0-1.75,1.209,1.209,0,0,1,.49-0.98,7.734,7.734,0,0,1,.95-0.49,4.7,4.7,0,0,0,1.29-.46,6.683,6.683,0,0,0,1.26-.45,11.091,11.091,0,0,1,1.05-.46,5.035,5.035,0,0,0,1.02-.45,15.832,15.832,0,0,0,1.78-.87,3.414,3.414,0,0,1,1.44-.39,0.478,0.478,0,0,0,.59-0.42,0.614,0.614,0,0,0-.32-0.56c-0.41-.35-0.66-0.52-0.97-0.8a2.109,2.109,0,0,1-.95-0.77,2.564,2.564,0,0,1-.84-0.39,1.4,1.4,0,0,0-.91.42c-0.45.21-1.08,0.74-1.43,0.84-0.63.21-1.05,0.67-1.51,0.81a3.625,3.625,0,0,1-1.22.63,1.239,1.239,0,0,1-1.26.03,0.973,0.973,0,0,1-.46-1.19c0.04-.24-0.07-0.8-0.03-1.22a0.7,0.7,0,0,1,.38-0.81,0.739,0.739,0,0,0,.32-0.49,0.727,0.727,0,0,0-.74-0.63c-1.01-.03-1.71-0.1-2.52-0.14a0.854,0.854,0,0,0-.98.88c-0.03.52,0,1.05,0,1.36a13.511,13.511,0,0,0,0,2.38,12.608,12.608,0,0,1,0,2.38,14.916,14.916,0,0,0,0,2.41c-0.07.77,0.07,1.75,0,2.38a10.452,10.452,0,0,0,.25,2.07,1.811,1.811,0,0,0,1.5,1.43,9,9,0,0,0,1.33.28,8.147,8.147,0,0,0,1.47.11,2.623,2.623,0,0,1,1.47,0,8.7,8.7,0,0,0,1.37-.04,8.173,8.173,0,0,0,1.4.04c0.45,0.03.98-.14,1.71-0.11a11.649,11.649,0,0,0,1.61-.35c0.35-.31.94-0.24,1.15-0.77a2.963,2.963,0,0,0,.77-1.89c0.11-.87.21-1.47,0.25-2.06C1170.84,3760.2,1170.7,3759.82,1170.28,3759.85Zm-20.19-4.02a0.956,0.956,0,0,1-.98.77c-0.46-.04-1.4.07-1.89,0a4.192,4.192,0,0,0-1.51,0,2,2,0,0,1-1.5-.67,1.462,1.462,0,0,1,0-.69,1.344,1.344,0,0,1,1.26-1.09,11.7,11.7,0,0,1,1.57,0,11.734,11.734,0,0,0,1.58,0,1.364,1.364,0,0,1,1.5.77A2.5,2.5,0,0,1,1150.09,3755.83Zm17.6,27.34c-0.38-.39-0.49-0.6-0.8-0.88a4.134,4.134,0,0,1-.91-0.91,1.5,1.5,0,0,0-.91-0.49,4.549,4.549,0,0,0-1.82.7,6.167,6.167,0,0,1-1.12.56,5.985,5.985,0,0,1-.84.42,5.819,5.819,0,0,1-1.02.46,8.892,8.892,0,0,1-1.01.42,1.588,1.588,0,0,1-1.3.1,1.477,1.477,0,0,1-.77-0.84,1.829,1.829,0,0,0-.73-1.12,10.627,10.627,0,0,0-1.16-.87c-0.52-.07-0.63-0.35-1.12-0.39a2.141,2.141,0,0,0-1.19-.14,12.137,12.137,0,0,0-1.92.28,0.467,0.467,0,0,1-.39-0.84,4.145,4.145,0,0,0,.42-0.59c0.32-.46.14-0.74,0.49-0.88a7.428,7.428,0,0,0,.56-0.77,2.319,2.319,0,0,1,1.12-.52c0.46,0,.88-0.04,1.61-0.07a18.145,18.145,0,0,0,2.07-.18c0.77-.03,1.61-0.17,2.48-0.24,0.46-.04.95-0.28,1.3-0.28a2.715,2.715,0,0,0,1.15-.32,0.914,0.914,0,0,0,.67-0.45,1.35,1.35,0,0,0-.07-0.81,9.391,9.391,0,0,1-.25-1.12,0.97,0.97,0,0,0-.73-0.73,1.368,1.368,0,0,0-.88.1c-0.35.14-.84,0.07-1.4,0.25a15.256,15.256,0,0,1-1.64.24c-0.6.11-1.02,0.14-1.61,0.21-0.7,0-1.44-.45-1.09-1.08l0.04-.25a6.7,6.7,0,0,1,.7-1.33c0.1-.31.56-0.17,0.7-0.7a0.561,0.561,0,0,0-.49-0.7c-0.42-.07-0.74-0.17-1.09-0.21a5.726,5.726,0,0,1-1.29-.28,0.449,0.449,0,0,0-.18-0.07c-0.07,0-.14.04-0.24,0.04a0.79,0.79,0,0,0-.91.66,2.041,2.041,0,0,0-.39.98c-0.14.6-.42,0.84-0.45,1.09a4.911,4.911,0,0,1-.7,1.33,1.805,1.805,0,0,1-1.61.84c-0.49.17-.95-0.14-1.51,0a3.29,3.29,0,0,1-1.5-.07,16.8,16.8,0,0,1-2-.14,0.981,0.981,0,0,0-1.08,1.15,4.788,4.788,0,0,0-.03,1.19,1.075,1.075,0,0,0,.52,1.02,5.609,5.609,0,0,0,1.33.21c0.49-.04.94,0,1.33,0l0.98,0.03a0.61,0.61,0,0,1,.73.74,1.74,1.74,0,0,1-.7,1.08c-0.28.42-.45,0.6-0.8,1.12a9.529,9.529,0,0,1-1.12,1.37,12.136,12.136,0,0,0-1.19,1.36,10.624,10.624,0,0,1-1.26,1.3,9.677,9.677,0,0,1-1.05.98,1.251,1.251,0,0,0-.73,1.08v0.07a1.3,1.3,0,0,0,.45.74,4.864,4.864,0,0,0,1.33,1.15,1.253,1.253,0,0,0,1.26.07,12.514,12.514,0,0,0,.84-0.94,2.987,2.987,0,0,1,.98-0.91,2.946,2.946,0,0,1,.59-0.67c0.46-.17.42-0.59,0.77-0.63a3.81,3.81,0,0,1,1.05-.77,6.276,6.276,0,0,1,1.61-.8,6.21,6.21,0,0,1,2.03-.39,2.521,2.521,0,0,1,1.75.63,1.777,1.777,0,0,1,.53,1.02,1.265,1.265,0,0,1-.6,1.15c-0.45.39-.63,0.28-1.22,0.7a4.8,4.8,0,0,0-1.44.81,5.982,5.982,0,0,0-1.36.91c-0.74.24-.74,0.8-1.33,1.05-0.88.35-.6,0.91-1.09,1.11-0.42.18-.49,0.88-0.91,1.3a2.53,2.53,0,0,0-.59,1.47,2.5,2.5,0,0,0-.21,1.64,3.054,3.054,0,0,0,.28,2,1.742,1.742,0,0,0,.73,1.47,4.069,4.069,0,0,0,1.12,1.08,13.052,13.052,0,0,0,1.4.7,4.928,4.928,0,0,0,1.61.46,11.5,11.5,0,0,0,1.75.21c0.56,0,1.09.1,1.51,0.1h0.42c0.28,0,.56.04,0.91,0.04h0.07a2.834,2.834,0,0,0,.56-0.04l2.73-.03a5.946,5.946,0,0,1,.87.03,1.194,1.194,0,0,0,.49-0.1,7.254,7.254,0,0,1,1.51-.04c0.66-.28,1.36.07,2.03-0.24,0.59-.28,1.22-0.14,2.06-0.42a1.062,1.062,0,0,0,.95-1.12c0-.6.07-1.19,0.07-1.96a0.917,0.917,0,0,0-1.02-.77,8.269,8.269,0,0,1-1.26.28c-0.59.07-.87,0.14-1.26,0.21a7.8,7.8,0,0,1-1.89.21,4.442,4.442,0,0,1-1.92.14,4.1,4.1,0,0,1-1.93.07,18.085,18.085,0,0,1-1.92.03,12.029,12.029,0,0,1-2.28-.07,3.768,3.768,0,0,1-2.24-.42,1.364,1.364,0,0,1-1.08-.7,1.766,1.766,0,0,1-.42-1.22,2.722,2.722,0,0,1,.56-1.86,7.768,7.768,0,0,1,1.33-1.47,6.687,6.687,0,0,1,1.5-1.15,1.289,1.289,0,0,1,1.44-.59,0.7,0.7,0,0,1,.35.87,9.349,9.349,0,0,0,.03.98,15.249,15.249,0,0,1-.03,1.78,1.089,1.089,0,0,0,1.26,1.12,4.3,4.3,0,0,0,1.19,0c0.77-.1,1.26-0.14,1.22-1.08a3.842,3.842,0,0,0-.03-1.16,10.356,10.356,0,0,1,0-1.12,5.144,5.144,0,0,0-.04-1.01,7.876,7.876,0,0,1,0-1.19,1.237,1.237,0,0,1,.6-1.36,3.5,3.5,0,0,1,1.05-.46,245.745,245.745,0,0,0,2.03-.91,2.571,2.571,0,0,1,1.05-.42,4.334,4.334,0,0,1,1.01-.42c0.46-.03.56-0.31,1.05-0.38a7.5,7.5,0,0,1,1.02-.39,8.569,8.569,0,0,1,1.08-.35c0.39-.03,1.19.04,1.19-0.45A0.968,0.968,0,0,0,1167.69,3783.17Zm-52.82-220.22v-0.21a0.744,0.744,0,0,0-.94-0.81,5.51,5.51,0,0,1-1.54-.03,3.207,3.207,0,0,1-1.54.03,5.358,5.358,0,0,1-1.5.04c-0.67.17-.98-0.14-1.54,0a16.487,16.487,0,0,1-1.86,0,5.471,5.471,0,0,0-1.85,0h-1.96a1.952,1.952,0,0,1-1.54-.35,4.5,4.5,0,0,1-.18-0.7,1.069,1.069,0,0,1,.42-0.81,0.649,0.649,0,0,0,.14-0.7,0.593,0.593,0,0,0-.52-0.42,16.906,16.906,0,0,1-2.63-.17h-0.1a0.763,0.763,0,0,0-.88.91,8.41,8.41,0,0,1,0,1.33,0.817,0.817,0,0,1-.21.7,3.148,3.148,0,0,1-1.47.21,7.148,7.148,0,0,0-1.96,0c-0.63-.07-1.22.1-1.89,0-0.7-.11-1.36.07-1.89,0-0.66.1-.94-0.14-1.5,0a5.389,5.389,0,0,1-1.5-.04c-0.6.18-1.05-.17-1.54-0.03-0.63-.07-1.09.03-1.58,0a1.079,1.079,0,0,0-.98.98c0,0.07.04,0.14,0.04,0.21a0.69,0.69,0,0,0-.07.24c0,0.18.07,0.39,0.07,0.67v0.31a0.762,0.762,0,0,0,.94.91,4.841,4.841,0,0,1,1.58.04,5.689,5.689,0,0,0,1.54-.04c0.35,0.14,1.08-.17,1.5-0.03,0.56-.07,1.08.07,1.5,0a9.836,9.836,0,0,0,1.33,0c0.98,0,1.54-.07,1.75.35,0.32,0.21.21,0.42-.38,1.12a4.03,4.03,0,0,1-.81,1.29,1.381,1.381,0,0,1-.45.46,7.457,7.457,0,0,1-2.66.03,4.425,4.425,0,0,1-1.22,0,2.924,2.924,0,0,0-.56.04,10.181,10.181,0,0,1-1.72-.04,1.112,1.112,0,0,0-1.22.53,0.543,0.543,0,0,0,.07.66,2.765,2.765,0,0,0,.42.98,4.978,4.978,0,0,0,.38,1.02c0.28,0.31.25,1.08,0.84,0.94a2.1,2.1,0,0,0,.84-0.7c0.28-.1,1.19.04,2.45-0.17a7.961,7.961,0,0,0,2.69-.04,16.427,16.427,0,0,0,2.31-.1,18.736,18.736,0,0,0,2.31-.11c0.74,0.11,1.44-.14,2.35-0.1,0.84-.18,1.64.07,2.31-0.07a9.734,9.734,0,0,1,1.82-.11c0.73-.07,1.22-0.14,1.82-0.14a8.883,8.883,0,0,0,1.85-.14c0.67-.1,1.23,0,1.86-0.1a17.49,17.49,0,0,1,1.92,0c0.28,0.31.46,0.28,0.74,0.56a1.754,1.754,0,0,0,.77.77,1.124,1.124,0,0,0,1.08.63c0.32,0.14.49,0,.81-0.39a2.073,2.073,0,0,1,.87-0.8,1.21,1.21,0,0,0,.45-0.84c0-.53-0.42-0.63-0.66-1.16s-0.8-.31-1.01-0.87a5.909,5.909,0,0,1-1.26-1.02,3.693,3.693,0,0,1-1.44-1.01,0.921,0.921,0,0,1-.63-0.32,2.929,2.929,0,0,1-1.26-.8c0-.46.46-0.28,1.16-0.35a3.586,3.586,0,0,1,1.5.03c0.39-.03.88,0.11,1.54,0.04,0.63,0.1.88-.14,1.57-0.04,0.77-.07.95-0.35,0.95-1.15A2.463,2.463,0,0,1,1114.87,3562.95Zm-9.86,3.01a1.045,1.045,0,0,0-.35.66c-0.04.39,0.17,0.46,0.56,0.77,0.28,0.11.35,0.53-.21,0.53-0.32.35-.95,0.17-1.72,0.28a1.855,1.855,0,0,1-.87.03c-0.77-.07-1.65.14-2.21,0.04l-2.2.03a3.058,3.058,0,0,1-1.02.04c-0.31.07-.49-0.07-0.7,0a1.036,1.036,0,0,1-.87-0.28,1.218,1.218,0,0,1,.14-0.63,8.134,8.134,0,0,1,.63-0.95c0.38-.28.56-0.63,1.08-1.05a3.292,3.292,0,0,1,2.03-.24c0.81-.14,1.65.1,2.31,0a0.694,0.694,0,0,0,.6,0,7.776,7.776,0,0,0,2.41.03C1105.22,3565.19,1105.57,3565.5,1105.01,3565.96Zm3.88,21.73a2.09,2.09,0,0,1-.03-0.95c-0.14-.49.07-0.98-0.07-1.4-0.07-.42.1-1.05,0-1.43a6.713,6.713,0,0,1,0-2.24,6.158,6.158,0,0,1,0-2.27,16.19,16.19,0,0,1,0-2.31,6.593,6.593,0,0,1,.03-2.35,10.972,10.972,0,0,0,0-1.15,0.988,0.988,0,0,0-.94-1.05,7.7,7.7,0,0,1-1.54,0c-0.39-.07-1.16.07-1.54,0.03a3.248,3.248,0,0,0-1.51.04c-0.35.03-.91,0-1.5,0a11.254,11.254,0,0,1-1.54,0c-0.39-.07-1.12.03-1.54,0a3.594,3.594,0,0,0-1.54,0,7.807,7.807,0,0,1-1.54,0,5.4,5.4,0,0,1-1.51,0c-0.63.17-1.12-.18-1.54-0.04-0.63-.17-1.08.11-1.5-0.03a2.965,2.965,0,0,1-1.54,0,1.133,1.133,0,0,0-.95,1.05,2.758,2.758,0,0,0,0,1.29,15.6,15.6,0,0,1,.04,2.28,15.143,15.143,0,0,0,0,2.24c-0.14.98,0.07,1.57,0,2.59a10.579,10.579,0,0,1,0,2.58,6.142,6.142,0,0,0,0,1.44c0.1,0.31-.11.94-0.04,1.4a2.556,2.556,0,0,0,0,1.43c0.11,0.49-.1,1.12,0,1.47a1.139,1.139,0,0,0,1.19,1.23,1.778,1.778,0,0,0,.39.07c0.31,0,.63-0.07.91-0.07h0.07c0.87-.14,1.26-0.49,1.19-1.19a2.66,2.66,0,0,1,0-1.4c-0.04-.35.03-1.16,0-1.4a2.628,2.628,0,0,1,.17-1.72,1.925,1.925,0,0,1,1.26-.7,6.733,6.733,0,0,1,1.68,0,4.359,4.359,0,0,0,1.65,0,4.356,4.356,0,0,1,1.61,0,4.145,4.145,0,0,1,1.61,0c0.52,0,1.01.04,1.64,0a8.567,8.567,0,0,0,1.68,0,1.387,1.387,0,0,1,1.33.39,2.453,2.453,0,0,1,.14.98,1.073,1.073,0,0,1-.31.91,1.245,1.245,0,0,1-1.3.24c-0.52.11-.87-0.07-1.19,0.04a0.631,0.631,0,0,0-.84.66c-0.17.39,0.35,1.05,0.42,2.14a1.183,1.183,0,0,0,1.4.87c0.56-.14,1.54.18,2.24-0.1a6.4,6.4,0,0,0,2.14-.6,1.481,1.481,0,0,0,.98-1.08,3.715,3.715,0,0,0,.24-1.44A1.982,1.982,0,0,1,1108.89,3587.69Zm-16.55-10.74c0.1-.84.1-1.19,1.05-1.23a21.387,21.387,0,0,0,2.66,0,23.457,23.457,0,0,1,2.66,0,15.691,15.691,0,0,0,2.66,0c1.05-.14,1.71.14,2.66,0a0.876,0.876,0,0,1,1.05,1.09c0,0.45-.67.63-1.44,0.59a6.74,6.74,0,0,1-1.68,0c-0.42-.07-0.98.04-1.64,0a8.617,8.617,0,0,0-1.61,0,12.279,12.279,0,0,1-1.61,0,12.964,12.964,0,0,1-1.65,0c-0.38.04-1.08,0-1.68,0C1093.04,3577.44,1092.3,3577.37,1092.34,3576.95Zm12.6,4.9a1.415,1.415,0,0,1-1.3.31,6.741,6.741,0,0,1-1.68,0,12.768,12.768,0,0,1-1.64,0c-0.6.07-1.23-.1-1.61,0a14.381,14.381,0,0,0-1.61,0c-0.7-.14-1.05.18-1.65,0-0.42-.14-1.05.18-1.68,0-0.77,0-1.22,0-1.43-.38a5.383,5.383,0,0,1,0-.81c0-.35.66-0.59,1.43-0.56a6.746,6.746,0,0,1,1.68,0c0.42-.07,1.05.11,1.65,0a4.832,4.832,0,0,0,1.61,0,7.867,7.867,0,0,0,1.61,0,4.909,4.909,0,0,0,1.64,0,8.377,8.377,0,0,0,1.68,0c0.6,0.11,1.33.07,1.44,0.39A1.313,1.313,0,0,1,1104.94,3581.85Zm6.12,17.46a5.605,5.605,0,0,0-.59-0.84,6.151,6.151,0,0,1-.63-0.8,1.234,1.234,0,0,0-1.02-.6,1.7,1.7,0,0,0-.63.18c-1.05.28-1.43,0.38-2.06,0.49-0.7.14-1.33,0.17-1.82,0.24-0.63.07-1.12,0.07-1.86,0.21a9.371,9.371,0,0,1-1.85.14,6.6,6.6,0,0,1-1.86.14,9.371,9.371,0,0,1-1.85.14,5.741,5.741,0,0,1-1.79.14l-1.85.11c-0.46,0-1.37.14-1.82,0.1a3.371,3.371,0,0,1-1.44.07,8,8,0,0,1-1.43.07c-0.63-.1-0.84.18-1.5,0.04a6.176,6.176,0,0,0-1.44.03c-0.94,0-1.5.18-1.5,1.09v0.14a12.517,12.517,0,0,0,.21,2.13,0.925,0.925,0,0,0,1.05.91c0.7-.07,1.15-0.21,1.68-0.21,0.66-.1,1.22-0.21,1.95-0.35,0.53-.03,1.02-0.14,1.61-0.17a11.972,11.972,0,0,1,1.82-.21c0.53-.07,1.12-0.07,1.79-0.21a6.951,6.951,0,0,0,1.26-.18l1.29-.14a3.865,3.865,0,0,1,1.47-.17c0.6-.07.7-0.11,1.12-0.14a6.713,6.713,0,0,1,1.05-.07,0.361,0.361,0,0,1,.39.35,1.314,1.314,0,0,1-.81.91,4.771,4.771,0,0,1-.66.59,9.334,9.334,0,0,0-1.44,1.33,7.924,7.924,0,0,1-1.29,1.47c-0.28.63-.77,1.05-1.05,1.58a7.867,7.867,0,0,0-.81,1.78,17.088,17.088,0,0,0-.52,1.93,6.92,6.92,0,0,0-.18,2.13,5.89,5.89,0,0,0,.14,1.72c0.11,0.7.25,0.94,0.35,1.61a11.089,11.089,0,0,0,.6,1.5,8.011,8.011,0,0,0,.8,1.4c0.32,0.28.67,0.87,1.05,1.22,0.32,0.28.63,0.6,1.23,1.09,0.52,0.35,1.05.49,1.47,0.8a4.89,4.89,0,0,0,1.47.67c0.28,0.17.84,0.24,1.54,0.52a10.288,10.288,0,0,0,1.82.49,6.073,6.073,0,0,0,1.89.39,4.919,4.919,0,0,0,1.57.24c0.07,0,.14.04,0.21,0.04a0.949,0.949,0,0,0,.88-0.81,3.977,3.977,0,0,1,.31-1.12,4.529,4.529,0,0,0,.39-1.43,1.217,1.217,0,0,0-1.33-.7,9.131,9.131,0,0,0-1.47-.18,8.555,8.555,0,0,1-.84-0.21,5.114,5.114,0,0,1-1.26-.21c-0.46-.03-0.81-0.35-1.26-0.42a3.581,3.581,0,0,1-1.37-.49,6.7,6.7,0,0,1-.98-0.52c-0.38-.28-0.59-0.42-0.91-0.67a2.759,2.759,0,0,1-.77-0.76,4.1,4.1,0,0,1-.59-0.88c-0.11-.24-0.25-0.59-0.46-1.01,0-.35-0.24-0.63-0.28-1.16a4.8,4.8,0,0,1-.07-1.33,7.41,7.41,0,0,1,.11-1.61,4.236,4.236,0,0,1,.38-1.47c0.21-.31.25-0.87,0.6-1.4,0.21-.49.59-0.91,0.77-1.26a4.681,4.681,0,0,1,.94-1.19c0.25-.21.67-0.7,1.09-1.08a12.71,12.71,0,0,1,1.19-1.02,7.964,7.964,0,0,1,1.29-.94,4.31,4.31,0,0,1,1.19-.81,9.39,9.39,0,0,1,1.47-.94c0.53-.21,1.12-0.7,1.58-0.84a8.541,8.541,0,0,1,1.05-.39,5.639,5.639,0,0,1,.84-0.14,0.544,0.544,0,0,0,.66-0.42,0.62,0.62,0,0,0,.04-0.14A0.8,0.8,0,0,0,1111.06,3599.31Zm0.6,49.21a3.615,3.615,0,0,0-.46-1.61c-0.42-.63-0.28-1.12-0.73-1.5a7.982,7.982,0,0,0-1.16-1.3c-0.28-.17-0.42-0.42-0.8-0.63a5.831,5.831,0,0,1-.88-0.56c-0.45-.31-1.4-0.52-1.89-0.84-0.84-.14-1.26-0.45-2.03-0.52a13.449,13.449,0,0,0-2.06-.18c-0.63.04-1.16,0.07-1.51,0.11-0.63.1-.87,0.14-1.36,0.24-0.53.07-.95-0.42-0.32-1.08a4.938,4.938,0,0,1,.81-0.67,1.715,1.715,0,0,1,.52-0.52c0.46-.25.39-0.53,0.74-0.67a4.075,4.075,0,0,1,.77-0.7,3.88,3.88,0,0,0,.73-0.7,3.311,3.311,0,0,1,.77-0.66c0.32-.35.95-0.84,1.33-1.23,0.32-.42.98-0.66,1.47-1.15,0.32-.32.95-0.21,1.19-0.81a0.753,0.753,0,0,0-.28-0.84c-0.38-.24-0.49-0.63-0.84-0.87a4.272,4.272,0,0,1-.87-0.88,1,1,0,0,0-1.02-.52h-0.1c-0.35,0-.46.14-1.3,0.21a17.5,17.5,0,0,0-2.2.21c-0.81.1-1.44,0.17-2.24,0.21-0.84.03-1.58,0.24-2.45,0.24a10.8,10.8,0,0,0-1.96.18c-0.53.17-1.09-.14-1.68,0.03a7.544,7.544,0,0,1-2.1.07,0.952,0.952,0,0,0-1.09,1.19c0.18,0.53,0,1.16.21,1.68a0.967,0.967,0,0,0,.95,1.02,5.323,5.323,0,0,0,1.36-.18,5.984,5.984,0,0,0,1.33-.17c0.39-.18.88,0,1.3-0.21,0.45-.25,1.01.03,1.43-0.18a7.947,7.947,0,0,1,1.44-.21,9.088,9.088,0,0,1,1.47-.21c0.56-.1,1.47-0.45,1.71.21a0.927,0.927,0,0,1-.45.84c-0.32.56-.49,0.32-0.77,0.81a2.344,2.344,0,0,0-.63.63,2.049,2.049,0,0,1-.77.63,5.493,5.493,0,0,1-.7.73,4.479,4.479,0,0,0-.77.7,9.222,9.222,0,0,0-.88.7,3.094,3.094,0,0,1-.8.7,7.1,7.1,0,0,1-.56.56c-0.42.21-.46,0.46-0.84,0.67a8.545,8.545,0,0,1-.98.84c-0.39.14-.25,0.52-0.77,0.63-0.39.07-.32,0.45-0.84,0.63-0.46.14-.56,0.56-0.95,0.63a3.191,3.191,0,0,1-.87.59,10.685,10.685,0,0,1-.91.63,0.87,0.87,0,0,0-.49.74v0.14a1.171,1.171,0,0,0,.25.66c0.35,0.56.55,0.77,0.87,1.3a1,1,0,0,0,1.26.52,2.246,2.246,0,0,0,.59-0.35c0.28-.31.46-0.24,0.98-0.7a6.591,6.591,0,0,1,1.44-.77,2.687,2.687,0,0,1,1.01-.52,1.547,1.547,0,0,1,.98-0.42c0.39,0,.35-0.46,1.09-0.42a11.443,11.443,0,0,0,1.54-.42c0.7-.14.91-0.18,1.78-0.39a15.35,15.35,0,0,1,2.24-.17c0.35,0.07.77,0.03,1.3,0.07,0.52,0,.77.21,1.26,0.24a6.093,6.093,0,0,1,2.13.98c0.21,0.35.46,0.21,0.84,0.74a2.713,2.713,0,0,1,.7,1.01,3.422,3.422,0,0,1,.39,1.02c-0.04.56,0.14,0.73,0.14,1.36a3.836,3.836,0,0,1-.21,1.54,9.386,9.386,0,0,1-.56,1.4c-0.46.52-.49,0.73-0.88,1.22a7.65,7.65,0,0,1-.91.95,7.119,7.119,0,0,1-1.12.73c-0.49.32-1.82,0.56-1.89-.49a4.911,4.911,0,0,0-.52-2.27,3.77,3.77,0,0,0-.56-0.88c-0.35-.17-0.35-0.52-0.74-0.73a3.413,3.413,0,0,0-.87-0.56c-0.39-.07-0.7-0.35-0.98-0.39a20.83,20.83,0,0,0-2.07-.24,7.747,7.747,0,0,0-2.31.28,3.8,3.8,0,0,0-1.78.94,5.64,5.64,0,0,0-1.26,1.54,4.88,4.88,0,0,0-.46,2.1,7.023,7.023,0,0,1,.18,1.47,6.619,6.619,0,0,0,.52,1.19,2.245,2.245,0,0,0,.77.95,2.608,2.608,0,0,0,1.02.7,3.2,3.2,0,0,0,1.19.49,2.4,2.4,0,0,0,1.26.31,6.33,6.33,0,0,0,1.33.18c0.28,0.03.91,0,1.29,0.07a17.126,17.126,0,0,0,2.42-.14,6.03,6.03,0,0,1,1.19-.18,2.667,2.667,0,0,0,1.19-.28,8.743,8.743,0,0,0,1.19-.31,4.055,4.055,0,0,0,1.12-.42,9.85,9.85,0,0,1,1.08-.49,2.968,2.968,0,0,0,1.02-.6c0.38-.35.52-0.28,0.94-0.66a5.429,5.429,0,0,0,.88-0.77,2.692,2.692,0,0,0,.73-0.84,8.734,8.734,0,0,0,.67-0.95,4.639,4.639,0,0,1,.52-1.01c0.18-.49.25-0.67,0.39-1.16a4.339,4.339,0,0,1,.24-1.19c0-.24.11-0.66,0.11-1.15v-0.17a4.179,4.179,0,0,1-.04-0.67v-0.49A3.95,3.95,0,0,0,1111.66,3648.52Zm-14.6,8.78a5.472,5.472,0,0,1-1.78-.31,2.015,2.015,0,0,1-1.05-.6,1.593,1.593,0,0,1-.46-1.26,1.641,1.641,0,0,1,.14-0.77,2.081,2.081,0,0,1,.6-0.63,2.682,2.682,0,0,1,.7-0.35,7.132,7.132,0,0,1,.87-0.07,4.814,4.814,0,0,1,1.05.14,2.354,2.354,0,0,1,.81.6,1.877,1.877,0,0,1,.49.8,1.818,1.818,0,0,1,.17,1.05,1.526,1.526,0,0,1-.28.98A1.671,1.671,0,0,1,1097.06,3657.3Zm16.9,9a1.88,1.88,0,0,0-.66-0.84c-0.28-.21-0.49-0.45-0.8-0.66-0.21-.18-0.74-0.32-0.91-0.49a4.7,4.7,0,0,0-2.03-.39h-0.46a8.225,8.225,0,0,0-1.71.39,2.78,2.78,0,0,0-.95.49,3.567,3.567,0,0,0-.8.66c-0.42.28-.28,0.49-0.77,0.91a3.593,3.593,0,0,0-.49.95,4.3,4.3,0,0,0-.35,1.99,4.715,4.715,0,0,0,.31,1.82,2.463,2.463,0,0,0,.63,1.23c0.46,0.35.39,0.56,0.74,0.8,0.49,0.35.31,0.42,0.73,0.67a3.7,3.7,0,0,0,1.26.52,9.3,9.3,0,0,0,1.79.32,7.4,7.4,0,0,0,2.06-.39,2.1,2.1,0,0,0,.95-0.45,5.4,5.4,0,0,1,.8-0.67,8.271,8.271,0,0,0,.66-0.84,9.831,9.831,0,0,1,.53-0.91,4.365,4.365,0,0,0,.42-2.1V3669a5.592,5.592,0,0,0-.42-1.79A9.019,9.019,0,0,0,1113.96,3666.3Zm-1.78,3.05a1.948,1.948,0,0,1-.1.77,2.563,2.563,0,0,1-.7,1.12,2.218,2.218,0,0,1-1.93.77,1.925,1.925,0,0,1-1.89-.77,2.448,2.448,0,0,1-.8-1.89,2.9,2.9,0,0,1,.77-2,2.149,2.149,0,0,1,1.78-.84,1.975,1.975,0,0,1,1.19.25,1.221,1.221,0,0,1,.88.59,2.23,2.23,0,0,1,.56.81A3.3,3.3,0,0,1,1112.18,3669.35Z" transform="translate(-1078 -3549)"/>
</svg>
