<svg xmlns="http://www.w3.org/2000/svg" width="12.968" height="96.79" viewBox="0 0 12.968 96.79">
  <defs>
    <style>
      .cls-1 {
        fill: #5f9d7b;
        fill-rule: evenodd;
      }
    </style>
  </defs>
  <path id="SPECIAL_02" data-name="SPECIAL  02" class="cls-1" d="M394.338,2922.76a5.838,5.838,0,0,0-1.405,3.97c0,2.54,1.711,4.14,3.566,4.14,2.324,0,3.369-2.02,4.071-3.76,0.6-1.46,1.171-2.13,2.018-2.13a1.437,1.437,0,0,1,1.26,1.59,5.886,5.886,0,0,1-.99,2.5,0.472,0.472,0,0,0,.216.63l1.027,0.68a0.44,0.44,0,0,0,.594-0.1,6.364,6.364,0,0,0,1.207-3.61c0-2.86-1.855-4.05-3.459-4.05-2.125,0-3.206,1.69-3.89,3.39-0.613,1.51-1.243,2.28-2.162,2.28a1.5,1.5,0,0,1-1.387-1.63,5.915,5.915,0,0,1,1.117-2.72,0.426,0.426,0,0,0-.126-0.62l-1.117-.65A0.358,0.358,0,0,0,394.338,2922.76Zm-0.883,10.41a0.339,0.339,0,0,0-.342.34v1.66a0.352,0.352,0,0,0,.342.34h4.233v2.25a4.017,4.017,0,1,0,8.034-.02v-4.23a0.339,0.339,0,0,0-.342-0.34H393.455Zm6.431,2.34h3.62v2.09a1.8,1.8,0,0,1-1.747,1.86,1.859,1.859,0,0,1-1.873-1.86v-2.09Zm-6.431,8.32a0.339,0.339,0,0,0-.342.34v7.33a0.339,0.339,0,0,0,.342.34h1.477a0.339,0.339,0,0,0,.342-0.34v-5.33h3.153v4.45a0.34,0.34,0,0,0,.342.34h1.5a0.352,0.352,0,0,0,.342-0.34v-4.45h2.954v5.33a0.339,0.339,0,0,0,.343.34h1.477a0.339,0.339,0,0,0,.342-0.34v-7.33a0.339,0.339,0,0,0-.342-0.34H393.455Zm5.944,9.66a6.457,6.457,0,0,0-6.466,6.5,6.168,6.168,0,0,0,1.747,4.38,0.343,0.343,0,0,0,.486.02l1.153-1.12a0.331,0.331,0,0,0,0-.45,4.318,4.318,0,0,1-1.027-2.75,4.182,4.182,0,0,1,8.358-.02,4.257,4.257,0,0,1-1.062,2.77,0.287,0.287,0,0,0,0,.45l1.134,1.1a0.34,0.34,0,0,0,.5-0.02,6.088,6.088,0,0,0,1.675-4.36A6.488,6.488,0,0,0,399.4,2953.49Zm-5.944,13.23a0.352,0.352,0,0,0-.342.34v1.68a0.352,0.352,0,0,0,.342.34H405.38a0.352,0.352,0,0,0,.342-0.34v-1.68a0.352,0.352,0,0,0-.342-0.34H393.455Zm-0.342,4.3v1.57a0.536,0.536,0,0,0,.36.52l1.945,0.88v5.39l-1.945.88a0.53,0.53,0,0,0-.36.53v1.56a0.319,0.319,0,0,0,.468.31l12.123-5.55a0.308,0.308,0,0,0,.2-0.31v-0.18a0.313,0.313,0,0,0-.2-0.3l-12.123-5.6A0.315,0.315,0,0,0,393.113,2971.02Zm4.305,3.86,3.963,1.76v0.06l-3.963,1.8v-3.62Zm-3.963,9.41a0.339,0.339,0,0,0-.342.34v6.59a0.347,0.347,0,0,0,.342.35h1.477a0.347,0.347,0,0,0,.342-0.35v-4.59H405.38a0.352,0.352,0,0,0,.342-0.34v-1.66a0.339,0.339,0,0,0-.342-0.34H393.455Zm-0.522,21.04c0,2.89,2.359,4.54,6.3,4.54s6.3-1.65,6.3-4.54-2.36-4.54-6.3-4.54S392.933,3002.45,392.933,3005.33Zm2.125,0c0-1.38,1.5-2.18,4.179-2.18,2.666,0,4.179.8,4.179,2.18s-1.513,2.18-4.179,2.18C396.553,3007.51,395.058,3006.72,395.058,3005.33Zm-1.6,6.19a0.345,0.345,0,0,0-.342.34v7.1a0.352,0.352,0,0,0,.342.34H394.7a0.352,0.352,0,0,0,.342-0.34v-3.89c1.207,0.96,2.9,2.32,4,3.1a4.823,4.823,0,0,0,2.918,1.21c1.946,0,3.585-1.45,3.585-4.02a5.006,5.006,0,0,0-1.766-3.55,0.348,0.348,0,0,0-.468.02l-0.865.86a0.332,0.332,0,0,0,0,.49,2.936,2.936,0,0,1,1.063,2.02,1.706,1.706,0,0,1-1.639,1.91,3.429,3.429,0,0,1-2-.92c-1.6-1.21-4.558-3.48-6-4.67h-0.414Z" transform="translate(-392.938 -2922.59)"/>
</svg>
