<svg xmlns="http://www.w3.org/2000/svg" width="245.219" height="46.06" viewBox="0 0 245.219 46.06">
  <defs>
    <style>
      .cls-1 {
        fill: #5f9d7b;
        fill-rule: evenodd;
      }
    </style>
  </defs>
  <path id="SPECIAL" class="cls-1" d="M461.042,2144.02c1.279,1.21,6.013,4.99,14.073,4.99,9.02,0,14.713-6.08,14.713-12.67,0-8.25-7.165-11.96-13.37-14.46-5.181-2.11-7.548-4.15-7.548-7.16,0-2.05,1.983-4.48,5.629-4.48,3.519,0,8.38,3.2,8.892,3.52a1.684,1.684,0,0,0,2.239-.77l2.431-3.64a1.582,1.582,0,0,0-.384-2.11,22.511,22.511,0,0,0-12.794-4.29c-10.171,0-14.393,6.59-14.393,12.28,0,7.55,6.013,11.39,12.026,13.82,5.374,2.17,8.124,4.41,8.124,7.68,0,2.75-2.5,4.92-5.821,4.92-4.158,0-9.34-3.77-9.659-3.97a1.493,1.493,0,0,0-2.175.45l-2.3,3.97A1.266,1.266,0,0,0,461.042,2144.02Zm36.99,3.13a1.218,1.218,0,0,0,1.215,1.22h5.886a1.262,1.262,0,0,0,1.215-1.22v-15.03h8a14.265,14.265,0,1,0-.064-28.53H499.247a1.21,1.21,0,0,0-1.215,1.21v42.35Zm8.316-22.83v-12.86h7.42a6.376,6.376,0,0,1,6.589,6.2,6.6,6.6,0,0,1-6.589,6.66h-7.42Zm29.572,22.83a1.218,1.218,0,0,0,1.215,1.22h26.036a1.218,1.218,0,0,0,1.215-1.22v-5.24a1.218,1.218,0,0,0-1.215-1.22H544.236V2129.5h15.8a1.22,1.22,0,0,0,1.215-1.22v-5.31a1.253,1.253,0,0,0-1.215-1.21h-15.8v-10.49h18.935a1.218,1.218,0,0,0,1.215-1.22v-5.25a1.21,1.21,0,0,0-1.215-1.21H537.135a1.209,1.209,0,0,0-1.215,1.21v42.35Zm34.369-21.11a22.934,22.934,0,0,0,23.093,22.97,21.966,21.966,0,0,0,15.544-6.21,1.209,1.209,0,0,0,.064-1.72l-3.966-4.1a1.18,1.18,0,0,0-1.6,0,15.328,15.328,0,0,1-9.787,3.65,14.486,14.486,0,0,1-14.329-14.78c0-8.06,6.077-14.9,14.265-14.9a15.114,15.114,0,0,1,9.851,3.77,1.026,1.026,0,0,0,1.6,0l3.9-4.03a1.188,1.188,0,0,0-.063-1.79,21.661,21.661,0,0,0-15.481-5.95A23.042,23.042,0,0,0,570.289,2126.04Zm47.038,21.11a1.262,1.262,0,0,0,1.215,1.22h5.949a1.262,1.262,0,0,0,1.216-1.22V2104.8a1.253,1.253,0,0,0-1.216-1.21h-5.949a1.253,1.253,0,0,0-1.215,1.21v42.35Zm15.3,1.22h5.565a1.927,1.927,0,0,0,1.855-1.28l3.135-6.91h19.127l3.134,6.91a1.846,1.846,0,0,0,1.855,1.28h5.566a1.133,1.133,0,0,0,1.087-1.67l-19.7-43.05a1.09,1.09,0,0,0-1.088-.7h-0.64a1.152,1.152,0,0,0-1.087.7l-19.9,43.05A1.133,1.133,0,0,0,632.624,2148.37Zm13.689-15.29,6.269-14.07h0.192l6.4,14.07H646.313Zm33.476,14.07a1.219,1.219,0,0,0,1.216,1.22h23.412a1.219,1.219,0,0,0,1.216-1.22v-5.24a1.219,1.219,0,0,0-1.216-1.22H688.105V2104.8a1.253,1.253,0,0,0-1.215-1.21h-5.885a1.21,1.21,0,0,0-1.216,1.21v42.35Z" transform="translate(-460.406 -2102.94)"/>
</svg>
