<svg xmlns="http://www.w3.org/2000/svg" width="14.41" height="82.594" viewBox="0 0 14.41 82.594">
  <defs>
    <style>
      .cls-1 {
        fill: #5f9d7b;
        fill-rule: evenodd;
      }
    </style>
  </defs>
  <path id="SPECIAL" class="cls-1" d="M1006.08,161.321a6.438,6.438,0,0,0-1.56,4.4c0,2.821,1.9,4.6,3.97,4.6,2.58,0,3.74-2.241,4.52-4.182,0.66-1.621,1.3-2.361,2.24-2.361a1.593,1.593,0,0,1,1.4,1.761,6.585,6.585,0,0,1-1.1,2.781,0.528,0.528,0,0,0,.24.7l1.14,0.76a0.5,0.5,0,0,0,.66-0.12,7.046,7.046,0,0,0,1.34-4c0-3.181-2.06-4.5-3.84-4.5-2.36,0-3.56,1.881-4.32,3.762-0.68,1.68-1.38,2.541-2.4,2.541a1.671,1.671,0,0,1-1.54-1.821,6.623,6.623,0,0,1,1.24-3.021,0.464,0.464,0,0,0-.14-0.681l-1.24-.72A0.4,0.4,0,0,0,1006.08,161.321Zm-0.98,12.56a0.38,0.38,0,0,0-.38.38V176.1a0.393,0.393,0,0,0,.38.38h4.71v2.5a4.46,4.46,0,1,0,8.92-.02v-4.7a0.38,0.38,0,0,0-.38-0.38H1005.1Zm7.15,2.6h4.02V178.8a2,2,0,0,1-1.94,2.061,2.062,2.062,0,0,1-2.08-2.061v-2.321Zm-7.15,10.239a0.38,0.38,0,0,0-.38.38v8.144a0.38,0.38,0,0,0,.38.38h1.65a0.38,0.38,0,0,0,.38-0.38v-5.923h3.5v4.943a0.38,0.38,0,0,0,.38.38h1.66a0.393,0.393,0,0,0,.38-0.38v-4.943h3.28v5.923a0.38,0.38,0,0,0,.38.38h1.64a0.38,0.38,0,0,0,.38-0.38V187.1a0.38,0.38,0,0,0-.38-0.38H1005.1Zm6.61,11.68a7.18,7.18,0,0,0-7.19,7.223,6.867,6.867,0,0,0,1.94,4.862,0.393,0.393,0,0,0,.55.02l1.28-1.24a0.37,0.37,0,0,0,0-.5,4.8,4.8,0,0,1-1.14-3.061,4.643,4.643,0,0,1,9.28-.02,4.732,4.732,0,0,1-1.18,3.081,0.321,0.321,0,0,0,0,.5l1.26,1.22a0.372,0.372,0,0,0,.56-0.02,6.772,6.772,0,0,0,1.86-4.842A7.205,7.205,0,0,0,1011.71,198.4Zm-6.61,15.7a0.393,0.393,0,0,0-.38.38v1.861a0.393,0.393,0,0,0,.38.38h13.25a0.393,0.393,0,0,0,.38-0.38v-1.861a0.393,0.393,0,0,0-.38-0.38H1005.1Zm-0.38,5.779v1.741a0.6,0.6,0,0,0,.4.58l2.17,0.98v5.983l-2.17.981a0.575,0.575,0,0,0-.4.58v1.741a0.353,0.353,0,0,0,.52.34l13.47-6.163a0.34,0.34,0,0,0,.22-0.34v-0.2a0.359,0.359,0,0,0-.22-0.34l-13.47-6.223A0.353,0.353,0,0,0,1004.72,219.88Zm4.79,4.282,4.4,1.961v0.06l-4.4,2v-4.022Zm-4.41,11.458a0.381,0.381,0,0,0-.38.381v7.323a0.38,0.38,0,0,0,.38.38h1.65a0.38,0.38,0,0,0,.38-0.38v-5.1h11.22a0.393,0.393,0,0,0,.38-0.38V236a0.381,0.381,0,0,0-.38-0.381H1005.1Z" transform="translate(-1004.53 -161.125)"/>
</svg>
