<svg id="ttl" xmlns="http://www.w3.org/2000/svg" width="98.56" height="331" viewBox="0 0 98.56 331">
  <defs>
    <style>
      .cls-1 {
        fill: #bea574;
      }

      .cls-1, .cls-2 {
        fill-rule: evenodd;
      }

      .cls-2 {
        fill: #fff;
      }
    </style>
  </defs>
  <path id="長方形_" data-name="長方形 " class="cls-1" d="M1073.56,2231.07h44v331h-44v-331Z" transform="translate(-1019 -2231.06)"/>
  <path id="長方形_2" data-name="長方形 " class="cls-1" d="M1019.01,2231.07h44v140h-44v-140Z" transform="translate(-1019 -2231.06)"/>
  <path id="ヒットコンテンツを_育てる_" data-name="ヒットコンテンツを 育てる。" class="cls-2" d="M1108.52,2270.46a12.821,12.821,0,0,1-.14-1.43,0.942,0.942,0,0,0-.91-1.05,3.22,3.22,0,0,0-1.12.14,6.745,6.745,0,0,0-1.58.21c-0.52.21-1.19,0.03-1.54,0.17a3.313,3.313,0,0,1-1.54.14,4.017,4.017,0,0,1-1.57.07,8.373,8.373,0,0,0-1.4.11,8.754,8.754,0,0,0-1.37.03,3.742,3.742,0,0,1-1.4.07c-0.49-.14-0.84.11-1.4,0a4.016,4.016,0,0,1-1.36,0c-0.56-.14-0.98.07-1.65-0.1l-0.45-.04a2.462,2.462,0,0,1-1.72-.73,2.51,2.51,0,0,1-.73-1.37,11.971,11.971,0,0,1-.25-1.75,11.312,11.312,0,0,0-.07-1.64c-0.14-.52.11-0.91,0-1.29a2.438,2.438,0,0,1,.28-1.54,3.687,3.687,0,0,1,1.93-1.3,13.461,13.461,0,0,0,1.96-.56,4.932,4.932,0,0,0,1.47-.45,8.555,8.555,0,0,1,1.78-.56,2.728,2.728,0,0,1,1.09-.39,3.206,3.206,0,0,1,1.05-.49,4.811,4.811,0,0,1,1.12-.38c0.45-.11.84-0.42,1.08-0.46a5.625,5.625,0,0,1,1.05-.49,4.456,4.456,0,0,1,1.05-.52c0.49-.07.53-0.42,1.05-0.49a2.674,2.674,0,0,0,.98-0.53,4.395,4.395,0,0,1,1.68-.56,0.891,0.891,0,0,0,.88-0.28,0.728,0.728,0,0,0-.35-0.98c-0.32-.28-0.46-0.49-0.88-0.87a4.481,4.481,0,0,1-.8-0.91,1.244,1.244,0,0,0-1.02-.53,2.37,2.37,0,0,0-1.19.6,8.2,8.2,0,0,1-1.71,1.01,17.09,17.09,0,0,1-1.75.91,11.45,11.45,0,0,1-1.79.81,11.921,11.921,0,0,1-1.82.73,14.9,14.9,0,0,1-1.61.63c-0.49.21-1.26,0.42-1.68,0.56l-1.47.49a2.589,2.589,0,0,1-1.68-.21,1.7,1.7,0,0,1-.63-1.22c0.11-.56,0-0.77.07-1.19v-1.51a3.546,3.546,0,0,1,.04-1.01,4.639,4.639,0,0,1,.1-1.12,3.531,3.531,0,0,1,.04-1.19,1.678,1.678,0,0,1,.59-1.05,0.549,0.549,0,0,0,.32-0.67,0.6,0.6,0,0,0-.67-0.52c-0.52-.14-0.94.03-1.5-0.14a8.438,8.438,0,0,1-1.58-.14h-0.17a0.786,0.786,0,0,0-.77,1.01c-0.07.14,0.1,0.21,0.03,0.63a12.176,12.176,0,0,0-.03,1.89,11.831,11.831,0,0,1-.04,1.89,10.733,10.733,0,0,0-.03,1.89,5.786,5.786,0,0,0-.07,1.89c0.1,0.56-.11,1.3-0.04,1.86a4.7,4.7,0,0,1-.07,1.85,11.981,11.981,0,0,1-.03,1.61v0.28c0.03,0.56-.07.91-0.07,1.33a4.073,4.073,0,0,0,.07.56c0,0.21-.03.46-0.03,0.7,0,0.28.03,0.53,0.03,0.81,0.03,0.49-.03.8-0.03,1.11a1.845,1.845,0,0,0,.03.39,7.913,7.913,0,0,1,.07,1.54,11.5,11.5,0,0,1,.17,1.5,6.366,6.366,0,0,0,.53,1.72,7.665,7.665,0,0,0,1.22,1.36,6.973,6.973,0,0,0,1.68.74,12.955,12.955,0,0,0,1.82.38,8.975,8.975,0,0,0,1.86.14c0.49,0,.87-0.03,1.26-0.03a3.568,3.568,0,0,1,.56.03c0.38,0,.77.04,1.22,0.04a4,4,0,0,0,.67-0.04c0.28,0,.63.04,1.05,0.04a3.408,3.408,0,0,0,.84-0.07c0.42,0,1.01-.07,1.5-0.04a12.171,12.171,0,0,1,1.51-.1c0.42-.11.87,0.03,1.47-0.11,0.35,0,1.05-.07,1.5-0.1a10.094,10.094,0,0,0,2.07-.18,16.085,16.085,0,0,0,2.1-.24,1.074,1.074,0,0,0,.84-1.19v-0.11Zm-12.5,16.18a11.029,11.029,0,0,1,.6,1.19,9.254,9.254,0,0,1,.45,1.36,1.117,1.117,0,0,0,.88.98,2.43,2.43,0,0,0,.91-0.21,13.817,13.817,0,0,0,1.36-.56,0.8,0.8,0,0,0,.67-0.87,9.021,9.021,0,0,0-.39-1.4,4.228,4.228,0,0,0-.73-1.61,5.306,5.306,0,0,0-.74-1.4,8.686,8.686,0,0,0-.7-1.05,1.553,1.553,0,0,0-1.12-.84h-0.14a1.508,1.508,0,0,0-.63.21c-0.28.1-.59,0.21-1.08,0.42a1.084,1.084,0,0,0-.63.87,2.4,2.4,0,0,0,.59,1.51A8.332,8.332,0,0,1,1096.02,2286.64Zm14.14-2.42a8.1,8.1,0,0,0-1.15-.45,7.616,7.616,0,0,1-.91-0.42,0.941,0.941,0,0,0-.95-0.11c-0.59.11-.56,0.81-0.7,1.23-0.24.7-.31,1.33-0.49,1.78a5.065,5.065,0,0,1-.59,1.82,7.527,7.527,0,0,1-.7,1.75c-0.21.77-.67,1.12-0.81,1.65a13.447,13.447,0,0,1-.91,1.57,9.559,9.559,0,0,1-1.05,1.47,6.819,6.819,0,0,1-1.22,1.37,17.227,17.227,0,0,0-1.4,1.43c-0.49.28-1.05,0.84-1.47,1.05-0.56.31-.63,0.52-1.19,0.8a8.706,8.706,0,0,1-1.47.77,6.222,6.222,0,0,1-1.37.63c-0.52.11-.8,0.42-1.47,0.63-0.59.21-1.22,0.42-1.01,1.12a3.635,3.635,0,0,0,.73,1.23c0.35,0.77.67,1.22,1.3,1.22h0.07a4.549,4.549,0,0,0,1.26-.42,12.573,12.573,0,0,0,1.36-.63c0.53-.24.84-0.49,1.37-0.7,0.52-.38,1.15-0.66,1.64-0.98a6.429,6.429,0,0,1,1.16-.84c0.42-.17.45-0.45,0.98-0.7,0.56-.24.24-0.42,0.8-0.7a2.281,2.281,0,0,0,.67-0.63,2.214,2.214,0,0,1,.7-0.7c0.42-.21.35-0.59,0.98-1.01a9.883,9.883,0,0,0,.98-1.19,9.508,9.508,0,0,1,.84-1.19c0.24-.56.56-0.77,0.73-1.26a6.91,6.91,0,0,1,.67-1.33c0.07-.38.45-0.87,0.59-1.33a4.96,4.96,0,0,1,.56-1.33,13.51,13.51,0,0,1,.46-1.36,6.21,6.21,0,0,1,.42-1.33,3.938,3.938,0,0,0,.49-1.16c0.28-.45.69-0.35,0.83-0.91a0.84,0.84,0,0,1,.04-0.14A0.991,0.991,0,0,0,1110.16,2284.22Zm-18.41,7.91c0.35-.35.74-0.17,1.09-0.56a0.965,0.965,0,0,0,.73-0.98,2.341,2.341,0,0,0-.35-1.33c-0.31-.38-0.42-0.91-0.77-1.43a4.262,4.262,0,0,1-.84-1.05,6.7,6.7,0,0,0-.63-0.88,3.469,3.469,0,0,0-.7-0.8,1.017,1.017,0,0,0-.63-0.53,1.177,1.177,0,0,0-1.08.35,5.9,5.9,0,0,0-.95.49,1.361,1.361,0,0,0-.56,1.12v0.18c0.04,0.73.77,0.91,0.88,1.43a10.336,10.336,0,0,0,.56.91,1.621,1.621,0,0,1,.59.95c0.21,0.66.56,0.73,0.81,1.54a1.187,1.187,0,0,0,.91.87A1.031,1.031,0,0,0,1091.75,2292.13Zm14.6,34.34a11.206,11.206,0,0,0-1.02-.91c-0.59-.32-1.15-0.84-1.61-1.09-0.52-.17-0.73-0.59-1.4-0.84-0.7-.14-1.12-0.84-1.64-1.01a7.858,7.858,0,0,0-1.65-.88,10.346,10.346,0,0,1-1.43-.77,5.086,5.086,0,0,0-1.61-.45c-0.56.07-.74,0.42-1.05,0.38-0.35-.03-0.42-0.24-0.42-0.8,0.14-.21-0.11-0.67.03-0.84a6.42,6.42,0,0,1-.03-1.44,8.416,8.416,0,0,0,.03-1.33,3.9,3.9,0,0,1,.04-1.4,3.143,3.143,0,0,0,0-1.26,1.876,1.876,0,0,1,.31-1.29,1.214,1.214,0,0,0,.39-0.84c-0.04-.35-0.35-0.39-0.7-0.46a15.409,15.409,0,0,1-1.54-.17,10.707,10.707,0,0,0-1.12-.14,3.1,3.1,0,0,0-.53.07c-0.98.03-.98,0.63-0.98,1.36,0,0.53,0,1.05.04,1.58,0.03,0.49-.04.91-0.04,1.29a2.31,2.31,0,0,0,.07.49,4.94,4.94,0,0,1,.04,1.75,10.676,10.676,0,0,1,0,1.79c0.1,0.7-.11,1.29,0,1.75,0.14,0.66-.21,1.15,0,1.75,0.24,0.66-.21,1.33,0,1.78a5.373,5.373,0,0,1,0,1.79,7.568,7.568,0,0,1,0,1.78,14.323,14.323,0,0,1,0,1.75,13.231,13.231,0,0,0,0,1.79,9.246,9.246,0,0,0,0,1.75,22.17,22.17,0,0,1,0,2.58c-0.11.88-.04,1.79-0.07,2.59l-0.07,1.72v0.28a1.058,1.058,0,0,0,1.19,1.19h0.1c0.32,0.03.56,0.07,0.81,0.07a9.4,9.4,0,0,0,.98-0.07,1.173,1.173,0,0,0,1.19-1.3c-0.04-.49.03-1.19-0.04-1.75a10.216,10.216,0,0,1-.03-1.78,5.887,5.887,0,0,1,0-1.79,15.211,15.211,0,0,0-.04-1.74,10.473,10.473,0,0,0,0-2.38,13.665,13.665,0,0,0,.04-2.42c-0.04-.8,0-1.61,0-2.59a1.487,1.487,0,0,1,.38-1.5,1.068,1.068,0,0,1,1.02.07,12.156,12.156,0,0,0,1.96,1.05,14.788,14.788,0,0,0,1.64.94,2.476,2.476,0,0,0,.74.56,2.413,2.413,0,0,1,.8.46,4.935,4.935,0,0,0,1.09.87,3.6,3.6,0,0,1,1.12.91c0.35,0.18.8,0.63,1.29,0.95a0.893,0.893,0,0,0,1.3-.42,9.821,9.821,0,0,0,1.05-1.19,1.413,1.413,0,0,0,.35-1.26A2.158,2.158,0,0,0,1106.35,2326.47Zm0.77,35.98a4.03,4.03,0,0,1,0-1.47c-0.07-.39.03-0.91,0-1.51a10.217,10.217,0,0,1,0-1.47,6.836,6.836,0,0,1,0-1.5,10.29,10.29,0,0,0,0-1.47,11.359,11.359,0,0,1,.03-1.93v-0.35a5.45,5.45,0,0,0,.07-1.08,7.43,7.43,0,0,0-.07-1.23,0.882,0.882,0,0,0-.91-1.01,9.754,9.754,0,0,0-1.05-.04,9.571,9.571,0,0,0-1.05.04,10.561,10.561,0,0,1-1.78,0h-0.25c-0.56,0-.98-0.07-1.4-0.07a4.011,4.011,0,0,0-.66.07,8.4,8.4,0,0,1-2.07,0,6.774,6.774,0,0,1-2.06,0h-0.28a7.617,7.617,0,0,1-1.79,0h-0.35a9.747,9.747,0,0,1-1.71,0,1.95,1.95,0,0,0-.46-0.04,8.58,8.58,0,0,1-1.61.04,1.139,1.139,0,0,0-.35-0.04,5.4,5.4,0,0,1-1.68.04,2.188,2.188,0,0,0-.56-0.07c-0.28,0-.63.03-0.87,0.03h-1.89a1.031,1.031,0,0,0-.98,1.16,7.185,7.185,0,0,0,0,1.47,1.072,1.072,0,0,0,1.02,1.15c0.62-.03,1.22.04,1.64,0a5.381,5.381,0,0,1,1.64-.03,17.807,17.807,0,0,0,1.79,0,10.577,10.577,0,0,0,1.78,0,6.293,6.293,0,0,0,1.79,0,17.552,17.552,0,0,0,1.78,0,7.9,7.9,0,0,0,1.82,0,10.553,10.553,0,0,0,1.79,0,4.757,4.757,0,0,0,1.12.07c0.73,0.03,1.05-.04,1.78,0a2.033,2.033,0,0,1,1.72,1.68,4.83,4.83,0,0,0,0,1.26c0.14,0.45-.14.73,0,1.15,0.14,0.6-.14.98,0,1.58a10.088,10.088,0,0,1,.07,1.75,9.493,9.493,0,0,0-.07,1.4,7.41,7.41,0,0,0,.07,1.36,2.4,2.4,0,0,1-.07,1.09c-0.04.63,0.03,0.98,0,1.57a1.954,1.954,0,0,1-1.58,1.79c-0.56.13-.98-0.18-1.68-0.04-0.45.17-.98-0.21-1.64-0.03a14.261,14.261,0,0,1-1.61,0,10.9,10.9,0,0,1-1.82,0c-0.74.17-1.37-.14-1.86,0-0.77.13-1.08-.11-1.82,0a7.887,7.887,0,0,1-1.82,0c-0.66.07-1.26-.04-1.82,0a5.093,5.093,0,0,1-1.61,0,11.542,11.542,0,0,0-1.67,0,1.058,1.058,0,0,0-.98,1.15,1.088,1.088,0,0,1,.03.31c0,0.28-.07.6-0.07,0.84v0.07a0.4,0.4,0,0,0,.04.21c0.07,0.7.17,1.33,0.98,1.19a13.233,13.233,0,0,0,1.67,0,6.323,6.323,0,0,0,1.61-.03c0.56-.07,1.12.1,1.86,0,0.45,0.03,1.26,0,1.82,0a16.233,16.233,0,0,1,1.85,0,14.428,14.428,0,0,1,1.86,0,11.39,11.39,0,0,0,1.85,0,15.734,15.734,0,0,1,1.82,0,16.369,16.369,0,0,1,1.86,0,5.165,5.165,0,0,0,1.26,0,2.032,2.032,0,0,1,1.54,1.12c0.17,0.38.38,0.52,1.19,0.52h0.94a6.105,6.105,0,0,0,.74-0.03h0.07a1.145,1.145,0,0,0,1.15-1.26v-0.35c0-.74-0.07-1.33-0.07-2v-0.35a15.481,15.481,0,0,1-.03-2.27,11.46,11.46,0,0,0-.04-1.47,4.873,4.873,0,0,1,.07-1.19,1.025,1.025,0,0,0-.03-0.28A9.255,9.255,0,0,1,1107.12,2362.45Zm-20.69,23.83a10.53,10.53,0,0,0,.84.74c0.25,0.17.56,0.63,0.81,0.77a3.219,3.219,0,0,0,.8.84,1.523,1.523,0,0,0,1.19.8,0.715,0.715,0,0,0,.81-0.42,2.417,2.417,0,0,0,.73-0.73c0.39-.28.42-0.56,0.7-0.74a0.765,0.765,0,0,0,.42-0.84,1.809,1.809,0,0,0-.52-0.98c-0.46-.42-0.74-0.7-1.37-1.29a4.615,4.615,0,0,0-1.4-1.19c-0.35-.46-1.19-0.7-1.5-1.12a6.173,6.173,0,0,1-1.61-1.02,1.213,1.213,0,0,0-.81-0.28,0.291,0.291,0,0,0-.14-0.03,1.67,1.67,0,0,0-.8.56l-0.73.84a1.66,1.66,0,0,0-.67,1.22c0,0.25.07,0.63,0.28,0.6a3.485,3.485,0,0,0,.95.77,8.977,8.977,0,0,0,1.15.8A9.262,9.262,0,0,1,1086.43,2386.28Zm22.37-.8c-0.32-.35-0.42-0.6-0.81-0.98a0.761,0.761,0,0,0-1.01-.21,1,1,0,0,0-.6.8c-0.28.49-.45,0.74-0.77,1.26a5.775,5.775,0,0,1-.73,1.19,2.591,2.591,0,0,1-.53.88,8.017,8.017,0,0,0-1.01,1.5,7.352,7.352,0,0,0-1.16,1.44,13.254,13.254,0,0,1-1.22,1.36,8.252,8.252,0,0,1-1.26,1.33c-0.46.35-.81,0.77-1.37,1.26-0.45.53-1.12,0.74-1.4,1.16a4.991,4.991,0,0,1-1.47,1.12,7.126,7.126,0,0,1-1.5,1.05,2.3,2.3,0,0,1-.95.62,4.927,4.927,0,0,1-.94.6c-0.49.28-.53,0.35-0.95,0.56a3.413,3.413,0,0,0-.98.56,1.532,1.532,0,0,1-.98.56,2.01,2.01,0,0,1-.98.49,5.846,5.846,0,0,0-1.01.49c-0.49.07-.74,0.45-1.05,0.45a1.245,1.245,0,0,0-1.19,1.09c-0.18.14,0.21,0.35,0.24,0.63a5.547,5.547,0,0,0,.84,1.22c0.11,0.49.56,0.74,0.67,1.19a0.821,0.821,0,0,0,.77.56h0.07a0.81,0.81,0,0,0,.73-0.66,5.106,5.106,0,0,1,1.26-.84c0.6-.28.98-0.49,1.4-0.7a10.934,10.934,0,0,1,1.23-.67,11.367,11.367,0,0,1,1.19-.7,9.787,9.787,0,0,1,1.15-.73l1.16-.77a5.3,5.3,0,0,1,1.12-.81c0.35-.21.77-0.63,1.12-0.8a3.323,3.323,0,0,0,1.08-.84c0.46-.32.74-0.67,1.05-0.91a3.849,3.849,0,0,1,1.02-.91,5.3,5.3,0,0,1,1.01-.94,6.713,6.713,0,0,0,.95-0.98,1.842,1.842,0,0,0,.94-0.98,4.387,4.387,0,0,1,.91-1.05,10.144,10.144,0,0,1,.84-1.05,2.488,2.488,0,0,1,.84-1.12,3.556,3.556,0,0,0,.81-1.12c0.17-.11.17-0.39,0.56-0.84a4.506,4.506,0,0,0,.8-1.23,4.656,4.656,0,0,0,.7-1.26,4.762,4.762,0,0,0,.35-1.05A1.718,1.718,0,0,0,1108.8,2385.48Zm-23.35,32.09a1.058,1.058,0,0,0,.98,1.16,12.973,12.973,0,0,0,1.65,0,6.478,6.478,0,0,0,1.64-.04c0.56,0.14,1.12-.14,1.58,0a5.47,5.47,0,0,0,1.57,0c0.53-.03,1.02.04,1.61,0a5.563,5.563,0,0,0,1.58,0,5,5,0,0,1,1.61,0,13.568,13.568,0,0,1,1.57,0,5.944,5.944,0,0,0,1.58,0c0.45,0.07.98-.03,1.57,0a13.468,13.468,0,0,0,1.65.04,14.852,14.852,0,0,0,1.64,0,0.935,0.935,0,0,0,1.02-1.16c0-.42-0.04-0.8,0-1.43a0.888,0.888,0,0,0-1.05-1.05,4.4,4.4,0,0,1-.98-0.11,0.3,0.3,0,0,0-.18.04,1.6,1.6,0,0,1-.7,0,0.342,0.342,0,0,0-.17.03,4.154,4.154,0,0,1-1.16.04,4.392,4.392,0,0,0-.73,0,10.243,10.243,0,0,1-1.47,0,5.826,5.826,0,0,1-1.23-.04,3.459,3.459,0,0,1-1.36,0c-0.39,0-.7-0.03-1.05-0.03a3.7,3.7,0,0,0-.56.03,11.9,11.9,0,0,1-1.58,0,2.856,2.856,0,0,0-.49-0.03c-0.42,0-.84.03-1.26,0h-0.07a2.937,2.937,0,0,1-1.29.03,0.511,0.511,0,0,0-.21-0.03,4.328,4.328,0,0,1-1.26.03,1.981,1.981,0,0,0-.42-0.03,4.7,4.7,0,0,1-1.4-.04,1.4,1.4,0,0,1-.39.04c-0.35,0-.66-0.07-1.01-0.07-0.07,0-.18.03-0.25,0.03a1.018,1.018,0,0,0-.98,1.16A4.893,4.893,0,0,0,1085.45,2417.57Zm24.54,7.14a0.966,0.966,0,0,0-.95-1.15,3.749,3.749,0,0,0-1.54,0,14.412,14.412,0,0,1-1.61,0,5.873,5.873,0,0,1-1.57.03c-0.81-.07-1.54.11-2.17,0-0.88.04-1.4-.03-2.17,0a5.643,5.643,0,0,0-1.05-.03,3.07,3.07,0,0,1-1.12.03,3.366,3.366,0,0,0-1.05-.03,6.437,6.437,0,0,1-1.12.03c-1.02.25-1.37-.24-2.21,0a2.708,2.708,0,0,1-.98-0.03,4.692,4.692,0,0,1-1.22.03c-0.88.07-1.61,0-2.17,0h-2.17l-2.28-.03c-0.83.03-1.29,0-1.95,0a1.168,1.168,0,0,0-1.44,1.15,1.421,1.421,0,0,0-.03.35c0,0.28.07,0.53,0.07,0.81,0,0.07-.04.14-0.04,0.21a1.08,1.08,0,0,0,1.26,1.19c0.77,0,1.54,0,2.13-.04a16.141,16.141,0,0,1,2.28-.03,7.135,7.135,0,0,1,1.96,0,5.394,5.394,0,0,1,1.96.03,13.092,13.092,0,0,1,2.06-.03,1.608,1.608,0,0,1,1.44.73,1.885,1.885,0,0,1,.31,1.3,11.2,11.2,0,0,1-.31,1.61,8.9,8.9,0,0,1-.56,1.68c-0.25.31-.35,0.8-0.49,0.94a1.971,1.971,0,0,1-.56.91,3.371,3.371,0,0,1-.63.84,6.026,6.026,0,0,1-.7.8,4.5,4.5,0,0,1-1.47,1.3,8.935,8.935,0,0,1-1.09.7c-0.49.21-.63,0.49-1.19,0.73a5.6,5.6,0,0,1-1.15.56c-0.49.14-.84,0.35-1.23,0.49-0.45.14-1.25,0.18-1.25,0.95-0.11.73,0.56,1.15,0.76,1.54,0.11,0.24.39,0.59,0.56,0.91a0.949,0.949,0,0,0,.77.59,0.511,0.511,0,0,0,.21-0.03,4.129,4.129,0,0,0,1.65-.56c0.42-.18.63-0.35,1.29-0.67a16.74,16.74,0,0,0,1.51-.87c0.52-.39,1.15-0.74,1.54-0.98,0.49-.21.8-0.81,1.43-1.12a13.434,13.434,0,0,0,1.26-1.23c0.39-.56.63-0.84,1.09-1.43,0.24-.49.59-0.91,0.84-1.47a8.17,8.17,0,0,0,.77-1.68c0.03-.35.28-0.91,0.45-1.75a9.755,9.755,0,0,0,.42-1.75c0.07-.45.07-0.7,0.18-1.29a2.079,2.079,0,0,1,.91-1.3,2.609,2.609,0,0,1,1.54-.45,11.724,11.724,0,0,0,1.57,0,8.258,8.258,0,0,0,1.58,0c0.56,0.07.87-.04,1.57,0a7.666,7.666,0,0,1,1.61.03,7,7,0,0,0,1.54,0c0.49,0.11.88-.38,0.95-1.15v-1.37Zm-23.56,31.57a10.53,10.53,0,0,0,.84.74c0.25,0.17.56,0.63,0.81,0.77a3.219,3.219,0,0,0,.8.84,1.523,1.523,0,0,0,1.19.8,0.715,0.715,0,0,0,.81-0.42,2.417,2.417,0,0,0,.73-0.73c0.39-.28.42-0.56,0.7-0.74a0.765,0.765,0,0,0,.42-0.84,1.809,1.809,0,0,0-.52-0.98c-0.46-.42-0.74-0.7-1.37-1.29a4.615,4.615,0,0,0-1.4-1.19c-0.35-.46-1.19-0.7-1.5-1.12a6.173,6.173,0,0,1-1.61-1.02,1.213,1.213,0,0,0-.81-0.28,0.291,0.291,0,0,0-.14-0.03,1.67,1.67,0,0,0-.8.56l-0.73.84a1.66,1.66,0,0,0-.67,1.22c0,0.25.07,0.63,0.28,0.6a3.485,3.485,0,0,0,.95.77,8.977,8.977,0,0,0,1.15.8A9.262,9.262,0,0,1,1086.43,2456.28Zm22.37-.8c-0.32-.35-0.42-0.6-0.81-0.98a0.761,0.761,0,0,0-1.01-.21,1,1,0,0,0-.6.8c-0.28.49-.45,0.74-0.77,1.26a5.775,5.775,0,0,1-.73,1.19,2.591,2.591,0,0,1-.53.88,8.017,8.017,0,0,0-1.01,1.5,7.352,7.352,0,0,0-1.16,1.44,13.254,13.254,0,0,1-1.22,1.36,8.252,8.252,0,0,1-1.26,1.33c-0.46.35-.81,0.77-1.37,1.26-0.45.53-1.12,0.74-1.4,1.16a4.991,4.991,0,0,1-1.47,1.12,7.126,7.126,0,0,1-1.5,1.05,2.3,2.3,0,0,1-.95.62,4.927,4.927,0,0,1-.94.6c-0.49.28-.53,0.35-0.95,0.56a3.413,3.413,0,0,0-.98.56,1.532,1.532,0,0,1-.98.56,2.01,2.01,0,0,1-.98.49,5.846,5.846,0,0,0-1.01.49c-0.49.07-.74,0.45-1.05,0.45a1.245,1.245,0,0,0-1.19,1.09c-0.18.14,0.21,0.35,0.24,0.63a5.547,5.547,0,0,0,.84,1.22c0.11,0.49.56,0.74,0.67,1.19a0.821,0.821,0,0,0,.77.56h0.07a0.81,0.81,0,0,0,.73-0.66,5.106,5.106,0,0,1,1.26-.84c0.6-.28.98-0.49,1.4-0.7a10.934,10.934,0,0,1,1.23-.67,11.367,11.367,0,0,1,1.19-.7,9.787,9.787,0,0,1,1.15-.73l1.16-.77a5.3,5.3,0,0,1,1.12-.81c0.35-.21.77-0.63,1.12-0.8a3.323,3.323,0,0,0,1.08-.84c0.46-.32.74-0.67,1.05-0.91a3.849,3.849,0,0,1,1.02-.91,5.3,5.3,0,0,1,1.01-.94,6.713,6.713,0,0,0,.95-0.98,1.842,1.842,0,0,0,.94-0.98,4.387,4.387,0,0,1,.91-1.05,10.144,10.144,0,0,1,.84-1.05,2.488,2.488,0,0,1,.84-1.12,3.556,3.556,0,0,0,.81-1.12c0.17-.11.17-0.39,0.56-0.84a4.506,4.506,0,0,0,.8-1.23,4.656,4.656,0,0,0,.7-1.26,4.762,4.762,0,0,0,.35-1.05A1.718,1.718,0,0,0,1108.8,2455.48Zm-17.78,33.28a7.47,7.47,0,0,1,.59.98,6.514,6.514,0,0,0,.7,1.4,3.98,3.98,0,0,0,.56,1.26c0.07,0.46.35,0.6,0.49,1.23,0.14,0.56.32,0.87,0.46,1.33a0.842,0.842,0,0,0,.77.73,5.019,5.019,0,0,0,.98-0.21,13.019,13.019,0,0,1,1.43-.66,1.1,1.1,0,0,0,.84-1.26,2.929,2.929,0,0,0-.38-1.19c-0.25-.28-0.07-0.49-0.46-1.05a6.778,6.778,0,0,1-.56-1.23l-0.24-.45c-0.14-.39-0.46-0.77-0.7-1.33a8.122,8.122,0,0,1-.74-1.12,1.209,1.209,0,0,0-.94-0.95,1.366,1.366,0,0,0-.46-0.1,1.425,1.425,0,0,0-.73.35,8.481,8.481,0,0,1-1.12.52,1.158,1.158,0,0,0-.74.98A2.08,2.08,0,0,0,1091.02,2488.76Zm19-.03a11.56,11.56,0,0,0-1.54-.63,6.229,6.229,0,0,0-1.12-.49,5.184,5.184,0,0,0-1.05-.28c-0.66,0-.84.94-0.84,1.43-0.17.49-.17,0.95-0.28,1.26a4.754,4.754,0,0,0-.31,1.19,4.445,4.445,0,0,1-.35,1.19,6.035,6.035,0,0,1-.42,1.16,4.187,4.187,0,0,1-.46,1.15,2.076,2.076,0,0,1-.49,1.12c-0.1.42-.49,0.88-0.52,1.16-0.14.77-.49,0.63-0.56,1.08a4.7,4.7,0,0,1-.81,1.4c-0.28.32-.7,1.05-0.91,1.33-0.38.53-.7,0.77-0.98,1.23a6.046,6.046,0,0,1-1.05,1.19,3.955,3.955,0,0,1-1.15,1.12c-0.46.45-.88,0.7-1.19,1.08a8.941,8.941,0,0,1-1.3.98c-0.38.24-.91,0.63-1.29,0.87a13.8,13.8,0,0,1-1.61.95,10.48,10.48,0,0,0-1.61.8c-0.74.35-.84,0.35-1.37,0.6-0.59.28-.87,0.35-1.5,0.59a1.035,1.035,0,0,0-.95,1.02,0.942,0.942,0,0,0,.39.84c0.17,0.35.38,0.42,0.56,0.84a8.357,8.357,0,0,1,.49.8,0.845,0.845,0,0,0,.87.6h0.14a2.786,2.786,0,0,0,1.09-.28,3.04,3.04,0,0,0,1.05-.53,3.932,3.932,0,0,0,1.29-.63c0.28-.28.67-0.24,0.91-0.49,0.35-.52.7-0.14,1.09-0.63a3.59,3.59,0,0,1,1.08-.66c0.39-.32.84-0.42,1.09-0.7,0.45-.25.73-0.53,1.05-0.74a2.639,2.639,0,0,1,1.01-.73,4.253,4.253,0,0,1,.98-0.81,8.089,8.089,0,0,0,.95-0.84,2.3,2.3,0,0,0,.94-0.9c0.42-.49.95-0.95,1.23-1.33a14.668,14.668,0,0,1,1.12-1.44,9.215,9.215,0,0,0,1.05-1.54c0.38-.42.49-0.98,0.94-1.57a11.142,11.142,0,0,1,.84-1.65c0.25-.7.56-1.05,0.74-1.68a8.942,8.942,0,0,1,.7-1.71,13,13,0,0,1,.59-1.72c0.11-.56.46-1.12,0.53-1.71a7.146,7.146,0,0,0,.59-1.47c0.18-.53.88-0.6,0.91-1.16v-0.1C1110.58,2488.83,1110.37,2488.94,1110.02,2488.73Zm-21.42,7.8a2.3,2.3,0,0,0-.38-1.29,2.055,2.055,0,0,0-.53-1.02c-0.49-.49-0.14-0.63-0.52-1.01a2.887,2.887,0,0,0-.74-1.02c-0.35-.24-0.17-0.63-0.59-0.98s-0.77-1.01-1.05-1.15a1.106,1.106,0,0,0-.94-0.81,1.138,1.138,0,0,0-1.05.28,4.57,4.57,0,0,0-1.26.81,1.321,1.321,0,0,0-.67.98v0.07a1.924,1.924,0,0,0,.56,1.01,6.084,6.084,0,0,0,.42.56,11.151,11.151,0,0,0,.74,1.09,9.464,9.464,0,0,1,.59.94c0.14,0.42.39,0.53,0.46,0.81a7.208,7.208,0,0,1,.42,1.01,3.554,3.554,0,0,1,.62,1.19,0.864,0.864,0,0,0,.84.63,1.254,1.254,0,0,0,.88-0.35c0.52-.31.77-0.45,1.43-0.84A1.149,1.149,0,0,0,1088.6,2496.53Zm20.09,35.74c-0.38-.39-0.49-0.6-0.8-0.88a4.134,4.134,0,0,1-.91-0.91,1.5,1.5,0,0,0-.91-0.49,4.549,4.549,0,0,0-1.82.7,6.167,6.167,0,0,1-1.12.56,5.985,5.985,0,0,1-.84.42,5.819,5.819,0,0,1-1.02.46,8.892,8.892,0,0,1-1.01.42,1.588,1.588,0,0,1-1.3.1,1.477,1.477,0,0,1-.77-0.84,1.829,1.829,0,0,0-.73-1.12,10.627,10.627,0,0,0-1.16-.87c-0.52-.07-0.63-0.35-1.12-0.39a2.141,2.141,0,0,0-1.19-.14,12.137,12.137,0,0,0-1.92.28,0.467,0.467,0,0,1-.39-0.84,4.145,4.145,0,0,0,.42-0.59c0.32-.46.14-0.74,0.49-0.88a7.428,7.428,0,0,0,.56-0.77,2.319,2.319,0,0,1,1.12-.52c0.46,0,.88-0.04,1.61-0.07a18.145,18.145,0,0,0,2.07-.18c0.77-.03,1.61-0.17,2.48-0.24,0.46-.04.95-0.28,1.3-0.28a2.715,2.715,0,0,0,1.15-.32,0.914,0.914,0,0,0,.67-0.45,1.35,1.35,0,0,0-.07-0.81,9.391,9.391,0,0,1-.25-1.12,0.97,0.97,0,0,0-.73-0.73,1.368,1.368,0,0,0-.88.1c-0.35.14-.84,0.07-1.4,0.25a15.256,15.256,0,0,1-1.64.24c-0.6.11-1.02,0.14-1.61,0.21-0.7,0-1.44-.45-1.09-1.08l0.04-.25a6.7,6.7,0,0,1,.7-1.33c0.1-.31.56-0.17,0.7-0.7a0.561,0.561,0,0,0-.49-0.7c-0.42-.07-0.74-0.17-1.09-0.21a5.726,5.726,0,0,1-1.29-.28,0.449,0.449,0,0,0-.18-0.07c-0.07,0-.14.04-0.24,0.04a0.79,0.79,0,0,0-.91.66,2.041,2.041,0,0,0-.39.98c-0.14.6-.42,0.84-0.45,1.09a4.911,4.911,0,0,1-.7,1.33,1.805,1.805,0,0,1-1.61.84c-0.49.17-.95-0.14-1.51,0a3.29,3.29,0,0,1-1.5-.07,16.8,16.8,0,0,1-2-.14,0.981,0.981,0,0,0-1.08,1.15,4.788,4.788,0,0,0-.03,1.19,1.075,1.075,0,0,0,.52,1.02,5.609,5.609,0,0,0,1.33.21c0.49-.04.94,0,1.33,0l0.98,0.03a0.61,0.61,0,0,1,.73.74,1.74,1.74,0,0,1-.7,1.08c-0.28.42-.45,0.6-0.8,1.12a9.529,9.529,0,0,1-1.12,1.37,12.136,12.136,0,0,0-1.19,1.36,10.624,10.624,0,0,1-1.26,1.3,9.677,9.677,0,0,1-1.05.98,1.251,1.251,0,0,0-.73,1.08v0.07a1.3,1.3,0,0,0,.45.74,4.864,4.864,0,0,0,1.33,1.15,1.253,1.253,0,0,0,1.26.07,12.514,12.514,0,0,0,.84-0.94,2.987,2.987,0,0,1,.98-0.91,2.946,2.946,0,0,1,.59-0.67c0.46-.17.42-0.59,0.77-0.63a3.81,3.81,0,0,1,1.05-.77,6.276,6.276,0,0,1,1.61-.8,6.21,6.21,0,0,1,2.03-.39,2.521,2.521,0,0,1,1.75.63,1.777,1.777,0,0,1,.53,1.02,1.265,1.265,0,0,1-.6,1.15c-0.45.39-.63,0.28-1.22,0.7a4.8,4.8,0,0,0-1.44.81,5.982,5.982,0,0,0-1.36.91c-0.74.24-.74,0.8-1.33,1.05-0.88.35-.6,0.91-1.09,1.11-0.42.18-.49,0.88-0.91,1.3a2.53,2.53,0,0,0-.59,1.47,2.5,2.5,0,0,0-.21,1.64,3.054,3.054,0,0,0,.28,2,1.742,1.742,0,0,0,.73,1.47,4.069,4.069,0,0,0,1.12,1.08,13.052,13.052,0,0,0,1.4.7,4.928,4.928,0,0,0,1.61.46,11.5,11.5,0,0,0,1.75.21c0.56,0,1.09.1,1.51,0.1h0.42c0.28,0,.56.04,0.91,0.04h0.07a2.834,2.834,0,0,0,.56-0.04l2.73-.03a5.946,5.946,0,0,1,.87.03,1.194,1.194,0,0,0,.49-0.1,7.254,7.254,0,0,1,1.51-.04c0.66-.28,1.36.07,2.03-0.24,0.59-.28,1.22-0.14,2.06-0.42a1.062,1.062,0,0,0,.95-1.12c0-.6.07-1.19,0.07-1.96a0.917,0.917,0,0,0-1.02-.77,8.269,8.269,0,0,1-1.26.28c-0.59.07-.87,0.14-1.26,0.21a7.8,7.8,0,0,1-1.89.21,4.442,4.442,0,0,1-1.92.14,4.1,4.1,0,0,1-1.93.07,18.085,18.085,0,0,1-1.92.03,12.029,12.029,0,0,1-2.28-.07,3.768,3.768,0,0,1-2.24-.42,1.364,1.364,0,0,1-1.08-.7,1.766,1.766,0,0,1-.42-1.22,2.722,2.722,0,0,1,.56-1.86,7.768,7.768,0,0,1,1.33-1.47,6.687,6.687,0,0,1,1.5-1.15,1.289,1.289,0,0,1,1.44-.59,0.7,0.7,0,0,1,.35.87,9.349,9.349,0,0,0,.03.98,15.249,15.249,0,0,1-.03,1.78,1.089,1.089,0,0,0,1.26,1.12,4.3,4.3,0,0,0,1.19,0c0.77-.1,1.26-0.14,1.22-1.08a3.842,3.842,0,0,0-.03-1.16,10.356,10.356,0,0,1,0-1.12,5.144,5.144,0,0,0-.04-1.01,7.876,7.876,0,0,1,0-1.19,1.237,1.237,0,0,1,.6-1.36,3.5,3.5,0,0,1,1.05-.46,245.745,245.745,0,0,0,2.03-.91,2.571,2.571,0,0,1,1.05-.42,4.334,4.334,0,0,1,1.01-.42c0.46-.03.56-0.31,1.05-0.38a7.5,7.5,0,0,1,1.02-.39,8.569,8.569,0,0,1,1.08-.35c0.39-.03,1.19.04,1.19-0.45A0.968,0.968,0,0,0,1108.69,2532.27Zm-52.82-285.32v-0.21a0.744,0.744,0,0,0-.94-0.81,5.51,5.51,0,0,1-1.54-.03,3.207,3.207,0,0,1-1.54.03,5.358,5.358,0,0,1-1.5.04c-0.67.17-.98-0.14-1.54,0a16.487,16.487,0,0,1-1.86,0,5.471,5.471,0,0,0-1.85,0h-1.96a1.952,1.952,0,0,1-1.54-.35,4.5,4.5,0,0,1-.18-0.7,1.069,1.069,0,0,1,.42-0.81,0.649,0.649,0,0,0,.14-0.7,0.593,0.593,0,0,0-.52-0.42,16.906,16.906,0,0,1-2.63-.17h-0.1a0.763,0.763,0,0,0-.88.91,8.41,8.41,0,0,1,0,1.33,0.817,0.817,0,0,1-.21.7,3.148,3.148,0,0,1-1.47.21,7.148,7.148,0,0,0-1.96,0c-0.63-.07-1.22.1-1.89,0-0.7-.11-1.36.07-1.89,0-0.66.1-.94-0.14-1.5,0a5.389,5.389,0,0,1-1.5-.04c-0.6.18-1.05-.17-1.54-0.03-0.63-.07-1.09.03-1.58,0a1.079,1.079,0,0,0-.98.98c0,0.07.04,0.14,0.04,0.21a0.69,0.69,0,0,0-.07.24c0,0.18.07,0.39,0.07,0.67v0.31a0.762,0.762,0,0,0,.94.91,4.841,4.841,0,0,1,1.58.04,5.689,5.689,0,0,0,1.54-.04c0.35,0.14,1.08-.17,1.5-0.03,0.56-.07,1.08.07,1.5,0a9.836,9.836,0,0,0,1.33,0c0.98,0,1.54-.07,1.75.35,0.32,0.21.21,0.42-.38,1.12a4.03,4.03,0,0,1-.81,1.29,1.381,1.381,0,0,1-.45.46,7.457,7.457,0,0,1-2.66.03,4.425,4.425,0,0,1-1.22,0,2.924,2.924,0,0,0-.56.04,10.181,10.181,0,0,1-1.72-.04,1.112,1.112,0,0,0-1.22.53,0.543,0.543,0,0,0,.07.66,2.765,2.765,0,0,0,.42.98,4.978,4.978,0,0,0,.38,1.02c0.28,0.31.25,1.08,0.84,0.94a2.1,2.1,0,0,0,.84-0.7c0.28-.1,1.19.04,2.45-0.17a7.961,7.961,0,0,0,2.69-.04,16.427,16.427,0,0,0,2.31-.1,18.736,18.736,0,0,0,2.31-.11c0.74,0.11,1.44-.14,2.35-0.1,0.84-.18,1.64.07,2.31-0.07a9.734,9.734,0,0,1,1.82-.11c0.73-.07,1.22-0.14,1.82-0.14a8.883,8.883,0,0,0,1.85-.14c0.67-.1,1.23,0,1.86-0.1a17.49,17.49,0,0,1,1.92,0c0.28,0.31.46,0.28,0.74,0.56a1.754,1.754,0,0,0,.77.77,1.124,1.124,0,0,0,1.08.63c0.32,0.14.49,0,.81-0.39a2.073,2.073,0,0,1,.87-0.8,1.21,1.21,0,0,0,.45-0.84c0-.53-0.42-0.63-0.66-1.16s-0.8-.31-1.01-0.87a5.909,5.909,0,0,1-1.26-1.02,3.693,3.693,0,0,1-1.44-1.01,0.921,0.921,0,0,1-.63-0.32,2.929,2.929,0,0,1-1.26-.8c0-.46.46-0.28,1.16-0.35a3.586,3.586,0,0,1,1.5.03c0.39-.03.88,0.11,1.54,0.04,0.63,0.1.88-.14,1.57-0.04,0.77-.07.95-0.35,0.95-1.15A2.463,2.463,0,0,1,1055.87,2246.95Zm-9.86,3.01a1.045,1.045,0,0,0-.35.66c-0.04.39,0.17,0.46,0.56,0.77,0.28,0.11.35,0.53-.21,0.53-0.32.35-.95,0.17-1.72,0.28a1.855,1.855,0,0,1-.87.03c-0.77-.07-1.65.14-2.21,0.04l-2.2.03a3.058,3.058,0,0,1-1.02.04c-0.31.07-.49-0.07-0.7,0a1.036,1.036,0,0,1-.87-0.28,1.218,1.218,0,0,1,.14-0.63,8.134,8.134,0,0,1,.63-0.95c0.38-.28.56-0.63,1.08-1.05a3.292,3.292,0,0,1,2.03-.24c0.81-.14,1.65.1,2.31,0a0.694,0.694,0,0,0,.6,0,7.776,7.776,0,0,0,2.41.03C1046.22,2249.19,1046.57,2249.5,1046.01,2249.96Zm3.88,21.73a2.09,2.09,0,0,1-.03-0.95c-0.14-.49.07-0.98-0.07-1.4-0.07-.42.1-1.05,0-1.43a6.713,6.713,0,0,1,0-2.24,6.158,6.158,0,0,1,0-2.27,16.19,16.19,0,0,1,0-2.31,6.593,6.593,0,0,1,.03-2.35,10.972,10.972,0,0,0,0-1.15,0.988,0.988,0,0,0-.94-1.05,7.7,7.7,0,0,1-1.54,0c-0.39-.07-1.16.07-1.54,0.03a3.248,3.248,0,0,0-1.51.04c-0.35.03-.91,0-1.5,0a11.254,11.254,0,0,1-1.54,0c-0.39-.07-1.12.03-1.54,0a3.594,3.594,0,0,0-1.54,0,7.807,7.807,0,0,1-1.54,0,5.4,5.4,0,0,1-1.51,0c-0.63.17-1.12-.18-1.54-0.04-0.63-.17-1.08.11-1.5-0.03a2.965,2.965,0,0,1-1.54,0,1.133,1.133,0,0,0-.95,1.05,2.758,2.758,0,0,0,0,1.29,15.6,15.6,0,0,1,.04,2.28,15.143,15.143,0,0,0,0,2.24c-0.14.98,0.07,1.57,0,2.59a10.579,10.579,0,0,1,0,2.58,6.142,6.142,0,0,0,0,1.44c0.1,0.31-.11.94-0.04,1.4a2.556,2.556,0,0,0,0,1.43c0.11,0.49-.1,1.12,0,1.47a1.139,1.139,0,0,0,1.19,1.23,1.778,1.778,0,0,0,.39.07c0.31,0,.63-0.07.91-0.07h0.07c0.87-.14,1.26-0.49,1.19-1.19a2.66,2.66,0,0,1,0-1.4c-0.04-.35.03-1.16,0-1.4a2.628,2.628,0,0,1,.17-1.72,1.925,1.925,0,0,1,1.26-.7,6.733,6.733,0,0,1,1.68,0,4.359,4.359,0,0,0,1.65,0,4.356,4.356,0,0,1,1.61,0,4.145,4.145,0,0,1,1.61,0c0.52,0,1.01.04,1.64,0a8.567,8.567,0,0,0,1.68,0,1.387,1.387,0,0,1,1.33.39,2.453,2.453,0,0,1,.14.98,1.073,1.073,0,0,1-.31.91,1.245,1.245,0,0,1-1.3.24c-0.52.11-.87-0.07-1.19,0.04a0.631,0.631,0,0,0-.84.66c-0.17.39,0.35,1.05,0.42,2.14a1.183,1.183,0,0,0,1.4.87c0.56-.14,1.54.18,2.24-0.1a6.4,6.4,0,0,0,2.14-.6,1.481,1.481,0,0,0,.98-1.08,3.715,3.715,0,0,0,.24-1.44A1.982,1.982,0,0,1,1049.89,2271.69Zm-16.55-10.74c0.1-.84.1-1.19,1.05-1.23a21.387,21.387,0,0,0,2.66,0,23.457,23.457,0,0,1,2.66,0,15.691,15.691,0,0,0,2.66,0c1.05-.14,1.71.14,2.66,0a0.876,0.876,0,0,1,1.05,1.09c0,0.45-.67.63-1.44,0.59a6.74,6.74,0,0,1-1.68,0c-0.42-.07-0.98.04-1.64,0a8.617,8.617,0,0,0-1.61,0,12.279,12.279,0,0,1-1.61,0,12.964,12.964,0,0,1-1.65,0c-0.38.04-1.08,0-1.68,0C1034.04,2261.44,1033.3,2261.37,1033.34,2260.95Zm12.6,4.9a1.415,1.415,0,0,1-1.3.31,6.741,6.741,0,0,1-1.68,0,12.768,12.768,0,0,1-1.64,0c-0.6.07-1.23-.1-1.61,0a14.381,14.381,0,0,0-1.61,0c-0.7-.14-1.05.18-1.65,0-0.42-.14-1.05.18-1.68,0-0.77,0-1.22,0-1.43-.38a5.383,5.383,0,0,1,0-.81c0-.35.66-0.59,1.43-0.56a6.746,6.746,0,0,1,1.68,0c0.42-.07,1.05.11,1.65,0a4.832,4.832,0,0,0,1.61,0,7.867,7.867,0,0,0,1.61,0,4.909,4.909,0,0,0,1.64,0,8.377,8.377,0,0,0,1.68,0c0.6,0.11,1.33.07,1.44,0.39A1.313,1.313,0,0,1,1045.94,2265.85Zm6.12,17.46a5.605,5.605,0,0,0-.59-0.84,6.151,6.151,0,0,1-.63-0.8,1.234,1.234,0,0,0-1.02-.6,1.7,1.7,0,0,0-.63.18c-1.05.28-1.43,0.38-2.06,0.49-0.7.14-1.33,0.17-1.82,0.24-0.63.07-1.12,0.07-1.86,0.21a9.371,9.371,0,0,1-1.85.14,6.6,6.6,0,0,1-1.86.14,9.371,9.371,0,0,1-1.85.14,5.741,5.741,0,0,1-1.79.14l-1.85.11c-0.46,0-1.37.14-1.82,0.1a3.371,3.371,0,0,1-1.44.07,8,8,0,0,1-1.43.07c-0.63-.1-0.84.18-1.5,0.04a6.176,6.176,0,0,0-1.44.03c-0.94,0-1.5.18-1.5,1.09v0.14a12.517,12.517,0,0,0,.21,2.13,0.925,0.925,0,0,0,1.05.91c0.7-.07,1.15-0.21,1.68-0.21,0.66-.1,1.22-0.21,1.95-0.35,0.53-.03,1.02-0.14,1.61-0.17a11.972,11.972,0,0,1,1.82-.21c0.53-.07,1.12-0.07,1.79-0.21a6.951,6.951,0,0,0,1.26-.18l1.29-.14a3.865,3.865,0,0,1,1.47-.17c0.6-.07.7-0.11,1.12-0.14a6.713,6.713,0,0,1,1.05-.07,0.361,0.361,0,0,1,.39.35,1.314,1.314,0,0,1-.81.91,4.771,4.771,0,0,1-.66.59,9.334,9.334,0,0,0-1.44,1.33,7.924,7.924,0,0,1-1.29,1.47c-0.28.63-.77,1.05-1.05,1.58a7.867,7.867,0,0,0-.81,1.78,17.088,17.088,0,0,0-.52,1.93,6.92,6.92,0,0,0-.18,2.13,5.89,5.89,0,0,0,.14,1.72c0.11,0.7.25,0.94,0.35,1.61a11.089,11.089,0,0,0,.6,1.5,8.011,8.011,0,0,0,.8,1.4c0.32,0.28.67,0.87,1.05,1.22,0.32,0.28.63,0.6,1.23,1.09,0.52,0.35,1.05.49,1.47,0.8a4.89,4.89,0,0,0,1.47.67c0.28,0.17.84,0.24,1.54,0.52a10.288,10.288,0,0,0,1.82.49,6.073,6.073,0,0,0,1.89.39,4.919,4.919,0,0,0,1.57.24c0.07,0,.14.04,0.21,0.04a0.949,0.949,0,0,0,.88-0.81,3.977,3.977,0,0,1,.31-1.12,4.529,4.529,0,0,0,.39-1.43,1.217,1.217,0,0,0-1.33-.7,9.131,9.131,0,0,0-1.47-.18,8.555,8.555,0,0,1-.84-0.21,5.114,5.114,0,0,1-1.26-.21c-0.46-.03-0.81-0.35-1.26-0.42a3.581,3.581,0,0,1-1.37-.49,6.7,6.7,0,0,1-.98-0.52c-0.38-.28-0.59-0.42-0.91-0.67a2.759,2.759,0,0,1-.77-0.76,4.1,4.1,0,0,1-.59-0.88c-0.11-.24-0.25-0.59-0.46-1.01,0-.35-0.24-0.63-0.28-1.16a4.8,4.8,0,0,1-.07-1.33,7.41,7.41,0,0,1,.11-1.61,4.236,4.236,0,0,1,.38-1.47c0.21-.31.25-0.87,0.6-1.4,0.21-.49.59-0.91,0.77-1.26a4.681,4.681,0,0,1,.94-1.19c0.25-.21.67-0.7,1.09-1.08a12.71,12.71,0,0,1,1.19-1.02,7.964,7.964,0,0,1,1.29-.94,4.31,4.31,0,0,1,1.19-.81,9.39,9.39,0,0,1,1.47-.94c0.53-.21,1.12-0.7,1.58-0.84a8.541,8.541,0,0,1,1.05-.39,5.639,5.639,0,0,1,.84-0.14,0.544,0.544,0,0,0,.66-0.42,0.62,0.62,0,0,0,.04-0.14A0.8,0.8,0,0,0,1052.06,2283.31Zm0.6,49.21a3.615,3.615,0,0,0-.46-1.61c-0.42-.63-0.28-1.12-0.73-1.5a7.982,7.982,0,0,0-1.16-1.3c-0.28-.17-0.42-0.42-0.8-0.63a5.831,5.831,0,0,1-.88-0.56c-0.45-.31-1.4-0.52-1.89-0.84-0.84-.14-1.26-0.45-2.03-0.52a13.449,13.449,0,0,0-2.06-.18c-0.63.04-1.16,0.07-1.51,0.11-0.63.1-.87,0.14-1.36,0.24-0.53.07-.95-0.42-0.32-1.08a4.938,4.938,0,0,1,.81-0.67,1.715,1.715,0,0,1,.52-0.52c0.46-.25.39-0.53,0.74-0.67a4.075,4.075,0,0,1,.77-0.7,3.88,3.88,0,0,0,.73-0.7,3.311,3.311,0,0,1,.77-0.66c0.32-.35.95-0.84,1.33-1.23,0.32-.42.98-0.66,1.47-1.15,0.32-.32.95-0.21,1.19-0.81a0.753,0.753,0,0,0-.28-0.84c-0.38-.24-0.49-0.63-0.84-0.87a4.272,4.272,0,0,1-.87-0.88,1,1,0,0,0-1.02-.52h-0.1c-0.35,0-.46.14-1.3,0.21a17.5,17.5,0,0,0-2.2.21c-0.81.1-1.44,0.17-2.24,0.21-0.84.03-1.58,0.24-2.45,0.24a10.8,10.8,0,0,0-1.96.18c-0.53.17-1.09-.14-1.68,0.03a7.544,7.544,0,0,1-2.1.07,0.952,0.952,0,0,0-1.09,1.19c0.18,0.53,0,1.16.21,1.68a0.967,0.967,0,0,0,.95,1.02,5.323,5.323,0,0,0,1.36-.18,5.984,5.984,0,0,0,1.33-.17c0.39-.18.88,0,1.3-0.21,0.45-.25,1.01.03,1.43-0.18a7.947,7.947,0,0,1,1.44-.21,9.088,9.088,0,0,1,1.47-.21c0.56-.1,1.47-0.45,1.71.21a0.927,0.927,0,0,1-.45.84c-0.32.56-.49,0.32-0.77,0.81a2.344,2.344,0,0,0-.63.63,2.049,2.049,0,0,1-.77.63,5.493,5.493,0,0,1-.7.73,4.479,4.479,0,0,0-.77.7,9.222,9.222,0,0,0-.88.7,3.094,3.094,0,0,1-.8.7,7.1,7.1,0,0,1-.56.56c-0.42.21-.46,0.46-0.84,0.67a8.545,8.545,0,0,1-.98.84c-0.39.14-.25,0.52-0.77,0.63-0.39.07-.32,0.45-0.84,0.63-0.46.14-.56,0.56-0.95,0.63a3.191,3.191,0,0,1-.87.59,10.685,10.685,0,0,1-.91.63,0.87,0.87,0,0,0-.49.74v0.14a1.171,1.171,0,0,0,.25.66c0.35,0.56.55,0.77,0.87,1.3a1,1,0,0,0,1.26.52,2.246,2.246,0,0,0,.59-0.35c0.28-.31.46-0.24,0.98-0.7a6.591,6.591,0,0,1,1.44-.77,2.687,2.687,0,0,1,1.01-.52,1.547,1.547,0,0,1,.98-0.42c0.39,0,.35-0.46,1.09-0.42a11.443,11.443,0,0,0,1.54-.42c0.7-.14.91-0.18,1.78-0.39a15.35,15.35,0,0,1,2.24-.17c0.35,0.07.77,0.03,1.3,0.07,0.52,0,.77.21,1.26,0.24a6.093,6.093,0,0,1,2.13.98c0.21,0.35.46,0.21,0.84,0.74a2.713,2.713,0,0,1,.7,1.01,3.422,3.422,0,0,1,.39,1.02c-0.04.56,0.14,0.73,0.14,1.36a3.836,3.836,0,0,1-.21,1.54,9.386,9.386,0,0,1-.56,1.4c-0.46.52-.49,0.73-0.88,1.22a7.65,7.65,0,0,1-.91.95,7.119,7.119,0,0,1-1.12.73c-0.49.32-1.82,0.56-1.89-.49a4.911,4.911,0,0,0-.52-2.27,3.77,3.77,0,0,0-.56-0.88c-0.35-.17-0.35-0.52-0.74-0.73a3.413,3.413,0,0,0-.87-0.56c-0.39-.07-0.7-0.35-0.98-0.39a20.83,20.83,0,0,0-2.07-.24,7.747,7.747,0,0,0-2.31.28,3.8,3.8,0,0,0-1.78.94,5.64,5.64,0,0,0-1.26,1.54,4.88,4.88,0,0,0-.46,2.1,7.023,7.023,0,0,1,.18,1.47,6.619,6.619,0,0,0,.52,1.19,2.245,2.245,0,0,0,.77.95,2.608,2.608,0,0,0,1.02.7,3.2,3.2,0,0,0,1.19.49,2.4,2.4,0,0,0,1.26.31,6.33,6.33,0,0,0,1.33.18c0.28,0.03.91,0,1.29,0.07a17.126,17.126,0,0,0,2.42-.14,6.03,6.03,0,0,1,1.19-.18,2.667,2.667,0,0,0,1.19-.28,8.743,8.743,0,0,0,1.19-.31,4.055,4.055,0,0,0,1.12-.42,9.85,9.85,0,0,1,1.08-.49,2.968,2.968,0,0,0,1.02-.6c0.38-.35.52-0.28,0.94-0.66a5.429,5.429,0,0,0,.88-0.77,2.692,2.692,0,0,0,.73-0.84,8.734,8.734,0,0,0,.67-0.95,4.639,4.639,0,0,1,.52-1.01c0.18-.49.25-0.67,0.39-1.16a4.339,4.339,0,0,1,.24-1.19c0-.24.11-0.66,0.11-1.15v-0.17a4.179,4.179,0,0,1-.04-0.67v-0.49A3.95,3.95,0,0,0,1052.66,2332.52Zm-14.6,8.78a5.472,5.472,0,0,1-1.78-.31,2.015,2.015,0,0,1-1.05-.6,1.593,1.593,0,0,1-.46-1.26,1.641,1.641,0,0,1,.14-0.77,2.081,2.081,0,0,1,.6-0.63,2.682,2.682,0,0,1,.7-0.35,7.132,7.132,0,0,1,.87-0.07,4.814,4.814,0,0,1,1.05.14,2.354,2.354,0,0,1,.81.6,1.877,1.877,0,0,1,.49.8,1.818,1.818,0,0,1,.17,1.05,1.526,1.526,0,0,1-.28.98A1.671,1.671,0,0,1,1038.06,2341.3Zm16.9,10.4a1.88,1.88,0,0,0-.66-0.84c-0.28-.21-0.49-0.45-0.8-0.66-0.21-.18-0.74-0.32-0.91-0.49a4.7,4.7,0,0,0-2.03-.39h-0.46a8.225,8.225,0,0,0-1.71.39,2.78,2.78,0,0,0-.95.49,3.567,3.567,0,0,0-.8.66c-0.42.28-.28,0.49-0.77,0.91a3.593,3.593,0,0,0-.49.95,4.3,4.3,0,0,0-.35,1.99,4.715,4.715,0,0,0,.31,1.82,2.463,2.463,0,0,0,.63,1.23c0.46,0.35.39,0.56,0.74,0.8,0.49,0.35.31,0.42,0.73,0.67a3.7,3.7,0,0,0,1.26.52,9.3,9.3,0,0,0,1.79.32,7.4,7.4,0,0,0,2.06-.39,2.1,2.1,0,0,0,.95-0.45,5.4,5.4,0,0,1,.8-0.67,8.271,8.271,0,0,0,.66-0.84,9.831,9.831,0,0,1,.53-0.91,4.365,4.365,0,0,0,.42-2.1v-0.31a5.592,5.592,0,0,0-.42-1.79A9.019,9.019,0,0,0,1054.96,2351.7Zm-1.78,3.05a1.948,1.948,0,0,1-.1.77,2.563,2.563,0,0,1-.7,1.12,2.218,2.218,0,0,1-1.93.77,1.925,1.925,0,0,1-1.89-.77,2.448,2.448,0,0,1-.8-1.89,2.9,2.9,0,0,1,.77-2,2.149,2.149,0,0,1,1.78-.84,1.975,1.975,0,0,1,1.19.25,1.221,1.221,0,0,1,.88.59,2.23,2.23,0,0,1,.56.81A3.3,3.3,0,0,1,1053.18,2354.75Z" transform="translate(-1019 -2231.06)"/>
</svg>
