<svg xmlns="http://www.w3.org/2000/svg" width="14.41" height="39" viewBox="0 0 14.41 39">
  <defs>
    <style>
      .cls-1 {
        fill: #5f9d7b;
        fill-rule: evenodd;
      }
    </style>
  </defs>
  <path id="TOP" class="cls-1" d="M1159.33,163.694a0.393,0.393,0,0,0-.38.38v1.861a0.393,0.393,0,0,0,.38.38h11.23v3.061a0.381,0.381,0,0,0,.38.381h1.64a0.381,0.381,0,0,0,.38-0.381v-8.744a0.38,0.38,0,0,0-.38-0.38h-1.64a0.38,0.38,0,0,0-.38.38v3.062h-11.23Zm6.61,8a7.194,7.194,0,1,0,7.22,7.184A7.14,7.14,0,0,0,1165.94,171.692Zm0,2.6a4.592,4.592,0,1,1-4.59,4.582A4.628,4.628,0,0,1,1165.94,174.294Zm-6.61,15.4a0.38,0.38,0,0,0-.38.38v1.841a0.393,0.393,0,0,0,.38.38h4.7v2.5a4.465,4.465,0,1,0,8.93-.02v-4.7a0.38,0.38,0,0,0-.38-0.38h-13.25Zm7.15,2.6h4.02v2.321a2,2,0,0,1-1.94,2.061,2.062,2.062,0,0,1-2.08-2.061v-2.321Z" transform="translate(-1158.75 -160.25)"/>
</svg>
