<svg xmlns="http://www.w3.org/2000/svg" width="72" height="12" viewBox="0 0 72 12">
  <defs>
    <style>
      .cls-1 {
        fill: #5f9d7b;
        fill-rule: evenodd;
      }
    </style>
  </defs>
  <path id="TRAINING" class="cls-1" d="M753.007,8608.72a0.311,0.311,0,0,0,.3.3H754.8a0.311,0.311,0,0,0,.3-0.3v-8.98h2.449a0.3,0.3,0,0,0,.3-0.3v-1.32a0.3,0.3,0,0,0-.3-0.3h-7a0.3,0.3,0,0,0-.3.3v1.32a0.3,0.3,0,0,0,.3.3h2.449v8.98Zm6.191,0a0.3,0.3,0,0,0,.3.3h1.473a0.311,0.311,0,0,0,.3-0.3v-4.08h1.777l2.129,4.24a0.279,0.279,0,0,0,.256.14h1.68a0.3,0.3,0,0,0,.272-0.46l-2.192-4.07a3.53,3.53,0,0,0,2.368-3.23,3.468,3.468,0,0,0-3.489-3.44H759.5a0.3,0.3,0,0,0-.3.3v10.6Zm2.1-5.8v-3.18H763.9a1.59,1.59,0,0,1,1.585,1.55,1.626,1.626,0,0,1-1.585,1.63H761.3Zm7.054,6.1h1.393a0.482,0.482,0,0,0,.464-0.32l0.784-1.73h4.786l0.785,1.73a0.453,0.453,0,0,0,.464.32h1.392a0.278,0.278,0,0,0,.273-0.41l-4.93-10.78a0.276,0.276,0,0,0-.273-0.17h-0.16a0.292,0.292,0,0,0-.272.17l-4.978,10.78A0.278,0.278,0,0,0,768.349,8609.02Zm3.426-3.82,1.568-3.52h0.048l1.6,3.52h-3.217Zm8.047,3.52a0.311,0.311,0,0,0,.3.3h1.489a0.311,0.311,0,0,0,.3-0.3v-10.6a0.311,0.311,0,0,0-.3-0.3h-1.489a0.311,0.311,0,0,0-.3.3v10.6Zm4.688,0a0.311,0.311,0,0,0,.3.3h1.456a0.3,0.3,0,0,0,.3-0.3v-6.88h0.016l6.691,7.34h0.384a0.294,0.294,0,0,0,.3-0.28v-10.78a0.311,0.311,0,0,0-.3-0.3h-1.472a0.3,0.3,0,0,0-.3.3v6.61h-0.016l-6.659-7.07h-0.4a0.3,0.3,0,0,0-.3.29v10.77Zm12.048,0a0.311,0.311,0,0,0,.3.3h1.488a0.311,0.311,0,0,0,.3-0.3v-10.6a0.311,0.311,0,0,0-.3-0.3h-1.488a0.311,0.311,0,0,0-.3.3v10.6Zm4.687,0a0.311,0.311,0,0,0,.3.3h1.457a0.3,0.3,0,0,0,.3-0.3v-6.88h0.016l6.691,7.34H810.4a0.294,0.294,0,0,0,.3-0.28v-10.78a0.311,0.311,0,0,0-.3-0.3h-1.473a0.3,0.3,0,0,0-.3.3v6.61h-0.016l-6.658-7.07h-0.4a0.3,0.3,0,0,0-.3.29v10.77Zm11.248-5.28a5.708,5.708,0,0,0,5.746,5.73,8.092,8.092,0,0,0,3.97-1.04,0.316,0.316,0,0,0,.128-0.26v-4.1a0.3,0.3,0,0,0-.288-0.3h-3.073a0.3,0.3,0,0,0-.3.3v1.27a0.293,0.293,0,0,0,.3.29h1.28v1.36a5.168,5.168,0,0,1-1.9.4,3.69,3.69,0,1,1,2.4-6.45,0.285,0.285,0,0,0,.416,0l0.993-1.04a0.312,0.312,0,0,0-.016-0.45,6.045,6.045,0,0,0-3.906-1.49A5.751,5.751,0,0,0,812.493,8603.44Z" transform="translate(-750.25 -8597.66)"/>
</svg>
