<svg xmlns="http://www.w3.org/2000/svg" width="63.625" height="10.875" viewBox="0 0 63.625 10.875">
  <defs>
    <style>
      .cls-1 {
        fill: #333;
        fill-rule: evenodd;
      }
    </style>
  </defs>
  <path id="TWITTER" class="cls-1" d="M328.562,607.814a0.3,0.3,0,0,0,.287.287h1.406a0.3,0.3,0,0,0,.287-0.287v-8.48h2.313a0.287,0.287,0,0,0,.287-0.287v-1.239a0.287,0.287,0,0,0-.287-0.288h-6.606a0.287,0.287,0,0,0-.287.288v1.239a0.287,0.287,0,0,0,.287.287h2.313v8.48Zm8.816,0.227a0.291,0.291,0,0,0,.272.211h0.242a0.256,0.256,0,0,0,.257-0.166l2.675-6.847H340.9l2.706,6.847a0.256,0.256,0,0,0,.257.166H344.1a0.293,0.293,0,0,0,.273-0.211l2.856-10.158a0.263,0.263,0,0,0-.272-0.363h-1.39a0.31,0.31,0,0,0-.272.212l-1.542,6.031H343.7l-2.418-6.228a0.244,0.244,0,0,0-.257-0.166h-0.272a0.244,0.244,0,0,0-.257.166l-2.4,6.228h-0.061l-1.572-6.031a0.31,0.31,0,0,0-.272-0.212h-1.39a0.264,0.264,0,0,0-.273.363Zm12.361-.227a0.3,0.3,0,0,0,.287.287h1.406a0.3,0.3,0,0,0,.287-0.287V597.808a0.3,0.3,0,0,0-.287-0.288h-1.406a0.3,0.3,0,0,0-.287.288v10.006Zm6.9,0a0.3,0.3,0,0,0,.288.287h1.4a0.3,0.3,0,0,0,.288-0.287v-8.48h2.312a0.287,0.287,0,0,0,.287-0.287v-1.239a0.287,0.287,0,0,0-.287-0.288h-6.605a0.287,0.287,0,0,0-.287.288v1.239a0.287,0.287,0,0,0,.287.287h2.312v8.48Zm8.514,0a0.3,0.3,0,0,0,.287.287h1.406a0.3,0.3,0,0,0,.287-0.287v-8.48h2.313a0.287,0.287,0,0,0,.287-0.287v-1.239a0.287,0.287,0,0,0-.287-0.288H362.84a0.287,0.287,0,0,0-.287.288v1.239a0.287,0.287,0,0,0,.287.287h2.313v8.48Zm6.9,0a0.287,0.287,0,0,0,.287.287h6.152a0.287,0.287,0,0,0,.287-0.287v-1.24a0.287,0.287,0,0,0-.287-0.287h-4.474v-2.645h3.733a0.287,0.287,0,0,0,.287-0.287V602.1a0.3,0.3,0,0,0-.287-0.287h-3.733v-2.479h4.474a0.287,0.287,0,0,0,.287-0.287v-1.239a0.287,0.287,0,0,0-.287-0.288h-6.152a0.287,0.287,0,0,0-.287.288v10.006Zm9.631,0a0.287,0.287,0,0,0,.287.287h1.391a0.3,0.3,0,0,0,.287-0.287v-3.855h1.678l2.01,4.006a0.26,0.26,0,0,0,.242.136h1.587a0.286,0.286,0,0,0,.257-0.438l-2.071-3.84a3.335,3.335,0,0,0,2.237-3.053,3.274,3.274,0,0,0-3.3-3.25h-4.323a0.287,0.287,0,0,0-.287.288v10.006Zm1.98-5.472v-3.008h2.464a1.5,1.5,0,0,1,1.5,1.466,1.539,1.539,0,0,1-1.5,1.542h-2.464Z" transform="translate(-325.969 -597.375)"/>
</svg>
