<svg xmlns="http://www.w3.org/2000/svg" width="50.156" height="31.5" viewBox="0 0 50.156 31.5">
  <defs>
    <style>
      .cls-1 {
        fill: #5f9d7b;
        fill-rule: evenodd;
      }
    </style>
  </defs>
  <path id="VIEW_INDEX" data-name="VIEW INDEX" class="cls-1" d="M141.833,5003.24a0.285,0.285,0,0,0,.272.18h0.16a0.285,0.285,0,0,0,.272-0.18l4.962-10.77a0.285,0.285,0,0,0-.272-0.42H145.6a0.3,0.3,0,0,0-.272.18l-3.074,6.88h-0.112l-3.073-6.88a0.3,0.3,0,0,0-.272-0.18h-1.633a0.285,0.285,0,0,0-.272.42Zm10.607-.29a0.32,0.32,0,0,0,.3.31h1.488a0.321,0.321,0,0,0,.305-0.31v-10.59a0.321,0.321,0,0,0-.305-0.31h-1.488a0.32,0.32,0,0,0-.3.31v10.59Zm7.6,0a0.309,0.309,0,0,0,.3.31h6.514a0.309,0.309,0,0,0,.305-0.31v-1.31a0.3,0.3,0,0,0-.305-0.3h-4.737v-2.81h3.953a0.3,0.3,0,0,0,.3-0.3v-1.33a0.311,0.311,0,0,0-.3-0.3h-3.953v-2.63h4.737a0.3,0.3,0,0,0,.305-0.3v-1.31a0.309,0.309,0,0,0-.305-0.31h-6.514a0.309,0.309,0,0,0-.3.31v10.59Zm14.432,0.24a0.313,0.313,0,0,0,.289.23h0.256a0.27,0.27,0,0,0,.272-0.18l2.833-7.25h0.08l2.865,7.25a0.27,0.27,0,0,0,.272.18H181.6a0.311,0.311,0,0,0,.288-0.23l3.026-10.75a0.282,0.282,0,0,0-.288-0.39h-1.473a0.323,0.323,0,0,0-.288.23l-1.633,6.38h-0.064l-2.561-6.59a0.257,0.257,0,0,0-.272-0.18h-0.288a0.257,0.257,0,0,0-.272.18l-2.545,6.59h-0.064l-1.665-6.38a0.323,0.323,0,0,0-.288-0.23h-1.473a0.282,0.282,0,0,0-.288.39Zm-38.237,19.76a0.32,0.32,0,0,0,.3.31h1.489a0.32,0.32,0,0,0,.3-0.31v-10.59a0.32,0.32,0,0,0-.3-0.31h-1.489a0.32,0.32,0,0,0-.3.31v10.59Zm5.781,0a0.32,0.32,0,0,0,.3.31h1.457a0.309,0.309,0,0,0,.3-0.31v-6.88H144.1l6.69,7.35h0.385a0.3,0.3,0,0,0,.3-0.29v-10.77a0.32,0.32,0,0,0-.3-0.31H149.7a0.309,0.309,0,0,0-.3.31v6.61h-0.016l-6.659-7.08h-0.4a0.3,0.3,0,0,0-.3.29v10.77Zm13.165,0a0.306,0.306,0,0,0,.288.31h3.793a5.605,5.605,0,1,0,0-11.21h-3.793a0.306,0.306,0,0,0-.288.31v10.59Zm2.064-1.65v-7.31h1.825a3.655,3.655,0,0,1,0,7.31h-1.825Zm10.587,1.65a0.309,0.309,0,0,0,.3.31h6.515a0.309,0.309,0,0,0,.3-0.31v-1.31a0.3,0.3,0,0,0-.3-0.3h-4.738v-2.81h3.953a0.3,0.3,0,0,0,.3-0.3v-1.33a0.311,0.311,0,0,0-.3-0.3h-3.953v-2.63h4.738a0.3,0.3,0,0,0,.3-0.3v-1.31a0.309,0.309,0,0,0-.3-0.31h-6.515a0.309,0.309,0,0,0-.3.31v10.59Zm9.372-.14a0.292,0.292,0,0,0,.288.45h1.729a0.338,0.338,0,0,0,.272-0.15l2.257-3.66H181.8l2.289,3.66a0.315,0.315,0,0,0,.272.15h1.729a0.288,0.288,0,0,0,.272-0.45l-3.329-5.3,3.217-5.01a0.289,0.289,0,0,0-.272-0.45h-1.857a0.287,0.287,0,0,0-.256.15l-2.081,3.39h-0.016l-2.049-3.39a0.308,0.308,0,0,0-.256-0.15H177.6a0.289,0.289,0,0,0-.272.45l3.2,5.01Z" transform="translate(-136.25 -4991.91)"/>
</svg>
