<svg xmlns="http://www.w3.org/2000/svg" width="92.656" height="11.5" viewBox="0 0 92.656 11.5">
  <defs>
    <style>
      .cls-1 {
        fill: #333;
        fill-rule: evenodd;
      }
    </style>
  </defs>
  <path id="VIEW_INDEX_" data-name="VIEW INDEX  " class="cls-1" d="M464.931,1912.23a0.284,0.284,0,0,0,.271.18h0.159a0.285,0.285,0,0,0,.272-0.18l4.946-10.74a0.278,0.278,0,0,0-.271-0.41H468.68a0.29,0.29,0,0,0-.271.17l-3.063,6.86h-0.112l-3.064-6.86a0.29,0.29,0,0,0-.271-0.17h-1.628a0.278,0.278,0,0,0-.271.41Zm7.289-.29a0.32,0.32,0,0,0,.3.31h1.484a0.319,0.319,0,0,0,.3-0.31v-10.56a0.31,0.31,0,0,0-.3-0.3h-1.484a0.311,0.311,0,0,0-.3.3v10.56Zm5.168,0a0.308,0.308,0,0,0,.3.31h6.494a0.308,0.308,0,0,0,.3-0.31v-1.3a0.308,0.308,0,0,0-.3-0.31h-4.723v-2.79H483.4a0.3,0.3,0,0,0,.3-0.3v-1.33a0.311,0.311,0,0,0-.3-0.3h-3.941v-2.62h4.723a0.3,0.3,0,0,0,.3-0.3v-1.31a0.3,0.3,0,0,0-.3-0.3h-6.494a0.3,0.3,0,0,0-.3.3v10.56Zm11.594,0.24a0.31,0.31,0,0,0,.287.23h0.256a0.27,0.27,0,0,0,.271-0.18l2.824-7.23h0.08l2.856,7.23a0.27,0.27,0,0,0,.271.18h0.256a0.31,0.31,0,0,0,.287-0.23l3.016-10.72a0.277,0.277,0,0,0-.287-0.38h-1.468a0.328,0.328,0,0,0-.288.22l-1.627,6.37h-0.064l-2.553-6.58a0.261,0.261,0,0,0-.271-0.17H492.54a0.261,0.261,0,0,0-.271.17l-2.537,6.58h-0.064l-1.659-6.37a0.328,0.328,0,0,0-.288-0.22h-1.468a0.277,0.277,0,0,0-.287.38Zm16.213-.24a0.32,0.32,0,0,0,.3.31h1.484a0.319,0.319,0,0,0,.3-0.31v-10.56a0.31,0.31,0,0,0-.3-0.3H505.5a0.311,0.311,0,0,0-.3.3v10.56Zm5.168,0a0.319,0.319,0,0,0,.3.31h1.452a0.309,0.309,0,0,0,.3-0.31v-6.86h0.016l6.67,7.33h0.383a0.3,0.3,0,0,0,.3-0.29v-10.74a0.311,0.311,0,0,0-.3-0.3h-1.468a0.3,0.3,0,0,0-.3.3v6.59H517.7l-6.638-7.05h-0.4a0.3,0.3,0,0,0-.3.28v10.74Zm12.527,0a0.306,0.306,0,0,0,.288.31h3.781a5.585,5.585,0,1,0,0-11.17h-3.781a0.3,0.3,0,0,0-.288.3v10.56Zm2.059-1.64v-7.29h1.819a3.645,3.645,0,0,1,0,7.29h-1.819Zm9.909,1.64a0.309,0.309,0,0,0,.3.31h6.5a0.309,0.309,0,0,0,.3-0.31v-1.3a0.309,0.309,0,0,0-.3-0.31h-4.723v-2.79h3.941a0.3,0.3,0,0,0,.3-0.3v-1.33a0.311,0.311,0,0,0-.3-0.3h-3.941v-2.62h4.723a0.3,0.3,0,0,0,.3-0.3v-1.31a0.3,0.3,0,0,0-.3-0.3h-6.5a0.3,0.3,0,0,0-.3.3v10.56Zm8.6-.14a0.292,0.292,0,0,0,.287.45h1.723a0.335,0.335,0,0,0,.271-0.15l2.25-3.65h0.048l2.282,3.65a0.315,0.315,0,0,0,.271.15h1.724a0.287,0.287,0,0,0,.271-0.45l-3.319-5.28,3.207-5a0.283,0.283,0,0,0-.271-0.44h-1.851a0.3,0.3,0,0,0-.255.14l-2.075,3.38H548l-2.042-3.38a0.325,0.325,0,0,0-.255-0.14h-1.851a0.284,0.284,0,0,0-.272.44l3.192,5Z" transform="translate(-459.969 -1900.91)"/>
</svg>
