<svg xmlns="http://www.w3.org/2000/svg" width="47.68" height="31.5" viewBox="0 0 47.68 31.5">
  <defs>
    <style>
      .cls-1 {
        fill: #5f9d7b;
        fill-rule: evenodd;
      }
    </style>
  </defs>
  <path id="VIEW_MORE" data-name="VIEW  MORE" class="cls-1" d="M1199.1,2283.9a0.3,0.3,0,0,0,.28.17h0.16a0.3,0.3,0,0,0,.27-0.17l4.96-10.78a0.278,0.278,0,0,0-.27-0.41h-1.63a0.305,0.305,0,0,0-.28.17l-3.07,6.89h-0.11l-3.07-6.89a0.305,0.305,0,0,0-.28-0.17h-1.63a0.278,0.278,0,0,0-.27.41Zm9.33-.29a0.317,0.317,0,0,0,.31.3h1.48a0.317,0.317,0,0,0,.31-0.3v-10.6a0.317,0.317,0,0,0-.31-0.3h-1.48a0.317,0.317,0,0,0-.31.3v10.6Zm6.96,0a0.3,0.3,0,0,0,.31.3h6.51a0.3,0.3,0,0,0,.3-0.3v-1.31a0.3,0.3,0,0,0-.3-0.31h-4.74v-2.8h3.96a0.3,0.3,0,0,0,.3-0.3v-1.33a0.317,0.317,0,0,0-.3-0.31h-3.96v-2.62h4.74a0.3,0.3,0,0,0,.3-0.31v-1.31a0.3,0.3,0,0,0-.3-0.3h-6.51a0.3,0.3,0,0,0-.31.3v10.6Zm13.15,0.24a0.309,0.309,0,0,0,.29.22h0.26a0.275,0.275,0,0,0,.27-0.17l2.83-7.25h0.08l2.87,7.25a0.275,0.275,0,0,0,.27.17h0.26a0.309,0.309,0,0,0,.29-0.22l3.02-10.76a0.277,0.277,0,0,0-.29-0.38h-1.47a0.326,0.326,0,0,0-.29.22l-1.63,6.39h-0.07l-2.56-6.6a0.257,0.257,0,0,0-.27-0.17h-0.29a0.257,0.257,0,0,0-.27.17l-2.54,6.6h-0.07l-1.66-6.39a0.326,0.326,0,0,0-.29-0.22h-1.47a0.275,0.275,0,0,0-.29.38Zm-35.63,19.69a0.3,0.3,0,0,0,.31.37h1.44a0.323,0.323,0,0,0,.29-0.24l0.92-6.06h0.05l2.84,6.29a0.275,0.275,0,0,0,.27.17h0.29a0.275,0.275,0,0,0,.27-0.17l2.8-6.29h0.05l0.94,6.06a0.349,0.349,0,0,0,.31.24h1.45a0.277,0.277,0,0,0,.29-0.37l-1.89-10.75a0.264,0.264,0,0,0-.29-0.24H1203a0.256,0.256,0,0,0-.27.16l-3.53,7.55h-0.04l-3.53-7.55a0.273,0.273,0,0,0-.27-0.16h-0.25a0.264,0.264,0,0,0-.29.24Zm14.62-5.21a5.755,5.755,0,1,0,5.75-5.78A5.711,5.711,0,0,0,1207.53,2298.33Zm2.08,0a3.675,3.675,0,1,1,3.67,3.66A3.7,3.7,0,0,1,1209.61,2298.33Zm12.38,5.28a0.3,0.3,0,0,0,.31.3h1.47a0.308,0.308,0,0,0,.3-0.3v-4.08h1.78l2.13,4.24a0.277,0.277,0,0,0,.26.14h1.68a0.3,0.3,0,0,0,.27-0.46l-2.19-4.07a3.525,3.525,0,0,0,2.36-3.23,3.455,3.455,0,0,0-3.48-3.44h-4.58a0.3,0.3,0,0,0-.31.3v10.6Zm2.1-5.8v-3.18h2.61a1.584,1.584,0,0,1,1.58,1.55,1.621,1.621,0,0,1-1.58,1.63h-2.61Zm9.38,5.8a0.3,0.3,0,0,0,.3.3h6.52a0.3,0.3,0,0,0,.3-0.3v-1.31a0.31,0.31,0,0,0-.3-0.31h-4.74v-2.8h3.95a0.31,0.31,0,0,0,.31-0.3v-1.33a0.326,0.326,0,0,0-.31-0.31h-3.95v-2.62h4.74a0.31,0.31,0,0,0,.3-0.31v-1.31a0.3,0.3,0,0,0-.3-0.3h-6.52a0.3,0.3,0,0,0-.3.3v10.6Z" transform="translate(-1192.91 -2272.56)"/>
</svg>
